G04 #@! TF.FileFunction,Copper,L2,Bot,Signal*
%FSLAX46Y46*%
G04 Gerber Fmt 4.6, Leading zero omitted, Abs format (unit mm)*
G04 Created by KiCad (PCBNEW (2015-07-16 BZR 5955, Git 27eafcb)-product) date 2015-10-11 14:13:05*
%MOMM*%
G01*
G04 APERTURE LIST*
%ADD10C,0.100000*%
%ADD11R,1.143000X0.508000*%
%ADD12R,0.508000X1.143000*%
%ADD13C,1.600000*%
%ADD14C,4.000000*%
%ADD15C,4.064000*%
%ADD16C,0.600000*%
%ADD17C,0.250000*%
%ADD18C,0.254000*%
G04 APERTURE END LIST*
D10*
D11*
X68025000Y-72295000D03*
X68025000Y-73565000D03*
X68025000Y-74835000D03*
X68025000Y-76105000D03*
X74375000Y-76105000D03*
X74375000Y-74835000D03*
X74375000Y-73565000D03*
X74375000Y-72295000D03*
D12*
X92595000Y-55775000D03*
X93865000Y-55775000D03*
X95135000Y-55775000D03*
X96405000Y-55775000D03*
X96405000Y-49425000D03*
X95135000Y-49425000D03*
X93865000Y-49425000D03*
X92595000Y-49425000D03*
X110895000Y-58475000D03*
X112165000Y-58475000D03*
X113435000Y-58475000D03*
X114705000Y-58475000D03*
X114705000Y-52125000D03*
X113435000Y-52125000D03*
X112165000Y-52125000D03*
X110895000Y-52125000D03*
X139295000Y-62375000D03*
X140565000Y-62375000D03*
X141835000Y-62375000D03*
X143105000Y-62375000D03*
X143105000Y-56025000D03*
X141835000Y-56025000D03*
X140565000Y-56025000D03*
X139295000Y-56025000D03*
X154595000Y-65375000D03*
X155865000Y-65375000D03*
X157135000Y-65375000D03*
X158405000Y-65375000D03*
X158405000Y-59025000D03*
X157135000Y-59025000D03*
X155865000Y-59025000D03*
X154595000Y-59025000D03*
X168995000Y-63175000D03*
X170265000Y-63175000D03*
X171535000Y-63175000D03*
X172805000Y-63175000D03*
X172805000Y-56825000D03*
X171535000Y-56825000D03*
X170265000Y-56825000D03*
X168995000Y-56825000D03*
X221595000Y-60775000D03*
X222865000Y-60775000D03*
X224135000Y-60775000D03*
X225405000Y-60775000D03*
X225405000Y-54425000D03*
X224135000Y-54425000D03*
X222865000Y-54425000D03*
X221595000Y-54425000D03*
X239395000Y-60875000D03*
X240665000Y-60875000D03*
X241935000Y-60875000D03*
X243205000Y-60875000D03*
X243205000Y-54525000D03*
X241935000Y-54525000D03*
X240665000Y-54525000D03*
X239395000Y-54525000D03*
X93595000Y-84375000D03*
X94865000Y-84375000D03*
X96135000Y-84375000D03*
X97405000Y-84375000D03*
X97405000Y-78025000D03*
X96135000Y-78025000D03*
X94865000Y-78025000D03*
X93595000Y-78025000D03*
X108595000Y-87175000D03*
X109865000Y-87175000D03*
X111135000Y-87175000D03*
X112405000Y-87175000D03*
X112405000Y-80825000D03*
X111135000Y-80825000D03*
X109865000Y-80825000D03*
X108595000Y-80825000D03*
X139295000Y-94775000D03*
X140565000Y-94775000D03*
X141835000Y-94775000D03*
X143105000Y-94775000D03*
X143105000Y-88425000D03*
X141835000Y-88425000D03*
X140565000Y-88425000D03*
X139295000Y-88425000D03*
X154595000Y-91475000D03*
X155865000Y-91475000D03*
X157135000Y-91475000D03*
X158405000Y-91475000D03*
X158405000Y-85125000D03*
X157135000Y-85125000D03*
X155865000Y-85125000D03*
X154595000Y-85125000D03*
X168995000Y-94675000D03*
X170265000Y-94675000D03*
X171535000Y-94675000D03*
X172805000Y-94675000D03*
X172805000Y-88325000D03*
X171535000Y-88325000D03*
X170265000Y-88325000D03*
X168995000Y-88325000D03*
X221595000Y-93275000D03*
X222865000Y-93275000D03*
X224135000Y-93275000D03*
X225405000Y-93275000D03*
X225405000Y-86925000D03*
X224135000Y-86925000D03*
X222865000Y-86925000D03*
X221595000Y-86925000D03*
X239395000Y-93275000D03*
X240665000Y-93275000D03*
X241935000Y-93275000D03*
X243205000Y-93275000D03*
X243205000Y-86925000D03*
X241935000Y-86925000D03*
X240665000Y-86925000D03*
X239395000Y-86925000D03*
D13*
X81500000Y-68000000D03*
X81500000Y-70000000D03*
X81500000Y-72000000D03*
X81500000Y-74000000D03*
X81500000Y-76000000D03*
D14*
X102250000Y-56000000D03*
D15*
X102250000Y-92000000D03*
X148000000Y-92000000D03*
X232250000Y-92500000D03*
X232250000Y-59750000D03*
X148000000Y-62000000D03*
D16*
X211250000Y-68500000D03*
X181750000Y-69250000D03*
X129250000Y-68250000D03*
X83250000Y-64326879D03*
X72500000Y-68000000D03*
X71250000Y-66750000D03*
X238250000Y-95250000D03*
X94750000Y-86000000D03*
X111044625Y-88906591D03*
X108500000Y-88750000D03*
X221595556Y-95000000D03*
X160000000Y-63500000D03*
X226250000Y-95000000D03*
X246000000Y-92750000D03*
X81250000Y-54000000D03*
X70250000Y-56500000D03*
X70500000Y-59250000D03*
X79250000Y-87500000D03*
X83500000Y-88500000D03*
X67750000Y-88750000D03*
X83500000Y-86000000D03*
X175250000Y-94750000D03*
X166500000Y-94750000D03*
X158000000Y-94750000D03*
X154500000Y-94250000D03*
X136750000Y-94000000D03*
X174517038Y-63500000D03*
X240675739Y-63500000D03*
X221504613Y-63500000D03*
X225272607Y-63500000D03*
X166500000Y-63500000D03*
X140500000Y-65000000D03*
X152500000Y-65500000D03*
X109000000Y-59000000D03*
X93250000Y-59250000D03*
X243250000Y-63500000D03*
X86500000Y-60000000D03*
X137011548Y-96250000D03*
X98750000Y-77250000D03*
X112500000Y-79250000D03*
X164271892Y-67000000D03*
X138553621Y-67000000D03*
X114750000Y-50250000D03*
X160000000Y-85250000D03*
X137750000Y-85500000D03*
X173000000Y-52250000D03*
X143250000Y-51500000D03*
X158250000Y-54500000D03*
X223398045Y-64500000D03*
X222865000Y-58813700D03*
X171535000Y-61551820D03*
X157135000Y-63451740D03*
X143105000Y-64262000D03*
X96405000Y-57919620D03*
X156353835Y-93400000D03*
X143105000Y-92334080D03*
X89032080Y-82750000D03*
X224250000Y-91000000D03*
X225000000Y-96750000D03*
X70250000Y-86250000D03*
X77500000Y-53250000D03*
X116500000Y-56250000D03*
X245500000Y-59500000D03*
X246000000Y-88250000D03*
X175750000Y-93250000D03*
X114500000Y-87000000D03*
X78000000Y-65000000D03*
X65250000Y-61250000D03*
X65500000Y-56500000D03*
X65250000Y-74750000D03*
X81500000Y-79730791D03*
X77250000Y-79750000D03*
X81500000Y-85000000D03*
X81500000Y-82750000D03*
X76250000Y-69750000D03*
X72500000Y-70500000D03*
X135500000Y-57250000D03*
X153250000Y-60500000D03*
X238000000Y-56000000D03*
X90500000Y-51000000D03*
X81000000Y-55750000D03*
X85332241Y-51267759D03*
X107750000Y-53750000D03*
X167000000Y-58750000D03*
X219250000Y-56250000D03*
X89250000Y-49750000D03*
X154500000Y-56750000D03*
X239500000Y-52000000D03*
X108500000Y-52250000D03*
X77500000Y-61750000D03*
X219250000Y-54500000D03*
X166750000Y-57000000D03*
X136250000Y-56250000D03*
X237750000Y-88250000D03*
X153250000Y-87500000D03*
X70250000Y-82500000D03*
X137000000Y-90000000D03*
X166250000Y-90000000D03*
X219000000Y-88500000D03*
X91500000Y-80250000D03*
X106750000Y-82500000D03*
X239250000Y-85250000D03*
X152750000Y-86250000D03*
X86437460Y-79000000D03*
X137000000Y-88000000D03*
X219000000Y-86750000D03*
X91500000Y-79000000D03*
X106250000Y-80500000D03*
X166500000Y-87500000D03*
X152500000Y-61500000D03*
X237500000Y-90250000D03*
X153000000Y-89000000D03*
X89750000Y-52250000D03*
X219250000Y-59750000D03*
X84904349Y-76500000D03*
X84750000Y-90750000D03*
X68000000Y-90750000D03*
X219000000Y-90250000D03*
X91250000Y-81500000D03*
X106250000Y-84750000D03*
X136500000Y-92000000D03*
X166250000Y-91750000D03*
X108000000Y-55000000D03*
X136250000Y-59250000D03*
X167000000Y-60250000D03*
X237250000Y-57750000D03*
D17*
X238250000Y-95250000D02*
X238500000Y-95000000D01*
X238500000Y-95000000D02*
X242934578Y-95000000D01*
X94750000Y-86000000D02*
X94774095Y-86000000D01*
X94774095Y-86000000D02*
X94865000Y-86090905D01*
X111135000Y-87175000D02*
X111135000Y-88816216D01*
X111135000Y-88816216D02*
X111044625Y-88906591D01*
X108500000Y-88750000D02*
X108595000Y-88655000D01*
X108595000Y-88655000D02*
X108595000Y-87175000D01*
X221595000Y-93275000D02*
X221595000Y-94999444D01*
X221595000Y-94999444D02*
X221595556Y-95000000D01*
X141835000Y-94775000D02*
X140565000Y-94775000D01*
X158405000Y-64345000D02*
X159250000Y-63500000D01*
X159250000Y-63500000D02*
X160000000Y-63500000D01*
X158405000Y-65375000D02*
X158405000Y-64345000D01*
X226250000Y-95000000D02*
X226000000Y-94750000D01*
X226000000Y-94750000D02*
X224595590Y-94750000D01*
X224595590Y-94750000D02*
X224560362Y-94714772D01*
X224560362Y-94714772D02*
X224135000Y-94289410D01*
X225405000Y-94345000D02*
X225035228Y-94714772D01*
X225035228Y-94714772D02*
X224560362Y-94714772D01*
X225405000Y-93275000D02*
X225405000Y-94345000D01*
X224135000Y-94289410D02*
X224135000Y-93275000D01*
X225500000Y-93370000D02*
X225405000Y-93275000D01*
X242934578Y-95000000D02*
X243141772Y-95000000D01*
X246000000Y-93500000D02*
X244500000Y-95000000D01*
X244500000Y-95000000D02*
X242934578Y-95000000D01*
X246000000Y-92750000D02*
X246000000Y-93500000D01*
X70250000Y-56500000D02*
X70250000Y-56883246D01*
X70250000Y-56883246D02*
X70250000Y-59000000D01*
X81250000Y-54000000D02*
X78366754Y-56883246D01*
X78366754Y-56883246D02*
X70250000Y-56883246D01*
X70250000Y-59000000D02*
X70500000Y-59250000D01*
X68000000Y-88500000D02*
X79203777Y-88500000D01*
X79203777Y-88500000D02*
X83500000Y-88500000D01*
X79250000Y-87500000D02*
X79203777Y-87546223D01*
X79203777Y-87546223D02*
X79203777Y-88500000D01*
X67750000Y-88750000D02*
X68000000Y-88500000D01*
X94388949Y-86090905D02*
X94090905Y-86090905D01*
X94865000Y-86090905D02*
X94388949Y-86090905D01*
X94388949Y-86090905D02*
X83590905Y-86090905D01*
X83590905Y-86090905D02*
X83500000Y-86000000D01*
X81500000Y-74000000D02*
X78200000Y-74000000D01*
X78200000Y-74000000D02*
X77365000Y-74835000D01*
X77365000Y-74835000D02*
X74375000Y-74835000D01*
X243141772Y-95000000D02*
X243205000Y-94936772D01*
X175250000Y-94750000D02*
X172880000Y-94750000D01*
X172880000Y-94750000D02*
X172805000Y-94675000D01*
X170265000Y-94675000D02*
X168995000Y-94675000D01*
X166500000Y-94750000D02*
X168920000Y-94750000D01*
X168920000Y-94750000D02*
X168995000Y-94675000D01*
X158000000Y-94750000D02*
X158405000Y-94345000D01*
X158405000Y-94345000D02*
X158405000Y-91475000D01*
X154500000Y-94250000D02*
X154595000Y-94155000D01*
X154595000Y-94155000D02*
X154595000Y-91475000D01*
X139295000Y-94775000D02*
X139147420Y-94775000D01*
X139147420Y-94775000D02*
X138372420Y-94000000D01*
X140565000Y-94775000D02*
X139295000Y-94775000D01*
X136750000Y-94000000D02*
X138372420Y-94000000D01*
X94090905Y-86090905D02*
X93595000Y-85595000D01*
X93595000Y-85595000D02*
X93595000Y-84375000D01*
X94865000Y-86090905D02*
X94865000Y-84375000D01*
X172805000Y-63175000D02*
X174192038Y-63175000D01*
X174192038Y-63175000D02*
X174517038Y-63500000D01*
X241935000Y-60875000D02*
X241935000Y-62065000D01*
X241935000Y-62065000D02*
X241500000Y-62500000D01*
X241500000Y-62500000D02*
X240618231Y-62500000D01*
X240618231Y-62500000D02*
X240618231Y-63442492D01*
X240618231Y-63442492D02*
X240675739Y-63500000D01*
X239750000Y-62500000D02*
X240618231Y-62500000D01*
X240665000Y-60875000D02*
X240665000Y-62453231D01*
X240665000Y-62453231D02*
X240618231Y-62500000D01*
X239395000Y-62145000D02*
X239750000Y-62500000D01*
X239395000Y-60875000D02*
X239395000Y-62145000D01*
X221595000Y-60775000D02*
X221595000Y-63409613D01*
X221595000Y-63409613D02*
X221504613Y-63500000D01*
X225250000Y-62500000D02*
X225250000Y-63477393D01*
X225250000Y-63477393D02*
X225272607Y-63500000D01*
X225250000Y-62500000D02*
X225405000Y-62345000D01*
X225405000Y-62345000D02*
X225405000Y-60775000D01*
X224500000Y-62500000D02*
X225250000Y-62500000D01*
X224135000Y-62135000D02*
X224500000Y-62500000D01*
X224135000Y-60775000D02*
X224135000Y-62135000D01*
X166500000Y-63500000D02*
X168000000Y-65000000D01*
X168000000Y-65000000D02*
X169578045Y-65000000D01*
X169578045Y-65000000D02*
X169250000Y-65000000D01*
X170000000Y-65000000D02*
X169578045Y-65000000D01*
X169250000Y-65000000D02*
X168995000Y-64745000D01*
X168995000Y-64745000D02*
X168995000Y-63175000D01*
X170265000Y-64735000D02*
X170000000Y-65000000D01*
X170265000Y-63175000D02*
X170265000Y-64735000D01*
X140500000Y-65000000D02*
X141000000Y-65000000D01*
X141000000Y-65000000D02*
X141835000Y-64165000D01*
X141835000Y-64165000D02*
X141835000Y-62375000D01*
X140500000Y-65000000D02*
X140000000Y-65000000D01*
X140000000Y-65000000D02*
X139295000Y-64295000D01*
X139295000Y-64295000D02*
X139295000Y-62375000D01*
X140500000Y-65000000D02*
X140565000Y-64935000D01*
X140565000Y-64935000D02*
X140565000Y-62375000D01*
X154595000Y-65375000D02*
X152625000Y-65375000D01*
X152625000Y-65375000D02*
X152500000Y-65500000D01*
X113250000Y-56750000D02*
X113435000Y-56935000D01*
X113435000Y-56935000D02*
X113435000Y-58475000D01*
X111000000Y-56750000D02*
X113250000Y-56750000D01*
X110895000Y-56855000D02*
X111000000Y-56750000D01*
X110895000Y-58475000D02*
X110895000Y-56855000D01*
X109000000Y-59000000D02*
X109525000Y-58475000D01*
X109525000Y-58475000D02*
X110895000Y-58475000D01*
X93250000Y-59250000D02*
X92595000Y-58595000D01*
X92595000Y-58595000D02*
X92595000Y-55775000D01*
X93250000Y-59250000D02*
X93865000Y-58635000D01*
X93865000Y-58635000D02*
X93865000Y-55775000D01*
X243250000Y-63500000D02*
X243250000Y-60920000D01*
X243250000Y-60920000D02*
X243205000Y-60875000D01*
X239686772Y-94936772D02*
X239395000Y-94645000D01*
X239395000Y-94645000D02*
X239395000Y-93275000D01*
X241171012Y-94936772D02*
X240936772Y-94936772D01*
X241992235Y-94936772D02*
X241171012Y-94936772D01*
X241171012Y-94936772D02*
X239686772Y-94936772D01*
X243205000Y-94936772D02*
X241992235Y-94936772D01*
X241935000Y-93275000D02*
X241935000Y-94879537D01*
X241935000Y-94879537D02*
X241992235Y-94936772D01*
X240936772Y-94936772D02*
X240665000Y-94665000D01*
X240665000Y-94665000D02*
X240665000Y-93275000D01*
X243205000Y-94936772D02*
X243205000Y-93275000D01*
X115061265Y-60000000D02*
X114693907Y-60000000D01*
X114693907Y-60000000D02*
X112135063Y-60000000D01*
X114705000Y-58475000D02*
X114705000Y-59988907D01*
X114705000Y-59988907D02*
X114693907Y-60000000D01*
X112135063Y-60000000D02*
X111311672Y-60000000D01*
X112165000Y-58475000D02*
X112165000Y-59970063D01*
X112165000Y-59970063D02*
X112135063Y-60000000D01*
X96500000Y-60000000D02*
X111311672Y-60000000D01*
X111311672Y-60000000D02*
X111463683Y-60000000D01*
X115061265Y-60000000D02*
X121500000Y-60000000D01*
X121500000Y-60000000D02*
X128500000Y-67000000D01*
X128500000Y-67000000D02*
X138553621Y-67000000D01*
X112165000Y-58475000D02*
X112250000Y-58560000D01*
X95000000Y-60000000D02*
X96500000Y-60000000D01*
X96500000Y-60000000D02*
X96405000Y-59905000D01*
X96405000Y-59905000D02*
X96405000Y-57919620D01*
X86500000Y-60000000D02*
X95000000Y-60000000D01*
X95000000Y-60000000D02*
X95135000Y-59865000D01*
X95135000Y-59865000D02*
X95135000Y-55775000D01*
X86500000Y-60000000D02*
X81750000Y-60000000D01*
X81750000Y-60000000D02*
X77589925Y-64160075D01*
X137011548Y-96250000D02*
X143000000Y-96250000D01*
X132650000Y-96250000D02*
X137011548Y-96250000D01*
X97405000Y-78025000D02*
X97405000Y-77595000D01*
X97405000Y-77595000D02*
X97750000Y-77250000D01*
X97750000Y-77250000D02*
X98750000Y-77250000D01*
X112405000Y-80825000D02*
X112405000Y-79345000D01*
X112405000Y-79345000D02*
X112500000Y-79250000D01*
X164271892Y-67000000D02*
X171569914Y-67000000D01*
X157129241Y-67000000D02*
X164271892Y-67000000D01*
X138553621Y-67000000D02*
X143122466Y-67000000D01*
X114750000Y-50250000D02*
X114705000Y-50295000D01*
X114705000Y-50295000D02*
X114705000Y-52125000D01*
X158405000Y-85125000D02*
X159875000Y-85125000D01*
X159875000Y-85125000D02*
X160000000Y-85250000D01*
X143105000Y-86855000D02*
X141750000Y-85500000D01*
X141750000Y-85500000D02*
X137750000Y-85500000D01*
X143105000Y-88425000D02*
X143105000Y-86855000D01*
X172805000Y-56825000D02*
X172805000Y-52445000D01*
X172805000Y-52445000D02*
X173000000Y-52250000D01*
X143105000Y-56025000D02*
X143105000Y-51645000D01*
X143105000Y-51645000D02*
X143250000Y-51500000D01*
X158405000Y-59025000D02*
X158405000Y-54655000D01*
X158405000Y-54655000D02*
X158250000Y-54500000D01*
X223398045Y-64500000D02*
X246750000Y-64500000D01*
X222885676Y-64500000D02*
X223398045Y-64500000D01*
X222865000Y-58813700D02*
X222865000Y-60775000D01*
X222865000Y-57885000D02*
X222865000Y-58813700D01*
X171535000Y-66329560D02*
X171535000Y-66965086D01*
X171535000Y-63175000D02*
X171535000Y-66329560D01*
X171535000Y-61551820D02*
X171535000Y-63175000D01*
X171535000Y-59965000D02*
X171535000Y-61551820D01*
X157135000Y-63451740D02*
X157135000Y-65375000D01*
X157135000Y-62865000D02*
X157135000Y-63451740D01*
X143105000Y-64262000D02*
X143105000Y-66982534D01*
X143105000Y-62375000D02*
X143105000Y-64262000D01*
X96405000Y-55775000D02*
X96405000Y-57919620D01*
X143105000Y-92334080D02*
X143105000Y-94775000D01*
X143105000Y-88425000D02*
X143105000Y-92334080D01*
X89032080Y-82750000D02*
X97405000Y-82750000D01*
X81500000Y-82750000D02*
X89032080Y-82750000D01*
X97405000Y-82500000D02*
X97405000Y-82750000D01*
X225000000Y-96250000D02*
X225000000Y-96750000D01*
X97405000Y-86562678D02*
X104062678Y-86562678D01*
X104062678Y-86562678D02*
X107700000Y-90200000D01*
X107700000Y-90200000D02*
X109855288Y-90200000D01*
X172805000Y-88325000D02*
X172805000Y-91677323D01*
X172805000Y-91677323D02*
X171535000Y-92947323D01*
X158405000Y-85125000D02*
X158405000Y-87595000D01*
X158405000Y-87595000D02*
X157135000Y-88865000D01*
X157135000Y-88865000D02*
X157135000Y-91475000D01*
X143086995Y-96250000D02*
X156438250Y-96250000D01*
X156438250Y-96250000D02*
X157000000Y-96250000D01*
X156353835Y-93400000D02*
X156353835Y-96165585D01*
X156353835Y-96165585D02*
X156438250Y-96250000D01*
X71200000Y-77071166D02*
X71200000Y-77800000D01*
X71200000Y-76173053D02*
X71200000Y-77071166D01*
X71846365Y-79750000D02*
X77250000Y-79750000D01*
X71200000Y-77071166D02*
X71200000Y-79103635D01*
X71200000Y-79103635D02*
X71846365Y-79750000D01*
X70250000Y-86250000D02*
X71500000Y-85000000D01*
X71500000Y-85000000D02*
X81500000Y-85000000D01*
X77500000Y-53250000D02*
X75500000Y-55250000D01*
X75500000Y-55250000D02*
X66750000Y-55250000D01*
X66750000Y-55250000D02*
X65500000Y-56500000D01*
X114705000Y-52125000D02*
X114705000Y-56180399D01*
X114705000Y-56180399D02*
X114705000Y-58475000D01*
X116500000Y-56250000D02*
X114774601Y-56250000D01*
X114774601Y-56250000D02*
X114705000Y-56180399D01*
X246750000Y-59250000D02*
X245577632Y-58077632D01*
X245577632Y-58077632D02*
X243205000Y-55705000D01*
X245500000Y-59500000D02*
X245500000Y-58155264D01*
X245500000Y-58155264D02*
X245577632Y-58077632D01*
X246750000Y-64500000D02*
X246750000Y-59250000D01*
X243205000Y-55705000D02*
X243205000Y-54525000D01*
X246800000Y-85400000D02*
X246054576Y-85400000D01*
X246000000Y-88250000D02*
X246000000Y-85454576D01*
X246054576Y-85400000D02*
X243800000Y-85400000D01*
X246000000Y-85454576D02*
X246054576Y-85400000D01*
X171535000Y-92947323D02*
X171535000Y-94675000D01*
X175750000Y-93250000D02*
X175447323Y-92947323D01*
X175447323Y-92947323D02*
X171535000Y-92947323D01*
X114500000Y-87000000D02*
X114325000Y-87175000D01*
X114325000Y-87175000D02*
X112405000Y-87175000D01*
X71200000Y-70550000D02*
X77589925Y-64160075D01*
X78000000Y-65000000D02*
X77589925Y-64589925D01*
X77589925Y-64589925D02*
X77589925Y-64160075D01*
X65500000Y-56500000D02*
X65250000Y-56750000D01*
X65250000Y-56750000D02*
X65250000Y-61250000D01*
X65250000Y-74750000D02*
X65335000Y-74835000D01*
X65335000Y-74835000D02*
X68025000Y-74835000D01*
X77250000Y-79750000D02*
X81480791Y-79750000D01*
X81480791Y-79750000D02*
X81500000Y-79730791D01*
X97405000Y-82750000D02*
X97405000Y-84375000D01*
X221478562Y-96250000D02*
X171562580Y-96250000D01*
X222000000Y-96250000D02*
X221478562Y-96250000D01*
X222250000Y-96250000D02*
X223738206Y-96250000D01*
X223738206Y-96250000D02*
X225000000Y-96250000D01*
X225000000Y-96250000D02*
X248150000Y-96250000D01*
X221478562Y-96250000D02*
X223738206Y-96250000D01*
X222865000Y-93275000D02*
X222865000Y-95385000D01*
X222865000Y-95385000D02*
X222000000Y-96250000D01*
X248150000Y-96250000D02*
X249200000Y-95200000D01*
X249200000Y-95200000D02*
X249200000Y-87800000D01*
X249200000Y-87800000D02*
X246800000Y-85400000D01*
X243800000Y-85400000D02*
X243205000Y-85995000D01*
X243205000Y-85995000D02*
X243205000Y-86925000D01*
X156750000Y-96250000D02*
X171562580Y-96250000D01*
X171535000Y-94675000D02*
X171535000Y-96222420D01*
X171535000Y-96222420D02*
X171562580Y-96250000D01*
X143105000Y-94775000D02*
X143086995Y-94793005D01*
X143086995Y-94793005D02*
X143086995Y-96250000D01*
X112682008Y-90200000D02*
X126600000Y-90200000D01*
X126600000Y-90200000D02*
X132650000Y-96250000D01*
X225405000Y-86925000D02*
X225405000Y-89845000D01*
X225405000Y-89845000D02*
X224250000Y-91000000D01*
X224250000Y-91000000D02*
X222865000Y-92385000D01*
X222865000Y-92385000D02*
X222865000Y-93275000D01*
X96405000Y-49425000D02*
X96405000Y-55775000D01*
X143105000Y-56025000D02*
X143105000Y-62375000D01*
X158405000Y-61595000D02*
X157135000Y-62865000D01*
X158405000Y-59025000D02*
X158405000Y-61595000D01*
X172805000Y-58695000D02*
X171535000Y-59965000D01*
X172805000Y-56825000D02*
X172805000Y-58695000D01*
X225405000Y-55345000D02*
X222865000Y-57885000D01*
X225405000Y-54425000D02*
X225405000Y-55345000D01*
X212750000Y-64500000D02*
X222885676Y-64500000D01*
X222865000Y-60775000D02*
X222865000Y-64479324D01*
X222865000Y-64479324D02*
X222885676Y-64500000D01*
X171569914Y-67000000D02*
X210250000Y-67000000D01*
X171535000Y-66965086D02*
X171569914Y-67000000D01*
X143122466Y-67000000D02*
X155749737Y-67000000D01*
X143105000Y-66982534D02*
X143122466Y-67000000D01*
X155749737Y-67000000D02*
X157129241Y-67000000D01*
X155865000Y-65375000D02*
X155865000Y-66884737D01*
X155865000Y-66884737D02*
X155749737Y-67000000D01*
X157135000Y-65375000D02*
X157135000Y-66994241D01*
X157135000Y-66994241D02*
X157129241Y-67000000D01*
X71200000Y-76173053D02*
X71200000Y-70550000D01*
X210250000Y-67000000D02*
X212750000Y-64500000D01*
X71200000Y-76000000D02*
X71200000Y-76173053D01*
X112405000Y-80825000D02*
X112405000Y-87175000D01*
X97405000Y-78025000D02*
X97405000Y-82500000D01*
X97405000Y-82500000D02*
X97405000Y-84375000D01*
X97405000Y-84375000D02*
X97405000Y-86562678D01*
X96135000Y-86135000D02*
X96562678Y-86562678D01*
X96562678Y-86562678D02*
X97405000Y-86562678D01*
X96135000Y-84375000D02*
X96135000Y-86135000D01*
X112682008Y-90200000D02*
X112400000Y-89917992D01*
X112400000Y-89917992D02*
X112400000Y-87180000D01*
X112400000Y-87180000D02*
X112405000Y-87175000D01*
X109855288Y-90200000D02*
X112682008Y-90200000D01*
X109855288Y-90200000D02*
X109855288Y-87184712D01*
X109855288Y-87184712D02*
X109865000Y-87175000D01*
X156353835Y-93400000D02*
X156000000Y-93400000D01*
X156800000Y-93400000D02*
X156353835Y-93400000D01*
X156000000Y-93400000D02*
X155865000Y-93265000D01*
X155865000Y-93265000D02*
X155865000Y-91475000D01*
X157135000Y-93065000D02*
X156800000Y-93400000D01*
X157135000Y-91475000D02*
X157135000Y-93065000D01*
X70035000Y-74835000D02*
X71200000Y-76000000D01*
X68025000Y-74835000D02*
X70035000Y-74835000D01*
X78200000Y-70000000D02*
X77329349Y-70870651D01*
X77329349Y-70870651D02*
X75905000Y-72295000D01*
X76250000Y-69750000D02*
X77329349Y-70829349D01*
X77329349Y-70829349D02*
X77329349Y-70870651D01*
X81500000Y-70000000D02*
X78200000Y-70000000D01*
X75905000Y-72295000D02*
X74375000Y-72295000D01*
X73315000Y-73565000D02*
X72500000Y-72750000D01*
X72500000Y-72750000D02*
X72500000Y-70500000D01*
X74375000Y-73565000D02*
X73315000Y-73565000D01*
X74375000Y-73565000D02*
X76435000Y-73565000D01*
X76435000Y-73565000D02*
X78000000Y-72000000D01*
X78000000Y-72000000D02*
X81500000Y-72000000D01*
X140565000Y-56935000D02*
X140565000Y-56025000D01*
X135500000Y-57250000D02*
X135750000Y-57500000D01*
X135750000Y-57500000D02*
X140000000Y-57500000D01*
X140000000Y-57500000D02*
X140565000Y-56935000D01*
X153250000Y-60500000D02*
X155250000Y-60500000D01*
X155250000Y-60500000D02*
X155865000Y-59885000D01*
X155865000Y-59885000D02*
X155865000Y-59025000D01*
X238000000Y-56000000D02*
X240250000Y-56000000D01*
X240250000Y-56000000D02*
X240665000Y-55585000D01*
X240665000Y-55585000D02*
X240665000Y-54525000D01*
X90500000Y-51000000D02*
X93250000Y-51000000D01*
X93250000Y-51000000D02*
X93865000Y-50385000D01*
X93865000Y-50385000D02*
X93865000Y-49425000D01*
X81000000Y-55750000D02*
X81000000Y-55600000D01*
X81000000Y-55600000D02*
X81700950Y-54899050D01*
X66182796Y-70417204D02*
X81700950Y-54899050D01*
X81700950Y-54899050D02*
X85332241Y-51267759D01*
X111250000Y-53750000D02*
X112165000Y-52835000D01*
X112165000Y-52835000D02*
X112165000Y-52125000D01*
X107750000Y-53750000D02*
X111250000Y-53750000D01*
X169250000Y-58750000D02*
X170265000Y-57735000D01*
X170265000Y-57735000D02*
X170265000Y-56825000D01*
X167000000Y-58750000D02*
X169250000Y-58750000D01*
X222000000Y-56250000D02*
X222865000Y-55385000D01*
X222865000Y-55385000D02*
X222865000Y-54425000D01*
X219250000Y-56250000D02*
X222000000Y-56250000D01*
X68025000Y-72295000D02*
X66695000Y-72295000D01*
X66695000Y-72295000D02*
X66182796Y-71782796D01*
X66182796Y-71782796D02*
X66182796Y-70417204D01*
X89250000Y-49750000D02*
X89250000Y-49950000D01*
X89250000Y-49950000D02*
X89225479Y-49974521D01*
X154500000Y-56750000D02*
X154500000Y-58930000D01*
X154500000Y-58930000D02*
X154595000Y-59025000D01*
X239500000Y-52000000D02*
X239500000Y-54420000D01*
X239500000Y-54420000D02*
X239395000Y-54525000D01*
X108500000Y-52250000D02*
X108625000Y-52125000D01*
X108625000Y-52125000D02*
X110895000Y-52125000D01*
X77399891Y-61800109D02*
X70000000Y-69200000D01*
X70000000Y-69200000D02*
X70000000Y-73000000D01*
X70000000Y-73000000D02*
X69435000Y-73565000D01*
X69435000Y-73565000D02*
X68025000Y-73565000D01*
X77500000Y-61750000D02*
X77449891Y-61800109D01*
X77449891Y-61800109D02*
X77399891Y-61800109D01*
X89225479Y-49974521D02*
X77399891Y-61800109D01*
X92595000Y-49425000D02*
X89775000Y-49425000D01*
X89775000Y-49425000D02*
X89225479Y-49974521D01*
X219250000Y-54500000D02*
X219325000Y-54425000D01*
X219325000Y-54425000D02*
X221595000Y-54425000D01*
X166750000Y-57000000D02*
X166925000Y-56825000D01*
X166925000Y-56825000D02*
X168995000Y-56825000D01*
X136250000Y-56250000D02*
X136475000Y-56025000D01*
X136475000Y-56025000D02*
X139295000Y-56025000D01*
X237750000Y-88250000D02*
X238250000Y-88750000D01*
X238250000Y-88750000D02*
X240000000Y-88750000D01*
X240000000Y-88750000D02*
X240665000Y-88085000D01*
X240665000Y-88085000D02*
X240665000Y-86925000D01*
X153250000Y-87500000D02*
X155000000Y-87500000D01*
X155000000Y-87500000D02*
X155865000Y-86635000D01*
X155865000Y-86635000D02*
X155865000Y-85125000D01*
X70250000Y-82500000D02*
X68986004Y-81236004D01*
X69250000Y-81000000D02*
X69222008Y-81000000D01*
X68986004Y-81236004D02*
X66200000Y-78450000D01*
X69222008Y-81000000D02*
X68986004Y-81236004D01*
X66200000Y-78450000D02*
X66200000Y-76800000D01*
X66200000Y-76800000D02*
X66895000Y-76105000D01*
X66895000Y-76105000D02*
X68025000Y-76105000D01*
X69250000Y-81000000D02*
X69650000Y-80600000D01*
X69650000Y-80600000D02*
X89643485Y-80600000D01*
X137000000Y-90000000D02*
X137200000Y-90200000D01*
X137200000Y-90200000D02*
X140200000Y-90200000D01*
X140200000Y-90200000D02*
X140565000Y-89835000D01*
X140565000Y-89835000D02*
X140565000Y-88425000D01*
X166250000Y-90000000D02*
X166500000Y-90250000D01*
X166500000Y-90250000D02*
X169750000Y-90250000D01*
X169750000Y-90250000D02*
X170265000Y-89735000D01*
X170265000Y-89735000D02*
X170265000Y-88325000D01*
X219000000Y-88500000D02*
X219250000Y-88750000D01*
X219250000Y-88750000D02*
X222500000Y-88750000D01*
X222500000Y-88750000D02*
X222865000Y-88385000D01*
X222865000Y-88385000D02*
X222865000Y-86925000D01*
X106750000Y-82500000D02*
X109700000Y-82500000D01*
X109700000Y-82500000D02*
X109865000Y-82335000D01*
X109865000Y-82335000D02*
X109865000Y-80825000D01*
X91500000Y-80250000D02*
X91150000Y-80600000D01*
X91150000Y-80600000D02*
X89643485Y-80600000D01*
X89643485Y-80600000D02*
X89993485Y-80250000D01*
X89993485Y-80250000D02*
X94150000Y-80250000D01*
X94150000Y-80250000D02*
X94865000Y-79535000D01*
X94865000Y-79535000D02*
X94865000Y-78025000D01*
X239250000Y-85250000D02*
X239250000Y-86780000D01*
X239250000Y-86780000D02*
X239395000Y-86925000D01*
X152750000Y-86250000D02*
X154250000Y-86250000D01*
X154250000Y-86250000D02*
X154595000Y-85905000D01*
X154595000Y-85905000D02*
X154595000Y-85125000D01*
X75250000Y-79000000D02*
X86437460Y-79000000D01*
X86437460Y-79000000D02*
X91250000Y-79000000D01*
X74375000Y-76105000D02*
X74375000Y-78125000D01*
X74375000Y-78125000D02*
X75250000Y-79000000D01*
X137000000Y-88000000D02*
X138870000Y-88000000D01*
X138870000Y-88000000D02*
X139295000Y-88425000D01*
X219000000Y-86750000D02*
X219250000Y-86750000D01*
X219000000Y-86750000D02*
X221420000Y-86750000D01*
X221420000Y-86750000D02*
X221595000Y-86925000D01*
X93595000Y-78025000D02*
X93500000Y-78120000D01*
X93500000Y-78120000D02*
X93500000Y-79000000D01*
X93500000Y-79000000D02*
X92000000Y-79000000D01*
X92000000Y-79000000D02*
X91500000Y-79000000D01*
X108595000Y-80825000D02*
X108595000Y-79654106D01*
X108595000Y-79654106D02*
X108500000Y-79559106D01*
X107690894Y-79559106D02*
X106750000Y-80500000D01*
X108500000Y-79559106D02*
X107690894Y-79559106D01*
X106750000Y-80500000D02*
X106250000Y-80500000D01*
X168318037Y-87250000D02*
X168750000Y-87250000D01*
X166750000Y-87250000D02*
X168318037Y-87250000D01*
X168750000Y-87250000D02*
X168995000Y-87495000D01*
X168995000Y-87495000D02*
X168995000Y-88325000D01*
X166500000Y-87500000D02*
X166750000Y-87250000D01*
X152500000Y-61500000D02*
X152750000Y-61750000D01*
X152750000Y-61750000D02*
X155750000Y-61750000D01*
X157135000Y-60365000D02*
X157135000Y-59025000D01*
X155750000Y-61750000D02*
X157135000Y-60365000D01*
X237500000Y-90250000D02*
X240250000Y-90250000D01*
X240250000Y-90250000D02*
X241935000Y-88565000D01*
X241935000Y-88565000D02*
X241935000Y-86925000D01*
X153000000Y-89000000D02*
X155250000Y-89000000D01*
X155250000Y-89000000D02*
X157135000Y-87115000D01*
X157135000Y-87115000D02*
X157135000Y-85125000D01*
X89750000Y-52250000D02*
X90250000Y-52750000D01*
X95135000Y-51115000D02*
X95135000Y-49425000D01*
X90250000Y-52750000D02*
X93500000Y-52750000D01*
X93500000Y-52750000D02*
X95135000Y-51115000D01*
X224135000Y-54425000D02*
X224135000Y-55365000D01*
X224135000Y-55365000D02*
X219750000Y-59750000D01*
X219750000Y-59750000D02*
X219250000Y-59750000D01*
X83500000Y-76500000D02*
X84904349Y-76500000D01*
X84904349Y-76500000D02*
X95750000Y-76500000D01*
X68000000Y-90750000D02*
X84750000Y-90750000D01*
X81500000Y-68000000D02*
X82000000Y-68000000D01*
X96135000Y-76885000D02*
X96135000Y-78025000D01*
X82000000Y-68000000D02*
X83250000Y-69250000D01*
X83250000Y-69250000D02*
X83250000Y-76250000D01*
X83250000Y-76250000D02*
X83500000Y-76500000D01*
X95750000Y-76500000D02*
X96135000Y-76885000D01*
X219000000Y-90250000D02*
X223000000Y-90250000D01*
X223000000Y-90250000D02*
X224135000Y-89115000D01*
X224135000Y-89115000D02*
X224135000Y-86925000D01*
X94500000Y-81500000D02*
X96135000Y-79865000D01*
X96135000Y-79865000D02*
X96135000Y-78025000D01*
X91250000Y-81500000D02*
X94500000Y-81500000D01*
X109500000Y-84750000D02*
X111135000Y-83115000D01*
X111135000Y-83115000D02*
X111135000Y-80825000D01*
X106250000Y-84750000D02*
X109500000Y-84750000D01*
X141750000Y-90500000D02*
X141750000Y-88510000D01*
X141750000Y-88510000D02*
X141835000Y-88425000D01*
X140250000Y-92000000D02*
X141750000Y-90500000D01*
X136500000Y-92000000D02*
X140250000Y-92000000D01*
X170000000Y-91750000D02*
X171535000Y-90215000D01*
X171535000Y-90215000D02*
X171535000Y-88325000D01*
X166250000Y-91750000D02*
X170000000Y-91750000D01*
X112000000Y-55000000D02*
X113435000Y-53565000D01*
X113435000Y-53565000D02*
X113435000Y-52125000D01*
X108000000Y-55000000D02*
X112000000Y-55000000D01*
X140000000Y-59250000D02*
X141835000Y-57415000D01*
X141835000Y-57415000D02*
X141835000Y-56025000D01*
X136250000Y-59250000D02*
X140000000Y-59250000D01*
X169500000Y-60250000D02*
X171535000Y-58215000D01*
X171535000Y-58215000D02*
X171535000Y-56825000D01*
X167000000Y-60250000D02*
X169500000Y-60250000D01*
X241935000Y-56065000D02*
X240250000Y-57750000D01*
X240250000Y-57750000D02*
X237250000Y-57750000D01*
X241935000Y-54525000D02*
X241935000Y-56065000D01*
D18*
G36*
X89484161Y-48722852D02*
X89346127Y-48815083D01*
X89064833Y-48814838D01*
X88721057Y-48956883D01*
X88457808Y-49219673D01*
X88315162Y-49563201D01*
X88314947Y-49810251D01*
X77307210Y-60817988D01*
X76971057Y-60956883D01*
X76707808Y-61219673D01*
X76567409Y-61557789D01*
X69462599Y-68662599D01*
X69297852Y-68909161D01*
X69240000Y-69200000D01*
X69240000Y-72020693D01*
X69196963Y-71798877D01*
X69057173Y-71586073D01*
X68846140Y-71443623D01*
X68596500Y-71393560D01*
X67453500Y-71393560D01*
X67211377Y-71440537D01*
X67067575Y-71535000D01*
X67009802Y-71535000D01*
X66942796Y-71467994D01*
X66942796Y-70732006D01*
X80989810Y-56684992D01*
X81185167Y-56685162D01*
X81528943Y-56543117D01*
X81792192Y-56280327D01*
X81934838Y-55936799D01*
X81935010Y-55739792D01*
X85471921Y-52202881D01*
X85517408Y-52202921D01*
X85861184Y-52060876D01*
X86124433Y-51798086D01*
X86267079Y-51454558D01*
X86267403Y-51082592D01*
X86125358Y-50738816D01*
X85862568Y-50475567D01*
X85519040Y-50332921D01*
X85147074Y-50332597D01*
X84803298Y-50474642D01*
X84540049Y-50737432D01*
X84397403Y-51080960D01*
X84397362Y-51127836D01*
X80636797Y-54888401D01*
X80471057Y-54956883D01*
X80207808Y-55219673D01*
X80138419Y-55386779D01*
X65645395Y-69879803D01*
X65480648Y-70126365D01*
X65422796Y-70417204D01*
X65422796Y-71782796D01*
X65480648Y-72073635D01*
X65645395Y-72320197D01*
X66157599Y-72832401D01*
X66404161Y-72997148D01*
X66695000Y-73055000D01*
X66860416Y-73055000D01*
X66856123Y-73061360D01*
X66806060Y-73311000D01*
X66806060Y-73819000D01*
X66853037Y-74061123D01*
X66862153Y-74075000D01*
X65897315Y-74075000D01*
X65780327Y-73957808D01*
X65436799Y-73815162D01*
X65064833Y-73814838D01*
X64721057Y-73956883D01*
X64457808Y-74219673D01*
X64315162Y-74563201D01*
X64314838Y-74935167D01*
X64456883Y-75278943D01*
X64719673Y-75542192D01*
X65063201Y-75684838D01*
X65435167Y-75685162D01*
X65653376Y-75595000D01*
X66330198Y-75595000D01*
X65662599Y-76262599D01*
X65497852Y-76509161D01*
X65440000Y-76800000D01*
X65440000Y-78450000D01*
X65497852Y-78740839D01*
X65662599Y-78987401D01*
X69314878Y-82639680D01*
X69314838Y-82685167D01*
X69456883Y-83028943D01*
X69719673Y-83292192D01*
X70063201Y-83434838D01*
X70435167Y-83435162D01*
X70778943Y-83293117D01*
X71042192Y-83030327D01*
X71184838Y-82686799D01*
X71185162Y-82314833D01*
X71043117Y-81971057D01*
X70780327Y-81707808D01*
X70436799Y-81565162D01*
X70389923Y-81565121D01*
X70184802Y-81360000D01*
X90315121Y-81360000D01*
X90314838Y-81685167D01*
X90440792Y-81990000D01*
X89594543Y-81990000D01*
X89562407Y-81957808D01*
X89218879Y-81815162D01*
X88846913Y-81814838D01*
X88503137Y-81956883D01*
X88469962Y-81990000D01*
X82062463Y-81990000D01*
X82030327Y-81957808D01*
X81686799Y-81815162D01*
X81314833Y-81814838D01*
X80971057Y-81956883D01*
X80707808Y-82219673D01*
X80565162Y-82563201D01*
X80564838Y-82935167D01*
X80706883Y-83278943D01*
X80969673Y-83542192D01*
X81313201Y-83684838D01*
X81685167Y-83685162D01*
X82028943Y-83543117D01*
X82062118Y-83510000D01*
X88469617Y-83510000D01*
X88501753Y-83542192D01*
X88845281Y-83684838D01*
X89217247Y-83685162D01*
X89561023Y-83543117D01*
X89594198Y-83510000D01*
X92775252Y-83510000D01*
X92706000Y-83677190D01*
X92706000Y-84089250D01*
X92864750Y-84248000D01*
X93468000Y-84248000D01*
X93468000Y-84228000D01*
X93722000Y-84228000D01*
X93722000Y-84248000D01*
X94738000Y-84248000D01*
X94738000Y-84228000D01*
X94992000Y-84228000D01*
X94992000Y-84248000D01*
X95012000Y-84248000D01*
X95012000Y-84502000D01*
X94992000Y-84502000D01*
X94992000Y-85422750D01*
X95150750Y-85581500D01*
X95245309Y-85581500D01*
X95375000Y-85527780D01*
X95375000Y-86135000D01*
X95432852Y-86425839D01*
X95597599Y-86672401D01*
X96025277Y-87100079D01*
X96271839Y-87264826D01*
X96562678Y-87322678D01*
X103747876Y-87322678D01*
X107162599Y-90737401D01*
X107409161Y-90902148D01*
X107700000Y-90960000D01*
X126285198Y-90960000D01*
X132112599Y-96787401D01*
X132359161Y-96952148D01*
X132650000Y-97010000D01*
X136449085Y-97010000D01*
X136481221Y-97042192D01*
X136824749Y-97184838D01*
X137196715Y-97185162D01*
X137540491Y-97043117D01*
X137573666Y-97010000D01*
X143000000Y-97010000D01*
X143043498Y-97001348D01*
X143086995Y-97010000D01*
X224095758Y-97010000D01*
X224206883Y-97278943D01*
X224242877Y-97315000D01*
X61185000Y-97315000D01*
X61185000Y-92528172D01*
X99582538Y-92528172D01*
X99987709Y-93508761D01*
X100737293Y-94259655D01*
X101717173Y-94666536D01*
X102778172Y-94667462D01*
X103758761Y-94262291D01*
X104509655Y-93512707D01*
X104916536Y-92532827D01*
X104917462Y-91471828D01*
X104512291Y-90491239D01*
X103762707Y-89740345D01*
X102782827Y-89333464D01*
X101721828Y-89332538D01*
X100741239Y-89737709D01*
X99990345Y-90487293D01*
X99583464Y-91467173D01*
X99582538Y-92528172D01*
X61185000Y-92528172D01*
X61185000Y-90935167D01*
X67064838Y-90935167D01*
X67206883Y-91278943D01*
X67469673Y-91542192D01*
X67813201Y-91684838D01*
X68185167Y-91685162D01*
X68528943Y-91543117D01*
X68562118Y-91510000D01*
X84187537Y-91510000D01*
X84219673Y-91542192D01*
X84563201Y-91684838D01*
X84935167Y-91685162D01*
X85278943Y-91543117D01*
X85542192Y-91280327D01*
X85684838Y-90936799D01*
X85685162Y-90564833D01*
X85543117Y-90221057D01*
X85280327Y-89957808D01*
X84936799Y-89815162D01*
X84564833Y-89814838D01*
X84221057Y-89956883D01*
X84187882Y-89990000D01*
X68562463Y-89990000D01*
X68530327Y-89957808D01*
X68186799Y-89815162D01*
X67814833Y-89814838D01*
X67471057Y-89956883D01*
X67207808Y-90219673D01*
X67065162Y-90563201D01*
X67064838Y-90935167D01*
X61185000Y-90935167D01*
X61185000Y-86435167D01*
X69314838Y-86435167D01*
X69456883Y-86778943D01*
X69719673Y-87042192D01*
X70063201Y-87184838D01*
X70435167Y-87185162D01*
X70778943Y-87043117D01*
X71042192Y-86780327D01*
X71184838Y-86436799D01*
X71184879Y-86389923D01*
X71814802Y-85760000D01*
X80937537Y-85760000D01*
X80969673Y-85792192D01*
X81313201Y-85934838D01*
X81685167Y-85935162D01*
X82028943Y-85793117D01*
X82292192Y-85530327D01*
X82434838Y-85186799D01*
X82435162Y-84814833D01*
X82371497Y-84660750D01*
X92706000Y-84660750D01*
X92706000Y-85072810D01*
X92802673Y-85306199D01*
X92981302Y-85484827D01*
X93214691Y-85581500D01*
X93309250Y-85581500D01*
X93468000Y-85422750D01*
X93468000Y-84502000D01*
X93722000Y-84502000D01*
X93722000Y-85422750D01*
X93880750Y-85581500D01*
X93975309Y-85581500D01*
X94208698Y-85484827D01*
X94230000Y-85463525D01*
X94251302Y-85484827D01*
X94484691Y-85581500D01*
X94579250Y-85581500D01*
X94738000Y-85422750D01*
X94738000Y-84502000D01*
X93722000Y-84502000D01*
X93468000Y-84502000D01*
X93468000Y-84502000D01*
X92864750Y-84502000D01*
X92706000Y-84660750D01*
X82371497Y-84660750D01*
X82293117Y-84471057D01*
X82030327Y-84207808D01*
X81686799Y-84065162D01*
X81314833Y-84064838D01*
X80971057Y-84206883D01*
X80937882Y-84240000D01*
X71500000Y-84240000D01*
X71209161Y-84297852D01*
X70962599Y-84462599D01*
X70110320Y-85314878D01*
X70064833Y-85314838D01*
X69721057Y-85456883D01*
X69457808Y-85719673D01*
X69315162Y-86063201D01*
X69314838Y-86435167D01*
X61185000Y-86435167D01*
X61185000Y-61435167D01*
X64314838Y-61435167D01*
X64456883Y-61778943D01*
X64719673Y-62042192D01*
X65063201Y-62184838D01*
X65435167Y-62185162D01*
X65778943Y-62043117D01*
X66042192Y-61780327D01*
X66184838Y-61436799D01*
X66185162Y-61064833D01*
X66043117Y-60721057D01*
X66010000Y-60687882D01*
X66010000Y-57300944D01*
X66028943Y-57293117D01*
X66292192Y-57030327D01*
X66434838Y-56686799D01*
X66434879Y-56639923D01*
X67064802Y-56010000D01*
X75500000Y-56010000D01*
X75790839Y-55952148D01*
X76037401Y-55787401D01*
X77639680Y-54185122D01*
X77685167Y-54185162D01*
X78028943Y-54043117D01*
X78292192Y-53780327D01*
X78434838Y-53436799D01*
X78435162Y-53064833D01*
X78293117Y-52721057D01*
X78030327Y-52457808D01*
X77686799Y-52315162D01*
X77314833Y-52314838D01*
X76971057Y-52456883D01*
X76707808Y-52719673D01*
X76565162Y-53063201D01*
X76565121Y-53110077D01*
X75185198Y-54490000D01*
X66750000Y-54490000D01*
X66459161Y-54547852D01*
X66212599Y-54712599D01*
X65360320Y-55564878D01*
X65314833Y-55564838D01*
X64971057Y-55706883D01*
X64707808Y-55969673D01*
X64565162Y-56313201D01*
X64565057Y-56433411D01*
X64547852Y-56459161D01*
X64490000Y-56750000D01*
X64490000Y-60687537D01*
X64457808Y-60719673D01*
X64315162Y-61063201D01*
X64314838Y-61435167D01*
X61185000Y-61435167D01*
X61185000Y-48685000D01*
X89674454Y-48685000D01*
X89484161Y-48722852D01*
X89484161Y-48722852D01*
G37*
X89484161Y-48722852D02*
X89346127Y-48815083D01*
X89064833Y-48814838D01*
X88721057Y-48956883D01*
X88457808Y-49219673D01*
X88315162Y-49563201D01*
X88314947Y-49810251D01*
X77307210Y-60817988D01*
X76971057Y-60956883D01*
X76707808Y-61219673D01*
X76567409Y-61557789D01*
X69462599Y-68662599D01*
X69297852Y-68909161D01*
X69240000Y-69200000D01*
X69240000Y-72020693D01*
X69196963Y-71798877D01*
X69057173Y-71586073D01*
X68846140Y-71443623D01*
X68596500Y-71393560D01*
X67453500Y-71393560D01*
X67211377Y-71440537D01*
X67067575Y-71535000D01*
X67009802Y-71535000D01*
X66942796Y-71467994D01*
X66942796Y-70732006D01*
X80989810Y-56684992D01*
X81185167Y-56685162D01*
X81528943Y-56543117D01*
X81792192Y-56280327D01*
X81934838Y-55936799D01*
X81935010Y-55739792D01*
X85471921Y-52202881D01*
X85517408Y-52202921D01*
X85861184Y-52060876D01*
X86124433Y-51798086D01*
X86267079Y-51454558D01*
X86267403Y-51082592D01*
X86125358Y-50738816D01*
X85862568Y-50475567D01*
X85519040Y-50332921D01*
X85147074Y-50332597D01*
X84803298Y-50474642D01*
X84540049Y-50737432D01*
X84397403Y-51080960D01*
X84397362Y-51127836D01*
X80636797Y-54888401D01*
X80471057Y-54956883D01*
X80207808Y-55219673D01*
X80138419Y-55386779D01*
X65645395Y-69879803D01*
X65480648Y-70126365D01*
X65422796Y-70417204D01*
X65422796Y-71782796D01*
X65480648Y-72073635D01*
X65645395Y-72320197D01*
X66157599Y-72832401D01*
X66404161Y-72997148D01*
X66695000Y-73055000D01*
X66860416Y-73055000D01*
X66856123Y-73061360D01*
X66806060Y-73311000D01*
X66806060Y-73819000D01*
X66853037Y-74061123D01*
X66862153Y-74075000D01*
X65897315Y-74075000D01*
X65780327Y-73957808D01*
X65436799Y-73815162D01*
X65064833Y-73814838D01*
X64721057Y-73956883D01*
X64457808Y-74219673D01*
X64315162Y-74563201D01*
X64314838Y-74935167D01*
X64456883Y-75278943D01*
X64719673Y-75542192D01*
X65063201Y-75684838D01*
X65435167Y-75685162D01*
X65653376Y-75595000D01*
X66330198Y-75595000D01*
X65662599Y-76262599D01*
X65497852Y-76509161D01*
X65440000Y-76800000D01*
X65440000Y-78450000D01*
X65497852Y-78740839D01*
X65662599Y-78987401D01*
X69314878Y-82639680D01*
X69314838Y-82685167D01*
X69456883Y-83028943D01*
X69719673Y-83292192D01*
X70063201Y-83434838D01*
X70435167Y-83435162D01*
X70778943Y-83293117D01*
X71042192Y-83030327D01*
X71184838Y-82686799D01*
X71185162Y-82314833D01*
X71043117Y-81971057D01*
X70780327Y-81707808D01*
X70436799Y-81565162D01*
X70389923Y-81565121D01*
X70184802Y-81360000D01*
X90315121Y-81360000D01*
X90314838Y-81685167D01*
X90440792Y-81990000D01*
X89594543Y-81990000D01*
X89562407Y-81957808D01*
X89218879Y-81815162D01*
X88846913Y-81814838D01*
X88503137Y-81956883D01*
X88469962Y-81990000D01*
X82062463Y-81990000D01*
X82030327Y-81957808D01*
X81686799Y-81815162D01*
X81314833Y-81814838D01*
X80971057Y-81956883D01*
X80707808Y-82219673D01*
X80565162Y-82563201D01*
X80564838Y-82935167D01*
X80706883Y-83278943D01*
X80969673Y-83542192D01*
X81313201Y-83684838D01*
X81685167Y-83685162D01*
X82028943Y-83543117D01*
X82062118Y-83510000D01*
X88469617Y-83510000D01*
X88501753Y-83542192D01*
X88845281Y-83684838D01*
X89217247Y-83685162D01*
X89561023Y-83543117D01*
X89594198Y-83510000D01*
X92775252Y-83510000D01*
X92706000Y-83677190D01*
X92706000Y-84089250D01*
X92864750Y-84248000D01*
X93468000Y-84248000D01*
X93468000Y-84228000D01*
X93722000Y-84228000D01*
X93722000Y-84248000D01*
X94738000Y-84248000D01*
X94738000Y-84228000D01*
X94992000Y-84228000D01*
X94992000Y-84248000D01*
X95012000Y-84248000D01*
X95012000Y-84502000D01*
X94992000Y-84502000D01*
X94992000Y-85422750D01*
X95150750Y-85581500D01*
X95245309Y-85581500D01*
X95375000Y-85527780D01*
X95375000Y-86135000D01*
X95432852Y-86425839D01*
X95597599Y-86672401D01*
X96025277Y-87100079D01*
X96271839Y-87264826D01*
X96562678Y-87322678D01*
X103747876Y-87322678D01*
X107162599Y-90737401D01*
X107409161Y-90902148D01*
X107700000Y-90960000D01*
X126285198Y-90960000D01*
X132112599Y-96787401D01*
X132359161Y-96952148D01*
X132650000Y-97010000D01*
X136449085Y-97010000D01*
X136481221Y-97042192D01*
X136824749Y-97184838D01*
X137196715Y-97185162D01*
X137540491Y-97043117D01*
X137573666Y-97010000D01*
X143000000Y-97010000D01*
X143043498Y-97001348D01*
X143086995Y-97010000D01*
X224095758Y-97010000D01*
X224206883Y-97278943D01*
X224242877Y-97315000D01*
X61185000Y-97315000D01*
X61185000Y-92528172D01*
X99582538Y-92528172D01*
X99987709Y-93508761D01*
X100737293Y-94259655D01*
X101717173Y-94666536D01*
X102778172Y-94667462D01*
X103758761Y-94262291D01*
X104509655Y-93512707D01*
X104916536Y-92532827D01*
X104917462Y-91471828D01*
X104512291Y-90491239D01*
X103762707Y-89740345D01*
X102782827Y-89333464D01*
X101721828Y-89332538D01*
X100741239Y-89737709D01*
X99990345Y-90487293D01*
X99583464Y-91467173D01*
X99582538Y-92528172D01*
X61185000Y-92528172D01*
X61185000Y-90935167D01*
X67064838Y-90935167D01*
X67206883Y-91278943D01*
X67469673Y-91542192D01*
X67813201Y-91684838D01*
X68185167Y-91685162D01*
X68528943Y-91543117D01*
X68562118Y-91510000D01*
X84187537Y-91510000D01*
X84219673Y-91542192D01*
X84563201Y-91684838D01*
X84935167Y-91685162D01*
X85278943Y-91543117D01*
X85542192Y-91280327D01*
X85684838Y-90936799D01*
X85685162Y-90564833D01*
X85543117Y-90221057D01*
X85280327Y-89957808D01*
X84936799Y-89815162D01*
X84564833Y-89814838D01*
X84221057Y-89956883D01*
X84187882Y-89990000D01*
X68562463Y-89990000D01*
X68530327Y-89957808D01*
X68186799Y-89815162D01*
X67814833Y-89814838D01*
X67471057Y-89956883D01*
X67207808Y-90219673D01*
X67065162Y-90563201D01*
X67064838Y-90935167D01*
X61185000Y-90935167D01*
X61185000Y-86435167D01*
X69314838Y-86435167D01*
X69456883Y-86778943D01*
X69719673Y-87042192D01*
X70063201Y-87184838D01*
X70435167Y-87185162D01*
X70778943Y-87043117D01*
X71042192Y-86780327D01*
X71184838Y-86436799D01*
X71184879Y-86389923D01*
X71814802Y-85760000D01*
X80937537Y-85760000D01*
X80969673Y-85792192D01*
X81313201Y-85934838D01*
X81685167Y-85935162D01*
X82028943Y-85793117D01*
X82292192Y-85530327D01*
X82434838Y-85186799D01*
X82435162Y-84814833D01*
X82371497Y-84660750D01*
X92706000Y-84660750D01*
X92706000Y-85072810D01*
X92802673Y-85306199D01*
X92981302Y-85484827D01*
X93214691Y-85581500D01*
X93309250Y-85581500D01*
X93468000Y-85422750D01*
X93468000Y-84502000D01*
X93722000Y-84502000D01*
X93722000Y-85422750D01*
X93880750Y-85581500D01*
X93975309Y-85581500D01*
X94208698Y-85484827D01*
X94230000Y-85463525D01*
X94251302Y-85484827D01*
X94484691Y-85581500D01*
X94579250Y-85581500D01*
X94738000Y-85422750D01*
X94738000Y-84502000D01*
X93722000Y-84502000D01*
X93468000Y-84502000D01*
X93468000Y-84502000D01*
X92864750Y-84502000D01*
X92706000Y-84660750D01*
X82371497Y-84660750D01*
X82293117Y-84471057D01*
X82030327Y-84207808D01*
X81686799Y-84065162D01*
X81314833Y-84064838D01*
X80971057Y-84206883D01*
X80937882Y-84240000D01*
X71500000Y-84240000D01*
X71209161Y-84297852D01*
X70962599Y-84462599D01*
X70110320Y-85314878D01*
X70064833Y-85314838D01*
X69721057Y-85456883D01*
X69457808Y-85719673D01*
X69315162Y-86063201D01*
X69314838Y-86435167D01*
X61185000Y-86435167D01*
X61185000Y-61435167D01*
X64314838Y-61435167D01*
X64456883Y-61778943D01*
X64719673Y-62042192D01*
X65063201Y-62184838D01*
X65435167Y-62185162D01*
X65778943Y-62043117D01*
X66042192Y-61780327D01*
X66184838Y-61436799D01*
X66185162Y-61064833D01*
X66043117Y-60721057D01*
X66010000Y-60687882D01*
X66010000Y-57300944D01*
X66028943Y-57293117D01*
X66292192Y-57030327D01*
X66434838Y-56686799D01*
X66434879Y-56639923D01*
X67064802Y-56010000D01*
X75500000Y-56010000D01*
X75790839Y-55952148D01*
X76037401Y-55787401D01*
X77639680Y-54185122D01*
X77685167Y-54185162D01*
X78028943Y-54043117D01*
X78292192Y-53780327D01*
X78434838Y-53436799D01*
X78435162Y-53064833D01*
X78293117Y-52721057D01*
X78030327Y-52457808D01*
X77686799Y-52315162D01*
X77314833Y-52314838D01*
X76971057Y-52456883D01*
X76707808Y-52719673D01*
X76565162Y-53063201D01*
X76565121Y-53110077D01*
X75185198Y-54490000D01*
X66750000Y-54490000D01*
X66459161Y-54547852D01*
X66212599Y-54712599D01*
X65360320Y-55564878D01*
X65314833Y-55564838D01*
X64971057Y-55706883D01*
X64707808Y-55969673D01*
X64565162Y-56313201D01*
X64565057Y-56433411D01*
X64547852Y-56459161D01*
X64490000Y-56750000D01*
X64490000Y-60687537D01*
X64457808Y-60719673D01*
X64315162Y-61063201D01*
X64314838Y-61435167D01*
X61185000Y-61435167D01*
X61185000Y-48685000D01*
X89674454Y-48685000D01*
X89484161Y-48722852D01*
G36*
X259815000Y-97315000D02*
X225757458Y-97315000D01*
X225792192Y-97280327D01*
X225904442Y-97010000D01*
X248150000Y-97010000D01*
X248440839Y-96952148D01*
X248687401Y-96787401D01*
X249737401Y-95737401D01*
X249902148Y-95490840D01*
X249960000Y-95200000D01*
X249960000Y-87800000D01*
X249902148Y-87509161D01*
X249737401Y-87262599D01*
X247337401Y-84862599D01*
X247090839Y-84697852D01*
X246800000Y-84640000D01*
X243800000Y-84640000D01*
X243509161Y-84697852D01*
X243262599Y-84862599D01*
X242667599Y-85457599D01*
X242502852Y-85704161D01*
X242486138Y-85788185D01*
X242438640Y-85756123D01*
X242189000Y-85706060D01*
X241681000Y-85706060D01*
X241438877Y-85753037D01*
X241299604Y-85844525D01*
X241168640Y-85756123D01*
X240919000Y-85706060D01*
X240411000Y-85706060D01*
X240168877Y-85753037D01*
X240029604Y-85844525D01*
X240010000Y-85831292D01*
X240010000Y-85812463D01*
X240042192Y-85780327D01*
X240184838Y-85436799D01*
X240185162Y-85064833D01*
X240043117Y-84721057D01*
X239780327Y-84457808D01*
X239436799Y-84315162D01*
X239064833Y-84314838D01*
X238721057Y-84456883D01*
X238457808Y-84719673D01*
X238315162Y-85063201D01*
X238314838Y-85435167D01*
X238456883Y-85778943D01*
X238490000Y-85812118D01*
X238490000Y-86780000D01*
X238493560Y-86797897D01*
X238493560Y-87496500D01*
X238535684Y-87713611D01*
X238280327Y-87457808D01*
X237936799Y-87315162D01*
X237564833Y-87314838D01*
X237221057Y-87456883D01*
X236957808Y-87719673D01*
X236815162Y-88063201D01*
X236814838Y-88435167D01*
X236956883Y-88778943D01*
X237219673Y-89042192D01*
X237563201Y-89184838D01*
X237610077Y-89184879D01*
X237712599Y-89287401D01*
X237864708Y-89389037D01*
X237686799Y-89315162D01*
X237314833Y-89314838D01*
X236971057Y-89456883D01*
X236707808Y-89719673D01*
X236565162Y-90063201D01*
X236564838Y-90435167D01*
X236706883Y-90778943D01*
X236969673Y-91042192D01*
X237313201Y-91184838D01*
X237685167Y-91185162D01*
X238028943Y-91043117D01*
X238062118Y-91010000D01*
X240250000Y-91010000D01*
X240540839Y-90952148D01*
X240787401Y-90787401D01*
X242472401Y-89102401D01*
X242637148Y-88855839D01*
X242695000Y-88565000D01*
X242695000Y-88089584D01*
X242701360Y-88093877D01*
X242951000Y-88143940D01*
X243459000Y-88143940D01*
X243701123Y-88096963D01*
X243913927Y-87957173D01*
X244056377Y-87746140D01*
X244106440Y-87496500D01*
X244106440Y-86353500D01*
X244076356Y-86198446D01*
X244114802Y-86160000D01*
X245240000Y-86160000D01*
X245240000Y-87687537D01*
X245207808Y-87719673D01*
X245065162Y-88063201D01*
X245064838Y-88435167D01*
X245206883Y-88778943D01*
X245469673Y-89042192D01*
X245813201Y-89184838D01*
X246185167Y-89185162D01*
X246528943Y-89043117D01*
X246792192Y-88780327D01*
X246934838Y-88436799D01*
X246935162Y-88064833D01*
X246793117Y-87721057D01*
X246760000Y-87687882D01*
X246760000Y-86434802D01*
X248440000Y-88114802D01*
X248440000Y-94885198D01*
X247835198Y-95490000D01*
X223604114Y-95490000D01*
X223625000Y-95385000D01*
X223625000Y-94427780D01*
X223754691Y-94481500D01*
X223849250Y-94481500D01*
X224008000Y-94322750D01*
X224008000Y-93402000D01*
X224262000Y-93402000D01*
X224262000Y-94322750D01*
X224420750Y-94481500D01*
X224515309Y-94481500D01*
X224748698Y-94384827D01*
X224770000Y-94363525D01*
X224791302Y-94384827D01*
X225024691Y-94481500D01*
X225119250Y-94481500D01*
X225278000Y-94322750D01*
X225278000Y-93402000D01*
X225532000Y-93402000D01*
X225532000Y-94322750D01*
X225690750Y-94481500D01*
X225785309Y-94481500D01*
X226018698Y-94384827D01*
X226197327Y-94206199D01*
X226294000Y-93972810D01*
X226294000Y-93560750D01*
X226135250Y-93402000D01*
X225532000Y-93402000D01*
X225278000Y-93402000D01*
X225278000Y-93402000D01*
X224262000Y-93402000D01*
X224008000Y-93402000D01*
X224008000Y-93402000D01*
X223988000Y-93402000D01*
X223988000Y-93148000D01*
X224008000Y-93148000D01*
X224008000Y-93128000D01*
X224262000Y-93128000D01*
X224262000Y-93148000D01*
X225278000Y-93148000D01*
X225278000Y-92227250D01*
X225532000Y-92227250D01*
X225532000Y-93148000D01*
X226135250Y-93148000D01*
X226255078Y-93028172D01*
X229582538Y-93028172D01*
X229987709Y-94008761D01*
X230737293Y-94759655D01*
X231717173Y-95166536D01*
X232778172Y-95167462D01*
X233758761Y-94762291D01*
X234509655Y-94012707D01*
X234697323Y-93560750D01*
X238506000Y-93560750D01*
X238506000Y-93972810D01*
X238602673Y-94206199D01*
X238781302Y-94384827D01*
X239014691Y-94481500D01*
X239109250Y-94481500D01*
X239268000Y-94322750D01*
X239268000Y-93402000D01*
X239522000Y-93402000D01*
X239522000Y-94322750D01*
X239680750Y-94481500D01*
X239775309Y-94481500D01*
X240008698Y-94384827D01*
X240030000Y-94363525D01*
X240051302Y-94384827D01*
X240284691Y-94481500D01*
X240379250Y-94481500D01*
X240538000Y-94322750D01*
X240538000Y-93402000D01*
X240792000Y-93402000D01*
X240792000Y-94322750D01*
X240950750Y-94481500D01*
X241045309Y-94481500D01*
X241278698Y-94384827D01*
X241300000Y-94363525D01*
X241321302Y-94384827D01*
X241554691Y-94481500D01*
X241649250Y-94481500D01*
X241808000Y-94322750D01*
X241808000Y-93402000D01*
X242062000Y-93402000D01*
X242062000Y-94322750D01*
X242220750Y-94481500D01*
X242315309Y-94481500D01*
X242548698Y-94384827D01*
X242570000Y-94363525D01*
X242591302Y-94384827D01*
X242824691Y-94481500D01*
X242919250Y-94481500D01*
X243078000Y-94322750D01*
X243078000Y-93402000D01*
X243332000Y-93402000D01*
X243332000Y-94322750D01*
X243490750Y-94481500D01*
X243585309Y-94481500D01*
X243818698Y-94384827D01*
X243997327Y-94206199D01*
X244094000Y-93972810D01*
X244094000Y-93560750D01*
X243935250Y-93402000D01*
X243332000Y-93402000D01*
X243078000Y-93402000D01*
X243078000Y-93402000D01*
X242062000Y-93402000D01*
X241808000Y-93402000D01*
X241808000Y-93402000D01*
X240792000Y-93402000D01*
X240538000Y-93402000D01*
X240538000Y-93402000D01*
X239522000Y-93402000D01*
X239268000Y-93402000D01*
X239268000Y-93402000D01*
X238664750Y-93402000D01*
X238506000Y-93560750D01*
X234697323Y-93560750D01*
X234916536Y-93032827D01*
X234916933Y-92577190D01*
X238506000Y-92577190D01*
X238506000Y-92989250D01*
X238664750Y-93148000D01*
X239268000Y-93148000D01*
X239268000Y-92227250D01*
X239522000Y-92227250D01*
X239522000Y-93148000D01*
X240538000Y-93148000D01*
X240538000Y-92227250D01*
X240792000Y-92227250D01*
X240792000Y-93148000D01*
X241808000Y-93148000D01*
X241808000Y-92227250D01*
X242062000Y-92227250D01*
X242062000Y-93148000D01*
X243078000Y-93148000D01*
X243078000Y-92227250D01*
X243332000Y-92227250D01*
X243332000Y-93148000D01*
X243935250Y-93148000D01*
X244094000Y-92989250D01*
X244094000Y-92577190D01*
X243997327Y-92343801D01*
X243818698Y-92165173D01*
X243585309Y-92068500D01*
X243490750Y-92068500D01*
X243332000Y-92227250D01*
X243078000Y-92227250D01*
X243078000Y-92227250D01*
X242919250Y-92068500D01*
X242824691Y-92068500D01*
X242591302Y-92165173D01*
X242570000Y-92186475D01*
X242548698Y-92165173D01*
X242315309Y-92068500D01*
X242220750Y-92068500D01*
X242062000Y-92227250D01*
X241808000Y-92227250D01*
X241808000Y-92227250D01*
X241649250Y-92068500D01*
X241554691Y-92068500D01*
X241321302Y-92165173D01*
X241300000Y-92186475D01*
X241278698Y-92165173D01*
X241045309Y-92068500D01*
X240950750Y-92068500D01*
X240792000Y-92227250D01*
X240538000Y-92227250D01*
X240538000Y-92227250D01*
X240379250Y-92068500D01*
X240284691Y-92068500D01*
X240051302Y-92165173D01*
X240030000Y-92186475D01*
X240008698Y-92165173D01*
X239775309Y-92068500D01*
X239680750Y-92068500D01*
X239522000Y-92227250D01*
X239268000Y-92227250D01*
X239268000Y-92227250D01*
X239109250Y-92068500D01*
X239014691Y-92068500D01*
X238781302Y-92165173D01*
X238602673Y-92343801D01*
X238506000Y-92577190D01*
X234916933Y-92577190D01*
X234917462Y-91971828D01*
X234512291Y-90991239D01*
X233762707Y-90240345D01*
X232782827Y-89833464D01*
X231721828Y-89832538D01*
X230741239Y-90237709D01*
X229990345Y-90987293D01*
X229583464Y-91967173D01*
X229582538Y-93028172D01*
X226255078Y-93028172D01*
X226294000Y-92989250D01*
X226294000Y-92577190D01*
X226197327Y-92343801D01*
X226018698Y-92165173D01*
X225785309Y-92068500D01*
X225690750Y-92068500D01*
X225532000Y-92227250D01*
X225278000Y-92227250D01*
X225278000Y-92227250D01*
X225119250Y-92068500D01*
X225024691Y-92068500D01*
X224791302Y-92165173D01*
X224770000Y-92186475D01*
X224748698Y-92165173D01*
X224515309Y-92068500D01*
X224420750Y-92068500D01*
X224262002Y-92227248D01*
X224262002Y-92068500D01*
X224256302Y-92068500D01*
X224389680Y-91935122D01*
X224435167Y-91935162D01*
X224778943Y-91793117D01*
X225042192Y-91530327D01*
X225184838Y-91186799D01*
X225184879Y-91139923D01*
X225942401Y-90382401D01*
X226107148Y-90135839D01*
X226165000Y-89845000D01*
X226165000Y-87881511D01*
X226256377Y-87746140D01*
X226306440Y-87496500D01*
X226306440Y-86353500D01*
X226259463Y-86111377D01*
X226119673Y-85898573D01*
X225908640Y-85756123D01*
X225659000Y-85706060D01*
X225151000Y-85706060D01*
X224908877Y-85753037D01*
X224769604Y-85844525D01*
X224638640Y-85756123D01*
X224389000Y-85706060D01*
X223881000Y-85706060D01*
X223638877Y-85753037D01*
X223499604Y-85844525D01*
X223368640Y-85756123D01*
X223119000Y-85706060D01*
X222611000Y-85706060D01*
X222368877Y-85753037D01*
X222229604Y-85844525D01*
X222098640Y-85756123D01*
X221849000Y-85706060D01*
X221341000Y-85706060D01*
X221098877Y-85753037D01*
X220886073Y-85892827D01*
X220820480Y-85990000D01*
X219562463Y-85990000D01*
X219530327Y-85957808D01*
X219186799Y-85815162D01*
X218814833Y-85814838D01*
X218471057Y-85956883D01*
X218207808Y-86219673D01*
X218065162Y-86563201D01*
X218064838Y-86935167D01*
X218206883Y-87278943D01*
X218469673Y-87542192D01*
X218669162Y-87625028D01*
X218471057Y-87706883D01*
X218207808Y-87969673D01*
X218065162Y-88313201D01*
X218064838Y-88685167D01*
X218206883Y-89028943D01*
X218469673Y-89292192D01*
X218669162Y-89375028D01*
X218471057Y-89456883D01*
X218207808Y-89719673D01*
X218065162Y-90063201D01*
X218064838Y-90435167D01*
X218206883Y-90778943D01*
X218469673Y-91042192D01*
X218813201Y-91184838D01*
X219185167Y-91185162D01*
X219528943Y-91043117D01*
X219562118Y-91010000D01*
X223000000Y-91010000D01*
X223206218Y-90968980D01*
X222327599Y-91847599D01*
X222162852Y-92094161D01*
X222153292Y-92142223D01*
X221975309Y-92068500D01*
X221880750Y-92068500D01*
X221722000Y-92227250D01*
X221722000Y-93148000D01*
X221742000Y-93148000D01*
X221742000Y-93402000D01*
X221722000Y-93402000D01*
X221722000Y-94322750D01*
X221880750Y-94481500D01*
X221975309Y-94481500D01*
X222105000Y-94427780D01*
X222105000Y-95070198D01*
X221685198Y-95490000D01*
X173645458Y-95490000D01*
X173694000Y-95372810D01*
X173694000Y-94960750D01*
X173535250Y-94802000D01*
X172932000Y-94802000D01*
X172932000Y-94822000D01*
X172678000Y-94822000D01*
X172678000Y-94802000D01*
X172658000Y-94802000D01*
X172658000Y-94548000D01*
X172678000Y-94548000D01*
X172678000Y-94528000D01*
X172932000Y-94528000D01*
X172932000Y-94548000D01*
X173535250Y-94548000D01*
X173694000Y-94389250D01*
X173694000Y-93977190D01*
X173597327Y-93743801D01*
X173560849Y-93707323D01*
X174927290Y-93707323D01*
X174956883Y-93778943D01*
X175219673Y-94042192D01*
X175563201Y-94184838D01*
X175935167Y-94185162D01*
X176278943Y-94043117D01*
X176542192Y-93780327D01*
X176633368Y-93560750D01*
X220706000Y-93560750D01*
X220706000Y-93972810D01*
X220802673Y-94206199D01*
X220981302Y-94384827D01*
X221214691Y-94481500D01*
X221309250Y-94481500D01*
X221468000Y-94322750D01*
X221468000Y-93402000D01*
X220864750Y-93402000D01*
X220706000Y-93560750D01*
X176633368Y-93560750D01*
X176684838Y-93436799D01*
X176685162Y-93064833D01*
X176543117Y-92721057D01*
X176399501Y-92577190D01*
X220706000Y-92577190D01*
X220706000Y-92989250D01*
X220864750Y-93148000D01*
X221468000Y-93148000D01*
X221468000Y-92227250D01*
X221309250Y-92068500D01*
X221214691Y-92068500D01*
X220981302Y-92165173D01*
X220802673Y-92343801D01*
X220706000Y-92577190D01*
X176399501Y-92577190D01*
X176280327Y-92457808D01*
X175936799Y-92315162D01*
X175842783Y-92315080D01*
X175738162Y-92245175D01*
X175447323Y-92187323D01*
X173360710Y-92187323D01*
X173507148Y-91968163D01*
X173565000Y-91677323D01*
X173565000Y-89281511D01*
X173656377Y-89146140D01*
X173706440Y-88896500D01*
X173706440Y-87753500D01*
X173659463Y-87511377D01*
X173519673Y-87298573D01*
X173308640Y-87156123D01*
X173059000Y-87106060D01*
X172551000Y-87106060D01*
X172308877Y-87153037D01*
X172169604Y-87244525D01*
X172038640Y-87156123D01*
X171789000Y-87106060D01*
X171281000Y-87106060D01*
X171038877Y-87153037D01*
X170899604Y-87244525D01*
X170768640Y-87156123D01*
X170519000Y-87106060D01*
X170011000Y-87106060D01*
X169768877Y-87153037D01*
X169695288Y-87201377D01*
X169532401Y-86957599D01*
X169287401Y-86712599D01*
X169040839Y-86547852D01*
X168750000Y-86490000D01*
X166750000Y-86490000D01*
X166459160Y-86547852D01*
X166433584Y-86564941D01*
X166314833Y-86564838D01*
X165971057Y-86706883D01*
X165707808Y-86969673D01*
X165565162Y-87313201D01*
X165564838Y-87685167D01*
X165706883Y-88028943D01*
X165969673Y-88292192D01*
X166313201Y-88434838D01*
X166685167Y-88435162D01*
X167028943Y-88293117D01*
X167292192Y-88030327D01*
X167300633Y-88010000D01*
X168093560Y-88010000D01*
X168093560Y-88896500D01*
X168140537Y-89138623D01*
X168280327Y-89351427D01*
X168485616Y-89490000D01*
X167050944Y-89490000D01*
X167043117Y-89471057D01*
X166780327Y-89207808D01*
X166436799Y-89065162D01*
X166064833Y-89064838D01*
X165721057Y-89206883D01*
X165457808Y-89469673D01*
X165315162Y-89813201D01*
X165314838Y-90185167D01*
X165456883Y-90528943D01*
X165719673Y-90792192D01*
X165919162Y-90875028D01*
X165721057Y-90956883D01*
X165457808Y-91219673D01*
X165315162Y-91563201D01*
X165314838Y-91935167D01*
X165456883Y-92278943D01*
X165719673Y-92542192D01*
X166063201Y-92684838D01*
X166435167Y-92685162D01*
X166778943Y-92543117D01*
X166812118Y-92510000D01*
X170000000Y-92510000D01*
X170290839Y-92452148D01*
X170537401Y-92287401D01*
X172045000Y-90779802D01*
X172045000Y-91362521D01*
X170997599Y-92409922D01*
X170832852Y-92656484D01*
X170775000Y-92947323D01*
X170775000Y-93522220D01*
X170645309Y-93468500D01*
X170550750Y-93468500D01*
X170392000Y-93627250D01*
X170392000Y-94548000D01*
X170412000Y-94548000D01*
X170412000Y-94802000D01*
X170392000Y-94802000D01*
X170392000Y-94822000D01*
X170138000Y-94822000D01*
X170138000Y-94802000D01*
X169122000Y-94802000D01*
X169122000Y-94822000D01*
X168868000Y-94822000D01*
X168868000Y-94802000D01*
X168264750Y-94802000D01*
X168106000Y-94960750D01*
X168106000Y-95372810D01*
X168154542Y-95490000D01*
X157113835Y-95490000D01*
X157113835Y-94086783D01*
X157277852Y-93977190D01*
X168106000Y-93977190D01*
X168106000Y-94389250D01*
X168264750Y-94548000D01*
X168868000Y-94548000D01*
X168868000Y-93627250D01*
X169122000Y-93627250D01*
X169122000Y-94548000D01*
X170138000Y-94548000D01*
X170138000Y-93627250D01*
X169979250Y-93468500D01*
X169884691Y-93468500D01*
X169651302Y-93565173D01*
X169630000Y-93586475D01*
X169608698Y-93565173D01*
X169375309Y-93468500D01*
X169280750Y-93468500D01*
X169122000Y-93627250D01*
X168868000Y-93627250D01*
X168868000Y-93627250D01*
X168709250Y-93468500D01*
X168614691Y-93468500D01*
X168381302Y-93565173D01*
X168202673Y-93743801D01*
X168106000Y-93977190D01*
X157277852Y-93977190D01*
X157337401Y-93937401D01*
X157672401Y-93602401D01*
X157837148Y-93355839D01*
X157895000Y-93065000D01*
X157895000Y-92627780D01*
X158024691Y-92681500D01*
X158119250Y-92681500D01*
X158278000Y-92522750D01*
X158278000Y-91602000D01*
X158532000Y-91602000D01*
X158532000Y-92522750D01*
X158690750Y-92681500D01*
X158785309Y-92681500D01*
X159018698Y-92584827D01*
X159197327Y-92406199D01*
X159294000Y-92172810D01*
X159294000Y-91760750D01*
X159135250Y-91602000D01*
X158532000Y-91602000D01*
X158278000Y-91602000D01*
X158278000Y-91602000D01*
X158258000Y-91602000D01*
X158258000Y-91348000D01*
X158278000Y-91348000D01*
X158278000Y-90427250D01*
X158532000Y-90427250D01*
X158532000Y-91348000D01*
X159135250Y-91348000D01*
X159294000Y-91189250D01*
X159294000Y-90777190D01*
X159197327Y-90543801D01*
X159018698Y-90365173D01*
X158785309Y-90268500D01*
X158690750Y-90268500D01*
X158532000Y-90427250D01*
X158278000Y-90427250D01*
X158278000Y-90427250D01*
X158119250Y-90268500D01*
X158024691Y-90268500D01*
X157895000Y-90322220D01*
X157895000Y-89179802D01*
X158942401Y-88132401D01*
X159107148Y-87885840D01*
X159165000Y-87595000D01*
X159165000Y-86081511D01*
X159256377Y-85946140D01*
X159268638Y-85885000D01*
X159312755Y-85885000D01*
X159469673Y-86042192D01*
X159813201Y-86184838D01*
X160185167Y-86185162D01*
X160528943Y-86043117D01*
X160792192Y-85780327D01*
X160934838Y-85436799D01*
X160935162Y-85064833D01*
X160793117Y-84721057D01*
X160530327Y-84457808D01*
X160186799Y-84315162D01*
X159814833Y-84314838D01*
X159693431Y-84365000D01*
X159269867Y-84365000D01*
X159259463Y-84311377D01*
X159119673Y-84098573D01*
X158908640Y-83956123D01*
X158659000Y-83906060D01*
X158151000Y-83906060D01*
X157908877Y-83953037D01*
X157769604Y-84044525D01*
X157638640Y-83956123D01*
X157389000Y-83906060D01*
X156881000Y-83906060D01*
X156638877Y-83953037D01*
X156499604Y-84044525D01*
X156368640Y-83956123D01*
X156119000Y-83906060D01*
X155611000Y-83906060D01*
X155368877Y-83953037D01*
X155229604Y-84044525D01*
X155098640Y-83956123D01*
X154849000Y-83906060D01*
X154341000Y-83906060D01*
X154098877Y-83953037D01*
X153886073Y-84092827D01*
X153743623Y-84303860D01*
X153693560Y-84553500D01*
X153693560Y-85490000D01*
X153312463Y-85490000D01*
X153280327Y-85457808D01*
X152936799Y-85315162D01*
X152564833Y-85314838D01*
X152221057Y-85456883D01*
X151957808Y-85719673D01*
X151815162Y-86063201D01*
X151814838Y-86435167D01*
X151956883Y-86778943D01*
X152219673Y-87042192D01*
X152397102Y-87115868D01*
X152315162Y-87313201D01*
X152314838Y-87685167D01*
X152456883Y-88028943D01*
X152586780Y-88159067D01*
X152471057Y-88206883D01*
X152207808Y-88469673D01*
X152065162Y-88813201D01*
X152064838Y-89185167D01*
X152206883Y-89528943D01*
X152469673Y-89792192D01*
X152813201Y-89934838D01*
X153185167Y-89935162D01*
X153528943Y-89793117D01*
X153562118Y-89760000D01*
X155250000Y-89760000D01*
X155540839Y-89702148D01*
X155787401Y-89537401D01*
X156375000Y-88949802D01*
X156375000Y-90310416D01*
X156368640Y-90306123D01*
X156119000Y-90256060D01*
X155611000Y-90256060D01*
X155368877Y-90303037D01*
X155234701Y-90391176D01*
X155208698Y-90365173D01*
X154975309Y-90268500D01*
X154880750Y-90268500D01*
X154722000Y-90427250D01*
X154722000Y-91348000D01*
X154742000Y-91348000D01*
X154742000Y-91602000D01*
X154722000Y-91602000D01*
X154722000Y-92522750D01*
X154880750Y-92681500D01*
X154975309Y-92681500D01*
X155105000Y-92627780D01*
X155105000Y-93265000D01*
X155162852Y-93555839D01*
X155327599Y-93802401D01*
X155462599Y-93937401D01*
X155593835Y-94025090D01*
X155593835Y-95490000D01*
X143977662Y-95490000D01*
X144006440Y-95346500D01*
X144006440Y-94203500D01*
X143959463Y-93961377D01*
X143865000Y-93817575D01*
X143865000Y-92896543D01*
X143897192Y-92864407D01*
X144036809Y-92528172D01*
X145332538Y-92528172D01*
X145737709Y-93508761D01*
X146487293Y-94259655D01*
X147467173Y-94666536D01*
X148528172Y-94667462D01*
X149508761Y-94262291D01*
X150259655Y-93512707D01*
X150666536Y-92532827D01*
X150667209Y-91760750D01*
X153706000Y-91760750D01*
X153706000Y-92172810D01*
X153802673Y-92406199D01*
X153981302Y-92584827D01*
X154214691Y-92681500D01*
X154309250Y-92681500D01*
X154468000Y-92522750D01*
X154468000Y-91602000D01*
X153864750Y-91602000D01*
X153706000Y-91760750D01*
X150667209Y-91760750D01*
X150667462Y-91471828D01*
X150380444Y-90777190D01*
X153706000Y-90777190D01*
X153706000Y-91189250D01*
X153864750Y-91348000D01*
X154468000Y-91348000D01*
X154468000Y-90427250D01*
X154309250Y-90268500D01*
X154214691Y-90268500D01*
X153981302Y-90365173D01*
X153802673Y-90543801D01*
X153706000Y-90777190D01*
X150380444Y-90777190D01*
X150262291Y-90491239D01*
X149512707Y-89740345D01*
X148532827Y-89333464D01*
X147471828Y-89332538D01*
X146491239Y-89737709D01*
X145740345Y-90487293D01*
X145333464Y-91467173D01*
X145332538Y-92528172D01*
X144036809Y-92528172D01*
X144039838Y-92520879D01*
X144040162Y-92148913D01*
X143898117Y-91805137D01*
X143865000Y-91771962D01*
X143865000Y-89381511D01*
X143956377Y-89246140D01*
X144006440Y-88996500D01*
X144006440Y-87853500D01*
X143959463Y-87611377D01*
X143865000Y-87467575D01*
X143865000Y-86855000D01*
X143861022Y-86835000D01*
X143807148Y-86564160D01*
X143642401Y-86317599D01*
X142287401Y-84962599D01*
X142040839Y-84797852D01*
X141750000Y-84740000D01*
X138312463Y-84740000D01*
X138280327Y-84707808D01*
X137936799Y-84565162D01*
X137564833Y-84564838D01*
X137221057Y-84706883D01*
X136957808Y-84969673D01*
X136815162Y-85313201D01*
X136814838Y-85685167D01*
X136956883Y-86028943D01*
X137219673Y-86292192D01*
X137563201Y-86434838D01*
X137935167Y-86435162D01*
X138278943Y-86293117D01*
X138312118Y-86260000D01*
X141435198Y-86260000D01*
X142345000Y-87169802D01*
X142345000Y-87260416D01*
X142338640Y-87256123D01*
X142089000Y-87206060D01*
X141581000Y-87206060D01*
X141338877Y-87253037D01*
X141199604Y-87344525D01*
X141068640Y-87256123D01*
X140819000Y-87206060D01*
X140311000Y-87206060D01*
X140068877Y-87253037D01*
X139929604Y-87344525D01*
X139798640Y-87256123D01*
X139549000Y-87206060D01*
X139041000Y-87206060D01*
X138866071Y-87240000D01*
X137562463Y-87240000D01*
X137530327Y-87207808D01*
X137186799Y-87065162D01*
X136814833Y-87064838D01*
X136471057Y-87206883D01*
X136207808Y-87469673D01*
X136065162Y-87813201D01*
X136064838Y-88185167D01*
X136206883Y-88528943D01*
X136469673Y-88792192D01*
X136813201Y-88934838D01*
X137185167Y-88935162D01*
X137528943Y-88793117D01*
X137562118Y-88760000D01*
X138393560Y-88760000D01*
X138393560Y-88996500D01*
X138440537Y-89238623D01*
X138572821Y-89440000D01*
X137762114Y-89440000D01*
X137530327Y-89207808D01*
X137186799Y-89065162D01*
X136814833Y-89064838D01*
X136471057Y-89206883D01*
X136207808Y-89469673D01*
X136065162Y-89813201D01*
X136064838Y-90185167D01*
X136206883Y-90528943D01*
X136469673Y-90792192D01*
X136813201Y-90934838D01*
X137074648Y-90935066D01*
X137200000Y-90960000D01*
X140200000Y-90960000D01*
X140218972Y-90956226D01*
X139935198Y-91240000D01*
X137062463Y-91240000D01*
X137030327Y-91207808D01*
X136686799Y-91065162D01*
X136314833Y-91064838D01*
X135971057Y-91206883D01*
X135707808Y-91469673D01*
X135565162Y-91813201D01*
X135564838Y-92185167D01*
X135706883Y-92528943D01*
X135969673Y-92792192D01*
X136313201Y-92934838D01*
X136685167Y-92935162D01*
X137028943Y-92793117D01*
X137062118Y-92760000D01*
X140250000Y-92760000D01*
X140540839Y-92702148D01*
X140787401Y-92537401D01*
X142287401Y-91037401D01*
X142345000Y-90951198D01*
X142345000Y-91771617D01*
X142312808Y-91803753D01*
X142170162Y-92147281D01*
X142169838Y-92519247D01*
X142311883Y-92863023D01*
X142345000Y-92896198D01*
X142345000Y-93622220D01*
X142215309Y-93568500D01*
X142120750Y-93568500D01*
X141962000Y-93727250D01*
X141962000Y-94648000D01*
X141982000Y-94648000D01*
X141982000Y-94902000D01*
X141962000Y-94902000D01*
X141962000Y-94922000D01*
X141708000Y-94922000D01*
X141708000Y-94902000D01*
X140692000Y-94902000D01*
X140692000Y-94922000D01*
X140438000Y-94922000D01*
X140438000Y-94902000D01*
X139422000Y-94902000D01*
X139422000Y-94922000D01*
X139168000Y-94922000D01*
X139168000Y-94902000D01*
X138564750Y-94902000D01*
X138406000Y-95060750D01*
X138406000Y-95472810D01*
X138413120Y-95490000D01*
X137574011Y-95490000D01*
X137541875Y-95457808D01*
X137198347Y-95315162D01*
X136826381Y-95314838D01*
X136482605Y-95456883D01*
X136449430Y-95490000D01*
X132964802Y-95490000D01*
X131551992Y-94077190D01*
X138406000Y-94077190D01*
X138406000Y-94489250D01*
X138564750Y-94648000D01*
X139168000Y-94648000D01*
X139168000Y-93727250D01*
X139422000Y-93727250D01*
X139422000Y-94648000D01*
X140438000Y-94648000D01*
X140438000Y-93727250D01*
X140692000Y-93727250D01*
X140692000Y-94648000D01*
X141708000Y-94648000D01*
X141708000Y-93727250D01*
X141549250Y-93568500D01*
X141454691Y-93568500D01*
X141221302Y-93665173D01*
X141200000Y-93686475D01*
X141178698Y-93665173D01*
X140945309Y-93568500D01*
X140850750Y-93568500D01*
X140692000Y-93727250D01*
X140438000Y-93727250D01*
X140438000Y-93727250D01*
X140279250Y-93568500D01*
X140184691Y-93568500D01*
X139951302Y-93665173D01*
X139930000Y-93686475D01*
X139908698Y-93665173D01*
X139675309Y-93568500D01*
X139580750Y-93568500D01*
X139422000Y-93727250D01*
X139168000Y-93727250D01*
X139168000Y-93727250D01*
X139009250Y-93568500D01*
X138914691Y-93568500D01*
X138681302Y-93665173D01*
X138502673Y-93843801D01*
X138406000Y-94077190D01*
X131551992Y-94077190D01*
X127137401Y-89662599D01*
X126890839Y-89497852D01*
X126600000Y-89440000D01*
X113160000Y-89440000D01*
X113160000Y-88138918D01*
X113256377Y-87996140D01*
X113268638Y-87935000D01*
X114325000Y-87935000D01*
X114325759Y-87934849D01*
X114685167Y-87935162D01*
X115028943Y-87793117D01*
X115292192Y-87530327D01*
X115434838Y-87186799D01*
X115435162Y-86814833D01*
X115293117Y-86471057D01*
X115030327Y-86207808D01*
X114686799Y-86065162D01*
X114314833Y-86064838D01*
X113971057Y-86206883D01*
X113762576Y-86415000D01*
X113269867Y-86415000D01*
X113259463Y-86361377D01*
X113165000Y-86217575D01*
X113165000Y-81781511D01*
X113256377Y-81646140D01*
X113306440Y-81396500D01*
X113306440Y-80253500D01*
X113259463Y-80011377D01*
X113180759Y-79891565D01*
X113292192Y-79780327D01*
X113434838Y-79436799D01*
X113435162Y-79064833D01*
X113293117Y-78721057D01*
X113030327Y-78457808D01*
X112686799Y-78315162D01*
X112314833Y-78314838D01*
X111971057Y-78456883D01*
X111707808Y-78719673D01*
X111565162Y-79063201D01*
X111564838Y-79435167D01*
X111645000Y-79629174D01*
X111645000Y-79660416D01*
X111638640Y-79656123D01*
X111389000Y-79606060D01*
X110881000Y-79606060D01*
X110638877Y-79653037D01*
X110499604Y-79744525D01*
X110368640Y-79656123D01*
X110119000Y-79606060D01*
X109611000Y-79606060D01*
X109368877Y-79653037D01*
X109355000Y-79662153D01*
X109355000Y-79654106D01*
X109297148Y-79363267D01*
X109297148Y-79363266D01*
X109132401Y-79116705D01*
X109037401Y-79021705D01*
X108790839Y-78856958D01*
X108500000Y-78799106D01*
X107690894Y-78799106D01*
X107400055Y-78856958D01*
X107153493Y-79021705D01*
X106559207Y-79615991D01*
X106436799Y-79565162D01*
X106064833Y-79564838D01*
X105721057Y-79706883D01*
X105457808Y-79969673D01*
X105315162Y-80313201D01*
X105314838Y-80685167D01*
X105456883Y-81028943D01*
X105719673Y-81292192D01*
X106063201Y-81434838D01*
X106435167Y-81435162D01*
X106778943Y-81293117D01*
X106827576Y-81244569D01*
X107040839Y-81202148D01*
X107287401Y-81037401D01*
X107693560Y-80631242D01*
X107693560Y-81396500D01*
X107740537Y-81638623D01*
X107807131Y-81740000D01*
X107312463Y-81740000D01*
X107280327Y-81707808D01*
X106936799Y-81565162D01*
X106564833Y-81564838D01*
X106221057Y-81706883D01*
X105957808Y-81969673D01*
X105815162Y-82313201D01*
X105814838Y-82685167D01*
X105956883Y-83028943D01*
X106219673Y-83292192D01*
X106563201Y-83434838D01*
X106935167Y-83435162D01*
X107278943Y-83293117D01*
X107312118Y-83260000D01*
X109700000Y-83260000D01*
X109968633Y-83206565D01*
X109185198Y-83990000D01*
X106812463Y-83990000D01*
X106780327Y-83957808D01*
X106436799Y-83815162D01*
X106064833Y-83814838D01*
X105721057Y-83956883D01*
X105457808Y-84219673D01*
X105315162Y-84563201D01*
X105314838Y-84935167D01*
X105456883Y-85278943D01*
X105719673Y-85542192D01*
X106063201Y-85684838D01*
X106435167Y-85685162D01*
X106778943Y-85543117D01*
X106812118Y-85510000D01*
X109500000Y-85510000D01*
X109790839Y-85452148D01*
X110037401Y-85287401D01*
X111645000Y-83679802D01*
X111645000Y-86022220D01*
X111515309Y-85968500D01*
X111420750Y-85968500D01*
X111262000Y-86127250D01*
X111262000Y-87048000D01*
X111282000Y-87048000D01*
X111282000Y-87302000D01*
X111262000Y-87302000D01*
X111262000Y-88222750D01*
X111420750Y-88381500D01*
X111515309Y-88381500D01*
X111640000Y-88329851D01*
X111640000Y-89440000D01*
X110615288Y-89440000D01*
X110615288Y-88323757D01*
X110754691Y-88381500D01*
X110849250Y-88381500D01*
X111008000Y-88222750D01*
X111008000Y-87302000D01*
X110988000Y-87302000D01*
X110988000Y-87048000D01*
X111008000Y-87048000D01*
X111008000Y-86127250D01*
X110849250Y-85968500D01*
X110754691Y-85968500D01*
X110521302Y-86065173D01*
X110495034Y-86091441D01*
X110368640Y-86006123D01*
X110119000Y-85956060D01*
X109611000Y-85956060D01*
X109368877Y-86003037D01*
X109234701Y-86091176D01*
X109208698Y-86065173D01*
X108975309Y-85968500D01*
X108880750Y-85968500D01*
X108722000Y-86127250D01*
X108722000Y-87048000D01*
X108742000Y-87048000D01*
X108742000Y-87302000D01*
X108722000Y-87302000D01*
X108722000Y-88222750D01*
X108880750Y-88381500D01*
X108975309Y-88381500D01*
X109095288Y-88331803D01*
X109095288Y-89440000D01*
X108014802Y-89440000D01*
X106035552Y-87460750D01*
X107706000Y-87460750D01*
X107706000Y-87872810D01*
X107802673Y-88106199D01*
X107981302Y-88284827D01*
X108214691Y-88381500D01*
X108309250Y-88381500D01*
X108468000Y-88222750D01*
X108468000Y-87302000D01*
X107864750Y-87302000D01*
X107706000Y-87460750D01*
X106035552Y-87460750D01*
X105051992Y-86477190D01*
X107706000Y-86477190D01*
X107706000Y-86889250D01*
X107864750Y-87048000D01*
X108468000Y-87048000D01*
X108468000Y-86127250D01*
X108309250Y-85968500D01*
X108214691Y-85968500D01*
X107981302Y-86065173D01*
X107802673Y-86243801D01*
X107706000Y-86477190D01*
X105051992Y-86477190D01*
X104600079Y-86025277D01*
X104353517Y-85860530D01*
X104062678Y-85802678D01*
X98165000Y-85802678D01*
X98165000Y-85331511D01*
X98256377Y-85196140D01*
X98306440Y-84946500D01*
X98306440Y-83803500D01*
X98259463Y-83561377D01*
X98165000Y-83417575D01*
X98165000Y-78981511D01*
X98256377Y-78846140D01*
X98306440Y-78596500D01*
X98306440Y-78078221D01*
X98563201Y-78184838D01*
X98935167Y-78185162D01*
X99278943Y-78043117D01*
X99542192Y-77780327D01*
X99684838Y-77436799D01*
X99685162Y-77064833D01*
X99543117Y-76721057D01*
X99280327Y-76457808D01*
X98936799Y-76315162D01*
X98564833Y-76314838D01*
X98221057Y-76456883D01*
X98187882Y-76490000D01*
X97750000Y-76490000D01*
X97459161Y-76547852D01*
X97212599Y-76712599D01*
X97111468Y-76813730D01*
X96908877Y-76853037D01*
X96890981Y-76864793D01*
X96880862Y-76813923D01*
X96837148Y-76594160D01*
X96672401Y-76347599D01*
X96287401Y-75962599D01*
X96040839Y-75797852D01*
X95750000Y-75740000D01*
X85466812Y-75740000D01*
X85434676Y-75707808D01*
X85269175Y-75639086D01*
X85500000Y-75685000D01*
X119000000Y-75685000D01*
X119262138Y-75632857D01*
X119484368Y-75484368D01*
X119632857Y-75262138D01*
X119685000Y-75000000D01*
X119685000Y-62000000D01*
X119632857Y-61737862D01*
X119484368Y-61515632D01*
X119262138Y-61367143D01*
X119000000Y-61315000D01*
X85500000Y-61315000D01*
X85237862Y-61367143D01*
X85015632Y-61515632D01*
X84867143Y-61737862D01*
X84815000Y-62000000D01*
X84815000Y-75000000D01*
X84867143Y-75262138D01*
X85015632Y-75484368D01*
X85211082Y-75614963D01*
X85091148Y-75565162D01*
X84719182Y-75564838D01*
X84375406Y-75706883D01*
X84342231Y-75740000D01*
X84010000Y-75740000D01*
X84010000Y-69250000D01*
X83952148Y-68959161D01*
X83787401Y-68712599D01*
X82935122Y-67860320D01*
X82935248Y-67715813D01*
X82717243Y-67188200D01*
X82313923Y-66784176D01*
X81786691Y-66565250D01*
X81215813Y-66564752D01*
X80688200Y-66782757D01*
X80284176Y-67186077D01*
X80065250Y-67713309D01*
X80064752Y-68284187D01*
X80282757Y-68811800D01*
X80470603Y-68999974D01*
X80284176Y-69186077D01*
X80261785Y-69240000D01*
X78200000Y-69240000D01*
X77957414Y-69288254D01*
X77909160Y-69297852D01*
X77662599Y-69462599D01*
X77350000Y-69775198D01*
X77185122Y-69610320D01*
X77185162Y-69564833D01*
X77043117Y-69221057D01*
X76780327Y-68957808D01*
X76436799Y-68815162D01*
X76064833Y-68814838D01*
X75721057Y-68956883D01*
X75457808Y-69219673D01*
X75315162Y-69563201D01*
X75314838Y-69935167D01*
X75456883Y-70278943D01*
X75719673Y-70542192D01*
X76063201Y-70684838D01*
X76110077Y-70684879D01*
X76275198Y-70850000D01*
X75590198Y-71535000D01*
X75331511Y-71535000D01*
X75196140Y-71443623D01*
X74946500Y-71393560D01*
X73803500Y-71393560D01*
X73561377Y-71440537D01*
X73348573Y-71580327D01*
X73260000Y-71711544D01*
X73260000Y-71062463D01*
X73292192Y-71030327D01*
X73434838Y-70686799D01*
X73435162Y-70314833D01*
X73293117Y-69971057D01*
X73073623Y-69751179D01*
X77251332Y-65573470D01*
X77469673Y-65792192D01*
X77813201Y-65934838D01*
X78185167Y-65935162D01*
X78528943Y-65793117D01*
X78792192Y-65530327D01*
X78934838Y-65186799D01*
X78935162Y-64814833D01*
X78793117Y-64471057D01*
X78573623Y-64251179D01*
X82064802Y-60760000D01*
X85937537Y-60760000D01*
X85969673Y-60792192D01*
X86313201Y-60934838D01*
X86685167Y-60935162D01*
X87028943Y-60793117D01*
X87062118Y-60760000D01*
X121185198Y-60760000D01*
X127962599Y-67537401D01*
X128209161Y-67702148D01*
X128500000Y-67760000D01*
X131862739Y-67760000D01*
X131815000Y-68000000D01*
X131815000Y-83000000D01*
X131867143Y-83262138D01*
X132015632Y-83484368D01*
X132237862Y-83632857D01*
X132500000Y-83685000D01*
X179500000Y-83685000D01*
X179762138Y-83632857D01*
X179984368Y-83484368D01*
X180132857Y-83262138D01*
X180185000Y-83000000D01*
X180185000Y-68000000D01*
X180137261Y-67760000D01*
X210250000Y-67760000D01*
X210540839Y-67702148D01*
X210787401Y-67537401D01*
X211324802Y-67000000D01*
X214815000Y-67000000D01*
X214815000Y-81000000D01*
X214867143Y-81262138D01*
X215015632Y-81484368D01*
X215237862Y-81632857D01*
X215500000Y-81685000D01*
X249500000Y-81685000D01*
X249762138Y-81632857D01*
X249984368Y-81484368D01*
X250132857Y-81262138D01*
X250185000Y-81000000D01*
X250185000Y-67000000D01*
X250132857Y-66737862D01*
X249984368Y-66515632D01*
X249762138Y-66367143D01*
X249500000Y-66315000D01*
X215500000Y-66315000D01*
X215237862Y-66367143D01*
X215015632Y-66515632D01*
X214867143Y-66737862D01*
X214815000Y-67000000D01*
X211324802Y-67000000D01*
X213064802Y-65260000D01*
X222835582Y-65260000D01*
X222867718Y-65292192D01*
X223211246Y-65434838D01*
X223583212Y-65435162D01*
X223926988Y-65293117D01*
X223960163Y-65260000D01*
X246750000Y-65260000D01*
X247040839Y-65202148D01*
X247287401Y-65037401D01*
X247452148Y-64790839D01*
X247510000Y-64500000D01*
X247510000Y-59250000D01*
X247452148Y-58959161D01*
X247287401Y-58712599D01*
X244001798Y-55426996D01*
X244056377Y-55346140D01*
X244106440Y-55096500D01*
X244106440Y-53953500D01*
X244059463Y-53711377D01*
X243919673Y-53498573D01*
X243708640Y-53356123D01*
X243459000Y-53306060D01*
X242951000Y-53306060D01*
X242708877Y-53353037D01*
X242569604Y-53444525D01*
X242438640Y-53356123D01*
X242189000Y-53306060D01*
X241681000Y-53306060D01*
X241438877Y-53353037D01*
X241299604Y-53444525D01*
X241168640Y-53356123D01*
X240919000Y-53306060D01*
X240411000Y-53306060D01*
X240260000Y-53335357D01*
X240260000Y-52562463D01*
X240292192Y-52530327D01*
X240434838Y-52186799D01*
X240435162Y-51814833D01*
X240293117Y-51471057D01*
X240030327Y-51207808D01*
X239686799Y-51065162D01*
X239314833Y-51064838D01*
X238971057Y-51206883D01*
X238707808Y-51469673D01*
X238565162Y-51813201D01*
X238564838Y-52185167D01*
X238706883Y-52528943D01*
X238740000Y-52562118D01*
X238740000Y-53457403D01*
X238686073Y-53492827D01*
X238543623Y-53703860D01*
X238493560Y-53953500D01*
X238493560Y-55096500D01*
X238513827Y-55200956D01*
X238186799Y-55065162D01*
X237814833Y-55064838D01*
X237471057Y-55206883D01*
X237207808Y-55469673D01*
X237065162Y-55813201D01*
X237064838Y-56185167D01*
X237206883Y-56528943D01*
X237469673Y-56792192D01*
X237813201Y-56934838D01*
X238185167Y-56935162D01*
X238528943Y-56793117D01*
X238562118Y-56760000D01*
X240165198Y-56760000D01*
X239935198Y-56990000D01*
X237812463Y-56990000D01*
X237780327Y-56957808D01*
X237436799Y-56815162D01*
X237064833Y-56814838D01*
X236721057Y-56956883D01*
X236457808Y-57219673D01*
X236315162Y-57563201D01*
X236314838Y-57935167D01*
X236456883Y-58278943D01*
X236719673Y-58542192D01*
X237063201Y-58684838D01*
X237435167Y-58685162D01*
X237778943Y-58543117D01*
X237812118Y-58510000D01*
X240250000Y-58510000D01*
X240540839Y-58452148D01*
X240787401Y-58287401D01*
X242472401Y-56602401D01*
X242637148Y-56355839D01*
X242661522Y-56233306D01*
X242667599Y-56242401D01*
X244740000Y-58314802D01*
X244740000Y-58937537D01*
X244707808Y-58969673D01*
X244565162Y-59313201D01*
X244564838Y-59685167D01*
X244706883Y-60028943D01*
X244969673Y-60292192D01*
X245313201Y-60434838D01*
X245685167Y-60435162D01*
X245990000Y-60309208D01*
X245990000Y-63740000D01*
X223960508Y-63740000D01*
X223928372Y-63707808D01*
X223625000Y-63581836D01*
X223625000Y-61927780D01*
X223754691Y-61981500D01*
X223849250Y-61981500D01*
X224008000Y-61822750D01*
X224008000Y-60902000D01*
X224262000Y-60902000D01*
X224262000Y-61822750D01*
X224420750Y-61981500D01*
X224515309Y-61981500D01*
X224748698Y-61884827D01*
X224770000Y-61863525D01*
X224791302Y-61884827D01*
X225024691Y-61981500D01*
X225119250Y-61981500D01*
X225278000Y-61822750D01*
X225278000Y-60902000D01*
X225532000Y-60902000D01*
X225532000Y-61822750D01*
X225690750Y-61981500D01*
X225785309Y-61981500D01*
X226018698Y-61884827D01*
X226197327Y-61706199D01*
X226294000Y-61472810D01*
X226294000Y-61060750D01*
X226135250Y-60902000D01*
X225532000Y-60902000D01*
X225278000Y-60902000D01*
X225278000Y-60902000D01*
X224262000Y-60902000D01*
X224008000Y-60902000D01*
X224008000Y-60902000D01*
X223988000Y-60902000D01*
X223988000Y-60648000D01*
X224008000Y-60648000D01*
X224008000Y-59727250D01*
X224262000Y-59727250D01*
X224262000Y-60648000D01*
X225278000Y-60648000D01*
X225278000Y-59727250D01*
X225532000Y-59727250D01*
X225532000Y-60648000D01*
X226135250Y-60648000D01*
X226294000Y-60489250D01*
X226294000Y-60278172D01*
X229582538Y-60278172D01*
X229987709Y-61258761D01*
X230737293Y-62009655D01*
X231717173Y-62416536D01*
X232778172Y-62417462D01*
X233758761Y-62012291D01*
X234509655Y-61262707D01*
X234551991Y-61160750D01*
X238506000Y-61160750D01*
X238506000Y-61572810D01*
X238602673Y-61806199D01*
X238781302Y-61984827D01*
X239014691Y-62081500D01*
X239109250Y-62081500D01*
X239268000Y-61922750D01*
X239268000Y-61002000D01*
X239522000Y-61002000D01*
X239522000Y-61922750D01*
X239680750Y-62081500D01*
X239775309Y-62081500D01*
X240008698Y-61984827D01*
X240030000Y-61963525D01*
X240051302Y-61984827D01*
X240284691Y-62081500D01*
X240379250Y-62081500D01*
X240538000Y-61922750D01*
X240538000Y-61002000D01*
X240792000Y-61002000D01*
X240792000Y-61922750D01*
X240950750Y-62081500D01*
X241045309Y-62081500D01*
X241278698Y-61984827D01*
X241300000Y-61963525D01*
X241321302Y-61984827D01*
X241554691Y-62081500D01*
X241649250Y-62081500D01*
X241808000Y-61922750D01*
X241808000Y-61002000D01*
X242062000Y-61002000D01*
X242062000Y-61922750D01*
X242220750Y-62081500D01*
X242315309Y-62081500D01*
X242548698Y-61984827D01*
X242570000Y-61963525D01*
X242591302Y-61984827D01*
X242824691Y-62081500D01*
X242919250Y-62081500D01*
X243078000Y-61922750D01*
X243078000Y-61002000D01*
X243332000Y-61002000D01*
X243332000Y-61922750D01*
X243490750Y-62081500D01*
X243585309Y-62081500D01*
X243818698Y-61984827D01*
X243997327Y-61806199D01*
X244094000Y-61572810D01*
X244094000Y-61160750D01*
X243935250Y-61002000D01*
X243332000Y-61002000D01*
X243078000Y-61002000D01*
X243078000Y-61002000D01*
X242062000Y-61002000D01*
X241808000Y-61002000D01*
X241808000Y-61002000D01*
X240792000Y-61002000D01*
X240538000Y-61002000D01*
X240538000Y-61002000D01*
X239522000Y-61002000D01*
X239268000Y-61002000D01*
X239268000Y-61002000D01*
X238664750Y-61002000D01*
X238506000Y-61160750D01*
X234551991Y-61160750D01*
X234916536Y-60282827D01*
X234916628Y-60177190D01*
X238506000Y-60177190D01*
X238506000Y-60589250D01*
X238664750Y-60748000D01*
X239268000Y-60748000D01*
X239268000Y-59827250D01*
X239522000Y-59827250D01*
X239522000Y-60748000D01*
X240538000Y-60748000D01*
X240538000Y-59827250D01*
X240792000Y-59827250D01*
X240792000Y-60748000D01*
X241808000Y-60748000D01*
X241808000Y-59827250D01*
X242062000Y-59827250D01*
X242062000Y-60748000D01*
X243078000Y-60748000D01*
X243078000Y-59827250D01*
X243332000Y-59827250D01*
X243332000Y-60748000D01*
X243935250Y-60748000D01*
X244094000Y-60589250D01*
X244094000Y-60177190D01*
X243997327Y-59943801D01*
X243818698Y-59765173D01*
X243585309Y-59668500D01*
X243490750Y-59668500D01*
X243332000Y-59827250D01*
X243078000Y-59827250D01*
X243078000Y-59827250D01*
X242919250Y-59668500D01*
X242824691Y-59668500D01*
X242591302Y-59765173D01*
X242570000Y-59786475D01*
X242548698Y-59765173D01*
X242315309Y-59668500D01*
X242220750Y-59668500D01*
X242062000Y-59827250D01*
X241808000Y-59827250D01*
X241808000Y-59827250D01*
X241649250Y-59668500D01*
X241554691Y-59668500D01*
X241321302Y-59765173D01*
X241300000Y-59786475D01*
X241278698Y-59765173D01*
X241045309Y-59668500D01*
X240950750Y-59668500D01*
X240792000Y-59827250D01*
X240538000Y-59827250D01*
X240538000Y-59827250D01*
X240379250Y-59668500D01*
X240284691Y-59668500D01*
X240051302Y-59765173D01*
X240030000Y-59786475D01*
X240008698Y-59765173D01*
X239775309Y-59668500D01*
X239680750Y-59668500D01*
X239522000Y-59827250D01*
X239268000Y-59827250D01*
X239268000Y-59827250D01*
X239109250Y-59668500D01*
X239014691Y-59668500D01*
X238781302Y-59765173D01*
X238602673Y-59943801D01*
X238506000Y-60177190D01*
X234916628Y-60177190D01*
X234917462Y-59221828D01*
X234512291Y-58241239D01*
X233762707Y-57490345D01*
X232782827Y-57083464D01*
X231721828Y-57082538D01*
X230741239Y-57487709D01*
X229990345Y-58237293D01*
X229583464Y-59217173D01*
X229582538Y-60278172D01*
X226294000Y-60278172D01*
X226294000Y-60077190D01*
X226197327Y-59843801D01*
X226018698Y-59665173D01*
X225785309Y-59568500D01*
X225690750Y-59568500D01*
X225532000Y-59727250D01*
X225278000Y-59727250D01*
X225278000Y-59727250D01*
X225119250Y-59568500D01*
X225024691Y-59568500D01*
X224791302Y-59665173D01*
X224770000Y-59686475D01*
X224748698Y-59665173D01*
X224515309Y-59568500D01*
X224420750Y-59568500D01*
X224262000Y-59727250D01*
X224008000Y-59727250D01*
X224008000Y-59727250D01*
X223849250Y-59568500D01*
X223754691Y-59568500D01*
X223625000Y-59622220D01*
X223625000Y-59376163D01*
X223657192Y-59344027D01*
X223799838Y-59000499D01*
X223800162Y-58628533D01*
X223658117Y-58284757D01*
X223625000Y-58251582D01*
X223625000Y-58199802D01*
X225942401Y-55882401D01*
X226107148Y-55635840D01*
X226136157Y-55490000D01*
X226154703Y-55396765D01*
X226256377Y-55246140D01*
X226306440Y-54996500D01*
X226306440Y-53853500D01*
X226259463Y-53611377D01*
X226119673Y-53398573D01*
X225908640Y-53256123D01*
X225659000Y-53206060D01*
X225151000Y-53206060D01*
X224908877Y-53253037D01*
X224769604Y-53344525D01*
X224638640Y-53256123D01*
X224389000Y-53206060D01*
X223881000Y-53206060D01*
X223638877Y-53253037D01*
X223499604Y-53344525D01*
X223368640Y-53256123D01*
X223119000Y-53206060D01*
X222611000Y-53206060D01*
X222368877Y-53253037D01*
X222229604Y-53344525D01*
X222098640Y-53256123D01*
X221849000Y-53206060D01*
X221341000Y-53206060D01*
X221098877Y-53253037D01*
X220886073Y-53392827D01*
X220743623Y-53603860D01*
X220731362Y-53665000D01*
X219677234Y-53665000D01*
X219436799Y-53565162D01*
X219064833Y-53564838D01*
X218721057Y-53706883D01*
X218457808Y-53969673D01*
X218315162Y-54313201D01*
X218314838Y-54685167D01*
X218456883Y-55028943D01*
X218719673Y-55292192D01*
X218919162Y-55375028D01*
X218721057Y-55456883D01*
X218457808Y-55719673D01*
X218315162Y-56063201D01*
X218314838Y-56435167D01*
X218456883Y-56778943D01*
X218719673Y-57042192D01*
X219063201Y-57184838D01*
X219435167Y-57185162D01*
X219778943Y-57043117D01*
X219812118Y-57010000D01*
X221415198Y-57010000D01*
X219559207Y-58865991D01*
X219436799Y-58815162D01*
X219064833Y-58814838D01*
X218721057Y-58956883D01*
X218457808Y-59219673D01*
X218315162Y-59563201D01*
X218314838Y-59935167D01*
X218456883Y-60278943D01*
X218719673Y-60542192D01*
X219063201Y-60684838D01*
X219435167Y-60685162D01*
X219778943Y-60543117D01*
X219827576Y-60494569D01*
X220040839Y-60452148D01*
X220287401Y-60287401D01*
X220497612Y-60077190D01*
X220706000Y-60077190D01*
X220706000Y-60489250D01*
X220864750Y-60648000D01*
X221468000Y-60648000D01*
X221468000Y-59727250D01*
X221309250Y-59568500D01*
X221214691Y-59568500D01*
X220981302Y-59665173D01*
X220802673Y-59843801D01*
X220706000Y-60077190D01*
X220497612Y-60077190D01*
X221930147Y-58644655D01*
X221929838Y-58998867D01*
X222071883Y-59342643D01*
X222105000Y-59375818D01*
X222105000Y-59622220D01*
X221975309Y-59568500D01*
X221880750Y-59568500D01*
X221722000Y-59727250D01*
X221722000Y-60648000D01*
X221742000Y-60648000D01*
X221742000Y-60902000D01*
X221722000Y-60902000D01*
X221722000Y-61822750D01*
X221880750Y-61981500D01*
X221975309Y-61981500D01*
X222105000Y-61927780D01*
X222105000Y-63740000D01*
X212750000Y-63740000D01*
X212459161Y-63797852D01*
X212212599Y-63962599D01*
X209935198Y-66240000D01*
X172295000Y-66240000D01*
X172295000Y-64327780D01*
X172424691Y-64381500D01*
X172519250Y-64381500D01*
X172678000Y-64222750D01*
X172678000Y-63302000D01*
X172932000Y-63302000D01*
X172932000Y-64222750D01*
X173090750Y-64381500D01*
X173185309Y-64381500D01*
X173418698Y-64284827D01*
X173597327Y-64106199D01*
X173694000Y-63872810D01*
X173694000Y-63460750D01*
X173535250Y-63302000D01*
X172932000Y-63302000D01*
X172678000Y-63302000D01*
X172678000Y-63302000D01*
X172658000Y-63302000D01*
X172658000Y-63048000D01*
X172678000Y-63048000D01*
X172678000Y-62127250D01*
X172932000Y-62127250D01*
X172932000Y-63048000D01*
X173535250Y-63048000D01*
X173694000Y-62889250D01*
X173694000Y-62477190D01*
X173597327Y-62243801D01*
X173418698Y-62065173D01*
X173185309Y-61968500D01*
X173090750Y-61968500D01*
X172932000Y-62127250D01*
X172678000Y-62127250D01*
X172678000Y-62127250D01*
X172519250Y-61968500D01*
X172424691Y-61968500D01*
X172363932Y-61993667D01*
X172469838Y-61738619D01*
X172470162Y-61366653D01*
X172343766Y-61060750D01*
X220706000Y-61060750D01*
X220706000Y-61472810D01*
X220802673Y-61706199D01*
X220981302Y-61884827D01*
X221214691Y-61981500D01*
X221309250Y-61981500D01*
X221468000Y-61822750D01*
X221468000Y-60902000D01*
X220864750Y-60902000D01*
X220706000Y-61060750D01*
X172343766Y-61060750D01*
X172328117Y-61022877D01*
X172295000Y-60989702D01*
X172295000Y-60279802D01*
X173342401Y-59232401D01*
X173507148Y-58985840D01*
X173565000Y-58695000D01*
X173565000Y-57781511D01*
X173656377Y-57646140D01*
X173706440Y-57396500D01*
X173706440Y-56253500D01*
X173659463Y-56011377D01*
X173565000Y-55867575D01*
X173565000Y-53007123D01*
X173792192Y-52780327D01*
X173934838Y-52436799D01*
X173935162Y-52064833D01*
X173793117Y-51721057D01*
X173530327Y-51457808D01*
X173186799Y-51315162D01*
X172814833Y-51314838D01*
X172471057Y-51456883D01*
X172207808Y-51719673D01*
X172065162Y-52063201D01*
X172064917Y-52344873D01*
X172045000Y-52445000D01*
X172045000Y-55660416D01*
X172038640Y-55656123D01*
X171789000Y-55606060D01*
X171281000Y-55606060D01*
X171038877Y-55653037D01*
X170899604Y-55744525D01*
X170768640Y-55656123D01*
X170519000Y-55606060D01*
X170011000Y-55606060D01*
X169768877Y-55653037D01*
X169629604Y-55744525D01*
X169498640Y-55656123D01*
X169249000Y-55606060D01*
X168741000Y-55606060D01*
X168498877Y-55653037D01*
X168286073Y-55792827D01*
X168143623Y-56003860D01*
X168131362Y-56065000D01*
X166925000Y-56065000D01*
X166924241Y-56065151D01*
X166564833Y-56064838D01*
X166221057Y-56206883D01*
X165957808Y-56469673D01*
X165815162Y-56813201D01*
X165814838Y-57185167D01*
X165956883Y-57528943D01*
X166219673Y-57792192D01*
X166543853Y-57926804D01*
X166471057Y-57956883D01*
X166207808Y-58219673D01*
X166065162Y-58563201D01*
X166064838Y-58935167D01*
X166206883Y-59278943D01*
X166427709Y-59500155D01*
X166207808Y-59719673D01*
X166065162Y-60063201D01*
X166064838Y-60435167D01*
X166206883Y-60778943D01*
X166469673Y-61042192D01*
X166813201Y-61184838D01*
X167185167Y-61185162D01*
X167528943Y-61043117D01*
X167562118Y-61010000D01*
X169500000Y-61010000D01*
X169790839Y-60952148D01*
X170037401Y-60787401D01*
X170775000Y-60049802D01*
X170775000Y-60989357D01*
X170742808Y-61021493D01*
X170600162Y-61365021D01*
X170599838Y-61736987D01*
X170705860Y-61993581D01*
X170645309Y-61968500D01*
X170550750Y-61968500D01*
X170392000Y-62127250D01*
X170392000Y-63048000D01*
X170412000Y-63048000D01*
X170412000Y-63302000D01*
X170392000Y-63302000D01*
X170392000Y-64222750D01*
X170550750Y-64381500D01*
X170645309Y-64381500D01*
X170775000Y-64327780D01*
X170775000Y-66240000D01*
X164834355Y-66240000D01*
X164802219Y-66207808D01*
X164458691Y-66065162D01*
X164086725Y-66064838D01*
X163742949Y-66206883D01*
X163709774Y-66240000D01*
X159224748Y-66240000D01*
X159294000Y-66072810D01*
X159294000Y-65660750D01*
X159135250Y-65502000D01*
X158532000Y-65502000D01*
X158532000Y-65522000D01*
X158278000Y-65522000D01*
X158278000Y-65502000D01*
X158258000Y-65502000D01*
X158258000Y-65248000D01*
X158278000Y-65248000D01*
X158278000Y-64327250D01*
X158532000Y-64327250D01*
X158532000Y-65248000D01*
X159135250Y-65248000D01*
X159294000Y-65089250D01*
X159294000Y-64677190D01*
X159197327Y-64443801D01*
X159018698Y-64265173D01*
X158785309Y-64168500D01*
X158690750Y-64168500D01*
X158532000Y-64327250D01*
X158278000Y-64327250D01*
X158278000Y-64327250D01*
X158119250Y-64168500D01*
X158024691Y-64168500D01*
X157895000Y-64222220D01*
X157895000Y-64014203D01*
X157927192Y-63982067D01*
X158069838Y-63638539D01*
X158069992Y-63460750D01*
X168106000Y-63460750D01*
X168106000Y-63872810D01*
X168202673Y-64106199D01*
X168381302Y-64284827D01*
X168614691Y-64381500D01*
X168709250Y-64381500D01*
X168868000Y-64222750D01*
X168868000Y-63302000D01*
X169122000Y-63302000D01*
X169122000Y-64222750D01*
X169280750Y-64381500D01*
X169375309Y-64381500D01*
X169608698Y-64284827D01*
X169630000Y-64263525D01*
X169651302Y-64284827D01*
X169884691Y-64381500D01*
X169979250Y-64381500D01*
X170138000Y-64222750D01*
X170138000Y-63302000D01*
X169122000Y-63302000D01*
X168868000Y-63302000D01*
X168868000Y-63302000D01*
X168264750Y-63302000D01*
X168106000Y-63460750D01*
X158069992Y-63460750D01*
X158070162Y-63266573D01*
X157993578Y-63081224D01*
X158597612Y-62477190D01*
X168106000Y-62477190D01*
X168106000Y-62889250D01*
X168264750Y-63048000D01*
X168868000Y-63048000D01*
X168868000Y-62127250D01*
X169122000Y-62127250D01*
X169122000Y-63048000D01*
X170138000Y-63048000D01*
X170138000Y-62127250D01*
X169979250Y-61968500D01*
X169884691Y-61968500D01*
X169651302Y-62065173D01*
X169630000Y-62086475D01*
X169608698Y-62065173D01*
X169375309Y-61968500D01*
X169280750Y-61968500D01*
X169122000Y-62127250D01*
X168868000Y-62127250D01*
X168868000Y-62127250D01*
X168709250Y-61968500D01*
X168614691Y-61968500D01*
X168381302Y-62065173D01*
X168202673Y-62243801D01*
X168106000Y-62477190D01*
X158597612Y-62477190D01*
X158942401Y-62132401D01*
X159107148Y-61885840D01*
X159165000Y-61595000D01*
X159165000Y-59981511D01*
X159256377Y-59846140D01*
X159306440Y-59596500D01*
X159306440Y-58453500D01*
X159259463Y-58211377D01*
X159165000Y-58067575D01*
X159165000Y-54734574D01*
X159184838Y-54686799D01*
X159185162Y-54314833D01*
X159043117Y-53971057D01*
X158780327Y-53707808D01*
X158436799Y-53565162D01*
X158064833Y-53564838D01*
X157721057Y-53706883D01*
X157457808Y-53969673D01*
X157315162Y-54313201D01*
X157314838Y-54685167D01*
X157456883Y-55028943D01*
X157645000Y-55217389D01*
X157645000Y-57860416D01*
X157638640Y-57856123D01*
X157389000Y-57806060D01*
X156881000Y-57806060D01*
X156638877Y-57853037D01*
X156499604Y-57944525D01*
X156368640Y-57856123D01*
X156119000Y-57806060D01*
X155611000Y-57806060D01*
X155368877Y-57853037D01*
X155260000Y-57924558D01*
X155260000Y-57312463D01*
X155292192Y-57280327D01*
X155434838Y-56936799D01*
X155435162Y-56564833D01*
X155293117Y-56221057D01*
X155030327Y-55957808D01*
X154686799Y-55815162D01*
X154314833Y-55814838D01*
X153971057Y-55956883D01*
X153707808Y-56219673D01*
X153565162Y-56563201D01*
X153564838Y-56935167D01*
X153706883Y-57278943D01*
X153740000Y-57312118D01*
X153740000Y-58221926D01*
X153693560Y-58453500D01*
X153693560Y-59596500D01*
X153709446Y-59678375D01*
X153436799Y-59565162D01*
X153064833Y-59564838D01*
X152721057Y-59706883D01*
X152457808Y-59969673D01*
X152315162Y-60313201D01*
X152314943Y-60564838D01*
X152314833Y-60564838D01*
X151971057Y-60706883D01*
X151707808Y-60969673D01*
X151565162Y-61313201D01*
X151564838Y-61685167D01*
X151706883Y-62028943D01*
X151969673Y-62292192D01*
X152313201Y-62434838D01*
X152433410Y-62434943D01*
X152459160Y-62452148D01*
X152750000Y-62510000D01*
X155750000Y-62510000D01*
X156040839Y-62452148D01*
X156287401Y-62287401D01*
X157645000Y-60929802D01*
X157645000Y-61280198D01*
X156597599Y-62327599D01*
X156432852Y-62574161D01*
X156375000Y-62865000D01*
X156375000Y-62889277D01*
X156342808Y-62921413D01*
X156200162Y-63264941D01*
X156199838Y-63636907D01*
X156341883Y-63980683D01*
X156375000Y-64013858D01*
X156375000Y-64210416D01*
X156368640Y-64206123D01*
X156119000Y-64156060D01*
X155611000Y-64156060D01*
X155368877Y-64203037D01*
X155234701Y-64291176D01*
X155208698Y-64265173D01*
X154975309Y-64168500D01*
X154880750Y-64168500D01*
X154722000Y-64327250D01*
X154722000Y-65248000D01*
X154742000Y-65248000D01*
X154742000Y-65502000D01*
X154722000Y-65502000D01*
X154722000Y-65522000D01*
X154468000Y-65522000D01*
X154468000Y-65502000D01*
X153864750Y-65502000D01*
X153706000Y-65660750D01*
X153706000Y-66072810D01*
X153775252Y-66240000D01*
X143865000Y-66240000D01*
X143865000Y-64824463D01*
X143897192Y-64792327D01*
X143945001Y-64677190D01*
X153706000Y-64677190D01*
X153706000Y-65089250D01*
X153864750Y-65248000D01*
X154468000Y-65248000D01*
X154468000Y-64327250D01*
X154309250Y-64168500D01*
X154214691Y-64168500D01*
X153981302Y-64265173D01*
X153802673Y-64443801D01*
X153706000Y-64677190D01*
X143945001Y-64677190D01*
X144039838Y-64448799D01*
X144040162Y-64076833D01*
X143898117Y-63733057D01*
X143865000Y-63699882D01*
X143865000Y-63331511D01*
X143956377Y-63196140D01*
X144006440Y-62946500D01*
X144006440Y-62528172D01*
X145332538Y-62528172D01*
X145737709Y-63508761D01*
X146487293Y-64259655D01*
X147467173Y-64666536D01*
X148528172Y-64667462D01*
X149508761Y-64262291D01*
X150259655Y-63512707D01*
X150666536Y-62532827D01*
X150667462Y-61471828D01*
X150262291Y-60491239D01*
X149512707Y-59740345D01*
X148532827Y-59333464D01*
X147471828Y-59332538D01*
X146491239Y-59737709D01*
X145740345Y-60487293D01*
X145333464Y-61467173D01*
X145332538Y-62528172D01*
X144006440Y-62528172D01*
X144006440Y-61803500D01*
X143959463Y-61561377D01*
X143865000Y-61417575D01*
X143865000Y-56981511D01*
X143956377Y-56846140D01*
X144006440Y-56596500D01*
X144006440Y-55453500D01*
X143959463Y-55211377D01*
X143865000Y-55067575D01*
X143865000Y-52207210D01*
X144042192Y-52030327D01*
X144184838Y-51686799D01*
X144185162Y-51314833D01*
X144043117Y-50971057D01*
X143780327Y-50707808D01*
X143436799Y-50565162D01*
X143064833Y-50564838D01*
X142721057Y-50706883D01*
X142457808Y-50969673D01*
X142315162Y-51313201D01*
X142314838Y-51685167D01*
X142345000Y-51758165D01*
X142345000Y-54860416D01*
X142338640Y-54856123D01*
X142089000Y-54806060D01*
X141581000Y-54806060D01*
X141338877Y-54853037D01*
X141199604Y-54944525D01*
X141068640Y-54856123D01*
X140819000Y-54806060D01*
X140311000Y-54806060D01*
X140068877Y-54853037D01*
X139929604Y-54944525D01*
X139798640Y-54856123D01*
X139549000Y-54806060D01*
X139041000Y-54806060D01*
X138798877Y-54853037D01*
X138586073Y-54992827D01*
X138443623Y-55203860D01*
X138431362Y-55265000D01*
X136475000Y-55265000D01*
X136223754Y-55314976D01*
X136064833Y-55314838D01*
X135721057Y-55456883D01*
X135457808Y-55719673D01*
X135315162Y-56063201D01*
X135314943Y-56314838D01*
X135314833Y-56314838D01*
X134971057Y-56456883D01*
X134707808Y-56719673D01*
X134565162Y-57063201D01*
X134564838Y-57435167D01*
X134706883Y-57778943D01*
X134969673Y-58042192D01*
X135313201Y-58184838D01*
X135433410Y-58184943D01*
X135459160Y-58202148D01*
X135750000Y-58260000D01*
X139915198Y-58260000D01*
X139685198Y-58490000D01*
X136812463Y-58490000D01*
X136780327Y-58457808D01*
X136436799Y-58315162D01*
X136064833Y-58314838D01*
X135721057Y-58456883D01*
X135457808Y-58719673D01*
X135315162Y-59063201D01*
X135314838Y-59435167D01*
X135456883Y-59778943D01*
X135719673Y-60042192D01*
X136063201Y-60184838D01*
X136435167Y-60185162D01*
X136778943Y-60043117D01*
X136812118Y-60010000D01*
X140000000Y-60010000D01*
X140290839Y-59952148D01*
X140537401Y-59787401D01*
X142345000Y-57979802D01*
X142345000Y-61222220D01*
X142215309Y-61168500D01*
X142120750Y-61168500D01*
X141962000Y-61327250D01*
X141962000Y-62248000D01*
X141982000Y-62248000D01*
X141982000Y-62502000D01*
X141962000Y-62502000D01*
X141962000Y-63422750D01*
X142120750Y-63581500D01*
X142215309Y-63581500D01*
X142345000Y-63527780D01*
X142345000Y-63699537D01*
X142312808Y-63731673D01*
X142170162Y-64075201D01*
X142169838Y-64447167D01*
X142311883Y-64790943D01*
X142345000Y-64824118D01*
X142345000Y-66240000D01*
X139116084Y-66240000D01*
X139083948Y-66207808D01*
X138740420Y-66065162D01*
X138368454Y-66064838D01*
X138024678Y-66206883D01*
X137991503Y-66240000D01*
X128814802Y-66240000D01*
X125235552Y-62660750D01*
X138406000Y-62660750D01*
X138406000Y-63072810D01*
X138502673Y-63306199D01*
X138681302Y-63484827D01*
X138914691Y-63581500D01*
X139009250Y-63581500D01*
X139168000Y-63422750D01*
X139168000Y-62502000D01*
X139422000Y-62502000D01*
X139422000Y-63422750D01*
X139580750Y-63581500D01*
X139675309Y-63581500D01*
X139908698Y-63484827D01*
X139930000Y-63463525D01*
X139951302Y-63484827D01*
X140184691Y-63581500D01*
X140279250Y-63581500D01*
X140438000Y-63422750D01*
X140438000Y-62502000D01*
X140692000Y-62502000D01*
X140692000Y-63422750D01*
X140850750Y-63581500D01*
X140945309Y-63581500D01*
X141178698Y-63484827D01*
X141200000Y-63463525D01*
X141221302Y-63484827D01*
X141454691Y-63581500D01*
X141549250Y-63581500D01*
X141708000Y-63422750D01*
X141708000Y-62502000D01*
X140692000Y-62502000D01*
X140438000Y-62502000D01*
X140438000Y-62502000D01*
X139422000Y-62502000D01*
X139168000Y-62502000D01*
X139168000Y-62502000D01*
X138564750Y-62502000D01*
X138406000Y-62660750D01*
X125235552Y-62660750D01*
X124251992Y-61677190D01*
X138406000Y-61677190D01*
X138406000Y-62089250D01*
X138564750Y-62248000D01*
X139168000Y-62248000D01*
X139168000Y-61327250D01*
X139422000Y-61327250D01*
X139422000Y-62248000D01*
X140438000Y-62248000D01*
X140438000Y-61327250D01*
X140692000Y-61327250D01*
X140692000Y-62248000D01*
X141708000Y-62248000D01*
X141708000Y-61327250D01*
X141549250Y-61168500D01*
X141454691Y-61168500D01*
X141221302Y-61265173D01*
X141200000Y-61286475D01*
X141178698Y-61265173D01*
X140945309Y-61168500D01*
X140850750Y-61168500D01*
X140692000Y-61327250D01*
X140438000Y-61327250D01*
X140438000Y-61327250D01*
X140279250Y-61168500D01*
X140184691Y-61168500D01*
X139951302Y-61265173D01*
X139930000Y-61286475D01*
X139908698Y-61265173D01*
X139675309Y-61168500D01*
X139580750Y-61168500D01*
X139422000Y-61327250D01*
X139168000Y-61327250D01*
X139168000Y-61327250D01*
X139009250Y-61168500D01*
X138914691Y-61168500D01*
X138681302Y-61265173D01*
X138502673Y-61443801D01*
X138406000Y-61677190D01*
X124251992Y-61677190D01*
X122037401Y-59462599D01*
X121790839Y-59297852D01*
X121500000Y-59240000D01*
X115567635Y-59240000D01*
X115606440Y-59046500D01*
X115606440Y-57903500D01*
X115559463Y-57661377D01*
X115465000Y-57517575D01*
X115465000Y-57010000D01*
X115937537Y-57010000D01*
X115969673Y-57042192D01*
X116313201Y-57184838D01*
X116685167Y-57185162D01*
X117028943Y-57043117D01*
X117292192Y-56780327D01*
X117434838Y-56436799D01*
X117435162Y-56064833D01*
X117293117Y-55721057D01*
X117030327Y-55457808D01*
X116686799Y-55315162D01*
X116314833Y-55314838D01*
X115971057Y-55456883D01*
X115937882Y-55490000D01*
X115465000Y-55490000D01*
X115465000Y-53081511D01*
X115556377Y-52946140D01*
X115606440Y-52696500D01*
X115606440Y-51553500D01*
X115559463Y-51311377D01*
X115465000Y-51167575D01*
X115465000Y-50857384D01*
X115542192Y-50780327D01*
X115684838Y-50436799D01*
X115685162Y-50064833D01*
X115543117Y-49721057D01*
X115280327Y-49457808D01*
X114936799Y-49315162D01*
X114564833Y-49314838D01*
X114221057Y-49456883D01*
X113957808Y-49719673D01*
X113815162Y-50063201D01*
X113814838Y-50435167D01*
X113945000Y-50750184D01*
X113945000Y-50960416D01*
X113938640Y-50956123D01*
X113689000Y-50906060D01*
X113181000Y-50906060D01*
X112938877Y-50953037D01*
X112799604Y-51044525D01*
X112668640Y-50956123D01*
X112419000Y-50906060D01*
X111911000Y-50906060D01*
X111668877Y-50953037D01*
X111529604Y-51044525D01*
X111398640Y-50956123D01*
X111149000Y-50906060D01*
X110641000Y-50906060D01*
X110398877Y-50953037D01*
X110186073Y-51092827D01*
X110043623Y-51303860D01*
X110031362Y-51365000D01*
X108806822Y-51365000D01*
X108686799Y-51315162D01*
X108314833Y-51314838D01*
X107971057Y-51456883D01*
X107707808Y-51719673D01*
X107565162Y-52063201D01*
X107564838Y-52435167D01*
X107706883Y-52778943D01*
X107742870Y-52814993D01*
X107564833Y-52814838D01*
X107221057Y-52956883D01*
X106957808Y-53219673D01*
X106815162Y-53563201D01*
X106814838Y-53935167D01*
X106956883Y-54278943D01*
X107190027Y-54512494D01*
X107065162Y-54813201D01*
X107064838Y-55185167D01*
X107206883Y-55528943D01*
X107469673Y-55792192D01*
X107813201Y-55934838D01*
X108185167Y-55935162D01*
X108528943Y-55793117D01*
X108562118Y-55760000D01*
X112000000Y-55760000D01*
X112290839Y-55702148D01*
X112537401Y-55537401D01*
X113945000Y-54129802D01*
X113945000Y-57322220D01*
X113815309Y-57268500D01*
X113720750Y-57268500D01*
X113562000Y-57427250D01*
X113562000Y-58348000D01*
X113582000Y-58348000D01*
X113582000Y-58602000D01*
X113562000Y-58602000D01*
X113562000Y-58622000D01*
X113308000Y-58622000D01*
X113308000Y-58602000D01*
X113288000Y-58602000D01*
X113288000Y-58348000D01*
X113308000Y-58348000D01*
X113308000Y-57427250D01*
X113149250Y-57268500D01*
X113054691Y-57268500D01*
X112821302Y-57365173D01*
X112795034Y-57391441D01*
X112668640Y-57306123D01*
X112419000Y-57256060D01*
X111911000Y-57256060D01*
X111668877Y-57303037D01*
X111534701Y-57391176D01*
X111508698Y-57365173D01*
X111275309Y-57268500D01*
X111180750Y-57268500D01*
X111022000Y-57427250D01*
X111022000Y-58348000D01*
X111042000Y-58348000D01*
X111042000Y-58602000D01*
X111022000Y-58602000D01*
X111022000Y-58622000D01*
X110768000Y-58622000D01*
X110768000Y-58602000D01*
X110164750Y-58602000D01*
X110006000Y-58760750D01*
X110006000Y-59172810D01*
X110033831Y-59240000D01*
X97165000Y-59240000D01*
X97165000Y-58482083D01*
X97197192Y-58449947D01*
X97339838Y-58106419D01*
X97340162Y-57734453D01*
X97198117Y-57390677D01*
X97165000Y-57357502D01*
X97165000Y-56731511D01*
X97256377Y-56596140D01*
X97271278Y-56521834D01*
X99614543Y-56521834D01*
X100014853Y-57490658D01*
X100755443Y-58232542D01*
X101723567Y-58634542D01*
X102771834Y-58635457D01*
X103740658Y-58235147D01*
X104199415Y-57777190D01*
X110006000Y-57777190D01*
X110006000Y-58189250D01*
X110164750Y-58348000D01*
X110768000Y-58348000D01*
X110768000Y-57427250D01*
X110609250Y-57268500D01*
X110514691Y-57268500D01*
X110281302Y-57365173D01*
X110102673Y-57543801D01*
X110006000Y-57777190D01*
X104199415Y-57777190D01*
X104482542Y-57494557D01*
X104884542Y-56526433D01*
X104885457Y-55478166D01*
X104485147Y-54509342D01*
X103744557Y-53767458D01*
X102776433Y-53365458D01*
X101728166Y-53364543D01*
X100759342Y-53764853D01*
X100017458Y-54505443D01*
X99615458Y-55473567D01*
X99614543Y-56521834D01*
X97271278Y-56521834D01*
X97306440Y-56346500D01*
X97306440Y-55203500D01*
X97259463Y-54961377D01*
X97165000Y-54817575D01*
X97165000Y-50381511D01*
X97256377Y-50246140D01*
X97306440Y-49996500D01*
X97306440Y-48853500D01*
X97273747Y-48685000D01*
X259815000Y-48685000D01*
X259815000Y-97315000D01*
X259815000Y-97315000D01*
G37*
X259815000Y-97315000D02*
X225757458Y-97315000D01*
X225792192Y-97280327D01*
X225904442Y-97010000D01*
X248150000Y-97010000D01*
X248440839Y-96952148D01*
X248687401Y-96787401D01*
X249737401Y-95737401D01*
X249902148Y-95490840D01*
X249960000Y-95200000D01*
X249960000Y-87800000D01*
X249902148Y-87509161D01*
X249737401Y-87262599D01*
X247337401Y-84862599D01*
X247090839Y-84697852D01*
X246800000Y-84640000D01*
X243800000Y-84640000D01*
X243509161Y-84697852D01*
X243262599Y-84862599D01*
X242667599Y-85457599D01*
X242502852Y-85704161D01*
X242486138Y-85788185D01*
X242438640Y-85756123D01*
X242189000Y-85706060D01*
X241681000Y-85706060D01*
X241438877Y-85753037D01*
X241299604Y-85844525D01*
X241168640Y-85756123D01*
X240919000Y-85706060D01*
X240411000Y-85706060D01*
X240168877Y-85753037D01*
X240029604Y-85844525D01*
X240010000Y-85831292D01*
X240010000Y-85812463D01*
X240042192Y-85780327D01*
X240184838Y-85436799D01*
X240185162Y-85064833D01*
X240043117Y-84721057D01*
X239780327Y-84457808D01*
X239436799Y-84315162D01*
X239064833Y-84314838D01*
X238721057Y-84456883D01*
X238457808Y-84719673D01*
X238315162Y-85063201D01*
X238314838Y-85435167D01*
X238456883Y-85778943D01*
X238490000Y-85812118D01*
X238490000Y-86780000D01*
X238493560Y-86797897D01*
X238493560Y-87496500D01*
X238535684Y-87713611D01*
X238280327Y-87457808D01*
X237936799Y-87315162D01*
X237564833Y-87314838D01*
X237221057Y-87456883D01*
X236957808Y-87719673D01*
X236815162Y-88063201D01*
X236814838Y-88435167D01*
X236956883Y-88778943D01*
X237219673Y-89042192D01*
X237563201Y-89184838D01*
X237610077Y-89184879D01*
X237712599Y-89287401D01*
X237864708Y-89389037D01*
X237686799Y-89315162D01*
X237314833Y-89314838D01*
X236971057Y-89456883D01*
X236707808Y-89719673D01*
X236565162Y-90063201D01*
X236564838Y-90435167D01*
X236706883Y-90778943D01*
X236969673Y-91042192D01*
X237313201Y-91184838D01*
X237685167Y-91185162D01*
X238028943Y-91043117D01*
X238062118Y-91010000D01*
X240250000Y-91010000D01*
X240540839Y-90952148D01*
X240787401Y-90787401D01*
X242472401Y-89102401D01*
X242637148Y-88855839D01*
X242695000Y-88565000D01*
X242695000Y-88089584D01*
X242701360Y-88093877D01*
X242951000Y-88143940D01*
X243459000Y-88143940D01*
X243701123Y-88096963D01*
X243913927Y-87957173D01*
X244056377Y-87746140D01*
X244106440Y-87496500D01*
X244106440Y-86353500D01*
X244076356Y-86198446D01*
X244114802Y-86160000D01*
X245240000Y-86160000D01*
X245240000Y-87687537D01*
X245207808Y-87719673D01*
X245065162Y-88063201D01*
X245064838Y-88435167D01*
X245206883Y-88778943D01*
X245469673Y-89042192D01*
X245813201Y-89184838D01*
X246185167Y-89185162D01*
X246528943Y-89043117D01*
X246792192Y-88780327D01*
X246934838Y-88436799D01*
X246935162Y-88064833D01*
X246793117Y-87721057D01*
X246760000Y-87687882D01*
X246760000Y-86434802D01*
X248440000Y-88114802D01*
X248440000Y-94885198D01*
X247835198Y-95490000D01*
X223604114Y-95490000D01*
X223625000Y-95385000D01*
X223625000Y-94427780D01*
X223754691Y-94481500D01*
X223849250Y-94481500D01*
X224008000Y-94322750D01*
X224008000Y-93402000D01*
X224262000Y-93402000D01*
X224262000Y-94322750D01*
X224420750Y-94481500D01*
X224515309Y-94481500D01*
X224748698Y-94384827D01*
X224770000Y-94363525D01*
X224791302Y-94384827D01*
X225024691Y-94481500D01*
X225119250Y-94481500D01*
X225278000Y-94322750D01*
X225278000Y-93402000D01*
X225532000Y-93402000D01*
X225532000Y-94322750D01*
X225690750Y-94481500D01*
X225785309Y-94481500D01*
X226018698Y-94384827D01*
X226197327Y-94206199D01*
X226294000Y-93972810D01*
X226294000Y-93560750D01*
X226135250Y-93402000D01*
X225532000Y-93402000D01*
X225278000Y-93402000D01*
X225278000Y-93402000D01*
X224262000Y-93402000D01*
X224008000Y-93402000D01*
X224008000Y-93402000D01*
X223988000Y-93402000D01*
X223988000Y-93148000D01*
X224008000Y-93148000D01*
X224008000Y-93128000D01*
X224262000Y-93128000D01*
X224262000Y-93148000D01*
X225278000Y-93148000D01*
X225278000Y-92227250D01*
X225532000Y-92227250D01*
X225532000Y-93148000D01*
X226135250Y-93148000D01*
X226255078Y-93028172D01*
X229582538Y-93028172D01*
X229987709Y-94008761D01*
X230737293Y-94759655D01*
X231717173Y-95166536D01*
X232778172Y-95167462D01*
X233758761Y-94762291D01*
X234509655Y-94012707D01*
X234697323Y-93560750D01*
X238506000Y-93560750D01*
X238506000Y-93972810D01*
X238602673Y-94206199D01*
X238781302Y-94384827D01*
X239014691Y-94481500D01*
X239109250Y-94481500D01*
X239268000Y-94322750D01*
X239268000Y-93402000D01*
X239522000Y-93402000D01*
X239522000Y-94322750D01*
X239680750Y-94481500D01*
X239775309Y-94481500D01*
X240008698Y-94384827D01*
X240030000Y-94363525D01*
X240051302Y-94384827D01*
X240284691Y-94481500D01*
X240379250Y-94481500D01*
X240538000Y-94322750D01*
X240538000Y-93402000D01*
X240792000Y-93402000D01*
X240792000Y-94322750D01*
X240950750Y-94481500D01*
X241045309Y-94481500D01*
X241278698Y-94384827D01*
X241300000Y-94363525D01*
X241321302Y-94384827D01*
X241554691Y-94481500D01*
X241649250Y-94481500D01*
X241808000Y-94322750D01*
X241808000Y-93402000D01*
X242062000Y-93402000D01*
X242062000Y-94322750D01*
X242220750Y-94481500D01*
X242315309Y-94481500D01*
X242548698Y-94384827D01*
X242570000Y-94363525D01*
X242591302Y-94384827D01*
X242824691Y-94481500D01*
X242919250Y-94481500D01*
X243078000Y-94322750D01*
X243078000Y-93402000D01*
X243332000Y-93402000D01*
X243332000Y-94322750D01*
X243490750Y-94481500D01*
X243585309Y-94481500D01*
X243818698Y-94384827D01*
X243997327Y-94206199D01*
X244094000Y-93972810D01*
X244094000Y-93560750D01*
X243935250Y-93402000D01*
X243332000Y-93402000D01*
X243078000Y-93402000D01*
X243078000Y-93402000D01*
X242062000Y-93402000D01*
X241808000Y-93402000D01*
X241808000Y-93402000D01*
X240792000Y-93402000D01*
X240538000Y-93402000D01*
X240538000Y-93402000D01*
X239522000Y-93402000D01*
X239268000Y-93402000D01*
X239268000Y-93402000D01*
X238664750Y-93402000D01*
X238506000Y-93560750D01*
X234697323Y-93560750D01*
X234916536Y-93032827D01*
X234916933Y-92577190D01*
X238506000Y-92577190D01*
X238506000Y-92989250D01*
X238664750Y-93148000D01*
X239268000Y-93148000D01*
X239268000Y-92227250D01*
X239522000Y-92227250D01*
X239522000Y-93148000D01*
X240538000Y-93148000D01*
X240538000Y-92227250D01*
X240792000Y-92227250D01*
X240792000Y-93148000D01*
X241808000Y-93148000D01*
X241808000Y-92227250D01*
X242062000Y-92227250D01*
X242062000Y-93148000D01*
X243078000Y-93148000D01*
X243078000Y-92227250D01*
X243332000Y-92227250D01*
X243332000Y-93148000D01*
X243935250Y-93148000D01*
X244094000Y-92989250D01*
X244094000Y-92577190D01*
X243997327Y-92343801D01*
X243818698Y-92165173D01*
X243585309Y-92068500D01*
X243490750Y-92068500D01*
X243332000Y-92227250D01*
X243078000Y-92227250D01*
X243078000Y-92227250D01*
X242919250Y-92068500D01*
X242824691Y-92068500D01*
X242591302Y-92165173D01*
X242570000Y-92186475D01*
X242548698Y-92165173D01*
X242315309Y-92068500D01*
X242220750Y-92068500D01*
X242062000Y-92227250D01*
X241808000Y-92227250D01*
X241808000Y-92227250D01*
X241649250Y-92068500D01*
X241554691Y-92068500D01*
X241321302Y-92165173D01*
X241300000Y-92186475D01*
X241278698Y-92165173D01*
X241045309Y-92068500D01*
X240950750Y-92068500D01*
X240792000Y-92227250D01*
X240538000Y-92227250D01*
X240538000Y-92227250D01*
X240379250Y-92068500D01*
X240284691Y-92068500D01*
X240051302Y-92165173D01*
X240030000Y-92186475D01*
X240008698Y-92165173D01*
X239775309Y-92068500D01*
X239680750Y-92068500D01*
X239522000Y-92227250D01*
X239268000Y-92227250D01*
X239268000Y-92227250D01*
X239109250Y-92068500D01*
X239014691Y-92068500D01*
X238781302Y-92165173D01*
X238602673Y-92343801D01*
X238506000Y-92577190D01*
X234916933Y-92577190D01*
X234917462Y-91971828D01*
X234512291Y-90991239D01*
X233762707Y-90240345D01*
X232782827Y-89833464D01*
X231721828Y-89832538D01*
X230741239Y-90237709D01*
X229990345Y-90987293D01*
X229583464Y-91967173D01*
X229582538Y-93028172D01*
X226255078Y-93028172D01*
X226294000Y-92989250D01*
X226294000Y-92577190D01*
X226197327Y-92343801D01*
X226018698Y-92165173D01*
X225785309Y-92068500D01*
X225690750Y-92068500D01*
X225532000Y-92227250D01*
X225278000Y-92227250D01*
X225278000Y-92227250D01*
X225119250Y-92068500D01*
X225024691Y-92068500D01*
X224791302Y-92165173D01*
X224770000Y-92186475D01*
X224748698Y-92165173D01*
X224515309Y-92068500D01*
X224420750Y-92068500D01*
X224262002Y-92227248D01*
X224262002Y-92068500D01*
X224256302Y-92068500D01*
X224389680Y-91935122D01*
X224435167Y-91935162D01*
X224778943Y-91793117D01*
X225042192Y-91530327D01*
X225184838Y-91186799D01*
X225184879Y-91139923D01*
X225942401Y-90382401D01*
X226107148Y-90135839D01*
X226165000Y-89845000D01*
X226165000Y-87881511D01*
X226256377Y-87746140D01*
X226306440Y-87496500D01*
X226306440Y-86353500D01*
X226259463Y-86111377D01*
X226119673Y-85898573D01*
X225908640Y-85756123D01*
X225659000Y-85706060D01*
X225151000Y-85706060D01*
X224908877Y-85753037D01*
X224769604Y-85844525D01*
X224638640Y-85756123D01*
X224389000Y-85706060D01*
X223881000Y-85706060D01*
X223638877Y-85753037D01*
X223499604Y-85844525D01*
X223368640Y-85756123D01*
X223119000Y-85706060D01*
X222611000Y-85706060D01*
X222368877Y-85753037D01*
X222229604Y-85844525D01*
X222098640Y-85756123D01*
X221849000Y-85706060D01*
X221341000Y-85706060D01*
X221098877Y-85753037D01*
X220886073Y-85892827D01*
X220820480Y-85990000D01*
X219562463Y-85990000D01*
X219530327Y-85957808D01*
X219186799Y-85815162D01*
X218814833Y-85814838D01*
X218471057Y-85956883D01*
X218207808Y-86219673D01*
X218065162Y-86563201D01*
X218064838Y-86935167D01*
X218206883Y-87278943D01*
X218469673Y-87542192D01*
X218669162Y-87625028D01*
X218471057Y-87706883D01*
X218207808Y-87969673D01*
X218065162Y-88313201D01*
X218064838Y-88685167D01*
X218206883Y-89028943D01*
X218469673Y-89292192D01*
X218669162Y-89375028D01*
X218471057Y-89456883D01*
X218207808Y-89719673D01*
X218065162Y-90063201D01*
X218064838Y-90435167D01*
X218206883Y-90778943D01*
X218469673Y-91042192D01*
X218813201Y-91184838D01*
X219185167Y-91185162D01*
X219528943Y-91043117D01*
X219562118Y-91010000D01*
X223000000Y-91010000D01*
X223206218Y-90968980D01*
X222327599Y-91847599D01*
X222162852Y-92094161D01*
X222153292Y-92142223D01*
X221975309Y-92068500D01*
X221880750Y-92068500D01*
X221722000Y-92227250D01*
X221722000Y-93148000D01*
X221742000Y-93148000D01*
X221742000Y-93402000D01*
X221722000Y-93402000D01*
X221722000Y-94322750D01*
X221880750Y-94481500D01*
X221975309Y-94481500D01*
X222105000Y-94427780D01*
X222105000Y-95070198D01*
X221685198Y-95490000D01*
X173645458Y-95490000D01*
X173694000Y-95372810D01*
X173694000Y-94960750D01*
X173535250Y-94802000D01*
X172932000Y-94802000D01*
X172932000Y-94822000D01*
X172678000Y-94822000D01*
X172678000Y-94802000D01*
X172658000Y-94802000D01*
X172658000Y-94548000D01*
X172678000Y-94548000D01*
X172678000Y-94528000D01*
X172932000Y-94528000D01*
X172932000Y-94548000D01*
X173535250Y-94548000D01*
X173694000Y-94389250D01*
X173694000Y-93977190D01*
X173597327Y-93743801D01*
X173560849Y-93707323D01*
X174927290Y-93707323D01*
X174956883Y-93778943D01*
X175219673Y-94042192D01*
X175563201Y-94184838D01*
X175935167Y-94185162D01*
X176278943Y-94043117D01*
X176542192Y-93780327D01*
X176633368Y-93560750D01*
X220706000Y-93560750D01*
X220706000Y-93972810D01*
X220802673Y-94206199D01*
X220981302Y-94384827D01*
X221214691Y-94481500D01*
X221309250Y-94481500D01*
X221468000Y-94322750D01*
X221468000Y-93402000D01*
X220864750Y-93402000D01*
X220706000Y-93560750D01*
X176633368Y-93560750D01*
X176684838Y-93436799D01*
X176685162Y-93064833D01*
X176543117Y-92721057D01*
X176399501Y-92577190D01*
X220706000Y-92577190D01*
X220706000Y-92989250D01*
X220864750Y-93148000D01*
X221468000Y-93148000D01*
X221468000Y-92227250D01*
X221309250Y-92068500D01*
X221214691Y-92068500D01*
X220981302Y-92165173D01*
X220802673Y-92343801D01*
X220706000Y-92577190D01*
X176399501Y-92577190D01*
X176280327Y-92457808D01*
X175936799Y-92315162D01*
X175842783Y-92315080D01*
X175738162Y-92245175D01*
X175447323Y-92187323D01*
X173360710Y-92187323D01*
X173507148Y-91968163D01*
X173565000Y-91677323D01*
X173565000Y-89281511D01*
X173656377Y-89146140D01*
X173706440Y-88896500D01*
X173706440Y-87753500D01*
X173659463Y-87511377D01*
X173519673Y-87298573D01*
X173308640Y-87156123D01*
X173059000Y-87106060D01*
X172551000Y-87106060D01*
X172308877Y-87153037D01*
X172169604Y-87244525D01*
X172038640Y-87156123D01*
X171789000Y-87106060D01*
X171281000Y-87106060D01*
X171038877Y-87153037D01*
X170899604Y-87244525D01*
X170768640Y-87156123D01*
X170519000Y-87106060D01*
X170011000Y-87106060D01*
X169768877Y-87153037D01*
X169695288Y-87201377D01*
X169532401Y-86957599D01*
X169287401Y-86712599D01*
X169040839Y-86547852D01*
X168750000Y-86490000D01*
X166750000Y-86490000D01*
X166459160Y-86547852D01*
X166433584Y-86564941D01*
X166314833Y-86564838D01*
X165971057Y-86706883D01*
X165707808Y-86969673D01*
X165565162Y-87313201D01*
X165564838Y-87685167D01*
X165706883Y-88028943D01*
X165969673Y-88292192D01*
X166313201Y-88434838D01*
X166685167Y-88435162D01*
X167028943Y-88293117D01*
X167292192Y-88030327D01*
X167300633Y-88010000D01*
X168093560Y-88010000D01*
X168093560Y-88896500D01*
X168140537Y-89138623D01*
X168280327Y-89351427D01*
X168485616Y-89490000D01*
X167050944Y-89490000D01*
X167043117Y-89471057D01*
X166780327Y-89207808D01*
X166436799Y-89065162D01*
X166064833Y-89064838D01*
X165721057Y-89206883D01*
X165457808Y-89469673D01*
X165315162Y-89813201D01*
X165314838Y-90185167D01*
X165456883Y-90528943D01*
X165719673Y-90792192D01*
X165919162Y-90875028D01*
X165721057Y-90956883D01*
X165457808Y-91219673D01*
X165315162Y-91563201D01*
X165314838Y-91935167D01*
X165456883Y-92278943D01*
X165719673Y-92542192D01*
X166063201Y-92684838D01*
X166435167Y-92685162D01*
X166778943Y-92543117D01*
X166812118Y-92510000D01*
X170000000Y-92510000D01*
X170290839Y-92452148D01*
X170537401Y-92287401D01*
X172045000Y-90779802D01*
X172045000Y-91362521D01*
X170997599Y-92409922D01*
X170832852Y-92656484D01*
X170775000Y-92947323D01*
X170775000Y-93522220D01*
X170645309Y-93468500D01*
X170550750Y-93468500D01*
X170392000Y-93627250D01*
X170392000Y-94548000D01*
X170412000Y-94548000D01*
X170412000Y-94802000D01*
X170392000Y-94802000D01*
X170392000Y-94822000D01*
X170138000Y-94822000D01*
X170138000Y-94802000D01*
X169122000Y-94802000D01*
X169122000Y-94822000D01*
X168868000Y-94822000D01*
X168868000Y-94802000D01*
X168264750Y-94802000D01*
X168106000Y-94960750D01*
X168106000Y-95372810D01*
X168154542Y-95490000D01*
X157113835Y-95490000D01*
X157113835Y-94086783D01*
X157277852Y-93977190D01*
X168106000Y-93977190D01*
X168106000Y-94389250D01*
X168264750Y-94548000D01*
X168868000Y-94548000D01*
X168868000Y-93627250D01*
X169122000Y-93627250D01*
X169122000Y-94548000D01*
X170138000Y-94548000D01*
X170138000Y-93627250D01*
X169979250Y-93468500D01*
X169884691Y-93468500D01*
X169651302Y-93565173D01*
X169630000Y-93586475D01*
X169608698Y-93565173D01*
X169375309Y-93468500D01*
X169280750Y-93468500D01*
X169122000Y-93627250D01*
X168868000Y-93627250D01*
X168868000Y-93627250D01*
X168709250Y-93468500D01*
X168614691Y-93468500D01*
X168381302Y-93565173D01*
X168202673Y-93743801D01*
X168106000Y-93977190D01*
X157277852Y-93977190D01*
X157337401Y-93937401D01*
X157672401Y-93602401D01*
X157837148Y-93355839D01*
X157895000Y-93065000D01*
X157895000Y-92627780D01*
X158024691Y-92681500D01*
X158119250Y-92681500D01*
X158278000Y-92522750D01*
X158278000Y-91602000D01*
X158532000Y-91602000D01*
X158532000Y-92522750D01*
X158690750Y-92681500D01*
X158785309Y-92681500D01*
X159018698Y-92584827D01*
X159197327Y-92406199D01*
X159294000Y-92172810D01*
X159294000Y-91760750D01*
X159135250Y-91602000D01*
X158532000Y-91602000D01*
X158278000Y-91602000D01*
X158278000Y-91602000D01*
X158258000Y-91602000D01*
X158258000Y-91348000D01*
X158278000Y-91348000D01*
X158278000Y-90427250D01*
X158532000Y-90427250D01*
X158532000Y-91348000D01*
X159135250Y-91348000D01*
X159294000Y-91189250D01*
X159294000Y-90777190D01*
X159197327Y-90543801D01*
X159018698Y-90365173D01*
X158785309Y-90268500D01*
X158690750Y-90268500D01*
X158532000Y-90427250D01*
X158278000Y-90427250D01*
X158278000Y-90427250D01*
X158119250Y-90268500D01*
X158024691Y-90268500D01*
X157895000Y-90322220D01*
X157895000Y-89179802D01*
X158942401Y-88132401D01*
X159107148Y-87885840D01*
X159165000Y-87595000D01*
X159165000Y-86081511D01*
X159256377Y-85946140D01*
X159268638Y-85885000D01*
X159312755Y-85885000D01*
X159469673Y-86042192D01*
X159813201Y-86184838D01*
X160185167Y-86185162D01*
X160528943Y-86043117D01*
X160792192Y-85780327D01*
X160934838Y-85436799D01*
X160935162Y-85064833D01*
X160793117Y-84721057D01*
X160530327Y-84457808D01*
X160186799Y-84315162D01*
X159814833Y-84314838D01*
X159693431Y-84365000D01*
X159269867Y-84365000D01*
X159259463Y-84311377D01*
X159119673Y-84098573D01*
X158908640Y-83956123D01*
X158659000Y-83906060D01*
X158151000Y-83906060D01*
X157908877Y-83953037D01*
X157769604Y-84044525D01*
X157638640Y-83956123D01*
X157389000Y-83906060D01*
X156881000Y-83906060D01*
X156638877Y-83953037D01*
X156499604Y-84044525D01*
X156368640Y-83956123D01*
X156119000Y-83906060D01*
X155611000Y-83906060D01*
X155368877Y-83953037D01*
X155229604Y-84044525D01*
X155098640Y-83956123D01*
X154849000Y-83906060D01*
X154341000Y-83906060D01*
X154098877Y-83953037D01*
X153886073Y-84092827D01*
X153743623Y-84303860D01*
X153693560Y-84553500D01*
X153693560Y-85490000D01*
X153312463Y-85490000D01*
X153280327Y-85457808D01*
X152936799Y-85315162D01*
X152564833Y-85314838D01*
X152221057Y-85456883D01*
X151957808Y-85719673D01*
X151815162Y-86063201D01*
X151814838Y-86435167D01*
X151956883Y-86778943D01*
X152219673Y-87042192D01*
X152397102Y-87115868D01*
X152315162Y-87313201D01*
X152314838Y-87685167D01*
X152456883Y-88028943D01*
X152586780Y-88159067D01*
X152471057Y-88206883D01*
X152207808Y-88469673D01*
X152065162Y-88813201D01*
X152064838Y-89185167D01*
X152206883Y-89528943D01*
X152469673Y-89792192D01*
X152813201Y-89934838D01*
X153185167Y-89935162D01*
X153528943Y-89793117D01*
X153562118Y-89760000D01*
X155250000Y-89760000D01*
X155540839Y-89702148D01*
X155787401Y-89537401D01*
X156375000Y-88949802D01*
X156375000Y-90310416D01*
X156368640Y-90306123D01*
X156119000Y-90256060D01*
X155611000Y-90256060D01*
X155368877Y-90303037D01*
X155234701Y-90391176D01*
X155208698Y-90365173D01*
X154975309Y-90268500D01*
X154880750Y-90268500D01*
X154722000Y-90427250D01*
X154722000Y-91348000D01*
X154742000Y-91348000D01*
X154742000Y-91602000D01*
X154722000Y-91602000D01*
X154722000Y-92522750D01*
X154880750Y-92681500D01*
X154975309Y-92681500D01*
X155105000Y-92627780D01*
X155105000Y-93265000D01*
X155162852Y-93555839D01*
X155327599Y-93802401D01*
X155462599Y-93937401D01*
X155593835Y-94025090D01*
X155593835Y-95490000D01*
X143977662Y-95490000D01*
X144006440Y-95346500D01*
X144006440Y-94203500D01*
X143959463Y-93961377D01*
X143865000Y-93817575D01*
X143865000Y-92896543D01*
X143897192Y-92864407D01*
X144036809Y-92528172D01*
X145332538Y-92528172D01*
X145737709Y-93508761D01*
X146487293Y-94259655D01*
X147467173Y-94666536D01*
X148528172Y-94667462D01*
X149508761Y-94262291D01*
X150259655Y-93512707D01*
X150666536Y-92532827D01*
X150667209Y-91760750D01*
X153706000Y-91760750D01*
X153706000Y-92172810D01*
X153802673Y-92406199D01*
X153981302Y-92584827D01*
X154214691Y-92681500D01*
X154309250Y-92681500D01*
X154468000Y-92522750D01*
X154468000Y-91602000D01*
X153864750Y-91602000D01*
X153706000Y-91760750D01*
X150667209Y-91760750D01*
X150667462Y-91471828D01*
X150380444Y-90777190D01*
X153706000Y-90777190D01*
X153706000Y-91189250D01*
X153864750Y-91348000D01*
X154468000Y-91348000D01*
X154468000Y-90427250D01*
X154309250Y-90268500D01*
X154214691Y-90268500D01*
X153981302Y-90365173D01*
X153802673Y-90543801D01*
X153706000Y-90777190D01*
X150380444Y-90777190D01*
X150262291Y-90491239D01*
X149512707Y-89740345D01*
X148532827Y-89333464D01*
X147471828Y-89332538D01*
X146491239Y-89737709D01*
X145740345Y-90487293D01*
X145333464Y-91467173D01*
X145332538Y-92528172D01*
X144036809Y-92528172D01*
X144039838Y-92520879D01*
X144040162Y-92148913D01*
X143898117Y-91805137D01*
X143865000Y-91771962D01*
X143865000Y-89381511D01*
X143956377Y-89246140D01*
X144006440Y-88996500D01*
X144006440Y-87853500D01*
X143959463Y-87611377D01*
X143865000Y-87467575D01*
X143865000Y-86855000D01*
X143861022Y-86835000D01*
X143807148Y-86564160D01*
X143642401Y-86317599D01*
X142287401Y-84962599D01*
X142040839Y-84797852D01*
X141750000Y-84740000D01*
X138312463Y-84740000D01*
X138280327Y-84707808D01*
X137936799Y-84565162D01*
X137564833Y-84564838D01*
X137221057Y-84706883D01*
X136957808Y-84969673D01*
X136815162Y-85313201D01*
X136814838Y-85685167D01*
X136956883Y-86028943D01*
X137219673Y-86292192D01*
X137563201Y-86434838D01*
X137935167Y-86435162D01*
X138278943Y-86293117D01*
X138312118Y-86260000D01*
X141435198Y-86260000D01*
X142345000Y-87169802D01*
X142345000Y-87260416D01*
X142338640Y-87256123D01*
X142089000Y-87206060D01*
X141581000Y-87206060D01*
X141338877Y-87253037D01*
X141199604Y-87344525D01*
X141068640Y-87256123D01*
X140819000Y-87206060D01*
X140311000Y-87206060D01*
X140068877Y-87253037D01*
X139929604Y-87344525D01*
X139798640Y-87256123D01*
X139549000Y-87206060D01*
X139041000Y-87206060D01*
X138866071Y-87240000D01*
X137562463Y-87240000D01*
X137530327Y-87207808D01*
X137186799Y-87065162D01*
X136814833Y-87064838D01*
X136471057Y-87206883D01*
X136207808Y-87469673D01*
X136065162Y-87813201D01*
X136064838Y-88185167D01*
X136206883Y-88528943D01*
X136469673Y-88792192D01*
X136813201Y-88934838D01*
X137185167Y-88935162D01*
X137528943Y-88793117D01*
X137562118Y-88760000D01*
X138393560Y-88760000D01*
X138393560Y-88996500D01*
X138440537Y-89238623D01*
X138572821Y-89440000D01*
X137762114Y-89440000D01*
X137530327Y-89207808D01*
X137186799Y-89065162D01*
X136814833Y-89064838D01*
X136471057Y-89206883D01*
X136207808Y-89469673D01*
X136065162Y-89813201D01*
X136064838Y-90185167D01*
X136206883Y-90528943D01*
X136469673Y-90792192D01*
X136813201Y-90934838D01*
X137074648Y-90935066D01*
X137200000Y-90960000D01*
X140200000Y-90960000D01*
X140218972Y-90956226D01*
X139935198Y-91240000D01*
X137062463Y-91240000D01*
X137030327Y-91207808D01*
X136686799Y-91065162D01*
X136314833Y-91064838D01*
X135971057Y-91206883D01*
X135707808Y-91469673D01*
X135565162Y-91813201D01*
X135564838Y-92185167D01*
X135706883Y-92528943D01*
X135969673Y-92792192D01*
X136313201Y-92934838D01*
X136685167Y-92935162D01*
X137028943Y-92793117D01*
X137062118Y-92760000D01*
X140250000Y-92760000D01*
X140540839Y-92702148D01*
X140787401Y-92537401D01*
X142287401Y-91037401D01*
X142345000Y-90951198D01*
X142345000Y-91771617D01*
X142312808Y-91803753D01*
X142170162Y-92147281D01*
X142169838Y-92519247D01*
X142311883Y-92863023D01*
X142345000Y-92896198D01*
X142345000Y-93622220D01*
X142215309Y-93568500D01*
X142120750Y-93568500D01*
X141962000Y-93727250D01*
X141962000Y-94648000D01*
X141982000Y-94648000D01*
X141982000Y-94902000D01*
X141962000Y-94902000D01*
X141962000Y-94922000D01*
X141708000Y-94922000D01*
X141708000Y-94902000D01*
X140692000Y-94902000D01*
X140692000Y-94922000D01*
X140438000Y-94922000D01*
X140438000Y-94902000D01*
X139422000Y-94902000D01*
X139422000Y-94922000D01*
X139168000Y-94922000D01*
X139168000Y-94902000D01*
X138564750Y-94902000D01*
X138406000Y-95060750D01*
X138406000Y-95472810D01*
X138413120Y-95490000D01*
X137574011Y-95490000D01*
X137541875Y-95457808D01*
X137198347Y-95315162D01*
X136826381Y-95314838D01*
X136482605Y-95456883D01*
X136449430Y-95490000D01*
X132964802Y-95490000D01*
X131551992Y-94077190D01*
X138406000Y-94077190D01*
X138406000Y-94489250D01*
X138564750Y-94648000D01*
X139168000Y-94648000D01*
X139168000Y-93727250D01*
X139422000Y-93727250D01*
X139422000Y-94648000D01*
X140438000Y-94648000D01*
X140438000Y-93727250D01*
X140692000Y-93727250D01*
X140692000Y-94648000D01*
X141708000Y-94648000D01*
X141708000Y-93727250D01*
X141549250Y-93568500D01*
X141454691Y-93568500D01*
X141221302Y-93665173D01*
X141200000Y-93686475D01*
X141178698Y-93665173D01*
X140945309Y-93568500D01*
X140850750Y-93568500D01*
X140692000Y-93727250D01*
X140438000Y-93727250D01*
X140438000Y-93727250D01*
X140279250Y-93568500D01*
X140184691Y-93568500D01*
X139951302Y-93665173D01*
X139930000Y-93686475D01*
X139908698Y-93665173D01*
X139675309Y-93568500D01*
X139580750Y-93568500D01*
X139422000Y-93727250D01*
X139168000Y-93727250D01*
X139168000Y-93727250D01*
X139009250Y-93568500D01*
X138914691Y-93568500D01*
X138681302Y-93665173D01*
X138502673Y-93843801D01*
X138406000Y-94077190D01*
X131551992Y-94077190D01*
X127137401Y-89662599D01*
X126890839Y-89497852D01*
X126600000Y-89440000D01*
X113160000Y-89440000D01*
X113160000Y-88138918D01*
X113256377Y-87996140D01*
X113268638Y-87935000D01*
X114325000Y-87935000D01*
X114325759Y-87934849D01*
X114685167Y-87935162D01*
X115028943Y-87793117D01*
X115292192Y-87530327D01*
X115434838Y-87186799D01*
X115435162Y-86814833D01*
X115293117Y-86471057D01*
X115030327Y-86207808D01*
X114686799Y-86065162D01*
X114314833Y-86064838D01*
X113971057Y-86206883D01*
X113762576Y-86415000D01*
X113269867Y-86415000D01*
X113259463Y-86361377D01*
X113165000Y-86217575D01*
X113165000Y-81781511D01*
X113256377Y-81646140D01*
X113306440Y-81396500D01*
X113306440Y-80253500D01*
X113259463Y-80011377D01*
X113180759Y-79891565D01*
X113292192Y-79780327D01*
X113434838Y-79436799D01*
X113435162Y-79064833D01*
X113293117Y-78721057D01*
X113030327Y-78457808D01*
X112686799Y-78315162D01*
X112314833Y-78314838D01*
X111971057Y-78456883D01*
X111707808Y-78719673D01*
X111565162Y-79063201D01*
X111564838Y-79435167D01*
X111645000Y-79629174D01*
X111645000Y-79660416D01*
X111638640Y-79656123D01*
X111389000Y-79606060D01*
X110881000Y-79606060D01*
X110638877Y-79653037D01*
X110499604Y-79744525D01*
X110368640Y-79656123D01*
X110119000Y-79606060D01*
X109611000Y-79606060D01*
X109368877Y-79653037D01*
X109355000Y-79662153D01*
X109355000Y-79654106D01*
X109297148Y-79363267D01*
X109297148Y-79363266D01*
X109132401Y-79116705D01*
X109037401Y-79021705D01*
X108790839Y-78856958D01*
X108500000Y-78799106D01*
X107690894Y-78799106D01*
X107400055Y-78856958D01*
X107153493Y-79021705D01*
X106559207Y-79615991D01*
X106436799Y-79565162D01*
X106064833Y-79564838D01*
X105721057Y-79706883D01*
X105457808Y-79969673D01*
X105315162Y-80313201D01*
X105314838Y-80685167D01*
X105456883Y-81028943D01*
X105719673Y-81292192D01*
X106063201Y-81434838D01*
X106435167Y-81435162D01*
X106778943Y-81293117D01*
X106827576Y-81244569D01*
X107040839Y-81202148D01*
X107287401Y-81037401D01*
X107693560Y-80631242D01*
X107693560Y-81396500D01*
X107740537Y-81638623D01*
X107807131Y-81740000D01*
X107312463Y-81740000D01*
X107280327Y-81707808D01*
X106936799Y-81565162D01*
X106564833Y-81564838D01*
X106221057Y-81706883D01*
X105957808Y-81969673D01*
X105815162Y-82313201D01*
X105814838Y-82685167D01*
X105956883Y-83028943D01*
X106219673Y-83292192D01*
X106563201Y-83434838D01*
X106935167Y-83435162D01*
X107278943Y-83293117D01*
X107312118Y-83260000D01*
X109700000Y-83260000D01*
X109968633Y-83206565D01*
X109185198Y-83990000D01*
X106812463Y-83990000D01*
X106780327Y-83957808D01*
X106436799Y-83815162D01*
X106064833Y-83814838D01*
X105721057Y-83956883D01*
X105457808Y-84219673D01*
X105315162Y-84563201D01*
X105314838Y-84935167D01*
X105456883Y-85278943D01*
X105719673Y-85542192D01*
X106063201Y-85684838D01*
X106435167Y-85685162D01*
X106778943Y-85543117D01*
X106812118Y-85510000D01*
X109500000Y-85510000D01*
X109790839Y-85452148D01*
X110037401Y-85287401D01*
X111645000Y-83679802D01*
X111645000Y-86022220D01*
X111515309Y-85968500D01*
X111420750Y-85968500D01*
X111262000Y-86127250D01*
X111262000Y-87048000D01*
X111282000Y-87048000D01*
X111282000Y-87302000D01*
X111262000Y-87302000D01*
X111262000Y-88222750D01*
X111420750Y-88381500D01*
X111515309Y-88381500D01*
X111640000Y-88329851D01*
X111640000Y-89440000D01*
X110615288Y-89440000D01*
X110615288Y-88323757D01*
X110754691Y-88381500D01*
X110849250Y-88381500D01*
X111008000Y-88222750D01*
X111008000Y-87302000D01*
X110988000Y-87302000D01*
X110988000Y-87048000D01*
X111008000Y-87048000D01*
X111008000Y-86127250D01*
X110849250Y-85968500D01*
X110754691Y-85968500D01*
X110521302Y-86065173D01*
X110495034Y-86091441D01*
X110368640Y-86006123D01*
X110119000Y-85956060D01*
X109611000Y-85956060D01*
X109368877Y-86003037D01*
X109234701Y-86091176D01*
X109208698Y-86065173D01*
X108975309Y-85968500D01*
X108880750Y-85968500D01*
X108722000Y-86127250D01*
X108722000Y-87048000D01*
X108742000Y-87048000D01*
X108742000Y-87302000D01*
X108722000Y-87302000D01*
X108722000Y-88222750D01*
X108880750Y-88381500D01*
X108975309Y-88381500D01*
X109095288Y-88331803D01*
X109095288Y-89440000D01*
X108014802Y-89440000D01*
X106035552Y-87460750D01*
X107706000Y-87460750D01*
X107706000Y-87872810D01*
X107802673Y-88106199D01*
X107981302Y-88284827D01*
X108214691Y-88381500D01*
X108309250Y-88381500D01*
X108468000Y-88222750D01*
X108468000Y-87302000D01*
X107864750Y-87302000D01*
X107706000Y-87460750D01*
X106035552Y-87460750D01*
X105051992Y-86477190D01*
X107706000Y-86477190D01*
X107706000Y-86889250D01*
X107864750Y-87048000D01*
X108468000Y-87048000D01*
X108468000Y-86127250D01*
X108309250Y-85968500D01*
X108214691Y-85968500D01*
X107981302Y-86065173D01*
X107802673Y-86243801D01*
X107706000Y-86477190D01*
X105051992Y-86477190D01*
X104600079Y-86025277D01*
X104353517Y-85860530D01*
X104062678Y-85802678D01*
X98165000Y-85802678D01*
X98165000Y-85331511D01*
X98256377Y-85196140D01*
X98306440Y-84946500D01*
X98306440Y-83803500D01*
X98259463Y-83561377D01*
X98165000Y-83417575D01*
X98165000Y-78981511D01*
X98256377Y-78846140D01*
X98306440Y-78596500D01*
X98306440Y-78078221D01*
X98563201Y-78184838D01*
X98935167Y-78185162D01*
X99278943Y-78043117D01*
X99542192Y-77780327D01*
X99684838Y-77436799D01*
X99685162Y-77064833D01*
X99543117Y-76721057D01*
X99280327Y-76457808D01*
X98936799Y-76315162D01*
X98564833Y-76314838D01*
X98221057Y-76456883D01*
X98187882Y-76490000D01*
X97750000Y-76490000D01*
X97459161Y-76547852D01*
X97212599Y-76712599D01*
X97111468Y-76813730D01*
X96908877Y-76853037D01*
X96890981Y-76864793D01*
X96880862Y-76813923D01*
X96837148Y-76594160D01*
X96672401Y-76347599D01*
X96287401Y-75962599D01*
X96040839Y-75797852D01*
X95750000Y-75740000D01*
X85466812Y-75740000D01*
X85434676Y-75707808D01*
X85269175Y-75639086D01*
X85500000Y-75685000D01*
X119000000Y-75685000D01*
X119262138Y-75632857D01*
X119484368Y-75484368D01*
X119632857Y-75262138D01*
X119685000Y-75000000D01*
X119685000Y-62000000D01*
X119632857Y-61737862D01*
X119484368Y-61515632D01*
X119262138Y-61367143D01*
X119000000Y-61315000D01*
X85500000Y-61315000D01*
X85237862Y-61367143D01*
X85015632Y-61515632D01*
X84867143Y-61737862D01*
X84815000Y-62000000D01*
X84815000Y-75000000D01*
X84867143Y-75262138D01*
X85015632Y-75484368D01*
X85211082Y-75614963D01*
X85091148Y-75565162D01*
X84719182Y-75564838D01*
X84375406Y-75706883D01*
X84342231Y-75740000D01*
X84010000Y-75740000D01*
X84010000Y-69250000D01*
X83952148Y-68959161D01*
X83787401Y-68712599D01*
X82935122Y-67860320D01*
X82935248Y-67715813D01*
X82717243Y-67188200D01*
X82313923Y-66784176D01*
X81786691Y-66565250D01*
X81215813Y-66564752D01*
X80688200Y-66782757D01*
X80284176Y-67186077D01*
X80065250Y-67713309D01*
X80064752Y-68284187D01*
X80282757Y-68811800D01*
X80470603Y-68999974D01*
X80284176Y-69186077D01*
X80261785Y-69240000D01*
X78200000Y-69240000D01*
X77957414Y-69288254D01*
X77909160Y-69297852D01*
X77662599Y-69462599D01*
X77350000Y-69775198D01*
X77185122Y-69610320D01*
X77185162Y-69564833D01*
X77043117Y-69221057D01*
X76780327Y-68957808D01*
X76436799Y-68815162D01*
X76064833Y-68814838D01*
X75721057Y-68956883D01*
X75457808Y-69219673D01*
X75315162Y-69563201D01*
X75314838Y-69935167D01*
X75456883Y-70278943D01*
X75719673Y-70542192D01*
X76063201Y-70684838D01*
X76110077Y-70684879D01*
X76275198Y-70850000D01*
X75590198Y-71535000D01*
X75331511Y-71535000D01*
X75196140Y-71443623D01*
X74946500Y-71393560D01*
X73803500Y-71393560D01*
X73561377Y-71440537D01*
X73348573Y-71580327D01*
X73260000Y-71711544D01*
X73260000Y-71062463D01*
X73292192Y-71030327D01*
X73434838Y-70686799D01*
X73435162Y-70314833D01*
X73293117Y-69971057D01*
X73073623Y-69751179D01*
X77251332Y-65573470D01*
X77469673Y-65792192D01*
X77813201Y-65934838D01*
X78185167Y-65935162D01*
X78528943Y-65793117D01*
X78792192Y-65530327D01*
X78934838Y-65186799D01*
X78935162Y-64814833D01*
X78793117Y-64471057D01*
X78573623Y-64251179D01*
X82064802Y-60760000D01*
X85937537Y-60760000D01*
X85969673Y-60792192D01*
X86313201Y-60934838D01*
X86685167Y-60935162D01*
X87028943Y-60793117D01*
X87062118Y-60760000D01*
X121185198Y-60760000D01*
X127962599Y-67537401D01*
X128209161Y-67702148D01*
X128500000Y-67760000D01*
X131862739Y-67760000D01*
X131815000Y-68000000D01*
X131815000Y-83000000D01*
X131867143Y-83262138D01*
X132015632Y-83484368D01*
X132237862Y-83632857D01*
X132500000Y-83685000D01*
X179500000Y-83685000D01*
X179762138Y-83632857D01*
X179984368Y-83484368D01*
X180132857Y-83262138D01*
X180185000Y-83000000D01*
X180185000Y-68000000D01*
X180137261Y-67760000D01*
X210250000Y-67760000D01*
X210540839Y-67702148D01*
X210787401Y-67537401D01*
X211324802Y-67000000D01*
X214815000Y-67000000D01*
X214815000Y-81000000D01*
X214867143Y-81262138D01*
X215015632Y-81484368D01*
X215237862Y-81632857D01*
X215500000Y-81685000D01*
X249500000Y-81685000D01*
X249762138Y-81632857D01*
X249984368Y-81484368D01*
X250132857Y-81262138D01*
X250185000Y-81000000D01*
X250185000Y-67000000D01*
X250132857Y-66737862D01*
X249984368Y-66515632D01*
X249762138Y-66367143D01*
X249500000Y-66315000D01*
X215500000Y-66315000D01*
X215237862Y-66367143D01*
X215015632Y-66515632D01*
X214867143Y-66737862D01*
X214815000Y-67000000D01*
X211324802Y-67000000D01*
X213064802Y-65260000D01*
X222835582Y-65260000D01*
X222867718Y-65292192D01*
X223211246Y-65434838D01*
X223583212Y-65435162D01*
X223926988Y-65293117D01*
X223960163Y-65260000D01*
X246750000Y-65260000D01*
X247040839Y-65202148D01*
X247287401Y-65037401D01*
X247452148Y-64790839D01*
X247510000Y-64500000D01*
X247510000Y-59250000D01*
X247452148Y-58959161D01*
X247287401Y-58712599D01*
X244001798Y-55426996D01*
X244056377Y-55346140D01*
X244106440Y-55096500D01*
X244106440Y-53953500D01*
X244059463Y-53711377D01*
X243919673Y-53498573D01*
X243708640Y-53356123D01*
X243459000Y-53306060D01*
X242951000Y-53306060D01*
X242708877Y-53353037D01*
X242569604Y-53444525D01*
X242438640Y-53356123D01*
X242189000Y-53306060D01*
X241681000Y-53306060D01*
X241438877Y-53353037D01*
X241299604Y-53444525D01*
X241168640Y-53356123D01*
X240919000Y-53306060D01*
X240411000Y-53306060D01*
X240260000Y-53335357D01*
X240260000Y-52562463D01*
X240292192Y-52530327D01*
X240434838Y-52186799D01*
X240435162Y-51814833D01*
X240293117Y-51471057D01*
X240030327Y-51207808D01*
X239686799Y-51065162D01*
X239314833Y-51064838D01*
X238971057Y-51206883D01*
X238707808Y-51469673D01*
X238565162Y-51813201D01*
X238564838Y-52185167D01*
X238706883Y-52528943D01*
X238740000Y-52562118D01*
X238740000Y-53457403D01*
X238686073Y-53492827D01*
X238543623Y-53703860D01*
X238493560Y-53953500D01*
X238493560Y-55096500D01*
X238513827Y-55200956D01*
X238186799Y-55065162D01*
X237814833Y-55064838D01*
X237471057Y-55206883D01*
X237207808Y-55469673D01*
X237065162Y-55813201D01*
X237064838Y-56185167D01*
X237206883Y-56528943D01*
X237469673Y-56792192D01*
X237813201Y-56934838D01*
X238185167Y-56935162D01*
X238528943Y-56793117D01*
X238562118Y-56760000D01*
X240165198Y-56760000D01*
X239935198Y-56990000D01*
X237812463Y-56990000D01*
X237780327Y-56957808D01*
X237436799Y-56815162D01*
X237064833Y-56814838D01*
X236721057Y-56956883D01*
X236457808Y-57219673D01*
X236315162Y-57563201D01*
X236314838Y-57935167D01*
X236456883Y-58278943D01*
X236719673Y-58542192D01*
X237063201Y-58684838D01*
X237435167Y-58685162D01*
X237778943Y-58543117D01*
X237812118Y-58510000D01*
X240250000Y-58510000D01*
X240540839Y-58452148D01*
X240787401Y-58287401D01*
X242472401Y-56602401D01*
X242637148Y-56355839D01*
X242661522Y-56233306D01*
X242667599Y-56242401D01*
X244740000Y-58314802D01*
X244740000Y-58937537D01*
X244707808Y-58969673D01*
X244565162Y-59313201D01*
X244564838Y-59685167D01*
X244706883Y-60028943D01*
X244969673Y-60292192D01*
X245313201Y-60434838D01*
X245685167Y-60435162D01*
X245990000Y-60309208D01*
X245990000Y-63740000D01*
X223960508Y-63740000D01*
X223928372Y-63707808D01*
X223625000Y-63581836D01*
X223625000Y-61927780D01*
X223754691Y-61981500D01*
X223849250Y-61981500D01*
X224008000Y-61822750D01*
X224008000Y-60902000D01*
X224262000Y-60902000D01*
X224262000Y-61822750D01*
X224420750Y-61981500D01*
X224515309Y-61981500D01*
X224748698Y-61884827D01*
X224770000Y-61863525D01*
X224791302Y-61884827D01*
X225024691Y-61981500D01*
X225119250Y-61981500D01*
X225278000Y-61822750D01*
X225278000Y-60902000D01*
X225532000Y-60902000D01*
X225532000Y-61822750D01*
X225690750Y-61981500D01*
X225785309Y-61981500D01*
X226018698Y-61884827D01*
X226197327Y-61706199D01*
X226294000Y-61472810D01*
X226294000Y-61060750D01*
X226135250Y-60902000D01*
X225532000Y-60902000D01*
X225278000Y-60902000D01*
X225278000Y-60902000D01*
X224262000Y-60902000D01*
X224008000Y-60902000D01*
X224008000Y-60902000D01*
X223988000Y-60902000D01*
X223988000Y-60648000D01*
X224008000Y-60648000D01*
X224008000Y-59727250D01*
X224262000Y-59727250D01*
X224262000Y-60648000D01*
X225278000Y-60648000D01*
X225278000Y-59727250D01*
X225532000Y-59727250D01*
X225532000Y-60648000D01*
X226135250Y-60648000D01*
X226294000Y-60489250D01*
X226294000Y-60278172D01*
X229582538Y-60278172D01*
X229987709Y-61258761D01*
X230737293Y-62009655D01*
X231717173Y-62416536D01*
X232778172Y-62417462D01*
X233758761Y-62012291D01*
X234509655Y-61262707D01*
X234551991Y-61160750D01*
X238506000Y-61160750D01*
X238506000Y-61572810D01*
X238602673Y-61806199D01*
X238781302Y-61984827D01*
X239014691Y-62081500D01*
X239109250Y-62081500D01*
X239268000Y-61922750D01*
X239268000Y-61002000D01*
X239522000Y-61002000D01*
X239522000Y-61922750D01*
X239680750Y-62081500D01*
X239775309Y-62081500D01*
X240008698Y-61984827D01*
X240030000Y-61963525D01*
X240051302Y-61984827D01*
X240284691Y-62081500D01*
X240379250Y-62081500D01*
X240538000Y-61922750D01*
X240538000Y-61002000D01*
X240792000Y-61002000D01*
X240792000Y-61922750D01*
X240950750Y-62081500D01*
X241045309Y-62081500D01*
X241278698Y-61984827D01*
X241300000Y-61963525D01*
X241321302Y-61984827D01*
X241554691Y-62081500D01*
X241649250Y-62081500D01*
X241808000Y-61922750D01*
X241808000Y-61002000D01*
X242062000Y-61002000D01*
X242062000Y-61922750D01*
X242220750Y-62081500D01*
X242315309Y-62081500D01*
X242548698Y-61984827D01*
X242570000Y-61963525D01*
X242591302Y-61984827D01*
X242824691Y-62081500D01*
X242919250Y-62081500D01*
X243078000Y-61922750D01*
X243078000Y-61002000D01*
X243332000Y-61002000D01*
X243332000Y-61922750D01*
X243490750Y-62081500D01*
X243585309Y-62081500D01*
X243818698Y-61984827D01*
X243997327Y-61806199D01*
X244094000Y-61572810D01*
X244094000Y-61160750D01*
X243935250Y-61002000D01*
X243332000Y-61002000D01*
X243078000Y-61002000D01*
X243078000Y-61002000D01*
X242062000Y-61002000D01*
X241808000Y-61002000D01*
X241808000Y-61002000D01*
X240792000Y-61002000D01*
X240538000Y-61002000D01*
X240538000Y-61002000D01*
X239522000Y-61002000D01*
X239268000Y-61002000D01*
X239268000Y-61002000D01*
X238664750Y-61002000D01*
X238506000Y-61160750D01*
X234551991Y-61160750D01*
X234916536Y-60282827D01*
X234916628Y-60177190D01*
X238506000Y-60177190D01*
X238506000Y-60589250D01*
X238664750Y-60748000D01*
X239268000Y-60748000D01*
X239268000Y-59827250D01*
X239522000Y-59827250D01*
X239522000Y-60748000D01*
X240538000Y-60748000D01*
X240538000Y-59827250D01*
X240792000Y-59827250D01*
X240792000Y-60748000D01*
X241808000Y-60748000D01*
X241808000Y-59827250D01*
X242062000Y-59827250D01*
X242062000Y-60748000D01*
X243078000Y-60748000D01*
X243078000Y-59827250D01*
X243332000Y-59827250D01*
X243332000Y-60748000D01*
X243935250Y-60748000D01*
X244094000Y-60589250D01*
X244094000Y-60177190D01*
X243997327Y-59943801D01*
X243818698Y-59765173D01*
X243585309Y-59668500D01*
X243490750Y-59668500D01*
X243332000Y-59827250D01*
X243078000Y-59827250D01*
X243078000Y-59827250D01*
X242919250Y-59668500D01*
X242824691Y-59668500D01*
X242591302Y-59765173D01*
X242570000Y-59786475D01*
X242548698Y-59765173D01*
X242315309Y-59668500D01*
X242220750Y-59668500D01*
X242062000Y-59827250D01*
X241808000Y-59827250D01*
X241808000Y-59827250D01*
X241649250Y-59668500D01*
X241554691Y-59668500D01*
X241321302Y-59765173D01*
X241300000Y-59786475D01*
X241278698Y-59765173D01*
X241045309Y-59668500D01*
X240950750Y-59668500D01*
X240792000Y-59827250D01*
X240538000Y-59827250D01*
X240538000Y-59827250D01*
X240379250Y-59668500D01*
X240284691Y-59668500D01*
X240051302Y-59765173D01*
X240030000Y-59786475D01*
X240008698Y-59765173D01*
X239775309Y-59668500D01*
X239680750Y-59668500D01*
X239522000Y-59827250D01*
X239268000Y-59827250D01*
X239268000Y-59827250D01*
X239109250Y-59668500D01*
X239014691Y-59668500D01*
X238781302Y-59765173D01*
X238602673Y-59943801D01*
X238506000Y-60177190D01*
X234916628Y-60177190D01*
X234917462Y-59221828D01*
X234512291Y-58241239D01*
X233762707Y-57490345D01*
X232782827Y-57083464D01*
X231721828Y-57082538D01*
X230741239Y-57487709D01*
X229990345Y-58237293D01*
X229583464Y-59217173D01*
X229582538Y-60278172D01*
X226294000Y-60278172D01*
X226294000Y-60077190D01*
X226197327Y-59843801D01*
X226018698Y-59665173D01*
X225785309Y-59568500D01*
X225690750Y-59568500D01*
X225532000Y-59727250D01*
X225278000Y-59727250D01*
X225278000Y-59727250D01*
X225119250Y-59568500D01*
X225024691Y-59568500D01*
X224791302Y-59665173D01*
X224770000Y-59686475D01*
X224748698Y-59665173D01*
X224515309Y-59568500D01*
X224420750Y-59568500D01*
X224262000Y-59727250D01*
X224008000Y-59727250D01*
X224008000Y-59727250D01*
X223849250Y-59568500D01*
X223754691Y-59568500D01*
X223625000Y-59622220D01*
X223625000Y-59376163D01*
X223657192Y-59344027D01*
X223799838Y-59000499D01*
X223800162Y-58628533D01*
X223658117Y-58284757D01*
X223625000Y-58251582D01*
X223625000Y-58199802D01*
X225942401Y-55882401D01*
X226107148Y-55635840D01*
X226136157Y-55490000D01*
X226154703Y-55396765D01*
X226256377Y-55246140D01*
X226306440Y-54996500D01*
X226306440Y-53853500D01*
X226259463Y-53611377D01*
X226119673Y-53398573D01*
X225908640Y-53256123D01*
X225659000Y-53206060D01*
X225151000Y-53206060D01*
X224908877Y-53253037D01*
X224769604Y-53344525D01*
X224638640Y-53256123D01*
X224389000Y-53206060D01*
X223881000Y-53206060D01*
X223638877Y-53253037D01*
X223499604Y-53344525D01*
X223368640Y-53256123D01*
X223119000Y-53206060D01*
X222611000Y-53206060D01*
X222368877Y-53253037D01*
X222229604Y-53344525D01*
X222098640Y-53256123D01*
X221849000Y-53206060D01*
X221341000Y-53206060D01*
X221098877Y-53253037D01*
X220886073Y-53392827D01*
X220743623Y-53603860D01*
X220731362Y-53665000D01*
X219677234Y-53665000D01*
X219436799Y-53565162D01*
X219064833Y-53564838D01*
X218721057Y-53706883D01*
X218457808Y-53969673D01*
X218315162Y-54313201D01*
X218314838Y-54685167D01*
X218456883Y-55028943D01*
X218719673Y-55292192D01*
X218919162Y-55375028D01*
X218721057Y-55456883D01*
X218457808Y-55719673D01*
X218315162Y-56063201D01*
X218314838Y-56435167D01*
X218456883Y-56778943D01*
X218719673Y-57042192D01*
X219063201Y-57184838D01*
X219435167Y-57185162D01*
X219778943Y-57043117D01*
X219812118Y-57010000D01*
X221415198Y-57010000D01*
X219559207Y-58865991D01*
X219436799Y-58815162D01*
X219064833Y-58814838D01*
X218721057Y-58956883D01*
X218457808Y-59219673D01*
X218315162Y-59563201D01*
X218314838Y-59935167D01*
X218456883Y-60278943D01*
X218719673Y-60542192D01*
X219063201Y-60684838D01*
X219435167Y-60685162D01*
X219778943Y-60543117D01*
X219827576Y-60494569D01*
X220040839Y-60452148D01*
X220287401Y-60287401D01*
X220497612Y-60077190D01*
X220706000Y-60077190D01*
X220706000Y-60489250D01*
X220864750Y-60648000D01*
X221468000Y-60648000D01*
X221468000Y-59727250D01*
X221309250Y-59568500D01*
X221214691Y-59568500D01*
X220981302Y-59665173D01*
X220802673Y-59843801D01*
X220706000Y-60077190D01*
X220497612Y-60077190D01*
X221930147Y-58644655D01*
X221929838Y-58998867D01*
X222071883Y-59342643D01*
X222105000Y-59375818D01*
X222105000Y-59622220D01*
X221975309Y-59568500D01*
X221880750Y-59568500D01*
X221722000Y-59727250D01*
X221722000Y-60648000D01*
X221742000Y-60648000D01*
X221742000Y-60902000D01*
X221722000Y-60902000D01*
X221722000Y-61822750D01*
X221880750Y-61981500D01*
X221975309Y-61981500D01*
X222105000Y-61927780D01*
X222105000Y-63740000D01*
X212750000Y-63740000D01*
X212459161Y-63797852D01*
X212212599Y-63962599D01*
X209935198Y-66240000D01*
X172295000Y-66240000D01*
X172295000Y-64327780D01*
X172424691Y-64381500D01*
X172519250Y-64381500D01*
X172678000Y-64222750D01*
X172678000Y-63302000D01*
X172932000Y-63302000D01*
X172932000Y-64222750D01*
X173090750Y-64381500D01*
X173185309Y-64381500D01*
X173418698Y-64284827D01*
X173597327Y-64106199D01*
X173694000Y-63872810D01*
X173694000Y-63460750D01*
X173535250Y-63302000D01*
X172932000Y-63302000D01*
X172678000Y-63302000D01*
X172678000Y-63302000D01*
X172658000Y-63302000D01*
X172658000Y-63048000D01*
X172678000Y-63048000D01*
X172678000Y-62127250D01*
X172932000Y-62127250D01*
X172932000Y-63048000D01*
X173535250Y-63048000D01*
X173694000Y-62889250D01*
X173694000Y-62477190D01*
X173597327Y-62243801D01*
X173418698Y-62065173D01*
X173185309Y-61968500D01*
X173090750Y-61968500D01*
X172932000Y-62127250D01*
X172678000Y-62127250D01*
X172678000Y-62127250D01*
X172519250Y-61968500D01*
X172424691Y-61968500D01*
X172363932Y-61993667D01*
X172469838Y-61738619D01*
X172470162Y-61366653D01*
X172343766Y-61060750D01*
X220706000Y-61060750D01*
X220706000Y-61472810D01*
X220802673Y-61706199D01*
X220981302Y-61884827D01*
X221214691Y-61981500D01*
X221309250Y-61981500D01*
X221468000Y-61822750D01*
X221468000Y-60902000D01*
X220864750Y-60902000D01*
X220706000Y-61060750D01*
X172343766Y-61060750D01*
X172328117Y-61022877D01*
X172295000Y-60989702D01*
X172295000Y-60279802D01*
X173342401Y-59232401D01*
X173507148Y-58985840D01*
X173565000Y-58695000D01*
X173565000Y-57781511D01*
X173656377Y-57646140D01*
X173706440Y-57396500D01*
X173706440Y-56253500D01*
X173659463Y-56011377D01*
X173565000Y-55867575D01*
X173565000Y-53007123D01*
X173792192Y-52780327D01*
X173934838Y-52436799D01*
X173935162Y-52064833D01*
X173793117Y-51721057D01*
X173530327Y-51457808D01*
X173186799Y-51315162D01*
X172814833Y-51314838D01*
X172471057Y-51456883D01*
X172207808Y-51719673D01*
X172065162Y-52063201D01*
X172064917Y-52344873D01*
X172045000Y-52445000D01*
X172045000Y-55660416D01*
X172038640Y-55656123D01*
X171789000Y-55606060D01*
X171281000Y-55606060D01*
X171038877Y-55653037D01*
X170899604Y-55744525D01*
X170768640Y-55656123D01*
X170519000Y-55606060D01*
X170011000Y-55606060D01*
X169768877Y-55653037D01*
X169629604Y-55744525D01*
X169498640Y-55656123D01*
X169249000Y-55606060D01*
X168741000Y-55606060D01*
X168498877Y-55653037D01*
X168286073Y-55792827D01*
X168143623Y-56003860D01*
X168131362Y-56065000D01*
X166925000Y-56065000D01*
X166924241Y-56065151D01*
X166564833Y-56064838D01*
X166221057Y-56206883D01*
X165957808Y-56469673D01*
X165815162Y-56813201D01*
X165814838Y-57185167D01*
X165956883Y-57528943D01*
X166219673Y-57792192D01*
X166543853Y-57926804D01*
X166471057Y-57956883D01*
X166207808Y-58219673D01*
X166065162Y-58563201D01*
X166064838Y-58935167D01*
X166206883Y-59278943D01*
X166427709Y-59500155D01*
X166207808Y-59719673D01*
X166065162Y-60063201D01*
X166064838Y-60435167D01*
X166206883Y-60778943D01*
X166469673Y-61042192D01*
X166813201Y-61184838D01*
X167185167Y-61185162D01*
X167528943Y-61043117D01*
X167562118Y-61010000D01*
X169500000Y-61010000D01*
X169790839Y-60952148D01*
X170037401Y-60787401D01*
X170775000Y-60049802D01*
X170775000Y-60989357D01*
X170742808Y-61021493D01*
X170600162Y-61365021D01*
X170599838Y-61736987D01*
X170705860Y-61993581D01*
X170645309Y-61968500D01*
X170550750Y-61968500D01*
X170392000Y-62127250D01*
X170392000Y-63048000D01*
X170412000Y-63048000D01*
X170412000Y-63302000D01*
X170392000Y-63302000D01*
X170392000Y-64222750D01*
X170550750Y-64381500D01*
X170645309Y-64381500D01*
X170775000Y-64327780D01*
X170775000Y-66240000D01*
X164834355Y-66240000D01*
X164802219Y-66207808D01*
X164458691Y-66065162D01*
X164086725Y-66064838D01*
X163742949Y-66206883D01*
X163709774Y-66240000D01*
X159224748Y-66240000D01*
X159294000Y-66072810D01*
X159294000Y-65660750D01*
X159135250Y-65502000D01*
X158532000Y-65502000D01*
X158532000Y-65522000D01*
X158278000Y-65522000D01*
X158278000Y-65502000D01*
X158258000Y-65502000D01*
X158258000Y-65248000D01*
X158278000Y-65248000D01*
X158278000Y-64327250D01*
X158532000Y-64327250D01*
X158532000Y-65248000D01*
X159135250Y-65248000D01*
X159294000Y-65089250D01*
X159294000Y-64677190D01*
X159197327Y-64443801D01*
X159018698Y-64265173D01*
X158785309Y-64168500D01*
X158690750Y-64168500D01*
X158532000Y-64327250D01*
X158278000Y-64327250D01*
X158278000Y-64327250D01*
X158119250Y-64168500D01*
X158024691Y-64168500D01*
X157895000Y-64222220D01*
X157895000Y-64014203D01*
X157927192Y-63982067D01*
X158069838Y-63638539D01*
X158069992Y-63460750D01*
X168106000Y-63460750D01*
X168106000Y-63872810D01*
X168202673Y-64106199D01*
X168381302Y-64284827D01*
X168614691Y-64381500D01*
X168709250Y-64381500D01*
X168868000Y-64222750D01*
X168868000Y-63302000D01*
X169122000Y-63302000D01*
X169122000Y-64222750D01*
X169280750Y-64381500D01*
X169375309Y-64381500D01*
X169608698Y-64284827D01*
X169630000Y-64263525D01*
X169651302Y-64284827D01*
X169884691Y-64381500D01*
X169979250Y-64381500D01*
X170138000Y-64222750D01*
X170138000Y-63302000D01*
X169122000Y-63302000D01*
X168868000Y-63302000D01*
X168868000Y-63302000D01*
X168264750Y-63302000D01*
X168106000Y-63460750D01*
X158069992Y-63460750D01*
X158070162Y-63266573D01*
X157993578Y-63081224D01*
X158597612Y-62477190D01*
X168106000Y-62477190D01*
X168106000Y-62889250D01*
X168264750Y-63048000D01*
X168868000Y-63048000D01*
X168868000Y-62127250D01*
X169122000Y-62127250D01*
X169122000Y-63048000D01*
X170138000Y-63048000D01*
X170138000Y-62127250D01*
X169979250Y-61968500D01*
X169884691Y-61968500D01*
X169651302Y-62065173D01*
X169630000Y-62086475D01*
X169608698Y-62065173D01*
X169375309Y-61968500D01*
X169280750Y-61968500D01*
X169122000Y-62127250D01*
X168868000Y-62127250D01*
X168868000Y-62127250D01*
X168709250Y-61968500D01*
X168614691Y-61968500D01*
X168381302Y-62065173D01*
X168202673Y-62243801D01*
X168106000Y-62477190D01*
X158597612Y-62477190D01*
X158942401Y-62132401D01*
X159107148Y-61885840D01*
X159165000Y-61595000D01*
X159165000Y-59981511D01*
X159256377Y-59846140D01*
X159306440Y-59596500D01*
X159306440Y-58453500D01*
X159259463Y-58211377D01*
X159165000Y-58067575D01*
X159165000Y-54734574D01*
X159184838Y-54686799D01*
X159185162Y-54314833D01*
X159043117Y-53971057D01*
X158780327Y-53707808D01*
X158436799Y-53565162D01*
X158064833Y-53564838D01*
X157721057Y-53706883D01*
X157457808Y-53969673D01*
X157315162Y-54313201D01*
X157314838Y-54685167D01*
X157456883Y-55028943D01*
X157645000Y-55217389D01*
X157645000Y-57860416D01*
X157638640Y-57856123D01*
X157389000Y-57806060D01*
X156881000Y-57806060D01*
X156638877Y-57853037D01*
X156499604Y-57944525D01*
X156368640Y-57856123D01*
X156119000Y-57806060D01*
X155611000Y-57806060D01*
X155368877Y-57853037D01*
X155260000Y-57924558D01*
X155260000Y-57312463D01*
X155292192Y-57280327D01*
X155434838Y-56936799D01*
X155435162Y-56564833D01*
X155293117Y-56221057D01*
X155030327Y-55957808D01*
X154686799Y-55815162D01*
X154314833Y-55814838D01*
X153971057Y-55956883D01*
X153707808Y-56219673D01*
X153565162Y-56563201D01*
X153564838Y-56935167D01*
X153706883Y-57278943D01*
X153740000Y-57312118D01*
X153740000Y-58221926D01*
X153693560Y-58453500D01*
X153693560Y-59596500D01*
X153709446Y-59678375D01*
X153436799Y-59565162D01*
X153064833Y-59564838D01*
X152721057Y-59706883D01*
X152457808Y-59969673D01*
X152315162Y-60313201D01*
X152314943Y-60564838D01*
X152314833Y-60564838D01*
X151971057Y-60706883D01*
X151707808Y-60969673D01*
X151565162Y-61313201D01*
X151564838Y-61685167D01*
X151706883Y-62028943D01*
X151969673Y-62292192D01*
X152313201Y-62434838D01*
X152433410Y-62434943D01*
X152459160Y-62452148D01*
X152750000Y-62510000D01*
X155750000Y-62510000D01*
X156040839Y-62452148D01*
X156287401Y-62287401D01*
X157645000Y-60929802D01*
X157645000Y-61280198D01*
X156597599Y-62327599D01*
X156432852Y-62574161D01*
X156375000Y-62865000D01*
X156375000Y-62889277D01*
X156342808Y-62921413D01*
X156200162Y-63264941D01*
X156199838Y-63636907D01*
X156341883Y-63980683D01*
X156375000Y-64013858D01*
X156375000Y-64210416D01*
X156368640Y-64206123D01*
X156119000Y-64156060D01*
X155611000Y-64156060D01*
X155368877Y-64203037D01*
X155234701Y-64291176D01*
X155208698Y-64265173D01*
X154975309Y-64168500D01*
X154880750Y-64168500D01*
X154722000Y-64327250D01*
X154722000Y-65248000D01*
X154742000Y-65248000D01*
X154742000Y-65502000D01*
X154722000Y-65502000D01*
X154722000Y-65522000D01*
X154468000Y-65522000D01*
X154468000Y-65502000D01*
X153864750Y-65502000D01*
X153706000Y-65660750D01*
X153706000Y-66072810D01*
X153775252Y-66240000D01*
X143865000Y-66240000D01*
X143865000Y-64824463D01*
X143897192Y-64792327D01*
X143945001Y-64677190D01*
X153706000Y-64677190D01*
X153706000Y-65089250D01*
X153864750Y-65248000D01*
X154468000Y-65248000D01*
X154468000Y-64327250D01*
X154309250Y-64168500D01*
X154214691Y-64168500D01*
X153981302Y-64265173D01*
X153802673Y-64443801D01*
X153706000Y-64677190D01*
X143945001Y-64677190D01*
X144039838Y-64448799D01*
X144040162Y-64076833D01*
X143898117Y-63733057D01*
X143865000Y-63699882D01*
X143865000Y-63331511D01*
X143956377Y-63196140D01*
X144006440Y-62946500D01*
X144006440Y-62528172D01*
X145332538Y-62528172D01*
X145737709Y-63508761D01*
X146487293Y-64259655D01*
X147467173Y-64666536D01*
X148528172Y-64667462D01*
X149508761Y-64262291D01*
X150259655Y-63512707D01*
X150666536Y-62532827D01*
X150667462Y-61471828D01*
X150262291Y-60491239D01*
X149512707Y-59740345D01*
X148532827Y-59333464D01*
X147471828Y-59332538D01*
X146491239Y-59737709D01*
X145740345Y-60487293D01*
X145333464Y-61467173D01*
X145332538Y-62528172D01*
X144006440Y-62528172D01*
X144006440Y-61803500D01*
X143959463Y-61561377D01*
X143865000Y-61417575D01*
X143865000Y-56981511D01*
X143956377Y-56846140D01*
X144006440Y-56596500D01*
X144006440Y-55453500D01*
X143959463Y-55211377D01*
X143865000Y-55067575D01*
X143865000Y-52207210D01*
X144042192Y-52030327D01*
X144184838Y-51686799D01*
X144185162Y-51314833D01*
X144043117Y-50971057D01*
X143780327Y-50707808D01*
X143436799Y-50565162D01*
X143064833Y-50564838D01*
X142721057Y-50706883D01*
X142457808Y-50969673D01*
X142315162Y-51313201D01*
X142314838Y-51685167D01*
X142345000Y-51758165D01*
X142345000Y-54860416D01*
X142338640Y-54856123D01*
X142089000Y-54806060D01*
X141581000Y-54806060D01*
X141338877Y-54853037D01*
X141199604Y-54944525D01*
X141068640Y-54856123D01*
X140819000Y-54806060D01*
X140311000Y-54806060D01*
X140068877Y-54853037D01*
X139929604Y-54944525D01*
X139798640Y-54856123D01*
X139549000Y-54806060D01*
X139041000Y-54806060D01*
X138798877Y-54853037D01*
X138586073Y-54992827D01*
X138443623Y-55203860D01*
X138431362Y-55265000D01*
X136475000Y-55265000D01*
X136223754Y-55314976D01*
X136064833Y-55314838D01*
X135721057Y-55456883D01*
X135457808Y-55719673D01*
X135315162Y-56063201D01*
X135314943Y-56314838D01*
X135314833Y-56314838D01*
X134971057Y-56456883D01*
X134707808Y-56719673D01*
X134565162Y-57063201D01*
X134564838Y-57435167D01*
X134706883Y-57778943D01*
X134969673Y-58042192D01*
X135313201Y-58184838D01*
X135433410Y-58184943D01*
X135459160Y-58202148D01*
X135750000Y-58260000D01*
X139915198Y-58260000D01*
X139685198Y-58490000D01*
X136812463Y-58490000D01*
X136780327Y-58457808D01*
X136436799Y-58315162D01*
X136064833Y-58314838D01*
X135721057Y-58456883D01*
X135457808Y-58719673D01*
X135315162Y-59063201D01*
X135314838Y-59435167D01*
X135456883Y-59778943D01*
X135719673Y-60042192D01*
X136063201Y-60184838D01*
X136435167Y-60185162D01*
X136778943Y-60043117D01*
X136812118Y-60010000D01*
X140000000Y-60010000D01*
X140290839Y-59952148D01*
X140537401Y-59787401D01*
X142345000Y-57979802D01*
X142345000Y-61222220D01*
X142215309Y-61168500D01*
X142120750Y-61168500D01*
X141962000Y-61327250D01*
X141962000Y-62248000D01*
X141982000Y-62248000D01*
X141982000Y-62502000D01*
X141962000Y-62502000D01*
X141962000Y-63422750D01*
X142120750Y-63581500D01*
X142215309Y-63581500D01*
X142345000Y-63527780D01*
X142345000Y-63699537D01*
X142312808Y-63731673D01*
X142170162Y-64075201D01*
X142169838Y-64447167D01*
X142311883Y-64790943D01*
X142345000Y-64824118D01*
X142345000Y-66240000D01*
X139116084Y-66240000D01*
X139083948Y-66207808D01*
X138740420Y-66065162D01*
X138368454Y-66064838D01*
X138024678Y-66206883D01*
X137991503Y-66240000D01*
X128814802Y-66240000D01*
X125235552Y-62660750D01*
X138406000Y-62660750D01*
X138406000Y-63072810D01*
X138502673Y-63306199D01*
X138681302Y-63484827D01*
X138914691Y-63581500D01*
X139009250Y-63581500D01*
X139168000Y-63422750D01*
X139168000Y-62502000D01*
X139422000Y-62502000D01*
X139422000Y-63422750D01*
X139580750Y-63581500D01*
X139675309Y-63581500D01*
X139908698Y-63484827D01*
X139930000Y-63463525D01*
X139951302Y-63484827D01*
X140184691Y-63581500D01*
X140279250Y-63581500D01*
X140438000Y-63422750D01*
X140438000Y-62502000D01*
X140692000Y-62502000D01*
X140692000Y-63422750D01*
X140850750Y-63581500D01*
X140945309Y-63581500D01*
X141178698Y-63484827D01*
X141200000Y-63463525D01*
X141221302Y-63484827D01*
X141454691Y-63581500D01*
X141549250Y-63581500D01*
X141708000Y-63422750D01*
X141708000Y-62502000D01*
X140692000Y-62502000D01*
X140438000Y-62502000D01*
X140438000Y-62502000D01*
X139422000Y-62502000D01*
X139168000Y-62502000D01*
X139168000Y-62502000D01*
X138564750Y-62502000D01*
X138406000Y-62660750D01*
X125235552Y-62660750D01*
X124251992Y-61677190D01*
X138406000Y-61677190D01*
X138406000Y-62089250D01*
X138564750Y-62248000D01*
X139168000Y-62248000D01*
X139168000Y-61327250D01*
X139422000Y-61327250D01*
X139422000Y-62248000D01*
X140438000Y-62248000D01*
X140438000Y-61327250D01*
X140692000Y-61327250D01*
X140692000Y-62248000D01*
X141708000Y-62248000D01*
X141708000Y-61327250D01*
X141549250Y-61168500D01*
X141454691Y-61168500D01*
X141221302Y-61265173D01*
X141200000Y-61286475D01*
X141178698Y-61265173D01*
X140945309Y-61168500D01*
X140850750Y-61168500D01*
X140692000Y-61327250D01*
X140438000Y-61327250D01*
X140438000Y-61327250D01*
X140279250Y-61168500D01*
X140184691Y-61168500D01*
X139951302Y-61265173D01*
X139930000Y-61286475D01*
X139908698Y-61265173D01*
X139675309Y-61168500D01*
X139580750Y-61168500D01*
X139422000Y-61327250D01*
X139168000Y-61327250D01*
X139168000Y-61327250D01*
X139009250Y-61168500D01*
X138914691Y-61168500D01*
X138681302Y-61265173D01*
X138502673Y-61443801D01*
X138406000Y-61677190D01*
X124251992Y-61677190D01*
X122037401Y-59462599D01*
X121790839Y-59297852D01*
X121500000Y-59240000D01*
X115567635Y-59240000D01*
X115606440Y-59046500D01*
X115606440Y-57903500D01*
X115559463Y-57661377D01*
X115465000Y-57517575D01*
X115465000Y-57010000D01*
X115937537Y-57010000D01*
X115969673Y-57042192D01*
X116313201Y-57184838D01*
X116685167Y-57185162D01*
X117028943Y-57043117D01*
X117292192Y-56780327D01*
X117434838Y-56436799D01*
X117435162Y-56064833D01*
X117293117Y-55721057D01*
X117030327Y-55457808D01*
X116686799Y-55315162D01*
X116314833Y-55314838D01*
X115971057Y-55456883D01*
X115937882Y-55490000D01*
X115465000Y-55490000D01*
X115465000Y-53081511D01*
X115556377Y-52946140D01*
X115606440Y-52696500D01*
X115606440Y-51553500D01*
X115559463Y-51311377D01*
X115465000Y-51167575D01*
X115465000Y-50857384D01*
X115542192Y-50780327D01*
X115684838Y-50436799D01*
X115685162Y-50064833D01*
X115543117Y-49721057D01*
X115280327Y-49457808D01*
X114936799Y-49315162D01*
X114564833Y-49314838D01*
X114221057Y-49456883D01*
X113957808Y-49719673D01*
X113815162Y-50063201D01*
X113814838Y-50435167D01*
X113945000Y-50750184D01*
X113945000Y-50960416D01*
X113938640Y-50956123D01*
X113689000Y-50906060D01*
X113181000Y-50906060D01*
X112938877Y-50953037D01*
X112799604Y-51044525D01*
X112668640Y-50956123D01*
X112419000Y-50906060D01*
X111911000Y-50906060D01*
X111668877Y-50953037D01*
X111529604Y-51044525D01*
X111398640Y-50956123D01*
X111149000Y-50906060D01*
X110641000Y-50906060D01*
X110398877Y-50953037D01*
X110186073Y-51092827D01*
X110043623Y-51303860D01*
X110031362Y-51365000D01*
X108806822Y-51365000D01*
X108686799Y-51315162D01*
X108314833Y-51314838D01*
X107971057Y-51456883D01*
X107707808Y-51719673D01*
X107565162Y-52063201D01*
X107564838Y-52435167D01*
X107706883Y-52778943D01*
X107742870Y-52814993D01*
X107564833Y-52814838D01*
X107221057Y-52956883D01*
X106957808Y-53219673D01*
X106815162Y-53563201D01*
X106814838Y-53935167D01*
X106956883Y-54278943D01*
X107190027Y-54512494D01*
X107065162Y-54813201D01*
X107064838Y-55185167D01*
X107206883Y-55528943D01*
X107469673Y-55792192D01*
X107813201Y-55934838D01*
X108185167Y-55935162D01*
X108528943Y-55793117D01*
X108562118Y-55760000D01*
X112000000Y-55760000D01*
X112290839Y-55702148D01*
X112537401Y-55537401D01*
X113945000Y-54129802D01*
X113945000Y-57322220D01*
X113815309Y-57268500D01*
X113720750Y-57268500D01*
X113562000Y-57427250D01*
X113562000Y-58348000D01*
X113582000Y-58348000D01*
X113582000Y-58602000D01*
X113562000Y-58602000D01*
X113562000Y-58622000D01*
X113308000Y-58622000D01*
X113308000Y-58602000D01*
X113288000Y-58602000D01*
X113288000Y-58348000D01*
X113308000Y-58348000D01*
X113308000Y-57427250D01*
X113149250Y-57268500D01*
X113054691Y-57268500D01*
X112821302Y-57365173D01*
X112795034Y-57391441D01*
X112668640Y-57306123D01*
X112419000Y-57256060D01*
X111911000Y-57256060D01*
X111668877Y-57303037D01*
X111534701Y-57391176D01*
X111508698Y-57365173D01*
X111275309Y-57268500D01*
X111180750Y-57268500D01*
X111022000Y-57427250D01*
X111022000Y-58348000D01*
X111042000Y-58348000D01*
X111042000Y-58602000D01*
X111022000Y-58602000D01*
X111022000Y-58622000D01*
X110768000Y-58622000D01*
X110768000Y-58602000D01*
X110164750Y-58602000D01*
X110006000Y-58760750D01*
X110006000Y-59172810D01*
X110033831Y-59240000D01*
X97165000Y-59240000D01*
X97165000Y-58482083D01*
X97197192Y-58449947D01*
X97339838Y-58106419D01*
X97340162Y-57734453D01*
X97198117Y-57390677D01*
X97165000Y-57357502D01*
X97165000Y-56731511D01*
X97256377Y-56596140D01*
X97271278Y-56521834D01*
X99614543Y-56521834D01*
X100014853Y-57490658D01*
X100755443Y-58232542D01*
X101723567Y-58634542D01*
X102771834Y-58635457D01*
X103740658Y-58235147D01*
X104199415Y-57777190D01*
X110006000Y-57777190D01*
X110006000Y-58189250D01*
X110164750Y-58348000D01*
X110768000Y-58348000D01*
X110768000Y-57427250D01*
X110609250Y-57268500D01*
X110514691Y-57268500D01*
X110281302Y-57365173D01*
X110102673Y-57543801D01*
X110006000Y-57777190D01*
X104199415Y-57777190D01*
X104482542Y-57494557D01*
X104884542Y-56526433D01*
X104885457Y-55478166D01*
X104485147Y-54509342D01*
X103744557Y-53767458D01*
X102776433Y-53365458D01*
X101728166Y-53364543D01*
X100759342Y-53764853D01*
X100017458Y-54505443D01*
X99615458Y-55473567D01*
X99614543Y-56521834D01*
X97271278Y-56521834D01*
X97306440Y-56346500D01*
X97306440Y-55203500D01*
X97259463Y-54961377D01*
X97165000Y-54817575D01*
X97165000Y-50381511D01*
X97256377Y-50246140D01*
X97306440Y-49996500D01*
X97306440Y-48853500D01*
X97273747Y-48685000D01*
X259815000Y-48685000D01*
X259815000Y-97315000D01*
G36*
X80282757Y-72811800D02*
X80452512Y-72981852D01*
X80377378Y-73056986D01*
X80492253Y-73171861D01*
X80246136Y-73245995D01*
X80053035Y-73783223D01*
X80080222Y-74353454D01*
X80246136Y-74754005D01*
X80492253Y-74828139D01*
X80377378Y-74943014D01*
X80452455Y-75018091D01*
X80284176Y-75186077D01*
X80065250Y-75713309D01*
X80064752Y-76284187D01*
X80282757Y-76811800D01*
X80686077Y-77215824D01*
X81213309Y-77434750D01*
X81784187Y-77435248D01*
X82311800Y-77217243D01*
X82715824Y-76813923D01*
X82722659Y-76797461D01*
X82962599Y-77037401D01*
X83209160Y-77202148D01*
X83500000Y-77260000D01*
X84341886Y-77260000D01*
X84374022Y-77292192D01*
X84717550Y-77434838D01*
X85089516Y-77435162D01*
X85433292Y-77293117D01*
X85466467Y-77260000D01*
X92732365Y-77260000D01*
X92693560Y-77453500D01*
X92693560Y-78240000D01*
X92062463Y-78240000D01*
X92030327Y-78207808D01*
X91686799Y-78065162D01*
X91314833Y-78064838D01*
X90971057Y-78206883D01*
X90937882Y-78240000D01*
X86999923Y-78240000D01*
X86967787Y-78207808D01*
X86624259Y-78065162D01*
X86252293Y-78064838D01*
X85908517Y-78206883D01*
X85875342Y-78240000D01*
X75564802Y-78240000D01*
X75135000Y-77810198D01*
X75135000Y-76969867D01*
X75188623Y-76959463D01*
X75401427Y-76819673D01*
X75543877Y-76608640D01*
X75593940Y-76359000D01*
X75593940Y-75851000D01*
X75546963Y-75608877D01*
X75458824Y-75474701D01*
X75484827Y-75448698D01*
X75581500Y-75215309D01*
X75581500Y-75120750D01*
X75422750Y-74962000D01*
X74502000Y-74962000D01*
X74502000Y-74982000D01*
X74248000Y-74982000D01*
X74248000Y-74962000D01*
X73327250Y-74962000D01*
X73168500Y-75120750D01*
X73168500Y-75215309D01*
X73265173Y-75448698D01*
X73291441Y-75474966D01*
X73206123Y-75601360D01*
X73156060Y-75851000D01*
X73156060Y-76359000D01*
X73203037Y-76601123D01*
X73342827Y-76813927D01*
X73553860Y-76956377D01*
X73615000Y-76968638D01*
X73615000Y-78125000D01*
X73672852Y-78415839D01*
X73837599Y-78662401D01*
X74165198Y-78990000D01*
X72161167Y-78990000D01*
X71960000Y-78788833D01*
X71960000Y-73283511D01*
X71962599Y-73287401D01*
X72777599Y-74102401D01*
X73024161Y-74267148D01*
X73229282Y-74307950D01*
X73168500Y-74454691D01*
X73168500Y-74549250D01*
X73327250Y-74708000D01*
X74248000Y-74708000D01*
X74248000Y-74688000D01*
X74502000Y-74688000D01*
X74502000Y-74708000D01*
X75422750Y-74708000D01*
X75581500Y-74549250D01*
X75581500Y-74454691D01*
X75527780Y-74325000D01*
X76435000Y-74325000D01*
X76725839Y-74267148D01*
X76972401Y-74102401D01*
X78314802Y-72760000D01*
X80261354Y-72760000D01*
X80282757Y-72811800D01*
X80282757Y-72811800D01*
G37*
X80282757Y-72811800D02*
X80452512Y-72981852D01*
X80377378Y-73056986D01*
X80492253Y-73171861D01*
X80246136Y-73245995D01*
X80053035Y-73783223D01*
X80080222Y-74353454D01*
X80246136Y-74754005D01*
X80492253Y-74828139D01*
X80377378Y-74943014D01*
X80452455Y-75018091D01*
X80284176Y-75186077D01*
X80065250Y-75713309D01*
X80064752Y-76284187D01*
X80282757Y-76811800D01*
X80686077Y-77215824D01*
X81213309Y-77434750D01*
X81784187Y-77435248D01*
X82311800Y-77217243D01*
X82715824Y-76813923D01*
X82722659Y-76797461D01*
X82962599Y-77037401D01*
X83209160Y-77202148D01*
X83500000Y-77260000D01*
X84341886Y-77260000D01*
X84374022Y-77292192D01*
X84717550Y-77434838D01*
X85089516Y-77435162D01*
X85433292Y-77293117D01*
X85466467Y-77260000D01*
X92732365Y-77260000D01*
X92693560Y-77453500D01*
X92693560Y-78240000D01*
X92062463Y-78240000D01*
X92030327Y-78207808D01*
X91686799Y-78065162D01*
X91314833Y-78064838D01*
X90971057Y-78206883D01*
X90937882Y-78240000D01*
X86999923Y-78240000D01*
X86967787Y-78207808D01*
X86624259Y-78065162D01*
X86252293Y-78064838D01*
X85908517Y-78206883D01*
X85875342Y-78240000D01*
X75564802Y-78240000D01*
X75135000Y-77810198D01*
X75135000Y-76969867D01*
X75188623Y-76959463D01*
X75401427Y-76819673D01*
X75543877Y-76608640D01*
X75593940Y-76359000D01*
X75593940Y-75851000D01*
X75546963Y-75608877D01*
X75458824Y-75474701D01*
X75484827Y-75448698D01*
X75581500Y-75215309D01*
X75581500Y-75120750D01*
X75422750Y-74962000D01*
X74502000Y-74962000D01*
X74502000Y-74982000D01*
X74248000Y-74982000D01*
X74248000Y-74962000D01*
X73327250Y-74962000D01*
X73168500Y-75120750D01*
X73168500Y-75215309D01*
X73265173Y-75448698D01*
X73291441Y-75474966D01*
X73206123Y-75601360D01*
X73156060Y-75851000D01*
X73156060Y-76359000D01*
X73203037Y-76601123D01*
X73342827Y-76813927D01*
X73553860Y-76956377D01*
X73615000Y-76968638D01*
X73615000Y-78125000D01*
X73672852Y-78415839D01*
X73837599Y-78662401D01*
X74165198Y-78990000D01*
X72161167Y-78990000D01*
X71960000Y-78788833D01*
X71960000Y-73283511D01*
X71962599Y-73287401D01*
X72777599Y-74102401D01*
X73024161Y-74267148D01*
X73229282Y-74307950D01*
X73168500Y-74454691D01*
X73168500Y-74549250D01*
X73327250Y-74708000D01*
X74248000Y-74708000D01*
X74248000Y-74688000D01*
X74502000Y-74688000D01*
X74502000Y-74708000D01*
X75422750Y-74708000D01*
X75581500Y-74549250D01*
X75581500Y-74454691D01*
X75527780Y-74325000D01*
X76435000Y-74325000D01*
X76725839Y-74267148D01*
X76972401Y-74102401D01*
X78314802Y-72760000D01*
X80261354Y-72760000D01*
X80282757Y-72811800D01*
G36*
X81693748Y-73985858D02*
X81679605Y-74000000D01*
X81693748Y-74014142D01*
X81514143Y-74193748D01*
X81500000Y-74179605D01*
X81485858Y-74193748D01*
X81306252Y-74014142D01*
X81320395Y-74000000D01*
X81306252Y-73985858D01*
X81485858Y-73806253D01*
X81500000Y-73820395D01*
X81514142Y-73806252D01*
X81693748Y-73985858D01*
X81693748Y-73985858D01*
G37*
X81693748Y-73985858D02*
X81679605Y-74000000D01*
X81693748Y-74014142D01*
X81514143Y-74193748D01*
X81500000Y-74179605D01*
X81485858Y-74193748D01*
X81306252Y-74014142D01*
X81320395Y-74000000D01*
X81306252Y-73985858D01*
X81485858Y-73806253D01*
X81500000Y-73820395D01*
X81514142Y-73806252D01*
X81693748Y-73985858D01*
G36*
X89565162Y-50813201D02*
X89564838Y-51185167D01*
X89618436Y-51314885D01*
X89564833Y-51314838D01*
X89221057Y-51456883D01*
X88957808Y-51719673D01*
X88815162Y-52063201D01*
X88814838Y-52435167D01*
X88956883Y-52778943D01*
X89219673Y-53042192D01*
X89563201Y-53184838D01*
X89610077Y-53184879D01*
X89712599Y-53287401D01*
X89959161Y-53452148D01*
X90250000Y-53510000D01*
X93500000Y-53510000D01*
X93790839Y-53452148D01*
X94037401Y-53287401D01*
X95645000Y-51679802D01*
X95645000Y-54610416D01*
X95638640Y-54606123D01*
X95389000Y-54556060D01*
X94881000Y-54556060D01*
X94638877Y-54603037D01*
X94504701Y-54691176D01*
X94478698Y-54665173D01*
X94245309Y-54568500D01*
X94150750Y-54568500D01*
X93992000Y-54727250D01*
X93992000Y-55648000D01*
X94012000Y-55648000D01*
X94012000Y-55902000D01*
X93992000Y-55902000D01*
X93992000Y-56822750D01*
X94150750Y-56981500D01*
X94245309Y-56981500D01*
X94375000Y-56927780D01*
X94375000Y-59240000D01*
X87062463Y-59240000D01*
X87030327Y-59207808D01*
X86686799Y-59065162D01*
X86314833Y-59064838D01*
X85971057Y-59206883D01*
X85937882Y-59240000D01*
X81750000Y-59240000D01*
X81459161Y-59297852D01*
X81390055Y-59344027D01*
X81212599Y-59462599D01*
X70760000Y-69915198D01*
X70760000Y-69514802D01*
X77589723Y-62685079D01*
X77685167Y-62685162D01*
X78028943Y-62543117D01*
X78292192Y-62280327D01*
X78434838Y-61936799D01*
X78434922Y-61839880D01*
X84214052Y-56060750D01*
X91706000Y-56060750D01*
X91706000Y-56472810D01*
X91802673Y-56706199D01*
X91981302Y-56884827D01*
X92214691Y-56981500D01*
X92309250Y-56981500D01*
X92468000Y-56822750D01*
X92468000Y-55902000D01*
X92722000Y-55902000D01*
X92722000Y-56822750D01*
X92880750Y-56981500D01*
X92975309Y-56981500D01*
X93208698Y-56884827D01*
X93230000Y-56863525D01*
X93251302Y-56884827D01*
X93484691Y-56981500D01*
X93579250Y-56981500D01*
X93738000Y-56822750D01*
X93738000Y-55902000D01*
X92722000Y-55902000D01*
X92468000Y-55902000D01*
X92468000Y-55902000D01*
X91864750Y-55902000D01*
X91706000Y-56060750D01*
X84214052Y-56060750D01*
X85197612Y-55077190D01*
X91706000Y-55077190D01*
X91706000Y-55489250D01*
X91864750Y-55648000D01*
X92468000Y-55648000D01*
X92468000Y-54727250D01*
X92722000Y-54727250D01*
X92722000Y-55648000D01*
X93738000Y-55648000D01*
X93738000Y-54727250D01*
X93579250Y-54568500D01*
X93484691Y-54568500D01*
X93251302Y-54665173D01*
X93230000Y-54686475D01*
X93208698Y-54665173D01*
X92975309Y-54568500D01*
X92880750Y-54568500D01*
X92722000Y-54727250D01*
X92468000Y-54727250D01*
X92468000Y-54727250D01*
X92309250Y-54568500D01*
X92214691Y-54568500D01*
X91981302Y-54665173D01*
X91802673Y-54843801D01*
X91706000Y-55077190D01*
X85197612Y-55077190D01*
X89638701Y-50636101D01*
X89565162Y-50813201D01*
X89565162Y-50813201D01*
G37*
X89565162Y-50813201D02*
X89564838Y-51185167D01*
X89618436Y-51314885D01*
X89564833Y-51314838D01*
X89221057Y-51456883D01*
X88957808Y-51719673D01*
X88815162Y-52063201D01*
X88814838Y-52435167D01*
X88956883Y-52778943D01*
X89219673Y-53042192D01*
X89563201Y-53184838D01*
X89610077Y-53184879D01*
X89712599Y-53287401D01*
X89959161Y-53452148D01*
X90250000Y-53510000D01*
X93500000Y-53510000D01*
X93790839Y-53452148D01*
X94037401Y-53287401D01*
X95645000Y-51679802D01*
X95645000Y-54610416D01*
X95638640Y-54606123D01*
X95389000Y-54556060D01*
X94881000Y-54556060D01*
X94638877Y-54603037D01*
X94504701Y-54691176D01*
X94478698Y-54665173D01*
X94245309Y-54568500D01*
X94150750Y-54568500D01*
X93992000Y-54727250D01*
X93992000Y-55648000D01*
X94012000Y-55648000D01*
X94012000Y-55902000D01*
X93992000Y-55902000D01*
X93992000Y-56822750D01*
X94150750Y-56981500D01*
X94245309Y-56981500D01*
X94375000Y-56927780D01*
X94375000Y-59240000D01*
X87062463Y-59240000D01*
X87030327Y-59207808D01*
X86686799Y-59065162D01*
X86314833Y-59064838D01*
X85971057Y-59206883D01*
X85937882Y-59240000D01*
X81750000Y-59240000D01*
X81459161Y-59297852D01*
X81390055Y-59344027D01*
X81212599Y-59462599D01*
X70760000Y-69915198D01*
X70760000Y-69514802D01*
X77589723Y-62685079D01*
X77685167Y-62685162D01*
X78028943Y-62543117D01*
X78292192Y-62280327D01*
X78434838Y-61936799D01*
X78434922Y-61839880D01*
X84214052Y-56060750D01*
X91706000Y-56060750D01*
X91706000Y-56472810D01*
X91802673Y-56706199D01*
X91981302Y-56884827D01*
X92214691Y-56981500D01*
X92309250Y-56981500D01*
X92468000Y-56822750D01*
X92468000Y-55902000D01*
X92722000Y-55902000D01*
X92722000Y-56822750D01*
X92880750Y-56981500D01*
X92975309Y-56981500D01*
X93208698Y-56884827D01*
X93230000Y-56863525D01*
X93251302Y-56884827D01*
X93484691Y-56981500D01*
X93579250Y-56981500D01*
X93738000Y-56822750D01*
X93738000Y-55902000D01*
X92722000Y-55902000D01*
X92468000Y-55902000D01*
X92468000Y-55902000D01*
X91864750Y-55902000D01*
X91706000Y-56060750D01*
X84214052Y-56060750D01*
X85197612Y-55077190D01*
X91706000Y-55077190D01*
X91706000Y-55489250D01*
X91864750Y-55648000D01*
X92468000Y-55648000D01*
X92468000Y-54727250D01*
X92722000Y-54727250D01*
X92722000Y-55648000D01*
X93738000Y-55648000D01*
X93738000Y-54727250D01*
X93579250Y-54568500D01*
X93484691Y-54568500D01*
X93251302Y-54665173D01*
X93230000Y-54686475D01*
X93208698Y-54665173D01*
X92975309Y-54568500D01*
X92880750Y-54568500D01*
X92722000Y-54727250D01*
X92468000Y-54727250D01*
X92468000Y-54727250D01*
X92309250Y-54568500D01*
X92214691Y-54568500D01*
X91981302Y-54665173D01*
X91802673Y-54843801D01*
X91706000Y-55077190D01*
X85197612Y-55077190D01*
X89638701Y-50636101D01*
X89565162Y-50813201D01*
M02*
