M48
METRIC,TZ
T1C0.400
T2C0.800
T3C3.048
T4C3.200
%
G90
G05
T1
X65250Y-61250
X65250Y-74750
X65500Y-56500
X67750Y-88750
X68000Y-90750
X70250Y-56500
X70250Y-82500
X70250Y-86250
X70500Y-59250
X71250Y-66750
X72500Y-68000
X72500Y-70500
X76250Y-69750
X77250Y-79750
X77500Y-53250
X77500Y-61750
X78000Y-65000
X79250Y-87500
X81000Y-55750
X81250Y-54000
X81500Y-79731
X81500Y-82750
X81500Y-85000
X83250Y-64327
X83500Y-86000
X83500Y-88500
X84750Y-90750
X84904Y-76500
X85332Y-51268
X86437Y-79000
X86500Y-60000
X89032Y-82750
X89250Y-49750
X89750Y-52250
X90500Y-51000
X91250Y-81500
X91500Y-79000
X91500Y-80250
X93250Y-59250
X94750Y-86000
X96405Y-57920
X98750Y-77250
X106250Y-80500
X106250Y-84750
X106750Y-82500
X107750Y-53750
X108000Y-55000
X108500Y-52250
X108500Y-88750
X109000Y-59000
X111045Y-88907
X112500Y-79250
X114500Y-87000
X114750Y-50250
X116500Y-56250
X129250Y-68250
X135500Y-57250
X136250Y-56250
X136250Y-59250
X136500Y-92000
X136750Y-94000
X137000Y-88000
X137000Y-90000
X137012Y-96250
X137750Y-85500
X138554Y-67000
X140500Y-65000
X143105Y-64262
X143105Y-92334
X143250Y-51500
X152500Y-61500
X152500Y-65500
X152750Y-86250
X153000Y-89000
X153250Y-60500
X153250Y-87500
X154500Y-56750
X154500Y-94250
X156354Y-93400
X157135Y-63452
X158000Y-94750
X158250Y-54500
X160000Y-63500
X160000Y-85250
X164272Y-67000
X166250Y-90000
X166250Y-91750
X166500Y-63500
X166500Y-87500
X166500Y-94750
X166750Y-57000
X167000Y-58750
X167000Y-60250
X171535Y-61552
X173000Y-52250
X174517Y-63500
X175250Y-94750
X175750Y-93250
X181750Y-69250
X211250Y-68500
X219000Y-86750
X219000Y-88500
X219000Y-90250
X219250Y-54500
X219250Y-56250
X219250Y-59750
X221505Y-63500
X221596Y-95000
X222865Y-58814
X223398Y-64500
X224250Y-91000
X225000Y-96750
X225273Y-63500
X226250Y-95000
X237250Y-57750
X237500Y-90250
X237750Y-88250
X238000Y-56000
X238250Y-95250
X239250Y-85250
X239500Y-52000
X240676Y-63500
X243250Y-63500
X245500Y-59500
X246000Y-88250
X246000Y-92750
T2
X81500Y-68000
X81500Y-70000
X81500Y-72000
X81500Y-74000
X81500Y-76000
T3
X102250Y-92000
X148000Y-62000
X148000Y-92000
X232250Y-59750
X232250Y-92500
T4
X102250Y-56000
T0
M30
