G04 #@! TF.FileFunction,Legend,Bot*
%FSLAX46Y46*%
G04 Gerber Fmt 4.6, Leading zero omitted, Abs format (unit mm)*
G04 Created by KiCad (PCBNEW (2015-07-16 BZR 5955, Git 27eafcb)-product) date 2015-10-11 14:13:05*
%MOMM*%
G01*
G04 APERTURE LIST*
%ADD10C,0.100000*%
%ADD11C,0.150000*%
G04 APERTURE END LIST*
D10*
D11*
X68914000Y-71660000D02*
X68914000Y-76740000D01*
X68914000Y-76740000D02*
X73486000Y-76740000D01*
X73486000Y-76740000D02*
X73486000Y-71660000D01*
X73486000Y-71660000D02*
X68914000Y-71660000D01*
X70438000Y-71660000D02*
X70438000Y-72168000D01*
X70438000Y-72168000D02*
X71708000Y-72168000D01*
X71708000Y-72168000D02*
X71708000Y-71660000D01*
X91960000Y-54886000D02*
X97040000Y-54886000D01*
X97040000Y-54886000D02*
X97040000Y-50314000D01*
X97040000Y-50314000D02*
X91960000Y-50314000D01*
X91960000Y-50314000D02*
X91960000Y-54886000D01*
X91960000Y-53362000D02*
X92468000Y-53362000D01*
X92468000Y-53362000D02*
X92468000Y-52092000D01*
X92468000Y-52092000D02*
X91960000Y-52092000D01*
X110260000Y-57586000D02*
X115340000Y-57586000D01*
X115340000Y-57586000D02*
X115340000Y-53014000D01*
X115340000Y-53014000D02*
X110260000Y-53014000D01*
X110260000Y-53014000D02*
X110260000Y-57586000D01*
X110260000Y-56062000D02*
X110768000Y-56062000D01*
X110768000Y-56062000D02*
X110768000Y-54792000D01*
X110768000Y-54792000D02*
X110260000Y-54792000D01*
X138660000Y-61486000D02*
X143740000Y-61486000D01*
X143740000Y-61486000D02*
X143740000Y-56914000D01*
X143740000Y-56914000D02*
X138660000Y-56914000D01*
X138660000Y-56914000D02*
X138660000Y-61486000D01*
X138660000Y-59962000D02*
X139168000Y-59962000D01*
X139168000Y-59962000D02*
X139168000Y-58692000D01*
X139168000Y-58692000D02*
X138660000Y-58692000D01*
X153960000Y-64486000D02*
X159040000Y-64486000D01*
X159040000Y-64486000D02*
X159040000Y-59914000D01*
X159040000Y-59914000D02*
X153960000Y-59914000D01*
X153960000Y-59914000D02*
X153960000Y-64486000D01*
X153960000Y-62962000D02*
X154468000Y-62962000D01*
X154468000Y-62962000D02*
X154468000Y-61692000D01*
X154468000Y-61692000D02*
X153960000Y-61692000D01*
X168360000Y-62286000D02*
X173440000Y-62286000D01*
X173440000Y-62286000D02*
X173440000Y-57714000D01*
X173440000Y-57714000D02*
X168360000Y-57714000D01*
X168360000Y-57714000D02*
X168360000Y-62286000D01*
X168360000Y-60762000D02*
X168868000Y-60762000D01*
X168868000Y-60762000D02*
X168868000Y-59492000D01*
X168868000Y-59492000D02*
X168360000Y-59492000D01*
X220960000Y-59886000D02*
X226040000Y-59886000D01*
X226040000Y-59886000D02*
X226040000Y-55314000D01*
X226040000Y-55314000D02*
X220960000Y-55314000D01*
X220960000Y-55314000D02*
X220960000Y-59886000D01*
X220960000Y-58362000D02*
X221468000Y-58362000D01*
X221468000Y-58362000D02*
X221468000Y-57092000D01*
X221468000Y-57092000D02*
X220960000Y-57092000D01*
X238760000Y-59986000D02*
X243840000Y-59986000D01*
X243840000Y-59986000D02*
X243840000Y-55414000D01*
X243840000Y-55414000D02*
X238760000Y-55414000D01*
X238760000Y-55414000D02*
X238760000Y-59986000D01*
X238760000Y-58462000D02*
X239268000Y-58462000D01*
X239268000Y-58462000D02*
X239268000Y-57192000D01*
X239268000Y-57192000D02*
X238760000Y-57192000D01*
X92960000Y-83486000D02*
X98040000Y-83486000D01*
X98040000Y-83486000D02*
X98040000Y-78914000D01*
X98040000Y-78914000D02*
X92960000Y-78914000D01*
X92960000Y-78914000D02*
X92960000Y-83486000D01*
X92960000Y-81962000D02*
X93468000Y-81962000D01*
X93468000Y-81962000D02*
X93468000Y-80692000D01*
X93468000Y-80692000D02*
X92960000Y-80692000D01*
X107960000Y-86286000D02*
X113040000Y-86286000D01*
X113040000Y-86286000D02*
X113040000Y-81714000D01*
X113040000Y-81714000D02*
X107960000Y-81714000D01*
X107960000Y-81714000D02*
X107960000Y-86286000D01*
X107960000Y-84762000D02*
X108468000Y-84762000D01*
X108468000Y-84762000D02*
X108468000Y-83492000D01*
X108468000Y-83492000D02*
X107960000Y-83492000D01*
X138660000Y-93886000D02*
X143740000Y-93886000D01*
X143740000Y-93886000D02*
X143740000Y-89314000D01*
X143740000Y-89314000D02*
X138660000Y-89314000D01*
X138660000Y-89314000D02*
X138660000Y-93886000D01*
X138660000Y-92362000D02*
X139168000Y-92362000D01*
X139168000Y-92362000D02*
X139168000Y-91092000D01*
X139168000Y-91092000D02*
X138660000Y-91092000D01*
X153960000Y-90586000D02*
X159040000Y-90586000D01*
X159040000Y-90586000D02*
X159040000Y-86014000D01*
X159040000Y-86014000D02*
X153960000Y-86014000D01*
X153960000Y-86014000D02*
X153960000Y-90586000D01*
X153960000Y-89062000D02*
X154468000Y-89062000D01*
X154468000Y-89062000D02*
X154468000Y-87792000D01*
X154468000Y-87792000D02*
X153960000Y-87792000D01*
X168360000Y-93786000D02*
X173440000Y-93786000D01*
X173440000Y-93786000D02*
X173440000Y-89214000D01*
X173440000Y-89214000D02*
X168360000Y-89214000D01*
X168360000Y-89214000D02*
X168360000Y-93786000D01*
X168360000Y-92262000D02*
X168868000Y-92262000D01*
X168868000Y-92262000D02*
X168868000Y-90992000D01*
X168868000Y-90992000D02*
X168360000Y-90992000D01*
X220960000Y-92386000D02*
X226040000Y-92386000D01*
X226040000Y-92386000D02*
X226040000Y-87814000D01*
X226040000Y-87814000D02*
X220960000Y-87814000D01*
X220960000Y-87814000D02*
X220960000Y-92386000D01*
X220960000Y-90862000D02*
X221468000Y-90862000D01*
X221468000Y-90862000D02*
X221468000Y-89592000D01*
X221468000Y-89592000D02*
X220960000Y-89592000D01*
X238760000Y-92386000D02*
X243840000Y-92386000D01*
X243840000Y-92386000D02*
X243840000Y-87814000D01*
X243840000Y-87814000D02*
X238760000Y-87814000D01*
X238760000Y-87814000D02*
X238760000Y-92386000D01*
X238760000Y-90862000D02*
X239268000Y-90862000D01*
X239268000Y-90862000D02*
X239268000Y-89592000D01*
X239268000Y-89592000D02*
X238760000Y-89592000D01*
X67952381Y-77738095D02*
X68761905Y-77738095D01*
X68857143Y-77785714D01*
X68904762Y-77833333D01*
X68952381Y-77928571D01*
X68952381Y-78119048D01*
X68904762Y-78214286D01*
X68857143Y-78261905D01*
X68761905Y-78309524D01*
X67952381Y-78309524D01*
X68952381Y-79309524D02*
X68952381Y-78738095D01*
X68952381Y-79023809D02*
X67952381Y-79023809D01*
X68095238Y-78928571D01*
X68190476Y-78833333D01*
X68238095Y-78738095D01*
X91511905Y-55202381D02*
X91511905Y-56011905D01*
X91464286Y-56107143D01*
X91416667Y-56154762D01*
X91321429Y-56202381D01*
X91130952Y-56202381D01*
X91035714Y-56154762D01*
X90988095Y-56107143D01*
X90940476Y-56011905D01*
X90940476Y-55202381D01*
X90511905Y-55297619D02*
X90464286Y-55250000D01*
X90369048Y-55202381D01*
X90130952Y-55202381D01*
X90035714Y-55250000D01*
X89988095Y-55297619D01*
X89940476Y-55392857D01*
X89940476Y-55488095D01*
X89988095Y-55630952D01*
X90559524Y-56202381D01*
X89940476Y-56202381D01*
X109011905Y-56452381D02*
X109011905Y-57261905D01*
X108964286Y-57357143D01*
X108916667Y-57404762D01*
X108821429Y-57452381D01*
X108630952Y-57452381D01*
X108535714Y-57404762D01*
X108488095Y-57357143D01*
X108440476Y-57261905D01*
X108440476Y-56452381D01*
X108059524Y-56452381D02*
X107440476Y-56452381D01*
X107773810Y-56833333D01*
X107630952Y-56833333D01*
X107535714Y-56880952D01*
X107488095Y-56928571D01*
X107440476Y-57023810D01*
X107440476Y-57261905D01*
X107488095Y-57357143D01*
X107535714Y-57404762D01*
X107630952Y-57452381D01*
X107916667Y-57452381D01*
X108011905Y-57404762D01*
X108059524Y-57357143D01*
X137761905Y-61452381D02*
X137761905Y-62261905D01*
X137714286Y-62357143D01*
X137666667Y-62404762D01*
X137571429Y-62452381D01*
X137380952Y-62452381D01*
X137285714Y-62404762D01*
X137238095Y-62357143D01*
X137190476Y-62261905D01*
X137190476Y-61452381D01*
X136285714Y-61785714D02*
X136285714Y-62452381D01*
X136523810Y-61404762D02*
X136761905Y-62119048D01*
X136142857Y-62119048D01*
X152761905Y-63202381D02*
X152761905Y-64011905D01*
X152714286Y-64107143D01*
X152666667Y-64154762D01*
X152571429Y-64202381D01*
X152380952Y-64202381D01*
X152285714Y-64154762D01*
X152238095Y-64107143D01*
X152190476Y-64011905D01*
X152190476Y-63202381D01*
X151238095Y-63202381D02*
X151714286Y-63202381D01*
X151761905Y-63678571D01*
X151714286Y-63630952D01*
X151619048Y-63583333D01*
X151380952Y-63583333D01*
X151285714Y-63630952D01*
X151238095Y-63678571D01*
X151190476Y-63773810D01*
X151190476Y-64011905D01*
X151238095Y-64107143D01*
X151285714Y-64154762D01*
X151380952Y-64202381D01*
X151619048Y-64202381D01*
X151714286Y-64154762D01*
X151761905Y-64107143D01*
X169261905Y-64452381D02*
X169261905Y-65261905D01*
X169214286Y-65357143D01*
X169166667Y-65404762D01*
X169071429Y-65452381D01*
X168880952Y-65452381D01*
X168785714Y-65404762D01*
X168738095Y-65357143D01*
X168690476Y-65261905D01*
X168690476Y-64452381D01*
X167785714Y-64452381D02*
X167976191Y-64452381D01*
X168071429Y-64500000D01*
X168119048Y-64547619D01*
X168214286Y-64690476D01*
X168261905Y-64880952D01*
X168261905Y-65261905D01*
X168214286Y-65357143D01*
X168166667Y-65404762D01*
X168071429Y-65452381D01*
X167880952Y-65452381D01*
X167785714Y-65404762D01*
X167738095Y-65357143D01*
X167690476Y-65261905D01*
X167690476Y-65023810D01*
X167738095Y-64928571D01*
X167785714Y-64880952D01*
X167880952Y-64833333D01*
X168071429Y-64833333D01*
X168166667Y-64880952D01*
X168214286Y-64928571D01*
X168261905Y-65023810D01*
X220011905Y-60702381D02*
X220011905Y-61511905D01*
X219964286Y-61607143D01*
X219916667Y-61654762D01*
X219821429Y-61702381D01*
X219630952Y-61702381D01*
X219535714Y-61654762D01*
X219488095Y-61607143D01*
X219440476Y-61511905D01*
X219440476Y-60702381D01*
X219059524Y-60702381D02*
X218392857Y-60702381D01*
X218821429Y-61702381D01*
X238261905Y-61202381D02*
X238261905Y-62011905D01*
X238214286Y-62107143D01*
X238166667Y-62154762D01*
X238071429Y-62202381D01*
X237880952Y-62202381D01*
X237785714Y-62154762D01*
X237738095Y-62107143D01*
X237690476Y-62011905D01*
X237690476Y-61202381D01*
X237071429Y-61630952D02*
X237166667Y-61583333D01*
X237214286Y-61535714D01*
X237261905Y-61440476D01*
X237261905Y-61392857D01*
X237214286Y-61297619D01*
X237166667Y-61250000D01*
X237071429Y-61202381D01*
X236880952Y-61202381D01*
X236785714Y-61250000D01*
X236738095Y-61297619D01*
X236690476Y-61392857D01*
X236690476Y-61440476D01*
X236738095Y-61535714D01*
X236785714Y-61583333D01*
X236880952Y-61630952D01*
X237071429Y-61630952D01*
X237166667Y-61678571D01*
X237214286Y-61726190D01*
X237261905Y-61821429D01*
X237261905Y-62011905D01*
X237214286Y-62107143D01*
X237166667Y-62154762D01*
X237071429Y-62202381D01*
X236880952Y-62202381D01*
X236785714Y-62154762D01*
X236738095Y-62107143D01*
X236690476Y-62011905D01*
X236690476Y-61821429D01*
X236738095Y-61726190D01*
X236785714Y-61678571D01*
X236880952Y-61630952D01*
X91761905Y-83702381D02*
X91761905Y-84511905D01*
X91714286Y-84607143D01*
X91666667Y-84654762D01*
X91571429Y-84702381D01*
X91380952Y-84702381D01*
X91285714Y-84654762D01*
X91238095Y-84607143D01*
X91190476Y-84511905D01*
X91190476Y-83702381D01*
X90666667Y-84702381D02*
X90476191Y-84702381D01*
X90380952Y-84654762D01*
X90333333Y-84607143D01*
X90238095Y-84464286D01*
X90190476Y-84273810D01*
X90190476Y-83892857D01*
X90238095Y-83797619D01*
X90285714Y-83750000D01*
X90380952Y-83702381D01*
X90571429Y-83702381D01*
X90666667Y-83750000D01*
X90714286Y-83797619D01*
X90761905Y-83892857D01*
X90761905Y-84130952D01*
X90714286Y-84226190D01*
X90666667Y-84273810D01*
X90571429Y-84321429D01*
X90380952Y-84321429D01*
X90285714Y-84273810D01*
X90238095Y-84226190D01*
X90190476Y-84130952D01*
X107488095Y-86202381D02*
X107488095Y-87011905D01*
X107440476Y-87107143D01*
X107392857Y-87154762D01*
X107297619Y-87202381D01*
X107107142Y-87202381D01*
X107011904Y-87154762D01*
X106964285Y-87107143D01*
X106916666Y-87011905D01*
X106916666Y-86202381D01*
X105916666Y-87202381D02*
X106488095Y-87202381D01*
X106202381Y-87202381D02*
X106202381Y-86202381D01*
X106297619Y-86345238D01*
X106392857Y-86440476D01*
X106488095Y-86488095D01*
X105297619Y-86202381D02*
X105202380Y-86202381D01*
X105107142Y-86250000D01*
X105059523Y-86297619D01*
X105011904Y-86392857D01*
X104964285Y-86583333D01*
X104964285Y-86821429D01*
X105011904Y-87011905D01*
X105059523Y-87107143D01*
X105107142Y-87154762D01*
X105202380Y-87202381D01*
X105297619Y-87202381D01*
X105392857Y-87154762D01*
X105440476Y-87107143D01*
X105488095Y-87011905D01*
X105535714Y-86821429D01*
X105535714Y-86583333D01*
X105488095Y-86392857D01*
X105440476Y-86297619D01*
X105392857Y-86250000D01*
X105297619Y-86202381D01*
X146738095Y-92702381D02*
X146738095Y-93511905D01*
X146690476Y-93607143D01*
X146642857Y-93654762D01*
X146547619Y-93702381D01*
X146357142Y-93702381D01*
X146261904Y-93654762D01*
X146214285Y-93607143D01*
X146166666Y-93511905D01*
X146166666Y-92702381D01*
X145166666Y-93702381D02*
X145738095Y-93702381D01*
X145452381Y-93702381D02*
X145452381Y-92702381D01*
X145547619Y-92845238D01*
X145642857Y-92940476D01*
X145738095Y-92988095D01*
X144214285Y-93702381D02*
X144785714Y-93702381D01*
X144500000Y-93702381D02*
X144500000Y-92702381D01*
X144595238Y-92845238D01*
X144690476Y-92940476D01*
X144785714Y-92988095D01*
X162238095Y-91952381D02*
X162238095Y-92761905D01*
X162190476Y-92857143D01*
X162142857Y-92904762D01*
X162047619Y-92952381D01*
X161857142Y-92952381D01*
X161761904Y-92904762D01*
X161714285Y-92857143D01*
X161666666Y-92761905D01*
X161666666Y-91952381D01*
X160666666Y-92952381D02*
X161238095Y-92952381D01*
X160952381Y-92952381D02*
X160952381Y-91952381D01*
X161047619Y-92095238D01*
X161142857Y-92190476D01*
X161238095Y-92238095D01*
X160285714Y-92047619D02*
X160238095Y-92000000D01*
X160142857Y-91952381D01*
X159904761Y-91952381D01*
X159809523Y-92000000D01*
X159761904Y-92047619D01*
X159714285Y-92142857D01*
X159714285Y-92238095D01*
X159761904Y-92380952D01*
X160333333Y-92952381D01*
X159714285Y-92952381D01*
X167738095Y-92452381D02*
X167738095Y-93261905D01*
X167690476Y-93357143D01*
X167642857Y-93404762D01*
X167547619Y-93452381D01*
X167357142Y-93452381D01*
X167261904Y-93404762D01*
X167214285Y-93357143D01*
X167166666Y-93261905D01*
X167166666Y-92452381D01*
X166166666Y-93452381D02*
X166738095Y-93452381D01*
X166452381Y-93452381D02*
X166452381Y-92452381D01*
X166547619Y-92595238D01*
X166642857Y-92690476D01*
X166738095Y-92738095D01*
X165833333Y-92452381D02*
X165214285Y-92452381D01*
X165547619Y-92833333D01*
X165404761Y-92833333D01*
X165309523Y-92880952D01*
X165261904Y-92928571D01*
X165214285Y-93023810D01*
X165214285Y-93261905D01*
X165261904Y-93357143D01*
X165309523Y-93404762D01*
X165404761Y-93452381D01*
X165690476Y-93452381D01*
X165785714Y-93404762D01*
X165833333Y-93357143D01*
X219988095Y-92952381D02*
X219988095Y-93761905D01*
X219940476Y-93857143D01*
X219892857Y-93904762D01*
X219797619Y-93952381D01*
X219607142Y-93952381D01*
X219511904Y-93904762D01*
X219464285Y-93857143D01*
X219416666Y-93761905D01*
X219416666Y-92952381D01*
X218416666Y-93952381D02*
X218988095Y-93952381D01*
X218702381Y-93952381D02*
X218702381Y-92952381D01*
X218797619Y-93095238D01*
X218892857Y-93190476D01*
X218988095Y-93238095D01*
X217559523Y-93285714D02*
X217559523Y-93952381D01*
X217797619Y-92904762D02*
X218035714Y-93619048D01*
X217416666Y-93619048D01*
X237238095Y-92452381D02*
X237238095Y-93261905D01*
X237190476Y-93357143D01*
X237142857Y-93404762D01*
X237047619Y-93452381D01*
X236857142Y-93452381D01*
X236761904Y-93404762D01*
X236714285Y-93357143D01*
X236666666Y-93261905D01*
X236666666Y-92452381D01*
X235666666Y-93452381D02*
X236238095Y-93452381D01*
X235952381Y-93452381D02*
X235952381Y-92452381D01*
X236047619Y-92595238D01*
X236142857Y-92690476D01*
X236238095Y-92738095D01*
X234761904Y-92452381D02*
X235238095Y-92452381D01*
X235285714Y-92928571D01*
X235238095Y-92880952D01*
X235142857Y-92833333D01*
X234904761Y-92833333D01*
X234809523Y-92880952D01*
X234761904Y-92928571D01*
X234714285Y-93023810D01*
X234714285Y-93261905D01*
X234761904Y-93357143D01*
X234809523Y-93404762D01*
X234904761Y-93452381D01*
X235142857Y-93452381D01*
X235238095Y-93404762D01*
X235285714Y-93357143D01*
M02*
