G04 #@! TF.FileFunction,Copper,L1,Top,Signal*
%FSLAX46Y46*%
G04 Gerber Fmt 4.6, Leading zero omitted, Abs format (unit mm)*
G04 Created by KiCad (PCBNEW (2015-07-16 BZR 5955, Git 27eafcb)-product) date 2015-10-11 14:13:05*
%MOMM*%
G01*
G04 APERTURE LIST*
%ADD10C,0.100000*%
%ADD11R,0.750000X0.800000*%
%ADD12R,0.800000X0.750000*%
%ADD13C,1.600000*%
%ADD14R,0.797560X0.797560*%
%ADD15R,0.500000X0.900000*%
%ADD16R,1.200000X0.900000*%
%ADD17R,1.000000X0.700000*%
%ADD18R,0.700000X1.000000*%
%ADD19C,4.000000*%
%ADD20C,4.064000*%
%ADD21C,0.600000*%
%ADD22C,0.250000*%
%ADD23C,0.254000*%
G04 APERTURE END LIST*
D10*
D11*
X77250000Y-75250000D03*
X77250000Y-76750000D03*
X118500000Y-58750000D03*
X118500000Y-57250000D03*
X116750000Y-88250000D03*
X116750000Y-86750000D03*
D12*
X179500000Y-93750000D03*
X178000000Y-93750000D03*
D11*
X245500000Y-62250000D03*
X245500000Y-60750000D03*
X246000000Y-91000000D03*
X246000000Y-89500000D03*
D13*
X81500000Y-68000000D03*
X81500000Y-70000000D03*
X81500000Y-72000000D03*
X81500000Y-74000000D03*
X81500000Y-76000000D03*
D14*
X63250000Y-86999300D03*
X63250000Y-85500700D03*
X63250000Y-92750700D03*
X63250000Y-94249300D03*
D15*
X68000000Y-85000000D03*
X69500000Y-85000000D03*
D16*
X66900000Y-94000000D03*
X69100000Y-94000000D03*
D17*
X66200000Y-90700000D03*
X66200000Y-88800000D03*
X63800000Y-89750000D03*
D14*
X63250000Y-50500700D03*
X63250000Y-51999300D03*
X63250000Y-58500700D03*
X63250000Y-59999300D03*
X73250000Y-85999300D03*
X73250000Y-84500700D03*
X73250000Y-90000700D03*
X73250000Y-91499300D03*
X73750000Y-50500700D03*
X73750000Y-51999300D03*
X74250000Y-58500700D03*
X74250000Y-59999300D03*
D18*
X67800000Y-52950000D03*
X69700000Y-52950000D03*
X68750000Y-50550000D03*
X68800000Y-63950000D03*
X70700000Y-63950000D03*
X69750000Y-61550000D03*
X76300000Y-87450000D03*
X78200000Y-87450000D03*
X77250000Y-85050000D03*
X78550000Y-92450000D03*
X80450000Y-92450000D03*
X79500000Y-90050000D03*
X80050000Y-52700000D03*
X81950000Y-52700000D03*
X81000000Y-50300000D03*
X77800000Y-60450000D03*
X79700000Y-60450000D03*
X78750000Y-58050000D03*
D16*
X63150000Y-55000000D03*
X65350000Y-55000000D03*
X63150000Y-63750000D03*
X65350000Y-63750000D03*
X73400000Y-81750000D03*
X75600000Y-81750000D03*
X74600000Y-94000000D03*
X72400000Y-94000000D03*
X73900000Y-54750000D03*
X76100000Y-54750000D03*
X74400000Y-63500000D03*
X76600000Y-63500000D03*
D19*
X102250000Y-56000000D03*
D20*
X102250000Y-92000000D03*
X148000000Y-92000000D03*
X232250000Y-92500000D03*
X232250000Y-59750000D03*
X148000000Y-62000000D03*
D21*
X211250000Y-68500000D03*
X181750000Y-69250000D03*
X129250000Y-68250000D03*
X83250000Y-64326879D03*
X72500000Y-68000000D03*
X71250000Y-66750000D03*
X238250000Y-95250000D03*
X94750000Y-86000000D03*
X111044625Y-88906591D03*
X108500000Y-88750000D03*
X221595556Y-95000000D03*
X160000000Y-63500000D03*
X226250000Y-95000000D03*
X246000000Y-92750000D03*
X81250000Y-54000000D03*
X70250000Y-56500000D03*
X70500000Y-59250000D03*
X79250000Y-87500000D03*
X83500000Y-88500000D03*
X67750000Y-88750000D03*
X83500000Y-86000000D03*
X175250000Y-94750000D03*
X166500000Y-94750000D03*
X158000000Y-94750000D03*
X154500000Y-94250000D03*
X136750000Y-94000000D03*
X174517038Y-63500000D03*
X240675739Y-63500000D03*
X221504613Y-63500000D03*
X225272607Y-63500000D03*
X166500000Y-63500000D03*
X140500000Y-65000000D03*
X152500000Y-65500000D03*
X109000000Y-59000000D03*
X93250000Y-59250000D03*
X243250000Y-63500000D03*
X86500000Y-60000000D03*
X137011548Y-96250000D03*
X98750000Y-77250000D03*
X112500000Y-79250000D03*
X164271892Y-67000000D03*
X138553621Y-67000000D03*
X114750000Y-50250000D03*
X160000000Y-85250000D03*
X137750000Y-85500000D03*
X173000000Y-52250000D03*
X143250000Y-51500000D03*
X158250000Y-54500000D03*
X223398045Y-64500000D03*
X222865000Y-58813700D03*
X171535000Y-61551820D03*
X157135000Y-63451740D03*
X143105000Y-64262000D03*
X96405000Y-57919620D03*
X156353835Y-93400000D03*
X143105000Y-92334080D03*
X89032080Y-82750000D03*
X224250000Y-91000000D03*
X225000000Y-96750000D03*
X70250000Y-86250000D03*
X77500000Y-53250000D03*
X116500000Y-56250000D03*
X245500000Y-59500000D03*
X246000000Y-88250000D03*
X175750000Y-93250000D03*
X114500000Y-87000000D03*
X78000000Y-65000000D03*
X65250000Y-61250000D03*
X65500000Y-56500000D03*
X65250000Y-74750000D03*
X81500000Y-79730791D03*
X77250000Y-79750000D03*
X81500000Y-85000000D03*
X81500000Y-82750000D03*
X76250000Y-69750000D03*
X72500000Y-70500000D03*
X135500000Y-57250000D03*
X153250000Y-60500000D03*
X238000000Y-56000000D03*
X90500000Y-51000000D03*
X81000000Y-55750000D03*
X85332241Y-51267759D03*
X107750000Y-53750000D03*
X167000000Y-58750000D03*
X219250000Y-56250000D03*
X89250000Y-49750000D03*
X154500000Y-56750000D03*
X239500000Y-52000000D03*
X108500000Y-52250000D03*
X77500000Y-61750000D03*
X219250000Y-54500000D03*
X166750000Y-57000000D03*
X136250000Y-56250000D03*
X237750000Y-88250000D03*
X153250000Y-87500000D03*
X70250000Y-82500000D03*
X137000000Y-90000000D03*
X166250000Y-90000000D03*
X219000000Y-88500000D03*
X91500000Y-80250000D03*
X106750000Y-82500000D03*
X239250000Y-85250000D03*
X152750000Y-86250000D03*
X86437460Y-79000000D03*
X137000000Y-88000000D03*
X219000000Y-86750000D03*
X91500000Y-79000000D03*
X106250000Y-80500000D03*
X166500000Y-87500000D03*
X152500000Y-61500000D03*
X237500000Y-90250000D03*
X153000000Y-89000000D03*
X89750000Y-52250000D03*
X219250000Y-59750000D03*
X84904349Y-76500000D03*
X84750000Y-90750000D03*
X68000000Y-90750000D03*
X219000000Y-90250000D03*
X91250000Y-81500000D03*
X106250000Y-84750000D03*
X136500000Y-92000000D03*
X166250000Y-91750000D03*
X108000000Y-55000000D03*
X136250000Y-59250000D03*
X167000000Y-60250000D03*
X237250000Y-57750000D03*
D22*
X211232899Y-63500000D02*
X221504613Y-63500000D01*
X181496876Y-63500000D02*
X211232899Y-63500000D01*
X211232899Y-63500000D02*
X211232899Y-68482899D01*
X211232899Y-68482899D02*
X211250000Y-68500000D01*
X174517038Y-63500000D02*
X181496876Y-63500000D01*
X181496876Y-63500000D02*
X181496876Y-68996876D01*
X181496876Y-68996876D02*
X181750000Y-69250000D01*
X129346552Y-65750000D02*
X140504400Y-65750000D01*
X128500000Y-65750000D02*
X129346552Y-65750000D01*
X129346552Y-65750000D02*
X129346552Y-68153448D01*
X129346552Y-68153448D02*
X129250000Y-68250000D01*
X83250000Y-64326879D02*
X83250000Y-62000000D01*
X83250000Y-62000000D02*
X86000000Y-59250000D01*
X86000000Y-59250000D02*
X92511132Y-59250000D01*
X92511132Y-59250000D02*
X93261132Y-60000000D01*
X83250000Y-73956011D02*
X83250000Y-64326879D01*
X238250000Y-95250000D02*
X237250000Y-96250000D01*
X237250000Y-96250000D02*
X227500000Y-96250000D01*
X227500000Y-96250000D02*
X226250000Y-95000000D01*
X141754400Y-67000000D02*
X152076025Y-67000000D01*
X152076025Y-67000000D02*
X161250000Y-67000000D01*
X152500000Y-65500000D02*
X152500000Y-66576025D01*
X152500000Y-66576025D02*
X152076025Y-67000000D01*
X140504400Y-65750000D02*
X141754400Y-67000000D01*
X161250000Y-67000000D02*
X162286622Y-65963378D01*
X225272607Y-63500000D02*
X226272607Y-64500000D01*
X226272607Y-64500000D02*
X239675739Y-64500000D01*
X239675739Y-64500000D02*
X240675739Y-63500000D01*
X154500000Y-94250000D02*
X154500000Y-96250000D01*
X154500000Y-96250000D02*
X140033458Y-96250000D01*
X140033458Y-96250000D02*
X137783458Y-94000000D01*
X94750000Y-86000000D02*
X95500000Y-86750000D01*
X95500000Y-86750000D02*
X106000000Y-86750000D01*
X106000000Y-86750000D02*
X108000000Y-88750000D01*
X108000000Y-88750000D02*
X108500000Y-88750000D01*
X110888034Y-88750000D02*
X111044625Y-88906591D01*
X111044625Y-88906591D02*
X111572560Y-89434526D01*
X111500000Y-89361966D02*
X111572560Y-89434526D01*
X108500000Y-88750000D02*
X110888034Y-88750000D01*
X116755573Y-89434526D02*
X111572560Y-89434526D01*
X222250000Y-95000000D02*
X221595556Y-95000000D01*
X221595556Y-95000000D02*
X181953085Y-95000000D01*
X164750000Y-63500000D02*
X162286622Y-65963378D01*
X160000000Y-63500000D02*
X160000000Y-63676756D01*
X160000000Y-63676756D02*
X162286622Y-65963378D01*
X226250000Y-95000000D02*
X222250000Y-95000000D01*
X108333140Y-60000000D02*
X118565838Y-60000000D01*
X118565838Y-60000000D02*
X122750000Y-60000000D01*
X118500000Y-58750000D02*
X118500000Y-59934162D01*
X118500000Y-59934162D02*
X118565838Y-60000000D01*
X245500000Y-62250000D02*
X245500000Y-63213678D01*
X245500000Y-63213678D02*
X245213678Y-63500000D01*
X245213678Y-63500000D02*
X243250000Y-63500000D01*
X246000000Y-91000000D02*
X246000000Y-92750000D01*
X181953085Y-95000000D02*
X175500000Y-95000000D01*
X179500000Y-93750000D02*
X181750000Y-93750000D01*
X181750000Y-93750000D02*
X181953085Y-93953085D01*
X181953085Y-93953085D02*
X181953085Y-95000000D01*
X126834526Y-89434526D02*
X116755573Y-89434526D01*
X116750000Y-88250000D02*
X116750000Y-89428953D01*
X116750000Y-89428953D02*
X116755573Y-89434526D01*
X79700000Y-60450000D02*
X79700000Y-59300000D01*
X79700000Y-59300000D02*
X82000000Y-57000000D01*
X82000000Y-57000000D02*
X82000000Y-56250000D01*
X82000000Y-56250000D02*
X82000000Y-53931645D01*
X82000000Y-53931645D02*
X82000000Y-52750000D01*
X82000000Y-53931645D02*
X81318355Y-53931645D01*
X81318355Y-53931645D02*
X81250000Y-54000000D01*
X82000000Y-52750000D02*
X81950000Y-52700000D01*
X70250000Y-56500000D02*
X70250000Y-53500000D01*
X70250000Y-53500000D02*
X69700000Y-52950000D01*
X70700000Y-63950000D02*
X70700000Y-59450000D01*
X70700000Y-59450000D02*
X70500000Y-59250000D01*
X77250000Y-72750000D02*
X72500000Y-68000000D01*
X72500000Y-68000000D02*
X71250000Y-66750000D01*
X71250000Y-66750000D02*
X70700000Y-66200000D01*
X70700000Y-66200000D02*
X70700000Y-63950000D01*
X77250000Y-75250000D02*
X77250000Y-72750000D01*
X78200000Y-87450000D02*
X79200000Y-87450000D01*
X79200000Y-87450000D02*
X79250000Y-87500000D01*
X83500000Y-87979864D02*
X83500000Y-86692828D01*
X83500000Y-86692828D02*
X83500000Y-86000000D01*
X83500000Y-88500000D02*
X83500000Y-87979864D01*
X82950000Y-92450000D02*
X83500000Y-91900000D01*
X83500000Y-91900000D02*
X83500000Y-87979864D01*
X80450000Y-92450000D02*
X82950000Y-92450000D01*
X66200000Y-88800000D02*
X67700000Y-88800000D01*
X67700000Y-88800000D02*
X67750000Y-88750000D01*
X63250000Y-88000000D02*
X65400000Y-88000000D01*
X65400000Y-88000000D02*
X66200000Y-88800000D01*
X63250000Y-86999300D02*
X63250000Y-88000000D01*
X83250000Y-78650000D02*
X83250000Y-78150318D01*
X83250000Y-78150318D02*
X83250000Y-73956011D01*
X83500000Y-86000000D02*
X83250000Y-85750000D01*
X83250000Y-85750000D02*
X83250000Y-78150318D01*
X81500000Y-74000000D02*
X83206011Y-74000000D01*
X83206011Y-74000000D02*
X83250000Y-73956011D01*
X77250000Y-75250000D02*
X77250000Y-74250000D01*
X77250000Y-74250000D02*
X77500000Y-74000000D01*
X77500000Y-74000000D02*
X81500000Y-74000000D01*
X175500000Y-95000000D02*
X175250000Y-94750000D01*
X171303440Y-94750000D02*
X171000000Y-94750000D01*
X175250000Y-94750000D02*
X171303440Y-94750000D01*
X168750000Y-94750000D02*
X168542315Y-94750000D01*
X168542315Y-94750000D02*
X166858753Y-94750000D01*
X171303440Y-94750000D02*
X168542315Y-94750000D01*
X166500000Y-94750000D02*
X166858753Y-94750000D01*
X158000000Y-94750000D02*
X166858753Y-94750000D01*
X158000000Y-94750000D02*
X155000000Y-94750000D01*
X155000000Y-94750000D02*
X154500000Y-94250000D01*
X137783458Y-94000000D02*
X131400000Y-94000000D01*
X131400000Y-94000000D02*
X126834526Y-89434526D01*
X136750000Y-94000000D02*
X137783458Y-94000000D01*
X166500000Y-63500000D02*
X174517038Y-63500000D01*
X240675739Y-63500000D02*
X243250000Y-63500000D01*
X221504613Y-63500000D02*
X225272607Y-63500000D01*
X166500000Y-63500000D02*
X164750000Y-63500000D01*
X140504400Y-65750000D02*
X140504400Y-65004400D01*
X140504400Y-65004400D02*
X140500000Y-65000000D01*
X93261132Y-60000000D02*
X108333140Y-60000000D01*
X108333140Y-60000000D02*
X108333140Y-59666860D01*
X108333140Y-59666860D02*
X109000000Y-59000000D01*
X93261132Y-60000000D02*
X93261132Y-59261132D01*
X93261132Y-59261132D02*
X93250000Y-59250000D01*
X122750000Y-60000000D02*
X128500000Y-65750000D01*
X70363706Y-93886294D02*
X70363706Y-86590404D01*
X70250000Y-86250000D02*
X70250000Y-86476698D01*
X70363706Y-86590404D02*
X70363706Y-85113706D01*
X70250000Y-86476698D02*
X70363706Y-86590404D01*
X69500000Y-85000000D02*
X70250000Y-85000000D01*
X70250000Y-85000000D02*
X70363706Y-85113706D01*
X77500000Y-53250000D02*
X77500000Y-54250000D01*
X77500000Y-54250000D02*
X77000000Y-54750000D01*
X77000000Y-54750000D02*
X76100000Y-54750000D01*
X118500000Y-56250000D02*
X116500000Y-56250000D01*
X118500000Y-57250000D02*
X118500000Y-56250000D01*
X245500000Y-60750000D02*
X245500000Y-59500000D01*
X246000000Y-89500000D02*
X246000000Y-88250000D01*
X178000000Y-93750000D02*
X176250000Y-93750000D01*
X176250000Y-93750000D02*
X175750000Y-93250000D01*
X116750000Y-86750000D02*
X116750000Y-85750000D01*
X116750000Y-85750000D02*
X115750000Y-85750000D01*
X115750000Y-85750000D02*
X114500000Y-87000000D01*
X76600000Y-63500000D02*
X76600000Y-63600000D01*
X76600000Y-63600000D02*
X78000000Y-65000000D01*
X65250000Y-61250000D02*
X65250000Y-63650000D01*
X65250000Y-63650000D02*
X65350000Y-63750000D01*
X65350000Y-55000000D02*
X65350000Y-56350000D01*
X65350000Y-56350000D02*
X65500000Y-56500000D01*
X65350000Y-63750000D02*
X65350000Y-74650000D01*
X65350000Y-74650000D02*
X65250000Y-74750000D01*
X77250000Y-79750000D02*
X77250000Y-79291335D01*
X77250000Y-79291335D02*
X77250000Y-76750000D01*
X76500000Y-81750000D02*
X77250000Y-81000000D01*
X77250000Y-81000000D02*
X77250000Y-79291335D01*
X75600000Y-81750000D02*
X76500000Y-81750000D01*
X72400000Y-94000000D02*
X69100000Y-94000000D01*
X69100000Y-94000000D02*
X70250000Y-94000000D01*
X70250000Y-94000000D02*
X70363706Y-93886294D01*
X81500000Y-76000000D02*
X81500000Y-79730791D01*
X81500000Y-79730791D02*
X81500000Y-82750000D01*
X81480791Y-79750000D02*
X81500000Y-79730791D01*
X81500000Y-82750000D02*
X81500000Y-85000000D01*
X67800000Y-52950000D02*
X67800000Y-56300000D01*
X67800000Y-56300000D02*
X69000000Y-57500000D01*
X69000000Y-57500000D02*
X71750000Y-57500000D01*
X71750000Y-57500000D02*
X72250000Y-58000000D01*
X72250000Y-58000000D02*
X72250000Y-65750000D01*
X72250000Y-65750000D02*
X76250000Y-69750000D01*
X72500000Y-70000000D02*
X68800000Y-66300000D01*
X68800000Y-66300000D02*
X68800000Y-63950000D01*
X72500000Y-70500000D02*
X72500000Y-70000000D01*
X153250000Y-60500000D02*
X153250000Y-59750000D01*
X153250000Y-59750000D02*
X150500000Y-57000000D01*
X150500000Y-57000000D02*
X139750000Y-57000000D01*
X139750000Y-57000000D02*
X139500000Y-57250000D01*
X139500000Y-57250000D02*
X135500000Y-57250000D01*
X135500000Y-57250000D02*
X135250000Y-57250000D01*
X135250000Y-57250000D02*
X131750000Y-53750000D01*
X131750000Y-53750000D02*
X107750000Y-53750000D01*
X153250000Y-60500000D02*
X165250000Y-60500000D01*
X165250000Y-60500000D02*
X165500000Y-60250000D01*
X165500000Y-60250000D02*
X167000000Y-58750000D01*
X238000000Y-56000000D02*
X235500000Y-53500000D01*
X235500000Y-53500000D02*
X222000000Y-53500000D01*
X222000000Y-53500000D02*
X219250000Y-56250000D01*
X90500000Y-51000000D02*
X85600000Y-51000000D01*
X85600000Y-51000000D02*
X85332241Y-51267759D01*
X90500000Y-51000000D02*
X105000000Y-51000000D01*
X105000000Y-51000000D02*
X107750000Y-53750000D01*
X81000000Y-55750000D02*
X80050000Y-54800000D01*
X80050000Y-54800000D02*
X80050000Y-52700000D01*
X219000000Y-56250000D02*
X216500000Y-58750000D01*
X216500000Y-58750000D02*
X167000000Y-58750000D01*
X219250000Y-56250000D02*
X219000000Y-56250000D01*
X89250000Y-49750000D02*
X106000000Y-49750000D01*
X106000000Y-49750000D02*
X108500000Y-52250000D01*
X154500000Y-56750000D02*
X153500000Y-55750000D01*
X153500000Y-55750000D02*
X136750000Y-55750000D01*
X136750000Y-55750000D02*
X136250000Y-56250000D01*
X154500000Y-56750000D02*
X156750000Y-59000000D01*
X156750000Y-59000000D02*
X164750000Y-59000000D01*
X164750000Y-59000000D02*
X166750000Y-57000000D01*
X239500000Y-52000000D02*
X221750000Y-52000000D01*
X221750000Y-52000000D02*
X219250000Y-54500000D01*
X108500000Y-52250000D02*
X132250000Y-52250000D01*
X132250000Y-52250000D02*
X136250000Y-56250000D01*
X77500000Y-61750000D02*
X77800000Y-61450000D01*
X77800000Y-61450000D02*
X77800000Y-60450000D01*
X166750000Y-57000000D02*
X216750000Y-57000000D01*
X216750000Y-57000000D02*
X219250000Y-54500000D01*
X222202742Y-85500000D02*
X218952742Y-88750000D01*
X237750000Y-88250000D02*
X237750000Y-87750000D01*
X237750000Y-87750000D02*
X235500000Y-85500000D01*
X235500000Y-85500000D02*
X222202742Y-85500000D01*
X153250000Y-87500000D02*
X163750000Y-87500000D01*
X163750000Y-87500000D02*
X166250000Y-90000000D01*
X153250000Y-87500000D02*
X151750000Y-87500000D01*
X151750000Y-87500000D02*
X150250000Y-86000000D01*
X150250000Y-86000000D02*
X141000000Y-86000000D01*
X141000000Y-86000000D02*
X137250000Y-89750000D01*
X137250000Y-89750000D02*
X137000000Y-90000000D01*
X70250000Y-82500000D02*
X71500000Y-83750000D01*
X71500000Y-83750000D02*
X71500000Y-87150000D01*
X71500000Y-87150000D02*
X72600000Y-88250000D01*
X72600000Y-88250000D02*
X74750000Y-88250000D01*
X74750000Y-88250000D02*
X75550000Y-87450000D01*
X75550000Y-87450000D02*
X76300000Y-87450000D01*
X105422958Y-82422958D02*
X106750000Y-83750000D01*
X106750000Y-83750000D02*
X126000000Y-83750000D01*
X126000000Y-83750000D02*
X132250000Y-90000000D01*
X132250000Y-90000000D02*
X137000000Y-90000000D01*
X166250000Y-90000000D02*
X166500000Y-90250000D01*
X166500000Y-90250000D02*
X216750000Y-90250000D01*
X216750000Y-90250000D02*
X218500000Y-88500000D01*
X218500000Y-88500000D02*
X218702742Y-88500000D01*
X218702742Y-88500000D02*
X218952742Y-88750000D01*
X219000000Y-88500000D02*
X219000000Y-88702742D01*
X219000000Y-88702742D02*
X218952742Y-88750000D01*
X91500000Y-80250000D02*
X103250000Y-80250000D01*
X103250000Y-80250000D02*
X104000000Y-81000000D01*
X104000000Y-81000000D02*
X105422958Y-82422958D01*
X106750000Y-82500000D02*
X106672958Y-82422958D01*
X106672958Y-82422958D02*
X105422958Y-82422958D01*
X239250000Y-85250000D02*
X238000000Y-84000000D01*
X238000000Y-84000000D02*
X221750000Y-84000000D01*
X221750000Y-84000000D02*
X219000000Y-86750000D01*
X152750000Y-86250000D02*
X152500000Y-86250000D01*
X152500000Y-86250000D02*
X151250000Y-85000000D01*
X151250000Y-85000000D02*
X140000000Y-85000000D01*
X140000000Y-85000000D02*
X137000000Y-88000000D01*
X152750000Y-86250000D02*
X165250000Y-86250000D01*
X165250000Y-86250000D02*
X165776952Y-86776952D01*
X85500000Y-94750000D02*
X86437460Y-93812540D01*
X86437460Y-93812540D02*
X86437460Y-79000000D01*
X79500000Y-94750000D02*
X85500000Y-94750000D01*
X78550000Y-93800000D02*
X79500000Y-94750000D01*
X78550000Y-92450000D02*
X78550000Y-93800000D01*
X137000000Y-88000000D02*
X132000000Y-88000000D01*
X132000000Y-88000000D02*
X124500000Y-80500000D01*
X124500000Y-80500000D02*
X106250000Y-80500000D01*
X219000000Y-86750000D02*
X165803904Y-86750000D01*
X165803904Y-86750000D02*
X165776952Y-86776952D01*
X105250000Y-80500000D02*
X103750000Y-79000000D01*
X103750000Y-79000000D02*
X91500000Y-79000000D01*
X106250000Y-80500000D02*
X105250000Y-80500000D01*
X165776952Y-86776952D02*
X166500000Y-87500000D01*
X68000000Y-85000000D02*
X65250000Y-85000000D01*
X65250000Y-85000000D02*
X64500000Y-84250000D01*
X64500000Y-84250000D02*
X63750000Y-84250000D01*
X63750000Y-84250000D02*
X63250000Y-84750000D01*
X63250000Y-84750000D02*
X63250000Y-85500700D01*
X63000000Y-89750000D02*
X62539758Y-90210242D01*
X62511930Y-90761930D02*
X63250000Y-91500000D01*
X62539758Y-90210242D02*
X62539758Y-90734102D01*
X62539758Y-90734102D02*
X62511930Y-90761930D01*
X63800000Y-89750000D02*
X63000000Y-89750000D01*
X63250000Y-91500000D02*
X63250000Y-92750700D01*
X66900000Y-94000000D02*
X65750000Y-94000000D01*
X65750000Y-94000000D02*
X65250000Y-94500000D01*
X65250000Y-94500000D02*
X65250000Y-95250000D01*
X65250000Y-95250000D02*
X65000000Y-95500000D01*
X65000000Y-95500000D02*
X63500000Y-95500000D01*
X63500000Y-95500000D02*
X63250000Y-95250000D01*
X63250000Y-95250000D02*
X63250000Y-94249300D01*
X152500000Y-61500000D02*
X152000000Y-61000000D01*
X152000000Y-61000000D02*
X152000000Y-60250000D01*
X152000000Y-60250000D02*
X149750000Y-58000000D01*
X149750000Y-58000000D02*
X137500000Y-58000000D01*
X137500000Y-58000000D02*
X136250000Y-59250000D01*
X152500000Y-61500000D02*
X152750000Y-61750000D01*
X152750000Y-61750000D02*
X165500000Y-61750000D01*
X165500000Y-61750000D02*
X167000000Y-60250000D01*
X237250000Y-57750000D02*
X234500000Y-55000000D01*
X234500000Y-55000000D02*
X224000000Y-55000000D01*
X224000000Y-55000000D02*
X220750000Y-58250000D01*
X220750000Y-58250000D02*
X219250000Y-59750000D01*
X237500000Y-90250000D02*
X234750000Y-87500000D01*
X234750000Y-87500000D02*
X222250000Y-87500000D01*
X222250000Y-87500000D02*
X219500000Y-90250000D01*
X219500000Y-90250000D02*
X219000000Y-90250000D01*
X153000000Y-89000000D02*
X151250000Y-89000000D01*
X151250000Y-89000000D02*
X149500000Y-87250000D01*
X149500000Y-87250000D02*
X142000000Y-87250000D01*
X142000000Y-87250000D02*
X137250000Y-92000000D01*
X137250000Y-92000000D02*
X136500000Y-92000000D01*
X153000000Y-89000000D02*
X163000000Y-89000000D01*
X163000000Y-89000000D02*
X165750000Y-91750000D01*
X165750000Y-91750000D02*
X166250000Y-91750000D01*
X89750000Y-52250000D02*
X89750000Y-52500000D01*
X89750000Y-52500000D02*
X80600000Y-61650000D01*
X80600000Y-61650000D02*
X80600000Y-67100000D01*
X80600000Y-67100000D02*
X81500000Y-68000000D01*
X89750000Y-52250000D02*
X104250000Y-52250000D01*
X104250000Y-52250000D02*
X107000000Y-55000000D01*
X107000000Y-55000000D02*
X108000000Y-55000000D01*
X219250000Y-59750000D02*
X218750000Y-60250000D01*
X218750000Y-60250000D02*
X167000000Y-60250000D01*
X84750000Y-90750000D02*
X84750000Y-76654349D01*
X84750000Y-76654349D02*
X84904349Y-76500000D01*
X66200000Y-90700000D02*
X67950000Y-90700000D01*
X67950000Y-90700000D02*
X68000000Y-90750000D01*
X219000000Y-90250000D02*
X218750000Y-90250000D01*
X219000000Y-90250000D02*
X218500000Y-90250000D01*
X218500000Y-90250000D02*
X217000000Y-91750000D01*
X217000000Y-91750000D02*
X166250000Y-91750000D01*
X99000000Y-81500000D02*
X91250000Y-81500000D01*
X100000000Y-82500000D02*
X99000000Y-81500000D01*
X102250000Y-84750000D02*
X100000000Y-82500000D01*
X106250000Y-84750000D02*
X102250000Y-84750000D01*
X132500000Y-92000000D02*
X125250000Y-84750000D01*
X125250000Y-84750000D02*
X106250000Y-84750000D01*
X136500000Y-92000000D02*
X132500000Y-92000000D01*
X135000000Y-59250000D02*
X130750000Y-55000000D01*
X130750000Y-55000000D02*
X108000000Y-55000000D01*
X136250000Y-59250000D02*
X135000000Y-59250000D01*
X63750000Y-49250000D02*
X63250000Y-49750000D01*
X63250000Y-49750000D02*
X63250000Y-50500700D01*
X68250000Y-49250000D02*
X63750000Y-49250000D01*
X68750000Y-49750000D02*
X68250000Y-49250000D01*
X68750000Y-50550000D02*
X68750000Y-49750000D01*
X63250000Y-51999300D02*
X63250000Y-54900000D01*
X63250000Y-54900000D02*
X63150000Y-55000000D01*
X68750700Y-58500700D02*
X65321855Y-58500700D01*
X63250000Y-57500000D02*
X64321155Y-57500000D01*
X64321155Y-57500000D02*
X65321855Y-58500700D01*
X63250000Y-58500700D02*
X63250000Y-57500000D01*
X69750000Y-59500000D02*
X68750700Y-58500700D01*
X69750000Y-61550000D02*
X69750000Y-59500000D01*
X63250000Y-59999300D02*
X63250000Y-63650000D01*
X63250000Y-63650000D02*
X63150000Y-63750000D01*
X73250000Y-85999300D02*
X73250000Y-86750000D01*
X73250000Y-86750000D02*
X73500000Y-87000000D01*
X73500000Y-87000000D02*
X74250000Y-87000000D01*
X74250000Y-87000000D02*
X75038662Y-86211338D01*
X75038662Y-86211338D02*
X75038662Y-84961338D01*
X75038662Y-84961338D02*
X75750000Y-84250000D01*
X75750000Y-84250000D02*
X77000000Y-84250000D01*
X77000000Y-84250000D02*
X77250000Y-84500000D01*
X77250000Y-84500000D02*
X77250000Y-85050000D01*
X72250000Y-82750000D02*
X73250000Y-83750000D01*
X73250000Y-83750000D02*
X73250000Y-84500700D01*
X72250000Y-82000000D02*
X72250000Y-82750000D01*
X72500000Y-81750000D02*
X72250000Y-82000000D01*
X73400000Y-81750000D02*
X72500000Y-81750000D01*
X73250000Y-90000700D02*
X79450700Y-90000700D01*
X79450700Y-90000700D02*
X79500000Y-90050000D01*
X73999300Y-91499300D02*
X74600000Y-92100000D01*
X74600000Y-92100000D02*
X74600000Y-94000000D01*
X73250000Y-91499300D02*
X73999300Y-91499300D01*
X74250000Y-49000000D02*
X73750000Y-49500000D01*
X73750000Y-49500000D02*
X73750000Y-50500700D01*
X80500000Y-49000000D02*
X74250000Y-49000000D01*
X81000000Y-49500000D02*
X80500000Y-49000000D01*
X81000000Y-50300000D02*
X81000000Y-49500000D01*
X73750000Y-51999300D02*
X73750000Y-54600000D01*
X73750000Y-54600000D02*
X73900000Y-54750000D01*
X74750000Y-57000000D02*
X74250000Y-57500000D01*
X74250000Y-57500000D02*
X74250000Y-58500700D01*
X78250000Y-57000000D02*
X74750000Y-57000000D01*
X78750000Y-57500000D02*
X78250000Y-57000000D01*
X78750000Y-58050000D02*
X78750000Y-57500000D01*
X74250000Y-59999300D02*
X74250000Y-63350000D01*
X74250000Y-63350000D02*
X74400000Y-63500000D01*
D23*
G36*
X63212599Y-48712599D02*
X62712599Y-49212599D01*
X62547852Y-49459161D01*
X62528969Y-49554093D01*
X62396293Y-49641247D01*
X62253843Y-49852280D01*
X62203780Y-50101920D01*
X62203780Y-50899480D01*
X62250757Y-51141603D01*
X62321951Y-51249982D01*
X62253843Y-51350880D01*
X62203780Y-51600520D01*
X62203780Y-52398080D01*
X62250757Y-52640203D01*
X62390547Y-52853007D01*
X62490000Y-52920139D01*
X62490000Y-53914201D01*
X62307877Y-53949537D01*
X62095073Y-54089327D01*
X61952623Y-54300360D01*
X61902560Y-54550000D01*
X61902560Y-55450000D01*
X61949537Y-55692123D01*
X62089327Y-55904927D01*
X62300360Y-56047377D01*
X62550000Y-56097440D01*
X63750000Y-56097440D01*
X63992123Y-56050463D01*
X64204927Y-55910673D01*
X64248337Y-55846363D01*
X64390302Y-55988327D01*
X64623691Y-56085000D01*
X65064250Y-56085000D01*
X65223000Y-55926250D01*
X65223000Y-55127000D01*
X65477000Y-55127000D01*
X65477000Y-55926250D01*
X65635750Y-56085000D01*
X66076309Y-56085000D01*
X66309698Y-55988327D01*
X66488327Y-55809699D01*
X66585000Y-55576310D01*
X66585000Y-55285750D01*
X66426250Y-55127000D01*
X65477000Y-55127000D01*
X65223000Y-55127000D01*
X65223000Y-55127000D01*
X65203000Y-55127000D01*
X65203000Y-54873000D01*
X65223000Y-54873000D01*
X65223000Y-54073750D01*
X65477000Y-54073750D01*
X65477000Y-54873000D01*
X66426250Y-54873000D01*
X66585000Y-54714250D01*
X66585000Y-54423690D01*
X66488327Y-54190301D01*
X66309698Y-54011673D01*
X66076309Y-53915000D01*
X65635750Y-53915000D01*
X65477000Y-54073750D01*
X65223000Y-54073750D01*
X65223000Y-54073750D01*
X65064250Y-53915000D01*
X64623691Y-53915000D01*
X64390302Y-54011673D01*
X64248824Y-54153150D01*
X64210673Y-54095073D01*
X64010000Y-53959616D01*
X64010000Y-52920309D01*
X64103707Y-52858753D01*
X64246157Y-52647720D01*
X64296220Y-52398080D01*
X64296220Y-51600520D01*
X64249243Y-51358397D01*
X64178049Y-51250018D01*
X64246157Y-51149120D01*
X64296220Y-50899480D01*
X64296220Y-50101920D01*
X64278386Y-50010000D01*
X67760582Y-50010000D01*
X67752560Y-50050000D01*
X67752560Y-51050000D01*
X67799537Y-51292123D01*
X67939327Y-51504927D01*
X68150360Y-51647377D01*
X68400000Y-51697440D01*
X69100000Y-51697440D01*
X69342123Y-51650463D01*
X69554927Y-51510673D01*
X69697377Y-51299640D01*
X69747440Y-51050000D01*
X69747440Y-50050000D01*
X69700463Y-49807877D01*
X69560673Y-49595073D01*
X69466544Y-49531535D01*
X69452148Y-49459161D01*
X69287401Y-49212599D01*
X68787401Y-48712599D01*
X68746096Y-48685000D01*
X73490198Y-48685000D01*
X73212599Y-48962599D01*
X73047852Y-49209161D01*
X72990000Y-49500000D01*
X72990000Y-49579691D01*
X72896293Y-49641247D01*
X72753843Y-49852280D01*
X72703780Y-50101920D01*
X72703780Y-50899480D01*
X72750757Y-51141603D01*
X72821951Y-51249982D01*
X72753843Y-51350880D01*
X72703780Y-51600520D01*
X72703780Y-52398080D01*
X72750757Y-52640203D01*
X72890547Y-52853007D01*
X72990000Y-52920139D01*
X72990000Y-53744125D01*
X72845073Y-53839327D01*
X72702623Y-54050360D01*
X72652560Y-54300000D01*
X72652560Y-55200000D01*
X72699537Y-55442123D01*
X72839327Y-55654927D01*
X73050360Y-55797377D01*
X73300000Y-55847440D01*
X74500000Y-55847440D01*
X74742123Y-55800463D01*
X74954927Y-55660673D01*
X74998337Y-55596363D01*
X75140302Y-55738327D01*
X75373691Y-55835000D01*
X75814250Y-55835000D01*
X75973000Y-55676250D01*
X75973000Y-54877000D01*
X76227000Y-54877000D01*
X76227000Y-55676250D01*
X76385750Y-55835000D01*
X76826309Y-55835000D01*
X77059698Y-55738327D01*
X77238327Y-55559699D01*
X77335000Y-55326310D01*
X77335000Y-55035750D01*
X77176250Y-54877000D01*
X76227000Y-54877000D01*
X75973000Y-54877000D01*
X75973000Y-54877000D01*
X75953000Y-54877000D01*
X75953000Y-54623000D01*
X75973000Y-54623000D01*
X75973000Y-53823750D01*
X76227000Y-53823750D01*
X76227000Y-54623000D01*
X77176250Y-54623000D01*
X77335000Y-54464250D01*
X77335000Y-54173690D01*
X77238327Y-53940301D01*
X77059698Y-53761673D01*
X76826309Y-53665000D01*
X76385750Y-53665000D01*
X76227000Y-53823750D01*
X75973000Y-53823750D01*
X75973000Y-53823750D01*
X75814250Y-53665000D01*
X75373691Y-53665000D01*
X75140302Y-53761673D01*
X74998824Y-53903150D01*
X74960673Y-53845073D01*
X74749640Y-53702623D01*
X74510000Y-53654565D01*
X74510000Y-52920309D01*
X74603707Y-52858753D01*
X74746157Y-52647720D01*
X74796220Y-52398080D01*
X74796220Y-51600520D01*
X74749243Y-51358397D01*
X74678049Y-51250018D01*
X74746157Y-51149120D01*
X74796220Y-50899480D01*
X74796220Y-50101920D01*
X74749243Y-49859797D01*
X74683687Y-49760000D01*
X80010582Y-49760000D01*
X80002560Y-49800000D01*
X80002560Y-50800000D01*
X80049537Y-51042123D01*
X80189327Y-51254927D01*
X80400360Y-51397377D01*
X80650000Y-51447440D01*
X81350000Y-51447440D01*
X81592123Y-51400463D01*
X81804927Y-51260673D01*
X81947377Y-51049640D01*
X81997440Y-50800000D01*
X81997440Y-49800000D01*
X81950463Y-49557877D01*
X81810673Y-49345073D01*
X81716544Y-49281535D01*
X81702148Y-49209161D01*
X81537401Y-48962599D01*
X81259802Y-48685000D01*
X259815000Y-48685000D01*
X259815000Y-97315000D01*
X61185000Y-97315000D01*
X61185000Y-90761930D01*
X61751930Y-90761930D01*
X61809782Y-91052769D01*
X61974529Y-91299331D01*
X62490000Y-91814802D01*
X62490000Y-91829691D01*
X62396293Y-91891247D01*
X62253843Y-92102280D01*
X62203780Y-92351920D01*
X62203780Y-93149480D01*
X62250757Y-93391603D01*
X62321951Y-93499982D01*
X62253843Y-93600880D01*
X62203780Y-93850520D01*
X62203780Y-94648080D01*
X62250757Y-94890203D01*
X62390547Y-95103007D01*
X62490000Y-95170139D01*
X62490000Y-95250000D01*
X62547852Y-95540839D01*
X62712599Y-95787401D01*
X62962599Y-96037401D01*
X63209160Y-96202148D01*
X63500000Y-96260000D01*
X65000000Y-96260000D01*
X65290839Y-96202148D01*
X65537401Y-96037401D01*
X65787401Y-95787401D01*
X65952148Y-95540840D01*
X66010000Y-95250000D01*
X66010000Y-95020133D01*
X66050360Y-95047377D01*
X66300000Y-95097440D01*
X67500000Y-95097440D01*
X67742123Y-95050463D01*
X67954927Y-94910673D01*
X67998337Y-94846363D01*
X68140302Y-94988327D01*
X68373691Y-95085000D01*
X68814250Y-95085000D01*
X68973000Y-94926250D01*
X68973000Y-94127000D01*
X69227000Y-94127000D01*
X69227000Y-94926250D01*
X69385750Y-95085000D01*
X69826309Y-95085000D01*
X70059698Y-94988327D01*
X70238327Y-94809699D01*
X70335000Y-94576310D01*
X70335000Y-94285750D01*
X71165000Y-94285750D01*
X71165000Y-94576310D01*
X71261673Y-94809699D01*
X71440302Y-94988327D01*
X71673691Y-95085000D01*
X72114250Y-95085000D01*
X72273000Y-94926250D01*
X72273000Y-94127000D01*
X71323750Y-94127000D01*
X71165000Y-94285750D01*
X70335000Y-94285750D01*
X70335000Y-94285750D01*
X70176250Y-94127000D01*
X69227000Y-94127000D01*
X68973000Y-94127000D01*
X68973000Y-94127000D01*
X68953000Y-94127000D01*
X68953000Y-93873000D01*
X68973000Y-93873000D01*
X68973000Y-93073750D01*
X69227000Y-93073750D01*
X69227000Y-93873000D01*
X70176250Y-93873000D01*
X70335000Y-93714250D01*
X70335000Y-93423690D01*
X71165000Y-93423690D01*
X71165000Y-93714250D01*
X71323750Y-93873000D01*
X72273000Y-93873000D01*
X72273000Y-93073750D01*
X72114250Y-92915000D01*
X71673691Y-92915000D01*
X71440302Y-93011673D01*
X71261673Y-93190301D01*
X71165000Y-93423690D01*
X70335000Y-93423690D01*
X70335000Y-93423690D01*
X70238327Y-93190301D01*
X70059698Y-93011673D01*
X69826309Y-92915000D01*
X69385750Y-92915000D01*
X69227000Y-93073750D01*
X68973000Y-93073750D01*
X68973000Y-93073750D01*
X68814250Y-92915000D01*
X68373691Y-92915000D01*
X68140302Y-93011673D01*
X67998824Y-93153150D01*
X67960673Y-93095073D01*
X67749640Y-92952623D01*
X67500000Y-92902560D01*
X66300000Y-92902560D01*
X66057877Y-92949537D01*
X65845073Y-93089327D01*
X65742338Y-93241524D01*
X65459161Y-93297852D01*
X65212599Y-93462599D01*
X64712599Y-93962599D01*
X64547852Y-94209161D01*
X64490000Y-94500000D01*
X64490000Y-94740000D01*
X64277786Y-94740000D01*
X64296220Y-94648080D01*
X64296220Y-93850520D01*
X64249243Y-93608397D01*
X64178049Y-93500018D01*
X64246157Y-93399120D01*
X64296220Y-93149480D01*
X64296220Y-92351920D01*
X64249243Y-92109797D01*
X64109453Y-91896993D01*
X64010000Y-91829861D01*
X64010000Y-91500000D01*
X63952148Y-91209161D01*
X63787401Y-90962599D01*
X63572242Y-90747440D01*
X64300000Y-90747440D01*
X64542123Y-90700463D01*
X64754927Y-90560673D01*
X64897377Y-90349640D01*
X64947440Y-90100000D01*
X64947440Y-89400000D01*
X64900463Y-89157877D01*
X64760673Y-88945073D01*
X64549640Y-88802623D01*
X64337100Y-88760000D01*
X65052560Y-88760000D01*
X65052560Y-89150000D01*
X65099537Y-89392123D01*
X65239327Y-89604927D01*
X65450360Y-89747377D01*
X65459531Y-89749216D01*
X65457877Y-89749537D01*
X65245073Y-89889327D01*
X65102623Y-90100360D01*
X65052560Y-90350000D01*
X65052560Y-91050000D01*
X65099537Y-91292123D01*
X65239327Y-91504927D01*
X65450360Y-91647377D01*
X65700000Y-91697440D01*
X66700000Y-91697440D01*
X66942123Y-91650463D01*
X67154927Y-91510673D01*
X67189132Y-91460000D01*
X67387624Y-91460000D01*
X67469673Y-91542192D01*
X67813201Y-91684838D01*
X68185167Y-91685162D01*
X68528943Y-91543117D01*
X68792192Y-91280327D01*
X68934838Y-90936799D01*
X68935162Y-90564833D01*
X68793117Y-90221057D01*
X68530327Y-89957808D01*
X68186799Y-89815162D01*
X67814833Y-89814838D01*
X67511917Y-89940000D01*
X67190185Y-89940000D01*
X67160673Y-89895073D01*
X66949640Y-89752623D01*
X66940469Y-89750784D01*
X66942123Y-89750463D01*
X67154927Y-89610673D01*
X67189132Y-89560000D01*
X67262559Y-89560000D01*
X67563201Y-89684838D01*
X67935167Y-89685162D01*
X68278943Y-89543117D01*
X68542192Y-89280327D01*
X68684838Y-88936799D01*
X68685162Y-88564833D01*
X68543117Y-88221057D01*
X68280327Y-87957808D01*
X67936799Y-87815162D01*
X67564833Y-87814838D01*
X67221057Y-87956883D01*
X67169436Y-88008414D01*
X67160673Y-87995073D01*
X66949640Y-87852623D01*
X66700000Y-87802560D01*
X66277362Y-87802560D01*
X65937401Y-87462599D01*
X65690839Y-87297852D01*
X65400000Y-87240000D01*
X64296220Y-87240000D01*
X64296220Y-86600520D01*
X64249243Y-86358397D01*
X64178049Y-86250018D01*
X64246157Y-86149120D01*
X64296220Y-85899480D01*
X64296220Y-85121022D01*
X64712599Y-85537401D01*
X64959160Y-85702148D01*
X65250000Y-85760000D01*
X67194125Y-85760000D01*
X67289327Y-85904927D01*
X67500360Y-86047377D01*
X67750000Y-86097440D01*
X68250000Y-86097440D01*
X68492123Y-86050463D01*
X68704927Y-85910673D01*
X68748337Y-85846363D01*
X68890302Y-85988327D01*
X69123691Y-86085000D01*
X69216250Y-86085000D01*
X69375000Y-85926250D01*
X69375000Y-85127000D01*
X69625000Y-85127000D01*
X69625000Y-85926250D01*
X69783750Y-86085000D01*
X69876309Y-86085000D01*
X70109698Y-85988327D01*
X70288327Y-85809699D01*
X70385000Y-85576310D01*
X70385000Y-85285750D01*
X70226250Y-85127000D01*
X69625000Y-85127000D01*
X69375000Y-85127000D01*
X69375000Y-85127000D01*
X69353000Y-85127000D01*
X69353000Y-84873000D01*
X69375000Y-84873000D01*
X69375000Y-84073750D01*
X69625000Y-84073750D01*
X69625000Y-84873000D01*
X70226250Y-84873000D01*
X70385000Y-84714250D01*
X70385000Y-84423690D01*
X70288327Y-84190301D01*
X70109698Y-84011673D01*
X69876309Y-83915000D01*
X69783750Y-83915000D01*
X69625000Y-84073750D01*
X69375000Y-84073750D01*
X69375000Y-84073750D01*
X69216250Y-83915000D01*
X69123691Y-83915000D01*
X68890302Y-84011673D01*
X68748824Y-84153150D01*
X68710673Y-84095073D01*
X68499640Y-83952623D01*
X68250000Y-83902560D01*
X67750000Y-83902560D01*
X67507877Y-83949537D01*
X67295073Y-84089327D01*
X67193367Y-84240000D01*
X65564802Y-84240000D01*
X65037401Y-83712599D01*
X64790839Y-83547852D01*
X64500000Y-83490000D01*
X63750000Y-83490000D01*
X63459161Y-83547852D01*
X63212599Y-83712599D01*
X62712599Y-84212599D01*
X62547852Y-84459161D01*
X62528969Y-84554093D01*
X62396293Y-84641247D01*
X62253843Y-84852280D01*
X62203780Y-85101920D01*
X62203780Y-85899480D01*
X62250757Y-86141603D01*
X62321951Y-86249982D01*
X62253843Y-86350880D01*
X62203780Y-86600520D01*
X62203780Y-87398080D01*
X62250757Y-87640203D01*
X62390547Y-87853007D01*
X62490000Y-87920139D01*
X62490000Y-88000000D01*
X62547852Y-88290839D01*
X62712599Y-88537401D01*
X62959161Y-88702148D01*
X63250000Y-88760000D01*
X63261654Y-88760000D01*
X63057877Y-88799537D01*
X62845073Y-88939327D01*
X62781535Y-89033456D01*
X62761701Y-89037401D01*
X62709160Y-89047852D01*
X62462599Y-89212599D01*
X62002357Y-89672841D01*
X61837610Y-89919403D01*
X61779758Y-90210242D01*
X61779758Y-90622030D01*
X61751930Y-90761930D01*
X61185000Y-90761930D01*
X61185000Y-82685167D01*
X69314838Y-82685167D01*
X69456883Y-83028943D01*
X69719673Y-83292192D01*
X70063201Y-83434838D01*
X70110077Y-83434879D01*
X70740000Y-84064802D01*
X70740000Y-87150000D01*
X70797852Y-87440839D01*
X70962599Y-87687401D01*
X72062599Y-88787401D01*
X72309161Y-88952148D01*
X72597000Y-89009403D01*
X72396293Y-89141247D01*
X72253843Y-89352280D01*
X72203780Y-89601920D01*
X72203780Y-90399480D01*
X72250757Y-90641603D01*
X72321951Y-90749982D01*
X72253843Y-90850880D01*
X72203780Y-91100520D01*
X72203780Y-91898080D01*
X72250757Y-92140203D01*
X72390547Y-92353007D01*
X72601580Y-92495457D01*
X72851220Y-92545520D01*
X73648780Y-92545520D01*
X73840000Y-92508419D01*
X73840000Y-92933603D01*
X73757877Y-92949537D01*
X73545073Y-93089327D01*
X73501663Y-93153637D01*
X73359698Y-93011673D01*
X73126309Y-92915000D01*
X72685750Y-92915000D01*
X72527000Y-93073750D01*
X72527000Y-93873000D01*
X72547000Y-93873000D01*
X72547000Y-94127000D01*
X72527000Y-94127000D01*
X72527000Y-94926250D01*
X72685750Y-95085000D01*
X73126309Y-95085000D01*
X73359698Y-94988327D01*
X73501176Y-94846850D01*
X73539327Y-94904927D01*
X73750360Y-95047377D01*
X74000000Y-95097440D01*
X75200000Y-95097440D01*
X75442123Y-95050463D01*
X75654927Y-94910673D01*
X75797377Y-94699640D01*
X75847440Y-94450000D01*
X75847440Y-93550000D01*
X75800463Y-93307877D01*
X75660673Y-93095073D01*
X75449640Y-92952623D01*
X75360000Y-92934647D01*
X75360000Y-92100000D01*
X75302148Y-91809161D01*
X75137401Y-91562599D01*
X74536701Y-90961899D01*
X74290139Y-90797152D01*
X74196818Y-90778589D01*
X74185066Y-90760700D01*
X78543440Y-90760700D01*
X78549537Y-90792123D01*
X78689327Y-91004927D01*
X78900360Y-91147377D01*
X79150000Y-91197440D01*
X79850000Y-91197440D01*
X80092123Y-91150463D01*
X80304927Y-91010673D01*
X80447377Y-90799640D01*
X80497440Y-90550000D01*
X80497440Y-89550000D01*
X80450463Y-89307877D01*
X80310673Y-89095073D01*
X80099640Y-88952623D01*
X79850000Y-88902560D01*
X79150000Y-88902560D01*
X78907877Y-88949537D01*
X78695073Y-89089327D01*
X78592894Y-89240700D01*
X74171009Y-89240700D01*
X74109453Y-89146993D01*
X73906504Y-89010000D01*
X74750000Y-89010000D01*
X75040839Y-88952148D01*
X75287401Y-88787401D01*
X75597116Y-88477686D01*
X75700360Y-88547377D01*
X75950000Y-88597440D01*
X76650000Y-88597440D01*
X76892123Y-88550463D01*
X77104927Y-88410673D01*
X77247377Y-88199640D01*
X77249216Y-88190469D01*
X77249537Y-88192123D01*
X77389327Y-88404927D01*
X77600360Y-88547377D01*
X77850000Y-88597440D01*
X78550000Y-88597440D01*
X78792123Y-88550463D01*
X79004927Y-88410673D01*
X79004944Y-88410648D01*
X79063201Y-88434838D01*
X79435167Y-88435162D01*
X79778943Y-88293117D01*
X80042192Y-88030327D01*
X80184838Y-87686799D01*
X80185162Y-87314833D01*
X80043117Y-86971057D01*
X79780327Y-86707808D01*
X79436799Y-86565162D01*
X79064833Y-86564838D01*
X79058280Y-86567546D01*
X79010673Y-86495073D01*
X78799640Y-86352623D01*
X78550000Y-86302560D01*
X77850000Y-86302560D01*
X77607877Y-86349537D01*
X77395073Y-86489327D01*
X77252623Y-86700360D01*
X77250784Y-86709531D01*
X77250463Y-86707877D01*
X77110673Y-86495073D01*
X76899640Y-86352623D01*
X76650000Y-86302560D01*
X75950000Y-86302560D01*
X75773713Y-86336763D01*
X75798662Y-86211338D01*
X75798662Y-85276140D01*
X76064802Y-85010000D01*
X76252560Y-85010000D01*
X76252560Y-85550000D01*
X76299537Y-85792123D01*
X76439327Y-86004927D01*
X76650360Y-86147377D01*
X76900000Y-86197440D01*
X77600000Y-86197440D01*
X77842123Y-86150463D01*
X78054927Y-86010673D01*
X78197377Y-85799640D01*
X78247440Y-85550000D01*
X78247440Y-84550000D01*
X78200463Y-84307877D01*
X78060673Y-84095073D01*
X77849640Y-83952623D01*
X77759310Y-83934508D01*
X77537401Y-83712599D01*
X77290839Y-83547852D01*
X77000000Y-83490000D01*
X75750000Y-83490000D01*
X75459161Y-83547852D01*
X75212599Y-83712599D01*
X74501261Y-84423937D01*
X74336514Y-84670499D01*
X74296220Y-84873069D01*
X74296220Y-84101920D01*
X74249243Y-83859797D01*
X74109453Y-83646993D01*
X73970908Y-83553473D01*
X73952148Y-83459161D01*
X73787401Y-83212599D01*
X73422242Y-82847440D01*
X74000000Y-82847440D01*
X74242123Y-82800463D01*
X74454927Y-82660673D01*
X74498337Y-82596363D01*
X74640302Y-82738327D01*
X74873691Y-82835000D01*
X75314250Y-82835000D01*
X75473000Y-82676250D01*
X75473000Y-81877000D01*
X75727000Y-81877000D01*
X75727000Y-82676250D01*
X75885750Y-82835000D01*
X76326309Y-82835000D01*
X76559698Y-82738327D01*
X76738327Y-82559699D01*
X76835000Y-82326310D01*
X76835000Y-82035750D01*
X76676250Y-81877000D01*
X75727000Y-81877000D01*
X75473000Y-81877000D01*
X75473000Y-81877000D01*
X75453000Y-81877000D01*
X75453000Y-81623000D01*
X75473000Y-81623000D01*
X75473000Y-80823750D01*
X75727000Y-80823750D01*
X75727000Y-81623000D01*
X76676250Y-81623000D01*
X76835000Y-81464250D01*
X76835000Y-81173690D01*
X76738327Y-80940301D01*
X76559698Y-80761673D01*
X76326309Y-80665000D01*
X75885750Y-80665000D01*
X75727000Y-80823750D01*
X75473000Y-80823750D01*
X75473000Y-80823750D01*
X75314250Y-80665000D01*
X74873691Y-80665000D01*
X74640302Y-80761673D01*
X74498824Y-80903150D01*
X74460673Y-80845073D01*
X74249640Y-80702623D01*
X74000000Y-80652560D01*
X72800000Y-80652560D01*
X72557877Y-80699537D01*
X72345073Y-80839327D01*
X72202623Y-81050360D01*
X72202192Y-81052508D01*
X71962599Y-81212599D01*
X71712599Y-81462599D01*
X71547852Y-81709161D01*
X71490000Y-82000000D01*
X71490000Y-82665198D01*
X71185122Y-82360320D01*
X71185162Y-82314833D01*
X71043117Y-81971057D01*
X70780327Y-81707808D01*
X70436799Y-81565162D01*
X70064833Y-81564838D01*
X69721057Y-81706883D01*
X69457808Y-81969673D01*
X69315162Y-82313201D01*
X69314838Y-82685167D01*
X61185000Y-82685167D01*
X61185000Y-77035750D01*
X76240000Y-77035750D01*
X76240000Y-77276309D01*
X76336673Y-77509698D01*
X76515301Y-77688327D01*
X76748690Y-77785000D01*
X76964250Y-77785000D01*
X77123000Y-77626250D01*
X77123000Y-76877000D01*
X77377000Y-76877000D01*
X77377000Y-77626250D01*
X77535750Y-77785000D01*
X77751310Y-77785000D01*
X77984699Y-77688327D01*
X78163327Y-77509698D01*
X78260000Y-77276309D01*
X78260000Y-77035750D01*
X78101250Y-76877000D01*
X77377000Y-76877000D01*
X77123000Y-76877000D01*
X77123000Y-76877000D01*
X76398750Y-76877000D01*
X76240000Y-77035750D01*
X61185000Y-77035750D01*
X61185000Y-63300000D01*
X61902560Y-63300000D01*
X61902560Y-64200000D01*
X61949537Y-64442123D01*
X62089327Y-64654927D01*
X62300360Y-64797377D01*
X62550000Y-64847440D01*
X63750000Y-64847440D01*
X63992123Y-64800463D01*
X64204927Y-64660673D01*
X64248337Y-64596363D01*
X64390302Y-64738327D01*
X64623691Y-64835000D01*
X65064250Y-64835000D01*
X65223000Y-64676250D01*
X65223000Y-63877000D01*
X65477000Y-63877000D01*
X65477000Y-64676250D01*
X65635750Y-64835000D01*
X66076309Y-64835000D01*
X66309698Y-64738327D01*
X66488327Y-64559699D01*
X66585000Y-64326310D01*
X66585000Y-64035750D01*
X66426250Y-63877000D01*
X65477000Y-63877000D01*
X65223000Y-63877000D01*
X65223000Y-63877000D01*
X65203000Y-63877000D01*
X65203000Y-63623000D01*
X65223000Y-63623000D01*
X65223000Y-62823750D01*
X65477000Y-62823750D01*
X65477000Y-63623000D01*
X66426250Y-63623000D01*
X66585000Y-63464250D01*
X66585000Y-63173690D01*
X66488327Y-62940301D01*
X66309698Y-62761673D01*
X66076309Y-62665000D01*
X65635750Y-62665000D01*
X65477000Y-62823750D01*
X65223000Y-62823750D01*
X65223000Y-62823750D01*
X65064250Y-62665000D01*
X64623691Y-62665000D01*
X64390302Y-62761673D01*
X64248824Y-62903150D01*
X64210673Y-62845073D01*
X64010000Y-62709616D01*
X64010000Y-60920309D01*
X64103707Y-60858753D01*
X64246157Y-60647720D01*
X64296220Y-60398080D01*
X64296220Y-59600520D01*
X64249243Y-59358397D01*
X64178049Y-59250018D01*
X64246157Y-59149120D01*
X64296220Y-58899480D01*
X64296220Y-58549867D01*
X64784454Y-59038101D01*
X65031016Y-59202848D01*
X65321855Y-59260700D01*
X68435898Y-59260700D01*
X68990000Y-59814802D01*
X68990000Y-60559815D01*
X68945073Y-60589327D01*
X68802623Y-60800360D01*
X68752560Y-61050000D01*
X68752560Y-62050000D01*
X68799537Y-62292123D01*
X68939327Y-62504927D01*
X69150360Y-62647377D01*
X69400000Y-62697440D01*
X69940000Y-62697440D01*
X69940000Y-62959815D01*
X69895073Y-62989327D01*
X69752623Y-63200360D01*
X69750784Y-63209531D01*
X69750463Y-63207877D01*
X69610673Y-62995073D01*
X69399640Y-62852623D01*
X69150000Y-62802560D01*
X68450000Y-62802560D01*
X68207877Y-62849537D01*
X67995073Y-62989327D01*
X67852623Y-63200360D01*
X67802560Y-63450000D01*
X67802560Y-64450000D01*
X67849537Y-64692123D01*
X67989327Y-64904927D01*
X68040000Y-64939132D01*
X68040000Y-66300000D01*
X68097852Y-66590839D01*
X68262599Y-66837401D01*
X71615991Y-70190793D01*
X71565162Y-70313201D01*
X71564838Y-70685167D01*
X71706883Y-71028943D01*
X71969673Y-71292192D01*
X72313201Y-71434838D01*
X72685167Y-71435162D01*
X73028943Y-71293117D01*
X73292192Y-71030327D01*
X73434838Y-70686799D01*
X73435162Y-70314833D01*
X73293117Y-69971057D01*
X73244569Y-69922424D01*
X73218980Y-69793782D01*
X76490000Y-73064802D01*
X76490000Y-74343392D01*
X76420073Y-74389327D01*
X76277623Y-74600360D01*
X76227560Y-74850000D01*
X76227560Y-75650000D01*
X76274537Y-75892123D01*
X76338096Y-75988879D01*
X76336673Y-75990302D01*
X76240000Y-76223691D01*
X76240000Y-76464250D01*
X76398750Y-76623000D01*
X77123000Y-76623000D01*
X77123000Y-76603000D01*
X77377000Y-76603000D01*
X77377000Y-76623000D01*
X78101250Y-76623000D01*
X78260000Y-76464250D01*
X78260000Y-76223691D01*
X78163327Y-75990302D01*
X78162045Y-75989020D01*
X78222377Y-75899640D01*
X78272440Y-75650000D01*
X78272440Y-74850000D01*
X78254978Y-74760000D01*
X80261354Y-74760000D01*
X80282757Y-74811800D01*
X80452512Y-74981852D01*
X80377378Y-75056986D01*
X80492253Y-75171861D01*
X80246136Y-75245995D01*
X80053035Y-75783223D01*
X80080222Y-76353454D01*
X80246136Y-76754005D01*
X80492255Y-76828139D01*
X81320395Y-76000000D01*
X81306252Y-75985858D01*
X81485858Y-75806253D01*
X81500000Y-75820395D01*
X81514142Y-75806252D01*
X81693748Y-75985858D01*
X81679605Y-76000000D01*
X81693748Y-76014142D01*
X81514142Y-76193748D01*
X81500000Y-76179605D01*
X80671861Y-77007745D01*
X80745995Y-77253864D01*
X81283223Y-77446965D01*
X81853454Y-77419778D01*
X82254005Y-77253864D01*
X82328139Y-77007747D01*
X82443014Y-77122622D01*
X82490000Y-77075636D01*
X82490000Y-85750000D01*
X82547852Y-86040839D01*
X82564941Y-86066415D01*
X82564838Y-86185167D01*
X82706883Y-86528943D01*
X82740000Y-86562118D01*
X82740000Y-87937537D01*
X82707808Y-87969673D01*
X82565162Y-88313201D01*
X82564838Y-88685167D01*
X82706883Y-89028943D01*
X82740000Y-89062118D01*
X82740000Y-91585198D01*
X82635198Y-91690000D01*
X81388720Y-91690000D01*
X81260673Y-91495073D01*
X81049640Y-91352623D01*
X80800000Y-91302560D01*
X80100000Y-91302560D01*
X79857877Y-91349537D01*
X79645073Y-91489327D01*
X79502623Y-91700360D01*
X79500784Y-91709531D01*
X79500463Y-91707877D01*
X79360673Y-91495073D01*
X79149640Y-91352623D01*
X78900000Y-91302560D01*
X78200000Y-91302560D01*
X77957877Y-91349537D01*
X77745073Y-91489327D01*
X77602623Y-91700360D01*
X77552560Y-91950000D01*
X77552560Y-92950000D01*
X77599537Y-93192123D01*
X77739327Y-93404927D01*
X77790000Y-93439132D01*
X77790000Y-93800000D01*
X77847852Y-94090839D01*
X78012599Y-94337401D01*
X78962599Y-95287401D01*
X79209161Y-95452148D01*
X79500000Y-95510000D01*
X85500000Y-95510000D01*
X85790839Y-95452148D01*
X86037401Y-95287401D01*
X86974861Y-94349941D01*
X87139608Y-94103379D01*
X87197460Y-93812540D01*
X87197460Y-92528172D01*
X99582538Y-92528172D01*
X99987709Y-93508761D01*
X100737293Y-94259655D01*
X101717173Y-94666536D01*
X102778172Y-94667462D01*
X103758761Y-94262291D01*
X104509655Y-93512707D01*
X104916536Y-92532827D01*
X104917462Y-91471828D01*
X104512291Y-90491239D01*
X103762707Y-89740345D01*
X102782827Y-89333464D01*
X101721828Y-89332538D01*
X100741239Y-89737709D01*
X99990345Y-90487293D01*
X99583464Y-91467173D01*
X99582538Y-92528172D01*
X87197460Y-92528172D01*
X87197460Y-86185167D01*
X93814838Y-86185167D01*
X93956883Y-86528943D01*
X94219673Y-86792192D01*
X94563201Y-86934838D01*
X94610077Y-86934879D01*
X94962599Y-87287401D01*
X95209160Y-87452148D01*
X95500000Y-87510000D01*
X105685198Y-87510000D01*
X107462599Y-89287401D01*
X107709161Y-89452148D01*
X107922061Y-89494497D01*
X107969673Y-89542192D01*
X108313201Y-89684838D01*
X108685167Y-89685162D01*
X109028943Y-89543117D01*
X109062118Y-89510000D01*
X110325844Y-89510000D01*
X110514298Y-89698783D01*
X110857826Y-89841429D01*
X110904702Y-89841470D01*
X111035159Y-89971927D01*
X111281720Y-90136674D01*
X111572560Y-90194526D01*
X126519724Y-90194526D01*
X130862599Y-94537401D01*
X131109160Y-94702148D01*
X131400000Y-94760000D01*
X136187537Y-94760000D01*
X136219673Y-94792192D01*
X136563201Y-94934838D01*
X136935167Y-94935162D01*
X137278943Y-94793117D01*
X137312118Y-94760000D01*
X137468656Y-94760000D01*
X139496057Y-96787401D01*
X139742619Y-96952148D01*
X140033458Y-97010000D01*
X154500000Y-97010000D01*
X154790839Y-96952148D01*
X155037401Y-96787401D01*
X155202148Y-96540839D01*
X155260000Y-96250000D01*
X155260000Y-95510000D01*
X157437537Y-95510000D01*
X157469673Y-95542192D01*
X157813201Y-95684838D01*
X158185167Y-95685162D01*
X158528943Y-95543117D01*
X158562118Y-95510000D01*
X165937537Y-95510000D01*
X165969673Y-95542192D01*
X166313201Y-95684838D01*
X166685167Y-95685162D01*
X167028943Y-95543117D01*
X167062118Y-95510000D01*
X174687537Y-95510000D01*
X174719673Y-95542192D01*
X175063201Y-95684838D01*
X175183410Y-95684943D01*
X175209160Y-95702148D01*
X175500000Y-95760000D01*
X221033093Y-95760000D01*
X221065229Y-95792192D01*
X221408757Y-95934838D01*
X221780723Y-95935162D01*
X222124499Y-95793117D01*
X222157674Y-95760000D01*
X225687537Y-95760000D01*
X225719673Y-95792192D01*
X226063201Y-95934838D01*
X226110077Y-95934879D01*
X226962599Y-96787401D01*
X227209161Y-96952148D01*
X227500000Y-97010000D01*
X237250000Y-97010000D01*
X237540839Y-96952148D01*
X237787401Y-96787401D01*
X238389680Y-96185122D01*
X238435167Y-96185162D01*
X238778943Y-96043117D01*
X239042192Y-95780327D01*
X239184838Y-95436799D01*
X239185162Y-95064833D01*
X239043117Y-94721057D01*
X238780327Y-94457808D01*
X238436799Y-94315162D01*
X238064833Y-94314838D01*
X237721057Y-94456883D01*
X237457808Y-94719673D01*
X237315162Y-95063201D01*
X237315121Y-95110077D01*
X236935198Y-95490000D01*
X227814802Y-95490000D01*
X227185122Y-94860320D01*
X227185162Y-94814833D01*
X227043117Y-94471057D01*
X226780327Y-94207808D01*
X226436799Y-94065162D01*
X226064833Y-94064838D01*
X225721057Y-94206883D01*
X225687882Y-94240000D01*
X222158019Y-94240000D01*
X222125883Y-94207808D01*
X221782355Y-94065162D01*
X221410389Y-94064838D01*
X221066613Y-94206883D01*
X221033438Y-94240000D01*
X182713085Y-94240000D01*
X182713085Y-93953085D01*
X182655233Y-93662246D01*
X182490486Y-93415684D01*
X182287401Y-93212599D01*
X182040839Y-93047852D01*
X181941902Y-93028172D01*
X229582538Y-93028172D01*
X229987709Y-94008761D01*
X230737293Y-94759655D01*
X231717173Y-95166536D01*
X232778172Y-95167462D01*
X233758761Y-94762291D01*
X234509655Y-94012707D01*
X234916536Y-93032827D01*
X234917462Y-91971828D01*
X234512291Y-90991239D01*
X233762707Y-90240345D01*
X232782827Y-89833464D01*
X231721828Y-89832538D01*
X230741239Y-90237709D01*
X229990345Y-90987293D01*
X229583464Y-91967173D01*
X229582538Y-93028172D01*
X181941902Y-93028172D01*
X181750000Y-92990000D01*
X180406608Y-92990000D01*
X180360673Y-92920073D01*
X180149640Y-92777623D01*
X179900000Y-92727560D01*
X179100000Y-92727560D01*
X178857877Y-92774537D01*
X178761121Y-92838096D01*
X178759698Y-92836673D01*
X178526309Y-92740000D01*
X178285750Y-92740000D01*
X178127000Y-92898750D01*
X178127000Y-93623000D01*
X178147000Y-93623000D01*
X178147000Y-93877000D01*
X178127000Y-93877000D01*
X178127000Y-93897000D01*
X177873000Y-93897000D01*
X177873000Y-93877000D01*
X177123750Y-93877000D01*
X176965000Y-94035750D01*
X176965000Y-94240000D01*
X176050944Y-94240000D01*
X176043117Y-94221057D01*
X175780327Y-93957808D01*
X175436799Y-93815162D01*
X175064833Y-93814838D01*
X174721057Y-93956883D01*
X174687882Y-93990000D01*
X167062463Y-93990000D01*
X167030327Y-93957808D01*
X166686799Y-93815162D01*
X166314833Y-93814838D01*
X165971057Y-93956883D01*
X165937882Y-93990000D01*
X158562463Y-93990000D01*
X158530327Y-93957808D01*
X158186799Y-93815162D01*
X157814833Y-93814838D01*
X157471057Y-93956883D01*
X157437882Y-93990000D01*
X155404242Y-93990000D01*
X155293117Y-93721057D01*
X155030327Y-93457808D01*
X154686799Y-93315162D01*
X154314833Y-93314838D01*
X153971057Y-93456883D01*
X153707808Y-93719673D01*
X153565162Y-94063201D01*
X153564838Y-94435167D01*
X153706883Y-94778943D01*
X153740000Y-94812118D01*
X153740000Y-95490000D01*
X140348260Y-95490000D01*
X138320859Y-93462599D01*
X138074297Y-93297852D01*
X137783458Y-93240000D01*
X137312463Y-93240000D01*
X137280327Y-93207808D01*
X136936799Y-93065162D01*
X136564833Y-93064838D01*
X136221057Y-93206883D01*
X136187882Y-93240000D01*
X131714802Y-93240000D01*
X127371927Y-88897125D01*
X127125365Y-88732378D01*
X126834526Y-88674526D01*
X117767522Y-88674526D01*
X117772440Y-88650000D01*
X117772440Y-87850000D01*
X117725463Y-87607877D01*
X117661904Y-87511121D01*
X117663327Y-87509698D01*
X117760000Y-87276309D01*
X117760000Y-87035750D01*
X117601250Y-86877000D01*
X116877000Y-86877000D01*
X116877000Y-86897000D01*
X116623000Y-86897000D01*
X116623000Y-86877000D01*
X115898750Y-86877000D01*
X115740000Y-87035750D01*
X115740000Y-87276309D01*
X115836673Y-87509698D01*
X115837955Y-87510980D01*
X115777623Y-87600360D01*
X115727560Y-87850000D01*
X115727560Y-88650000D01*
X115732319Y-88674526D01*
X111960409Y-88674526D01*
X111837742Y-88377648D01*
X111574952Y-88114399D01*
X111231424Y-87971753D01*
X110859458Y-87971429D01*
X110814513Y-87990000D01*
X109062463Y-87990000D01*
X109030327Y-87957808D01*
X108686799Y-87815162D01*
X108314833Y-87814838D01*
X108190863Y-87866061D01*
X106548493Y-86223691D01*
X115740000Y-86223691D01*
X115740000Y-86464250D01*
X115898750Y-86623000D01*
X116623000Y-86623000D01*
X116623000Y-85873750D01*
X116877000Y-85873750D01*
X116877000Y-86623000D01*
X117601250Y-86623000D01*
X117760000Y-86464250D01*
X117760000Y-86223691D01*
X117663327Y-85990302D01*
X117484699Y-85811673D01*
X117251310Y-85715000D01*
X117035750Y-85715000D01*
X116877000Y-85873750D01*
X116623000Y-85873750D01*
X116623000Y-85873750D01*
X116464250Y-85715000D01*
X116248690Y-85715000D01*
X116015301Y-85811673D01*
X115836673Y-85990302D01*
X115740000Y-86223691D01*
X106548493Y-86223691D01*
X106537401Y-86212599D01*
X106290839Y-86047852D01*
X106000000Y-85990000D01*
X95814802Y-85990000D01*
X95685122Y-85860320D01*
X95685162Y-85814833D01*
X95543117Y-85471057D01*
X95280327Y-85207808D01*
X94936799Y-85065162D01*
X94564833Y-85064838D01*
X94221057Y-85206883D01*
X93957808Y-85469673D01*
X93815162Y-85813201D01*
X93814838Y-86185167D01*
X87197460Y-86185167D01*
X87197460Y-81685167D01*
X90314838Y-81685167D01*
X90456883Y-82028943D01*
X90719673Y-82292192D01*
X91063201Y-82434838D01*
X91435167Y-82435162D01*
X91778943Y-82293117D01*
X91812118Y-82260000D01*
X98685198Y-82260000D01*
X101712599Y-85287401D01*
X101959161Y-85452148D01*
X102250000Y-85510000D01*
X105687537Y-85510000D01*
X105719673Y-85542192D01*
X106063201Y-85684838D01*
X106435167Y-85685162D01*
X106778943Y-85543117D01*
X106812118Y-85510000D01*
X124935198Y-85510000D01*
X131962599Y-92537401D01*
X132209160Y-92702148D01*
X132500000Y-92760000D01*
X135937537Y-92760000D01*
X135969673Y-92792192D01*
X136313201Y-92934838D01*
X136685167Y-92935162D01*
X137028943Y-92793117D01*
X137062118Y-92760000D01*
X137250000Y-92760000D01*
X137540839Y-92702148D01*
X137787401Y-92537401D01*
X137796630Y-92528172D01*
X145332538Y-92528172D01*
X145737709Y-93508761D01*
X146487293Y-94259655D01*
X147467173Y-94666536D01*
X148528172Y-94667462D01*
X149508761Y-94262291D01*
X150259655Y-93512707D01*
X150369284Y-93248690D01*
X176965000Y-93248690D01*
X176965000Y-93464250D01*
X177123750Y-93623000D01*
X177873000Y-93623000D01*
X177873000Y-92898750D01*
X177714250Y-92740000D01*
X177473691Y-92740000D01*
X177240302Y-92836673D01*
X177061673Y-93015301D01*
X176965000Y-93248690D01*
X150369284Y-93248690D01*
X150666536Y-92532827D01*
X150667462Y-91471828D01*
X150262291Y-90491239D01*
X149512707Y-89740345D01*
X148532827Y-89333464D01*
X147471828Y-89332538D01*
X146491239Y-89737709D01*
X145740345Y-90487293D01*
X145333464Y-91467173D01*
X145332538Y-92528172D01*
X137796630Y-92528172D01*
X142314802Y-88010000D01*
X149185198Y-88010000D01*
X150712599Y-89537401D01*
X150959161Y-89702148D01*
X151250000Y-89760000D01*
X152437537Y-89760000D01*
X152469673Y-89792192D01*
X152813201Y-89934838D01*
X153185167Y-89935162D01*
X153528943Y-89793117D01*
X153562118Y-89760000D01*
X162685198Y-89760000D01*
X165212599Y-92287401D01*
X165459160Y-92452148D01*
X165672061Y-92494497D01*
X165719673Y-92542192D01*
X166063201Y-92684838D01*
X166435167Y-92685162D01*
X166778943Y-92543117D01*
X166812118Y-92510000D01*
X217000000Y-92510000D01*
X217290839Y-92452148D01*
X217537401Y-92287401D01*
X218690793Y-91134009D01*
X218813201Y-91184838D01*
X219185167Y-91185162D01*
X219528943Y-91043117D01*
X219577576Y-90994569D01*
X219790839Y-90952148D01*
X220037401Y-90787401D01*
X222564802Y-88260000D01*
X234435198Y-88260000D01*
X236564878Y-90389680D01*
X236564838Y-90435167D01*
X236706883Y-90778943D01*
X236969673Y-91042192D01*
X237313201Y-91184838D01*
X237685167Y-91185162D01*
X238028943Y-91043117D01*
X238292192Y-90780327D01*
X238367070Y-90600000D01*
X244977560Y-90600000D01*
X244977560Y-91400000D01*
X245024537Y-91642123D01*
X245164327Y-91854927D01*
X245240000Y-91906007D01*
X245240000Y-92187537D01*
X245207808Y-92219673D01*
X245065162Y-92563201D01*
X245064838Y-92935167D01*
X245206883Y-93278943D01*
X245469673Y-93542192D01*
X245813201Y-93684838D01*
X246185167Y-93685162D01*
X246528943Y-93543117D01*
X246792192Y-93280327D01*
X246934838Y-92936799D01*
X246935162Y-92564833D01*
X246793117Y-92221057D01*
X246760000Y-92187882D01*
X246760000Y-91906608D01*
X246829927Y-91860673D01*
X246972377Y-91649640D01*
X247022440Y-91400000D01*
X247022440Y-90600000D01*
X246975463Y-90357877D01*
X246911904Y-90261121D01*
X246913327Y-90259698D01*
X247010000Y-90026309D01*
X247010000Y-89785750D01*
X246851250Y-89627000D01*
X246127000Y-89627000D01*
X246127000Y-89647000D01*
X245873000Y-89647000D01*
X245873000Y-89627000D01*
X245148750Y-89627000D01*
X244990000Y-89785750D01*
X244990000Y-90026309D01*
X245086673Y-90259698D01*
X245087955Y-90260980D01*
X245027623Y-90350360D01*
X244977560Y-90600000D01*
X238367070Y-90600000D01*
X238434838Y-90436799D01*
X238435162Y-90064833D01*
X238293117Y-89721057D01*
X238030327Y-89457808D01*
X237686799Y-89315162D01*
X237639923Y-89315121D01*
X237471606Y-89146804D01*
X237563201Y-89184838D01*
X237935167Y-89185162D01*
X238278943Y-89043117D01*
X238348490Y-88973691D01*
X244990000Y-88973691D01*
X244990000Y-89214250D01*
X245148750Y-89373000D01*
X245873000Y-89373000D01*
X245873000Y-88623750D01*
X246127000Y-88623750D01*
X246127000Y-89373000D01*
X246851250Y-89373000D01*
X247010000Y-89214250D01*
X247010000Y-88973691D01*
X246913327Y-88740302D01*
X246734699Y-88561673D01*
X246501310Y-88465000D01*
X246285750Y-88465000D01*
X246127000Y-88623750D01*
X245873000Y-88623750D01*
X245873000Y-88623750D01*
X245714250Y-88465000D01*
X245498690Y-88465000D01*
X245265301Y-88561673D01*
X245086673Y-88740302D01*
X244990000Y-88973691D01*
X238348490Y-88973691D01*
X238542192Y-88780327D01*
X238684838Y-88436799D01*
X238685162Y-88064833D01*
X238543117Y-87721057D01*
X238494569Y-87672424D01*
X238452148Y-87459161D01*
X238287401Y-87212599D01*
X236037401Y-84962599D01*
X235790839Y-84797852D01*
X235600546Y-84760000D01*
X237685198Y-84760000D01*
X238314878Y-85389680D01*
X238314838Y-85435167D01*
X238456883Y-85778943D01*
X238719673Y-86042192D01*
X239063201Y-86184838D01*
X239435167Y-86185162D01*
X239778943Y-86043117D01*
X240042192Y-85780327D01*
X240184838Y-85436799D01*
X240185162Y-85064833D01*
X240043117Y-84721057D01*
X239780327Y-84457808D01*
X239436799Y-84315162D01*
X239389923Y-84315121D01*
X238537401Y-83462599D01*
X238290839Y-83297852D01*
X238000000Y-83240000D01*
X221750000Y-83240000D01*
X221459160Y-83297852D01*
X221212599Y-83462599D01*
X218860320Y-85814878D01*
X218814833Y-85814838D01*
X218471057Y-85956883D01*
X218437882Y-85990000D01*
X166064802Y-85990000D01*
X165787401Y-85712599D01*
X165540839Y-85547852D01*
X165250000Y-85490000D01*
X153312463Y-85490000D01*
X153280327Y-85457808D01*
X152936799Y-85315162D01*
X152639705Y-85314903D01*
X151787401Y-84462599D01*
X151540839Y-84297852D01*
X151250000Y-84240000D01*
X140000000Y-84240000D01*
X139709161Y-84297852D01*
X139462599Y-84462599D01*
X136860320Y-87064878D01*
X136814833Y-87064838D01*
X136471057Y-87206883D01*
X136437882Y-87240000D01*
X132314802Y-87240000D01*
X125037401Y-79962599D01*
X124790839Y-79797852D01*
X124500000Y-79740000D01*
X106812463Y-79740000D01*
X106780327Y-79707808D01*
X106436799Y-79565162D01*
X106064833Y-79564838D01*
X105721057Y-79706883D01*
X105687882Y-79740000D01*
X105564802Y-79740000D01*
X104287401Y-78462599D01*
X104040839Y-78297852D01*
X103750000Y-78240000D01*
X92062463Y-78240000D01*
X92030327Y-78207808D01*
X91686799Y-78065162D01*
X91314833Y-78064838D01*
X90971057Y-78206883D01*
X90707808Y-78469673D01*
X90565162Y-78813201D01*
X90564838Y-79185167D01*
X90706883Y-79528943D01*
X90802710Y-79624937D01*
X90707808Y-79719673D01*
X90565162Y-80063201D01*
X90564838Y-80435167D01*
X90689942Y-80737943D01*
X90457808Y-80969673D01*
X90315162Y-81313201D01*
X90314838Y-81685167D01*
X87197460Y-81685167D01*
X87197460Y-79562463D01*
X87229652Y-79530327D01*
X87372298Y-79186799D01*
X87372622Y-78814833D01*
X87230577Y-78471057D01*
X86967787Y-78207808D01*
X86624259Y-78065162D01*
X86252293Y-78064838D01*
X85908517Y-78206883D01*
X85645268Y-78469673D01*
X85510000Y-78795433D01*
X85510000Y-77216543D01*
X85696541Y-77030327D01*
X85839187Y-76686799D01*
X85839511Y-76314833D01*
X85697466Y-75971057D01*
X85434676Y-75707808D01*
X85269175Y-75639086D01*
X85500000Y-75685000D01*
X119000000Y-75685000D01*
X119262138Y-75632857D01*
X119484368Y-75484368D01*
X119632857Y-75262138D01*
X119685000Y-75000000D01*
X119685000Y-62000000D01*
X119632857Y-61737862D01*
X119484368Y-61515632D01*
X119262138Y-61367143D01*
X119000000Y-61315000D01*
X85500000Y-61315000D01*
X85237862Y-61367143D01*
X85015632Y-61515632D01*
X84867143Y-61737862D01*
X84815000Y-62000000D01*
X84815000Y-75000000D01*
X84867143Y-75262138D01*
X85015632Y-75484368D01*
X85211082Y-75614963D01*
X85091148Y-75565162D01*
X84719182Y-75564838D01*
X84375406Y-75706883D01*
X84112157Y-75969673D01*
X84010000Y-76215693D01*
X84010000Y-64889342D01*
X84042192Y-64857206D01*
X84184838Y-64513678D01*
X84185162Y-64141712D01*
X84043117Y-63797936D01*
X84010000Y-63764761D01*
X84010000Y-62314802D01*
X86314802Y-60010000D01*
X92196330Y-60010000D01*
X92723731Y-60537401D01*
X92970292Y-60702148D01*
X93261132Y-60760000D01*
X122435198Y-60760000D01*
X127962599Y-66287401D01*
X128209161Y-66452148D01*
X128500000Y-66510000D01*
X128586552Y-66510000D01*
X128586552Y-67591153D01*
X128457808Y-67719673D01*
X128315162Y-68063201D01*
X128314838Y-68435167D01*
X128456883Y-68778943D01*
X128719673Y-69042192D01*
X129063201Y-69184838D01*
X129435167Y-69185162D01*
X129778943Y-69043117D01*
X130042192Y-68780327D01*
X130184838Y-68436799D01*
X130185162Y-68064833D01*
X130106552Y-67874582D01*
X130106552Y-66510000D01*
X140189598Y-66510000D01*
X140994598Y-67315000D01*
X132500000Y-67315000D01*
X132237862Y-67367143D01*
X132015632Y-67515632D01*
X131867143Y-67737862D01*
X131815000Y-68000000D01*
X131815000Y-83000000D01*
X131867143Y-83262138D01*
X132015632Y-83484368D01*
X132237862Y-83632857D01*
X132500000Y-83685000D01*
X179500000Y-83685000D01*
X179762138Y-83632857D01*
X179984368Y-83484368D01*
X180132857Y-83262138D01*
X180185000Y-83000000D01*
X180185000Y-68000000D01*
X180132857Y-67737862D01*
X179984368Y-67515632D01*
X179762138Y-67367143D01*
X179500000Y-67315000D01*
X162009802Y-67315000D01*
X165064802Y-64260000D01*
X165937537Y-64260000D01*
X165969673Y-64292192D01*
X166313201Y-64434838D01*
X166685167Y-64435162D01*
X167028943Y-64293117D01*
X167062118Y-64260000D01*
X173954575Y-64260000D01*
X173986711Y-64292192D01*
X174330239Y-64434838D01*
X174702205Y-64435162D01*
X175045981Y-64293117D01*
X175079156Y-64260000D01*
X180736876Y-64260000D01*
X180736876Y-68996876D01*
X180794728Y-69287715D01*
X180814940Y-69317965D01*
X180814838Y-69435167D01*
X180956883Y-69778943D01*
X181219673Y-70042192D01*
X181563201Y-70184838D01*
X181935167Y-70185162D01*
X182278943Y-70043117D01*
X182542192Y-69780327D01*
X182684838Y-69436799D01*
X182685162Y-69064833D01*
X182543117Y-68721057D01*
X182280327Y-68457808D01*
X182256876Y-68448070D01*
X182256876Y-64260000D01*
X210472899Y-64260000D01*
X210472899Y-67954608D01*
X210457808Y-67969673D01*
X210315162Y-68313201D01*
X210314838Y-68685167D01*
X210456883Y-69028943D01*
X210719673Y-69292192D01*
X211063201Y-69434838D01*
X211435167Y-69435162D01*
X211778943Y-69293117D01*
X212042192Y-69030327D01*
X212184838Y-68686799D01*
X212185162Y-68314833D01*
X212043117Y-67971057D01*
X211992899Y-67920751D01*
X211992899Y-67000000D01*
X214815000Y-67000000D01*
X214815000Y-81000000D01*
X214867143Y-81262138D01*
X215015632Y-81484368D01*
X215237862Y-81632857D01*
X215500000Y-81685000D01*
X249500000Y-81685000D01*
X249762138Y-81632857D01*
X249984368Y-81484368D01*
X250132857Y-81262138D01*
X250185000Y-81000000D01*
X250185000Y-67000000D01*
X250132857Y-66737862D01*
X249984368Y-66515632D01*
X249762138Y-66367143D01*
X249500000Y-66315000D01*
X215500000Y-66315000D01*
X215237862Y-66367143D01*
X215015632Y-66515632D01*
X214867143Y-66737862D01*
X214815000Y-67000000D01*
X211992899Y-67000000D01*
X211992899Y-64260000D01*
X220942150Y-64260000D01*
X220974286Y-64292192D01*
X221317814Y-64434838D01*
X221689780Y-64435162D01*
X222033556Y-64293117D01*
X222066731Y-64260000D01*
X224710144Y-64260000D01*
X224742280Y-64292192D01*
X225085808Y-64434838D01*
X225132684Y-64434879D01*
X225735206Y-65037401D01*
X225981768Y-65202148D01*
X226272607Y-65260000D01*
X239675739Y-65260000D01*
X239966578Y-65202148D01*
X240213140Y-65037401D01*
X240815419Y-64435122D01*
X240860906Y-64435162D01*
X241204682Y-64293117D01*
X241237857Y-64260000D01*
X242687537Y-64260000D01*
X242719673Y-64292192D01*
X243063201Y-64434838D01*
X243435167Y-64435162D01*
X243778943Y-64293117D01*
X243812118Y-64260000D01*
X245213678Y-64260000D01*
X245504517Y-64202148D01*
X245751079Y-64037401D01*
X246037401Y-63751079D01*
X246202148Y-63504518D01*
X246224521Y-63392041D01*
X246260000Y-63213678D01*
X246260000Y-63156608D01*
X246329927Y-63110673D01*
X246472377Y-62899640D01*
X246522440Y-62650000D01*
X246522440Y-61850000D01*
X246475463Y-61607877D01*
X246411904Y-61511121D01*
X246413327Y-61509698D01*
X246510000Y-61276309D01*
X246510000Y-61035750D01*
X246351250Y-60877000D01*
X245627000Y-60877000D01*
X245627000Y-60897000D01*
X245373000Y-60897000D01*
X245373000Y-60877000D01*
X244648750Y-60877000D01*
X244490000Y-61035750D01*
X244490000Y-61276309D01*
X244586673Y-61509698D01*
X244587955Y-61510980D01*
X244527623Y-61600360D01*
X244477560Y-61850000D01*
X244477560Y-62650000D01*
X244495022Y-62740000D01*
X243812463Y-62740000D01*
X243780327Y-62707808D01*
X243436799Y-62565162D01*
X243064833Y-62564838D01*
X242721057Y-62706883D01*
X242687882Y-62740000D01*
X241238202Y-62740000D01*
X241206066Y-62707808D01*
X240862538Y-62565162D01*
X240490572Y-62564838D01*
X240146796Y-62706883D01*
X239883547Y-62969673D01*
X239740901Y-63313201D01*
X239740860Y-63360077D01*
X239360937Y-63740000D01*
X226587409Y-63740000D01*
X226207729Y-63360320D01*
X226207769Y-63314833D01*
X226065724Y-62971057D01*
X225802934Y-62707808D01*
X225459406Y-62565162D01*
X225087440Y-62564838D01*
X224743664Y-62706883D01*
X224710489Y-62740000D01*
X222067076Y-62740000D01*
X222034940Y-62707808D01*
X221691412Y-62565162D01*
X221319446Y-62564838D01*
X220975670Y-62706883D01*
X220942495Y-62740000D01*
X175079501Y-62740000D01*
X175047365Y-62707808D01*
X174703837Y-62565162D01*
X174331871Y-62564838D01*
X173988095Y-62706883D01*
X173954920Y-62740000D01*
X167062463Y-62740000D01*
X167030327Y-62707808D01*
X166686799Y-62565162D01*
X166314833Y-62564838D01*
X165971057Y-62706883D01*
X165937882Y-62740000D01*
X164750000Y-62740000D01*
X164459161Y-62797852D01*
X164212599Y-62962599D01*
X162286622Y-64888576D01*
X160934969Y-63536923D01*
X160935162Y-63314833D01*
X160793117Y-62971057D01*
X160530327Y-62707808D01*
X160186799Y-62565162D01*
X159814833Y-62564838D01*
X159471057Y-62706883D01*
X159207808Y-62969673D01*
X159065162Y-63313201D01*
X159064838Y-63685167D01*
X159206883Y-64028943D01*
X159469673Y-64292192D01*
X159591023Y-64342581D01*
X161211820Y-65963378D01*
X160935198Y-66240000D01*
X153260000Y-66240000D01*
X153260000Y-66062463D01*
X153292192Y-66030327D01*
X153434838Y-65686799D01*
X153435162Y-65314833D01*
X153293117Y-64971057D01*
X153030327Y-64707808D01*
X152686799Y-64565162D01*
X152314833Y-64564838D01*
X151971057Y-64706883D01*
X151707808Y-64969673D01*
X151565162Y-65313201D01*
X151564838Y-65685167D01*
X151706883Y-66028943D01*
X151740000Y-66062118D01*
X151740000Y-66240000D01*
X142069202Y-66240000D01*
X141311949Y-65482747D01*
X141434838Y-65186799D01*
X141435162Y-64814833D01*
X141293117Y-64471057D01*
X141030327Y-64207808D01*
X140686799Y-64065162D01*
X140314833Y-64064838D01*
X139971057Y-64206883D01*
X139707808Y-64469673D01*
X139565162Y-64813201D01*
X139565008Y-64990000D01*
X128814802Y-64990000D01*
X126352974Y-62528172D01*
X145332538Y-62528172D01*
X145737709Y-63508761D01*
X146487293Y-64259655D01*
X147467173Y-64666536D01*
X148528172Y-64667462D01*
X149508761Y-64262291D01*
X150259655Y-63512707D01*
X150666536Y-62532827D01*
X150667462Y-61471828D01*
X150262291Y-60491239D01*
X149512707Y-59740345D01*
X148532827Y-59333464D01*
X147471828Y-59332538D01*
X146491239Y-59737709D01*
X145740345Y-60487293D01*
X145333464Y-61467173D01*
X145332538Y-62528172D01*
X126352974Y-62528172D01*
X123287401Y-59462599D01*
X123040839Y-59297852D01*
X122750000Y-59240000D01*
X119504391Y-59240000D01*
X119522440Y-59150000D01*
X119522440Y-58350000D01*
X119475463Y-58107877D01*
X119411904Y-58011121D01*
X119413327Y-58009698D01*
X119510000Y-57776309D01*
X119510000Y-57535750D01*
X119351250Y-57377000D01*
X118627000Y-57377000D01*
X118627000Y-57397000D01*
X118373000Y-57397000D01*
X118373000Y-57377000D01*
X117648750Y-57377000D01*
X117490000Y-57535750D01*
X117490000Y-57776309D01*
X117586673Y-58009698D01*
X117587955Y-58010980D01*
X117527623Y-58100360D01*
X117477560Y-58350000D01*
X117477560Y-59150000D01*
X117495022Y-59240000D01*
X109912747Y-59240000D01*
X109934838Y-59186799D01*
X109935162Y-58814833D01*
X109793117Y-58471057D01*
X109530327Y-58207808D01*
X109186799Y-58065162D01*
X108814833Y-58064838D01*
X108471057Y-58206883D01*
X108207808Y-58469673D01*
X108065162Y-58813201D01*
X108065121Y-58860077D01*
X107795739Y-59129459D01*
X107721878Y-59240000D01*
X94185009Y-59240000D01*
X94185162Y-59064833D01*
X94043117Y-58721057D01*
X93780327Y-58457808D01*
X93436799Y-58315162D01*
X93064833Y-58314838D01*
X92721057Y-58456883D01*
X92658514Y-58519316D01*
X92511132Y-58490000D01*
X86000000Y-58490000D01*
X85709160Y-58547852D01*
X85462599Y-58712599D01*
X82712599Y-61462599D01*
X82547852Y-61709161D01*
X82490000Y-62000000D01*
X82490000Y-63764416D01*
X82457808Y-63796552D01*
X82315162Y-64140080D01*
X82314838Y-64512046D01*
X82456883Y-64855822D01*
X82490000Y-64888997D01*
X82490000Y-66960560D01*
X82313923Y-66784176D01*
X81786691Y-66565250D01*
X81360000Y-66564878D01*
X81360000Y-61964802D01*
X86802968Y-56521834D01*
X99614543Y-56521834D01*
X100014853Y-57490658D01*
X100755443Y-58232542D01*
X101723567Y-58634542D01*
X102771834Y-58635457D01*
X103740658Y-58235147D01*
X104482542Y-57494557D01*
X104802633Y-56723691D01*
X117490000Y-56723691D01*
X117490000Y-56964250D01*
X117648750Y-57123000D01*
X118373000Y-57123000D01*
X118373000Y-56373750D01*
X118627000Y-56373750D01*
X118627000Y-57123000D01*
X119351250Y-57123000D01*
X119510000Y-56964250D01*
X119510000Y-56723691D01*
X119413327Y-56490302D01*
X119234699Y-56311673D01*
X119001310Y-56215000D01*
X118785750Y-56215000D01*
X118627000Y-56373750D01*
X118373000Y-56373750D01*
X118373000Y-56373750D01*
X118214250Y-56215000D01*
X117998690Y-56215000D01*
X117765301Y-56311673D01*
X117586673Y-56490302D01*
X117490000Y-56723691D01*
X104802633Y-56723691D01*
X104884542Y-56526433D01*
X104885457Y-55478166D01*
X104485147Y-54509342D01*
X103744557Y-53767458D01*
X102776433Y-53365458D01*
X101728166Y-53364543D01*
X100759342Y-53764853D01*
X100017458Y-54505443D01*
X99615458Y-55473567D01*
X99614543Y-56521834D01*
X86802968Y-56521834D01*
X90287401Y-53037401D01*
X90292874Y-53029211D01*
X90312118Y-53010000D01*
X103935198Y-53010000D01*
X106462599Y-55537401D01*
X106709160Y-55702148D01*
X107000000Y-55760000D01*
X107437537Y-55760000D01*
X107469673Y-55792192D01*
X107813201Y-55934838D01*
X108185167Y-55935162D01*
X108528943Y-55793117D01*
X108562118Y-55760000D01*
X130435198Y-55760000D01*
X134462599Y-59787401D01*
X134709161Y-59952148D01*
X135000000Y-60010000D01*
X135687537Y-60010000D01*
X135719673Y-60042192D01*
X136063201Y-60184838D01*
X136435167Y-60185162D01*
X136778943Y-60043117D01*
X137042192Y-59780327D01*
X137184838Y-59436799D01*
X137184879Y-59389923D01*
X137814802Y-58760000D01*
X149435198Y-58760000D01*
X151240000Y-60564802D01*
X151240000Y-61000000D01*
X151297852Y-61290839D01*
X151462599Y-61537401D01*
X151564878Y-61639680D01*
X151564838Y-61685167D01*
X151706883Y-62028943D01*
X151969673Y-62292192D01*
X152313201Y-62434838D01*
X152433410Y-62434943D01*
X152459160Y-62452148D01*
X152750000Y-62510000D01*
X165500000Y-62510000D01*
X165790839Y-62452148D01*
X166037401Y-62287401D01*
X167139680Y-61185122D01*
X167185167Y-61185162D01*
X167528943Y-61043117D01*
X167562118Y-61010000D01*
X218750000Y-61010000D01*
X219040839Y-60952148D01*
X219287401Y-60787401D01*
X219389680Y-60685122D01*
X219435167Y-60685162D01*
X219778943Y-60543117D01*
X220042192Y-60280327D01*
X220043086Y-60278172D01*
X229582538Y-60278172D01*
X229987709Y-61258761D01*
X230737293Y-62009655D01*
X231717173Y-62416536D01*
X232778172Y-62417462D01*
X233758761Y-62012291D01*
X234509655Y-61262707D01*
X234916536Y-60282827D01*
X234916587Y-60223691D01*
X244490000Y-60223691D01*
X244490000Y-60464250D01*
X244648750Y-60623000D01*
X245373000Y-60623000D01*
X245373000Y-59873750D01*
X245627000Y-59873750D01*
X245627000Y-60623000D01*
X246351250Y-60623000D01*
X246510000Y-60464250D01*
X246510000Y-60223691D01*
X246413327Y-59990302D01*
X246234699Y-59811673D01*
X246001310Y-59715000D01*
X245785750Y-59715000D01*
X245627000Y-59873750D01*
X245373000Y-59873750D01*
X245373000Y-59873750D01*
X245214250Y-59715000D01*
X244998690Y-59715000D01*
X244765301Y-59811673D01*
X244586673Y-59990302D01*
X244490000Y-60223691D01*
X234916587Y-60223691D01*
X234917462Y-59221828D01*
X234512291Y-58241239D01*
X233762707Y-57490345D01*
X232782827Y-57083464D01*
X231721828Y-57082538D01*
X230741239Y-57487709D01*
X229990345Y-58237293D01*
X229583464Y-59217173D01*
X229582538Y-60278172D01*
X220043086Y-60278172D01*
X220184838Y-59936799D01*
X220184879Y-59889923D01*
X224314802Y-55760000D01*
X234185198Y-55760000D01*
X236314878Y-57889680D01*
X236314838Y-57935167D01*
X236456883Y-58278943D01*
X236719673Y-58542192D01*
X237063201Y-58684838D01*
X237435167Y-58685162D01*
X237778943Y-58543117D01*
X238042192Y-58280327D01*
X238184838Y-57936799D01*
X238185162Y-57564833D01*
X238043117Y-57221057D01*
X237780327Y-56957808D01*
X237436799Y-56815162D01*
X237389923Y-56815121D01*
X235037401Y-54462599D01*
X234790839Y-54297852D01*
X234600546Y-54260000D01*
X235185198Y-54260000D01*
X237064878Y-56139680D01*
X237064838Y-56185167D01*
X237206883Y-56528943D01*
X237469673Y-56792192D01*
X237813201Y-56934838D01*
X238185167Y-56935162D01*
X238528943Y-56793117D01*
X238792192Y-56530327D01*
X238934838Y-56186799D01*
X238935162Y-55814833D01*
X238793117Y-55471057D01*
X238530327Y-55207808D01*
X238186799Y-55065162D01*
X238139923Y-55065121D01*
X236037401Y-52962599D01*
X235790839Y-52797852D01*
X235600546Y-52760000D01*
X238937537Y-52760000D01*
X238969673Y-52792192D01*
X239313201Y-52934838D01*
X239685167Y-52935162D01*
X240028943Y-52793117D01*
X240292192Y-52530327D01*
X240434838Y-52186799D01*
X240435162Y-51814833D01*
X240293117Y-51471057D01*
X240030327Y-51207808D01*
X239686799Y-51065162D01*
X239314833Y-51064838D01*
X238971057Y-51206883D01*
X238937882Y-51240000D01*
X221750000Y-51240000D01*
X221459161Y-51297852D01*
X221212599Y-51462599D01*
X219110320Y-53564878D01*
X219064833Y-53564838D01*
X218721057Y-53706883D01*
X218457808Y-53969673D01*
X218315162Y-54313201D01*
X218315121Y-54360077D01*
X216435198Y-56240000D01*
X167312463Y-56240000D01*
X167280327Y-56207808D01*
X166936799Y-56065162D01*
X166564833Y-56064838D01*
X166221057Y-56206883D01*
X165957808Y-56469673D01*
X165815162Y-56813201D01*
X165815121Y-56860077D01*
X164435198Y-58240000D01*
X157064802Y-58240000D01*
X155435122Y-56610320D01*
X155435162Y-56564833D01*
X155293117Y-56221057D01*
X155030327Y-55957808D01*
X154686799Y-55815162D01*
X154639923Y-55815121D01*
X154037401Y-55212599D01*
X153790839Y-55047852D01*
X153500000Y-54990000D01*
X136750000Y-54990000D01*
X136459161Y-55047852D01*
X136257440Y-55182638D01*
X132787401Y-51712599D01*
X132540839Y-51547852D01*
X132250000Y-51490000D01*
X109062463Y-51490000D01*
X109030327Y-51457808D01*
X108686799Y-51315162D01*
X108639923Y-51315121D01*
X106537401Y-49212599D01*
X106290839Y-49047852D01*
X106000000Y-48990000D01*
X89812463Y-48990000D01*
X89780327Y-48957808D01*
X89436799Y-48815162D01*
X89064833Y-48814838D01*
X88721057Y-48956883D01*
X88457808Y-49219673D01*
X88315162Y-49563201D01*
X88314838Y-49935167D01*
X88440792Y-50240000D01*
X85600000Y-50240000D01*
X85361701Y-50287401D01*
X85309160Y-50297852D01*
X85257017Y-50332693D01*
X85147074Y-50332597D01*
X84803298Y-50474642D01*
X84540049Y-50737432D01*
X84397403Y-51080960D01*
X84397079Y-51452926D01*
X84539124Y-51796702D01*
X84801914Y-52059951D01*
X85145442Y-52202597D01*
X85517408Y-52202921D01*
X85861184Y-52060876D01*
X86124433Y-51798086D01*
X86140248Y-51760000D01*
X88941063Y-51760000D01*
X88815162Y-52063201D01*
X88814903Y-52360295D01*
X80697440Y-60477758D01*
X80697440Y-59950000D01*
X80650463Y-59707877D01*
X80538051Y-59536751D01*
X82537401Y-57537401D01*
X82702148Y-57290840D01*
X82760000Y-57000000D01*
X82760000Y-53653158D01*
X82897377Y-53449640D01*
X82947440Y-53200000D01*
X82947440Y-52200000D01*
X82900463Y-51957877D01*
X82760673Y-51745073D01*
X82549640Y-51602623D01*
X82300000Y-51552560D01*
X81600000Y-51552560D01*
X81357877Y-51599537D01*
X81145073Y-51739327D01*
X81002623Y-51950360D01*
X81000784Y-51959531D01*
X81000463Y-51957877D01*
X80860673Y-51745073D01*
X80649640Y-51602623D01*
X80400000Y-51552560D01*
X79700000Y-51552560D01*
X79457877Y-51599537D01*
X79245073Y-51739327D01*
X79102623Y-51950360D01*
X79052560Y-52200000D01*
X79052560Y-53200000D01*
X79099537Y-53442123D01*
X79239327Y-53654927D01*
X79290000Y-53689132D01*
X79290000Y-54800000D01*
X79347852Y-55090839D01*
X79512599Y-55337401D01*
X80064878Y-55889680D01*
X80064838Y-55935167D01*
X80206883Y-56278943D01*
X80469673Y-56542192D01*
X80813201Y-56684838D01*
X81185167Y-56685162D01*
X81240000Y-56662506D01*
X81240000Y-56685198D01*
X79747440Y-58177758D01*
X79747440Y-57550000D01*
X79700463Y-57307877D01*
X79560673Y-57095073D01*
X79349640Y-56952623D01*
X79259310Y-56934508D01*
X78787401Y-56462599D01*
X78540839Y-56297852D01*
X78250000Y-56240000D01*
X74750000Y-56240000D01*
X74459161Y-56297852D01*
X74212599Y-56462599D01*
X73712599Y-56962599D01*
X73547852Y-57209161D01*
X73490000Y-57500000D01*
X73490000Y-57579691D01*
X73396293Y-57641247D01*
X73253843Y-57852280D01*
X73203780Y-58101920D01*
X73203780Y-58899480D01*
X73250757Y-59141603D01*
X73321951Y-59249982D01*
X73253843Y-59350880D01*
X73203780Y-59600520D01*
X73203780Y-60398080D01*
X73250757Y-60640203D01*
X73390547Y-60853007D01*
X73490000Y-60920139D01*
X73490000Y-62494125D01*
X73345073Y-62589327D01*
X73202623Y-62800360D01*
X73152560Y-63050000D01*
X73152560Y-63950000D01*
X73199537Y-64192123D01*
X73339327Y-64404927D01*
X73550360Y-64547377D01*
X73800000Y-64597440D01*
X75000000Y-64597440D01*
X75242123Y-64550463D01*
X75454927Y-64410673D01*
X75498337Y-64346363D01*
X75640302Y-64488327D01*
X75873691Y-64585000D01*
X76314250Y-64585000D01*
X76473000Y-64426250D01*
X76473000Y-63627000D01*
X76727000Y-63627000D01*
X76727000Y-64426250D01*
X76885750Y-64585000D01*
X77326309Y-64585000D01*
X77559698Y-64488327D01*
X77738327Y-64309699D01*
X77835000Y-64076310D01*
X77835000Y-63785750D01*
X77676250Y-63627000D01*
X76727000Y-63627000D01*
X76473000Y-63627000D01*
X76473000Y-63627000D01*
X76453000Y-63627000D01*
X76453000Y-63373000D01*
X76473000Y-63373000D01*
X76473000Y-62573750D01*
X76314250Y-62415000D01*
X75873691Y-62415000D01*
X75640302Y-62511673D01*
X75498824Y-62653150D01*
X75460673Y-62595073D01*
X75249640Y-62452623D01*
X75010000Y-62404565D01*
X75010000Y-60920309D01*
X75103707Y-60858753D01*
X75246157Y-60647720D01*
X75296220Y-60398080D01*
X75296220Y-59600520D01*
X75249243Y-59358397D01*
X75178049Y-59250018D01*
X75246157Y-59149120D01*
X75296220Y-58899480D01*
X75296220Y-58101920D01*
X75249243Y-57859797D01*
X75183687Y-57760000D01*
X77752560Y-57760000D01*
X77752560Y-58550000D01*
X77799537Y-58792123D01*
X77939327Y-59004927D01*
X78150360Y-59147377D01*
X78400000Y-59197440D01*
X78960401Y-59197440D01*
X78940000Y-59300000D01*
X78940000Y-59459815D01*
X78895073Y-59489327D01*
X78752623Y-59700360D01*
X78750784Y-59709531D01*
X78750463Y-59707877D01*
X78610673Y-59495073D01*
X78399640Y-59352623D01*
X78150000Y-59302560D01*
X77450000Y-59302560D01*
X77207877Y-59349537D01*
X76995073Y-59489327D01*
X76852623Y-59700360D01*
X76802560Y-59950000D01*
X76802560Y-60950000D01*
X76831019Y-61096677D01*
X76707808Y-61219673D01*
X76565162Y-61563201D01*
X76564838Y-61935167D01*
X76706883Y-62278943D01*
X76864208Y-62436542D01*
X76727000Y-62573750D01*
X76727000Y-63373000D01*
X77676250Y-63373000D01*
X77835000Y-63214250D01*
X77835000Y-62923690D01*
X77738327Y-62690301D01*
X77719147Y-62671122D01*
X78028943Y-62543117D01*
X78292192Y-62280327D01*
X78434838Y-61936799D01*
X78434921Y-61841452D01*
X78502148Y-61740839D01*
X78560000Y-61450000D01*
X78560000Y-61440185D01*
X78604927Y-61410673D01*
X78747377Y-61199640D01*
X78749216Y-61190469D01*
X78749537Y-61192123D01*
X78889327Y-61404927D01*
X79100360Y-61547377D01*
X79350000Y-61597440D01*
X79850455Y-61597440D01*
X79840000Y-61650000D01*
X79840000Y-67100000D01*
X79897852Y-67390839D01*
X80062599Y-67637401D01*
X80086744Y-67661546D01*
X80065250Y-67713309D01*
X80064752Y-68284187D01*
X80282757Y-68811800D01*
X80470603Y-68999974D01*
X80284176Y-69186077D01*
X80065250Y-69713309D01*
X80064752Y-70284187D01*
X80282757Y-70811800D01*
X80470603Y-70999974D01*
X80284176Y-71186077D01*
X80065250Y-71713309D01*
X80064752Y-72284187D01*
X80282757Y-72811800D01*
X80470603Y-72999974D01*
X80284176Y-73186077D01*
X80261785Y-73240000D01*
X78010000Y-73240000D01*
X78010000Y-72750000D01*
X77952148Y-72459161D01*
X77952148Y-72459160D01*
X77787401Y-72212599D01*
X76259811Y-70685009D01*
X76435167Y-70685162D01*
X76778943Y-70543117D01*
X77042192Y-70280327D01*
X77184838Y-69936799D01*
X77185162Y-69564833D01*
X77043117Y-69221057D01*
X76780327Y-68957808D01*
X76436799Y-68815162D01*
X76389923Y-68815121D01*
X73010000Y-65435198D01*
X73010000Y-58000000D01*
X72952148Y-57709161D01*
X72787401Y-57462599D01*
X72287401Y-56962599D01*
X72040839Y-56797852D01*
X71750000Y-56740000D01*
X71162747Y-56740000D01*
X71184838Y-56686799D01*
X71185162Y-56314833D01*
X71043117Y-55971057D01*
X71010000Y-55937882D01*
X71010000Y-53500000D01*
X70952148Y-53209161D01*
X70952148Y-53209160D01*
X70787401Y-52962599D01*
X70697440Y-52872638D01*
X70697440Y-52450000D01*
X70650463Y-52207877D01*
X70510673Y-51995073D01*
X70299640Y-51852623D01*
X70050000Y-51802560D01*
X69350000Y-51802560D01*
X69107877Y-51849537D01*
X68895073Y-51989327D01*
X68752623Y-52200360D01*
X68750784Y-52209531D01*
X68750463Y-52207877D01*
X68610673Y-51995073D01*
X68399640Y-51852623D01*
X68150000Y-51802560D01*
X67450000Y-51802560D01*
X67207877Y-51849537D01*
X66995073Y-51989327D01*
X66852623Y-52200360D01*
X66802560Y-52450000D01*
X66802560Y-53450000D01*
X66849537Y-53692123D01*
X66989327Y-53904927D01*
X67040000Y-53939132D01*
X67040000Y-56300000D01*
X67097852Y-56590839D01*
X67262599Y-56837401D01*
X68165898Y-57740700D01*
X65636657Y-57740700D01*
X64858556Y-56962599D01*
X64611994Y-56797852D01*
X64321155Y-56740000D01*
X63250000Y-56740000D01*
X62959161Y-56797852D01*
X62712599Y-56962599D01*
X62547852Y-57209161D01*
X62490000Y-57500000D01*
X62490000Y-57579691D01*
X62396293Y-57641247D01*
X62253843Y-57852280D01*
X62203780Y-58101920D01*
X62203780Y-58899480D01*
X62250757Y-59141603D01*
X62321951Y-59249982D01*
X62253843Y-59350880D01*
X62203780Y-59600520D01*
X62203780Y-60398080D01*
X62250757Y-60640203D01*
X62390547Y-60853007D01*
X62490000Y-60920139D01*
X62490000Y-62664201D01*
X62307877Y-62699537D01*
X62095073Y-62839327D01*
X61952623Y-63050360D01*
X61902560Y-63300000D01*
X61185000Y-63300000D01*
X61185000Y-48685000D01*
X63253904Y-48685000D01*
X63212599Y-48712599D01*
X63212599Y-48712599D01*
G37*
X63212599Y-48712599D02*
X62712599Y-49212599D01*
X62547852Y-49459161D01*
X62528969Y-49554093D01*
X62396293Y-49641247D01*
X62253843Y-49852280D01*
X62203780Y-50101920D01*
X62203780Y-50899480D01*
X62250757Y-51141603D01*
X62321951Y-51249982D01*
X62253843Y-51350880D01*
X62203780Y-51600520D01*
X62203780Y-52398080D01*
X62250757Y-52640203D01*
X62390547Y-52853007D01*
X62490000Y-52920139D01*
X62490000Y-53914201D01*
X62307877Y-53949537D01*
X62095073Y-54089327D01*
X61952623Y-54300360D01*
X61902560Y-54550000D01*
X61902560Y-55450000D01*
X61949537Y-55692123D01*
X62089327Y-55904927D01*
X62300360Y-56047377D01*
X62550000Y-56097440D01*
X63750000Y-56097440D01*
X63992123Y-56050463D01*
X64204927Y-55910673D01*
X64248337Y-55846363D01*
X64390302Y-55988327D01*
X64623691Y-56085000D01*
X65064250Y-56085000D01*
X65223000Y-55926250D01*
X65223000Y-55127000D01*
X65477000Y-55127000D01*
X65477000Y-55926250D01*
X65635750Y-56085000D01*
X66076309Y-56085000D01*
X66309698Y-55988327D01*
X66488327Y-55809699D01*
X66585000Y-55576310D01*
X66585000Y-55285750D01*
X66426250Y-55127000D01*
X65477000Y-55127000D01*
X65223000Y-55127000D01*
X65223000Y-55127000D01*
X65203000Y-55127000D01*
X65203000Y-54873000D01*
X65223000Y-54873000D01*
X65223000Y-54073750D01*
X65477000Y-54073750D01*
X65477000Y-54873000D01*
X66426250Y-54873000D01*
X66585000Y-54714250D01*
X66585000Y-54423690D01*
X66488327Y-54190301D01*
X66309698Y-54011673D01*
X66076309Y-53915000D01*
X65635750Y-53915000D01*
X65477000Y-54073750D01*
X65223000Y-54073750D01*
X65223000Y-54073750D01*
X65064250Y-53915000D01*
X64623691Y-53915000D01*
X64390302Y-54011673D01*
X64248824Y-54153150D01*
X64210673Y-54095073D01*
X64010000Y-53959616D01*
X64010000Y-52920309D01*
X64103707Y-52858753D01*
X64246157Y-52647720D01*
X64296220Y-52398080D01*
X64296220Y-51600520D01*
X64249243Y-51358397D01*
X64178049Y-51250018D01*
X64246157Y-51149120D01*
X64296220Y-50899480D01*
X64296220Y-50101920D01*
X64278386Y-50010000D01*
X67760582Y-50010000D01*
X67752560Y-50050000D01*
X67752560Y-51050000D01*
X67799537Y-51292123D01*
X67939327Y-51504927D01*
X68150360Y-51647377D01*
X68400000Y-51697440D01*
X69100000Y-51697440D01*
X69342123Y-51650463D01*
X69554927Y-51510673D01*
X69697377Y-51299640D01*
X69747440Y-51050000D01*
X69747440Y-50050000D01*
X69700463Y-49807877D01*
X69560673Y-49595073D01*
X69466544Y-49531535D01*
X69452148Y-49459161D01*
X69287401Y-49212599D01*
X68787401Y-48712599D01*
X68746096Y-48685000D01*
X73490198Y-48685000D01*
X73212599Y-48962599D01*
X73047852Y-49209161D01*
X72990000Y-49500000D01*
X72990000Y-49579691D01*
X72896293Y-49641247D01*
X72753843Y-49852280D01*
X72703780Y-50101920D01*
X72703780Y-50899480D01*
X72750757Y-51141603D01*
X72821951Y-51249982D01*
X72753843Y-51350880D01*
X72703780Y-51600520D01*
X72703780Y-52398080D01*
X72750757Y-52640203D01*
X72890547Y-52853007D01*
X72990000Y-52920139D01*
X72990000Y-53744125D01*
X72845073Y-53839327D01*
X72702623Y-54050360D01*
X72652560Y-54300000D01*
X72652560Y-55200000D01*
X72699537Y-55442123D01*
X72839327Y-55654927D01*
X73050360Y-55797377D01*
X73300000Y-55847440D01*
X74500000Y-55847440D01*
X74742123Y-55800463D01*
X74954927Y-55660673D01*
X74998337Y-55596363D01*
X75140302Y-55738327D01*
X75373691Y-55835000D01*
X75814250Y-55835000D01*
X75973000Y-55676250D01*
X75973000Y-54877000D01*
X76227000Y-54877000D01*
X76227000Y-55676250D01*
X76385750Y-55835000D01*
X76826309Y-55835000D01*
X77059698Y-55738327D01*
X77238327Y-55559699D01*
X77335000Y-55326310D01*
X77335000Y-55035750D01*
X77176250Y-54877000D01*
X76227000Y-54877000D01*
X75973000Y-54877000D01*
X75973000Y-54877000D01*
X75953000Y-54877000D01*
X75953000Y-54623000D01*
X75973000Y-54623000D01*
X75973000Y-53823750D01*
X76227000Y-53823750D01*
X76227000Y-54623000D01*
X77176250Y-54623000D01*
X77335000Y-54464250D01*
X77335000Y-54173690D01*
X77238327Y-53940301D01*
X77059698Y-53761673D01*
X76826309Y-53665000D01*
X76385750Y-53665000D01*
X76227000Y-53823750D01*
X75973000Y-53823750D01*
X75973000Y-53823750D01*
X75814250Y-53665000D01*
X75373691Y-53665000D01*
X75140302Y-53761673D01*
X74998824Y-53903150D01*
X74960673Y-53845073D01*
X74749640Y-53702623D01*
X74510000Y-53654565D01*
X74510000Y-52920309D01*
X74603707Y-52858753D01*
X74746157Y-52647720D01*
X74796220Y-52398080D01*
X74796220Y-51600520D01*
X74749243Y-51358397D01*
X74678049Y-51250018D01*
X74746157Y-51149120D01*
X74796220Y-50899480D01*
X74796220Y-50101920D01*
X74749243Y-49859797D01*
X74683687Y-49760000D01*
X80010582Y-49760000D01*
X80002560Y-49800000D01*
X80002560Y-50800000D01*
X80049537Y-51042123D01*
X80189327Y-51254927D01*
X80400360Y-51397377D01*
X80650000Y-51447440D01*
X81350000Y-51447440D01*
X81592123Y-51400463D01*
X81804927Y-51260673D01*
X81947377Y-51049640D01*
X81997440Y-50800000D01*
X81997440Y-49800000D01*
X81950463Y-49557877D01*
X81810673Y-49345073D01*
X81716544Y-49281535D01*
X81702148Y-49209161D01*
X81537401Y-48962599D01*
X81259802Y-48685000D01*
X259815000Y-48685000D01*
X259815000Y-97315000D01*
X61185000Y-97315000D01*
X61185000Y-90761930D01*
X61751930Y-90761930D01*
X61809782Y-91052769D01*
X61974529Y-91299331D01*
X62490000Y-91814802D01*
X62490000Y-91829691D01*
X62396293Y-91891247D01*
X62253843Y-92102280D01*
X62203780Y-92351920D01*
X62203780Y-93149480D01*
X62250757Y-93391603D01*
X62321951Y-93499982D01*
X62253843Y-93600880D01*
X62203780Y-93850520D01*
X62203780Y-94648080D01*
X62250757Y-94890203D01*
X62390547Y-95103007D01*
X62490000Y-95170139D01*
X62490000Y-95250000D01*
X62547852Y-95540839D01*
X62712599Y-95787401D01*
X62962599Y-96037401D01*
X63209160Y-96202148D01*
X63500000Y-96260000D01*
X65000000Y-96260000D01*
X65290839Y-96202148D01*
X65537401Y-96037401D01*
X65787401Y-95787401D01*
X65952148Y-95540840D01*
X66010000Y-95250000D01*
X66010000Y-95020133D01*
X66050360Y-95047377D01*
X66300000Y-95097440D01*
X67500000Y-95097440D01*
X67742123Y-95050463D01*
X67954927Y-94910673D01*
X67998337Y-94846363D01*
X68140302Y-94988327D01*
X68373691Y-95085000D01*
X68814250Y-95085000D01*
X68973000Y-94926250D01*
X68973000Y-94127000D01*
X69227000Y-94127000D01*
X69227000Y-94926250D01*
X69385750Y-95085000D01*
X69826309Y-95085000D01*
X70059698Y-94988327D01*
X70238327Y-94809699D01*
X70335000Y-94576310D01*
X70335000Y-94285750D01*
X71165000Y-94285750D01*
X71165000Y-94576310D01*
X71261673Y-94809699D01*
X71440302Y-94988327D01*
X71673691Y-95085000D01*
X72114250Y-95085000D01*
X72273000Y-94926250D01*
X72273000Y-94127000D01*
X71323750Y-94127000D01*
X71165000Y-94285750D01*
X70335000Y-94285750D01*
X70335000Y-94285750D01*
X70176250Y-94127000D01*
X69227000Y-94127000D01*
X68973000Y-94127000D01*
X68973000Y-94127000D01*
X68953000Y-94127000D01*
X68953000Y-93873000D01*
X68973000Y-93873000D01*
X68973000Y-93073750D01*
X69227000Y-93073750D01*
X69227000Y-93873000D01*
X70176250Y-93873000D01*
X70335000Y-93714250D01*
X70335000Y-93423690D01*
X71165000Y-93423690D01*
X71165000Y-93714250D01*
X71323750Y-93873000D01*
X72273000Y-93873000D01*
X72273000Y-93073750D01*
X72114250Y-92915000D01*
X71673691Y-92915000D01*
X71440302Y-93011673D01*
X71261673Y-93190301D01*
X71165000Y-93423690D01*
X70335000Y-93423690D01*
X70335000Y-93423690D01*
X70238327Y-93190301D01*
X70059698Y-93011673D01*
X69826309Y-92915000D01*
X69385750Y-92915000D01*
X69227000Y-93073750D01*
X68973000Y-93073750D01*
X68973000Y-93073750D01*
X68814250Y-92915000D01*
X68373691Y-92915000D01*
X68140302Y-93011673D01*
X67998824Y-93153150D01*
X67960673Y-93095073D01*
X67749640Y-92952623D01*
X67500000Y-92902560D01*
X66300000Y-92902560D01*
X66057877Y-92949537D01*
X65845073Y-93089327D01*
X65742338Y-93241524D01*
X65459161Y-93297852D01*
X65212599Y-93462599D01*
X64712599Y-93962599D01*
X64547852Y-94209161D01*
X64490000Y-94500000D01*
X64490000Y-94740000D01*
X64277786Y-94740000D01*
X64296220Y-94648080D01*
X64296220Y-93850520D01*
X64249243Y-93608397D01*
X64178049Y-93500018D01*
X64246157Y-93399120D01*
X64296220Y-93149480D01*
X64296220Y-92351920D01*
X64249243Y-92109797D01*
X64109453Y-91896993D01*
X64010000Y-91829861D01*
X64010000Y-91500000D01*
X63952148Y-91209161D01*
X63787401Y-90962599D01*
X63572242Y-90747440D01*
X64300000Y-90747440D01*
X64542123Y-90700463D01*
X64754927Y-90560673D01*
X64897377Y-90349640D01*
X64947440Y-90100000D01*
X64947440Y-89400000D01*
X64900463Y-89157877D01*
X64760673Y-88945073D01*
X64549640Y-88802623D01*
X64337100Y-88760000D01*
X65052560Y-88760000D01*
X65052560Y-89150000D01*
X65099537Y-89392123D01*
X65239327Y-89604927D01*
X65450360Y-89747377D01*
X65459531Y-89749216D01*
X65457877Y-89749537D01*
X65245073Y-89889327D01*
X65102623Y-90100360D01*
X65052560Y-90350000D01*
X65052560Y-91050000D01*
X65099537Y-91292123D01*
X65239327Y-91504927D01*
X65450360Y-91647377D01*
X65700000Y-91697440D01*
X66700000Y-91697440D01*
X66942123Y-91650463D01*
X67154927Y-91510673D01*
X67189132Y-91460000D01*
X67387624Y-91460000D01*
X67469673Y-91542192D01*
X67813201Y-91684838D01*
X68185167Y-91685162D01*
X68528943Y-91543117D01*
X68792192Y-91280327D01*
X68934838Y-90936799D01*
X68935162Y-90564833D01*
X68793117Y-90221057D01*
X68530327Y-89957808D01*
X68186799Y-89815162D01*
X67814833Y-89814838D01*
X67511917Y-89940000D01*
X67190185Y-89940000D01*
X67160673Y-89895073D01*
X66949640Y-89752623D01*
X66940469Y-89750784D01*
X66942123Y-89750463D01*
X67154927Y-89610673D01*
X67189132Y-89560000D01*
X67262559Y-89560000D01*
X67563201Y-89684838D01*
X67935167Y-89685162D01*
X68278943Y-89543117D01*
X68542192Y-89280327D01*
X68684838Y-88936799D01*
X68685162Y-88564833D01*
X68543117Y-88221057D01*
X68280327Y-87957808D01*
X67936799Y-87815162D01*
X67564833Y-87814838D01*
X67221057Y-87956883D01*
X67169436Y-88008414D01*
X67160673Y-87995073D01*
X66949640Y-87852623D01*
X66700000Y-87802560D01*
X66277362Y-87802560D01*
X65937401Y-87462599D01*
X65690839Y-87297852D01*
X65400000Y-87240000D01*
X64296220Y-87240000D01*
X64296220Y-86600520D01*
X64249243Y-86358397D01*
X64178049Y-86250018D01*
X64246157Y-86149120D01*
X64296220Y-85899480D01*
X64296220Y-85121022D01*
X64712599Y-85537401D01*
X64959160Y-85702148D01*
X65250000Y-85760000D01*
X67194125Y-85760000D01*
X67289327Y-85904927D01*
X67500360Y-86047377D01*
X67750000Y-86097440D01*
X68250000Y-86097440D01*
X68492123Y-86050463D01*
X68704927Y-85910673D01*
X68748337Y-85846363D01*
X68890302Y-85988327D01*
X69123691Y-86085000D01*
X69216250Y-86085000D01*
X69375000Y-85926250D01*
X69375000Y-85127000D01*
X69625000Y-85127000D01*
X69625000Y-85926250D01*
X69783750Y-86085000D01*
X69876309Y-86085000D01*
X70109698Y-85988327D01*
X70288327Y-85809699D01*
X70385000Y-85576310D01*
X70385000Y-85285750D01*
X70226250Y-85127000D01*
X69625000Y-85127000D01*
X69375000Y-85127000D01*
X69375000Y-85127000D01*
X69353000Y-85127000D01*
X69353000Y-84873000D01*
X69375000Y-84873000D01*
X69375000Y-84073750D01*
X69625000Y-84073750D01*
X69625000Y-84873000D01*
X70226250Y-84873000D01*
X70385000Y-84714250D01*
X70385000Y-84423690D01*
X70288327Y-84190301D01*
X70109698Y-84011673D01*
X69876309Y-83915000D01*
X69783750Y-83915000D01*
X69625000Y-84073750D01*
X69375000Y-84073750D01*
X69375000Y-84073750D01*
X69216250Y-83915000D01*
X69123691Y-83915000D01*
X68890302Y-84011673D01*
X68748824Y-84153150D01*
X68710673Y-84095073D01*
X68499640Y-83952623D01*
X68250000Y-83902560D01*
X67750000Y-83902560D01*
X67507877Y-83949537D01*
X67295073Y-84089327D01*
X67193367Y-84240000D01*
X65564802Y-84240000D01*
X65037401Y-83712599D01*
X64790839Y-83547852D01*
X64500000Y-83490000D01*
X63750000Y-83490000D01*
X63459161Y-83547852D01*
X63212599Y-83712599D01*
X62712599Y-84212599D01*
X62547852Y-84459161D01*
X62528969Y-84554093D01*
X62396293Y-84641247D01*
X62253843Y-84852280D01*
X62203780Y-85101920D01*
X62203780Y-85899480D01*
X62250757Y-86141603D01*
X62321951Y-86249982D01*
X62253843Y-86350880D01*
X62203780Y-86600520D01*
X62203780Y-87398080D01*
X62250757Y-87640203D01*
X62390547Y-87853007D01*
X62490000Y-87920139D01*
X62490000Y-88000000D01*
X62547852Y-88290839D01*
X62712599Y-88537401D01*
X62959161Y-88702148D01*
X63250000Y-88760000D01*
X63261654Y-88760000D01*
X63057877Y-88799537D01*
X62845073Y-88939327D01*
X62781535Y-89033456D01*
X62761701Y-89037401D01*
X62709160Y-89047852D01*
X62462599Y-89212599D01*
X62002357Y-89672841D01*
X61837610Y-89919403D01*
X61779758Y-90210242D01*
X61779758Y-90622030D01*
X61751930Y-90761930D01*
X61185000Y-90761930D01*
X61185000Y-82685167D01*
X69314838Y-82685167D01*
X69456883Y-83028943D01*
X69719673Y-83292192D01*
X70063201Y-83434838D01*
X70110077Y-83434879D01*
X70740000Y-84064802D01*
X70740000Y-87150000D01*
X70797852Y-87440839D01*
X70962599Y-87687401D01*
X72062599Y-88787401D01*
X72309161Y-88952148D01*
X72597000Y-89009403D01*
X72396293Y-89141247D01*
X72253843Y-89352280D01*
X72203780Y-89601920D01*
X72203780Y-90399480D01*
X72250757Y-90641603D01*
X72321951Y-90749982D01*
X72253843Y-90850880D01*
X72203780Y-91100520D01*
X72203780Y-91898080D01*
X72250757Y-92140203D01*
X72390547Y-92353007D01*
X72601580Y-92495457D01*
X72851220Y-92545520D01*
X73648780Y-92545520D01*
X73840000Y-92508419D01*
X73840000Y-92933603D01*
X73757877Y-92949537D01*
X73545073Y-93089327D01*
X73501663Y-93153637D01*
X73359698Y-93011673D01*
X73126309Y-92915000D01*
X72685750Y-92915000D01*
X72527000Y-93073750D01*
X72527000Y-93873000D01*
X72547000Y-93873000D01*
X72547000Y-94127000D01*
X72527000Y-94127000D01*
X72527000Y-94926250D01*
X72685750Y-95085000D01*
X73126309Y-95085000D01*
X73359698Y-94988327D01*
X73501176Y-94846850D01*
X73539327Y-94904927D01*
X73750360Y-95047377D01*
X74000000Y-95097440D01*
X75200000Y-95097440D01*
X75442123Y-95050463D01*
X75654927Y-94910673D01*
X75797377Y-94699640D01*
X75847440Y-94450000D01*
X75847440Y-93550000D01*
X75800463Y-93307877D01*
X75660673Y-93095073D01*
X75449640Y-92952623D01*
X75360000Y-92934647D01*
X75360000Y-92100000D01*
X75302148Y-91809161D01*
X75137401Y-91562599D01*
X74536701Y-90961899D01*
X74290139Y-90797152D01*
X74196818Y-90778589D01*
X74185066Y-90760700D01*
X78543440Y-90760700D01*
X78549537Y-90792123D01*
X78689327Y-91004927D01*
X78900360Y-91147377D01*
X79150000Y-91197440D01*
X79850000Y-91197440D01*
X80092123Y-91150463D01*
X80304927Y-91010673D01*
X80447377Y-90799640D01*
X80497440Y-90550000D01*
X80497440Y-89550000D01*
X80450463Y-89307877D01*
X80310673Y-89095073D01*
X80099640Y-88952623D01*
X79850000Y-88902560D01*
X79150000Y-88902560D01*
X78907877Y-88949537D01*
X78695073Y-89089327D01*
X78592894Y-89240700D01*
X74171009Y-89240700D01*
X74109453Y-89146993D01*
X73906504Y-89010000D01*
X74750000Y-89010000D01*
X75040839Y-88952148D01*
X75287401Y-88787401D01*
X75597116Y-88477686D01*
X75700360Y-88547377D01*
X75950000Y-88597440D01*
X76650000Y-88597440D01*
X76892123Y-88550463D01*
X77104927Y-88410673D01*
X77247377Y-88199640D01*
X77249216Y-88190469D01*
X77249537Y-88192123D01*
X77389327Y-88404927D01*
X77600360Y-88547377D01*
X77850000Y-88597440D01*
X78550000Y-88597440D01*
X78792123Y-88550463D01*
X79004927Y-88410673D01*
X79004944Y-88410648D01*
X79063201Y-88434838D01*
X79435167Y-88435162D01*
X79778943Y-88293117D01*
X80042192Y-88030327D01*
X80184838Y-87686799D01*
X80185162Y-87314833D01*
X80043117Y-86971057D01*
X79780327Y-86707808D01*
X79436799Y-86565162D01*
X79064833Y-86564838D01*
X79058280Y-86567546D01*
X79010673Y-86495073D01*
X78799640Y-86352623D01*
X78550000Y-86302560D01*
X77850000Y-86302560D01*
X77607877Y-86349537D01*
X77395073Y-86489327D01*
X77252623Y-86700360D01*
X77250784Y-86709531D01*
X77250463Y-86707877D01*
X77110673Y-86495073D01*
X76899640Y-86352623D01*
X76650000Y-86302560D01*
X75950000Y-86302560D01*
X75773713Y-86336763D01*
X75798662Y-86211338D01*
X75798662Y-85276140D01*
X76064802Y-85010000D01*
X76252560Y-85010000D01*
X76252560Y-85550000D01*
X76299537Y-85792123D01*
X76439327Y-86004927D01*
X76650360Y-86147377D01*
X76900000Y-86197440D01*
X77600000Y-86197440D01*
X77842123Y-86150463D01*
X78054927Y-86010673D01*
X78197377Y-85799640D01*
X78247440Y-85550000D01*
X78247440Y-84550000D01*
X78200463Y-84307877D01*
X78060673Y-84095073D01*
X77849640Y-83952623D01*
X77759310Y-83934508D01*
X77537401Y-83712599D01*
X77290839Y-83547852D01*
X77000000Y-83490000D01*
X75750000Y-83490000D01*
X75459161Y-83547852D01*
X75212599Y-83712599D01*
X74501261Y-84423937D01*
X74336514Y-84670499D01*
X74296220Y-84873069D01*
X74296220Y-84101920D01*
X74249243Y-83859797D01*
X74109453Y-83646993D01*
X73970908Y-83553473D01*
X73952148Y-83459161D01*
X73787401Y-83212599D01*
X73422242Y-82847440D01*
X74000000Y-82847440D01*
X74242123Y-82800463D01*
X74454927Y-82660673D01*
X74498337Y-82596363D01*
X74640302Y-82738327D01*
X74873691Y-82835000D01*
X75314250Y-82835000D01*
X75473000Y-82676250D01*
X75473000Y-81877000D01*
X75727000Y-81877000D01*
X75727000Y-82676250D01*
X75885750Y-82835000D01*
X76326309Y-82835000D01*
X76559698Y-82738327D01*
X76738327Y-82559699D01*
X76835000Y-82326310D01*
X76835000Y-82035750D01*
X76676250Y-81877000D01*
X75727000Y-81877000D01*
X75473000Y-81877000D01*
X75473000Y-81877000D01*
X75453000Y-81877000D01*
X75453000Y-81623000D01*
X75473000Y-81623000D01*
X75473000Y-80823750D01*
X75727000Y-80823750D01*
X75727000Y-81623000D01*
X76676250Y-81623000D01*
X76835000Y-81464250D01*
X76835000Y-81173690D01*
X76738327Y-80940301D01*
X76559698Y-80761673D01*
X76326309Y-80665000D01*
X75885750Y-80665000D01*
X75727000Y-80823750D01*
X75473000Y-80823750D01*
X75473000Y-80823750D01*
X75314250Y-80665000D01*
X74873691Y-80665000D01*
X74640302Y-80761673D01*
X74498824Y-80903150D01*
X74460673Y-80845073D01*
X74249640Y-80702623D01*
X74000000Y-80652560D01*
X72800000Y-80652560D01*
X72557877Y-80699537D01*
X72345073Y-80839327D01*
X72202623Y-81050360D01*
X72202192Y-81052508D01*
X71962599Y-81212599D01*
X71712599Y-81462599D01*
X71547852Y-81709161D01*
X71490000Y-82000000D01*
X71490000Y-82665198D01*
X71185122Y-82360320D01*
X71185162Y-82314833D01*
X71043117Y-81971057D01*
X70780327Y-81707808D01*
X70436799Y-81565162D01*
X70064833Y-81564838D01*
X69721057Y-81706883D01*
X69457808Y-81969673D01*
X69315162Y-82313201D01*
X69314838Y-82685167D01*
X61185000Y-82685167D01*
X61185000Y-77035750D01*
X76240000Y-77035750D01*
X76240000Y-77276309D01*
X76336673Y-77509698D01*
X76515301Y-77688327D01*
X76748690Y-77785000D01*
X76964250Y-77785000D01*
X77123000Y-77626250D01*
X77123000Y-76877000D01*
X77377000Y-76877000D01*
X77377000Y-77626250D01*
X77535750Y-77785000D01*
X77751310Y-77785000D01*
X77984699Y-77688327D01*
X78163327Y-77509698D01*
X78260000Y-77276309D01*
X78260000Y-77035750D01*
X78101250Y-76877000D01*
X77377000Y-76877000D01*
X77123000Y-76877000D01*
X77123000Y-76877000D01*
X76398750Y-76877000D01*
X76240000Y-77035750D01*
X61185000Y-77035750D01*
X61185000Y-63300000D01*
X61902560Y-63300000D01*
X61902560Y-64200000D01*
X61949537Y-64442123D01*
X62089327Y-64654927D01*
X62300360Y-64797377D01*
X62550000Y-64847440D01*
X63750000Y-64847440D01*
X63992123Y-64800463D01*
X64204927Y-64660673D01*
X64248337Y-64596363D01*
X64390302Y-64738327D01*
X64623691Y-64835000D01*
X65064250Y-64835000D01*
X65223000Y-64676250D01*
X65223000Y-63877000D01*
X65477000Y-63877000D01*
X65477000Y-64676250D01*
X65635750Y-64835000D01*
X66076309Y-64835000D01*
X66309698Y-64738327D01*
X66488327Y-64559699D01*
X66585000Y-64326310D01*
X66585000Y-64035750D01*
X66426250Y-63877000D01*
X65477000Y-63877000D01*
X65223000Y-63877000D01*
X65223000Y-63877000D01*
X65203000Y-63877000D01*
X65203000Y-63623000D01*
X65223000Y-63623000D01*
X65223000Y-62823750D01*
X65477000Y-62823750D01*
X65477000Y-63623000D01*
X66426250Y-63623000D01*
X66585000Y-63464250D01*
X66585000Y-63173690D01*
X66488327Y-62940301D01*
X66309698Y-62761673D01*
X66076309Y-62665000D01*
X65635750Y-62665000D01*
X65477000Y-62823750D01*
X65223000Y-62823750D01*
X65223000Y-62823750D01*
X65064250Y-62665000D01*
X64623691Y-62665000D01*
X64390302Y-62761673D01*
X64248824Y-62903150D01*
X64210673Y-62845073D01*
X64010000Y-62709616D01*
X64010000Y-60920309D01*
X64103707Y-60858753D01*
X64246157Y-60647720D01*
X64296220Y-60398080D01*
X64296220Y-59600520D01*
X64249243Y-59358397D01*
X64178049Y-59250018D01*
X64246157Y-59149120D01*
X64296220Y-58899480D01*
X64296220Y-58549867D01*
X64784454Y-59038101D01*
X65031016Y-59202848D01*
X65321855Y-59260700D01*
X68435898Y-59260700D01*
X68990000Y-59814802D01*
X68990000Y-60559815D01*
X68945073Y-60589327D01*
X68802623Y-60800360D01*
X68752560Y-61050000D01*
X68752560Y-62050000D01*
X68799537Y-62292123D01*
X68939327Y-62504927D01*
X69150360Y-62647377D01*
X69400000Y-62697440D01*
X69940000Y-62697440D01*
X69940000Y-62959815D01*
X69895073Y-62989327D01*
X69752623Y-63200360D01*
X69750784Y-63209531D01*
X69750463Y-63207877D01*
X69610673Y-62995073D01*
X69399640Y-62852623D01*
X69150000Y-62802560D01*
X68450000Y-62802560D01*
X68207877Y-62849537D01*
X67995073Y-62989327D01*
X67852623Y-63200360D01*
X67802560Y-63450000D01*
X67802560Y-64450000D01*
X67849537Y-64692123D01*
X67989327Y-64904927D01*
X68040000Y-64939132D01*
X68040000Y-66300000D01*
X68097852Y-66590839D01*
X68262599Y-66837401D01*
X71615991Y-70190793D01*
X71565162Y-70313201D01*
X71564838Y-70685167D01*
X71706883Y-71028943D01*
X71969673Y-71292192D01*
X72313201Y-71434838D01*
X72685167Y-71435162D01*
X73028943Y-71293117D01*
X73292192Y-71030327D01*
X73434838Y-70686799D01*
X73435162Y-70314833D01*
X73293117Y-69971057D01*
X73244569Y-69922424D01*
X73218980Y-69793782D01*
X76490000Y-73064802D01*
X76490000Y-74343392D01*
X76420073Y-74389327D01*
X76277623Y-74600360D01*
X76227560Y-74850000D01*
X76227560Y-75650000D01*
X76274537Y-75892123D01*
X76338096Y-75988879D01*
X76336673Y-75990302D01*
X76240000Y-76223691D01*
X76240000Y-76464250D01*
X76398750Y-76623000D01*
X77123000Y-76623000D01*
X77123000Y-76603000D01*
X77377000Y-76603000D01*
X77377000Y-76623000D01*
X78101250Y-76623000D01*
X78260000Y-76464250D01*
X78260000Y-76223691D01*
X78163327Y-75990302D01*
X78162045Y-75989020D01*
X78222377Y-75899640D01*
X78272440Y-75650000D01*
X78272440Y-74850000D01*
X78254978Y-74760000D01*
X80261354Y-74760000D01*
X80282757Y-74811800D01*
X80452512Y-74981852D01*
X80377378Y-75056986D01*
X80492253Y-75171861D01*
X80246136Y-75245995D01*
X80053035Y-75783223D01*
X80080222Y-76353454D01*
X80246136Y-76754005D01*
X80492255Y-76828139D01*
X81320395Y-76000000D01*
X81306252Y-75985858D01*
X81485858Y-75806253D01*
X81500000Y-75820395D01*
X81514142Y-75806252D01*
X81693748Y-75985858D01*
X81679605Y-76000000D01*
X81693748Y-76014142D01*
X81514142Y-76193748D01*
X81500000Y-76179605D01*
X80671861Y-77007745D01*
X80745995Y-77253864D01*
X81283223Y-77446965D01*
X81853454Y-77419778D01*
X82254005Y-77253864D01*
X82328139Y-77007747D01*
X82443014Y-77122622D01*
X82490000Y-77075636D01*
X82490000Y-85750000D01*
X82547852Y-86040839D01*
X82564941Y-86066415D01*
X82564838Y-86185167D01*
X82706883Y-86528943D01*
X82740000Y-86562118D01*
X82740000Y-87937537D01*
X82707808Y-87969673D01*
X82565162Y-88313201D01*
X82564838Y-88685167D01*
X82706883Y-89028943D01*
X82740000Y-89062118D01*
X82740000Y-91585198D01*
X82635198Y-91690000D01*
X81388720Y-91690000D01*
X81260673Y-91495073D01*
X81049640Y-91352623D01*
X80800000Y-91302560D01*
X80100000Y-91302560D01*
X79857877Y-91349537D01*
X79645073Y-91489327D01*
X79502623Y-91700360D01*
X79500784Y-91709531D01*
X79500463Y-91707877D01*
X79360673Y-91495073D01*
X79149640Y-91352623D01*
X78900000Y-91302560D01*
X78200000Y-91302560D01*
X77957877Y-91349537D01*
X77745073Y-91489327D01*
X77602623Y-91700360D01*
X77552560Y-91950000D01*
X77552560Y-92950000D01*
X77599537Y-93192123D01*
X77739327Y-93404927D01*
X77790000Y-93439132D01*
X77790000Y-93800000D01*
X77847852Y-94090839D01*
X78012599Y-94337401D01*
X78962599Y-95287401D01*
X79209161Y-95452148D01*
X79500000Y-95510000D01*
X85500000Y-95510000D01*
X85790839Y-95452148D01*
X86037401Y-95287401D01*
X86974861Y-94349941D01*
X87139608Y-94103379D01*
X87197460Y-93812540D01*
X87197460Y-92528172D01*
X99582538Y-92528172D01*
X99987709Y-93508761D01*
X100737293Y-94259655D01*
X101717173Y-94666536D01*
X102778172Y-94667462D01*
X103758761Y-94262291D01*
X104509655Y-93512707D01*
X104916536Y-92532827D01*
X104917462Y-91471828D01*
X104512291Y-90491239D01*
X103762707Y-89740345D01*
X102782827Y-89333464D01*
X101721828Y-89332538D01*
X100741239Y-89737709D01*
X99990345Y-90487293D01*
X99583464Y-91467173D01*
X99582538Y-92528172D01*
X87197460Y-92528172D01*
X87197460Y-86185167D01*
X93814838Y-86185167D01*
X93956883Y-86528943D01*
X94219673Y-86792192D01*
X94563201Y-86934838D01*
X94610077Y-86934879D01*
X94962599Y-87287401D01*
X95209160Y-87452148D01*
X95500000Y-87510000D01*
X105685198Y-87510000D01*
X107462599Y-89287401D01*
X107709161Y-89452148D01*
X107922061Y-89494497D01*
X107969673Y-89542192D01*
X108313201Y-89684838D01*
X108685167Y-89685162D01*
X109028943Y-89543117D01*
X109062118Y-89510000D01*
X110325844Y-89510000D01*
X110514298Y-89698783D01*
X110857826Y-89841429D01*
X110904702Y-89841470D01*
X111035159Y-89971927D01*
X111281720Y-90136674D01*
X111572560Y-90194526D01*
X126519724Y-90194526D01*
X130862599Y-94537401D01*
X131109160Y-94702148D01*
X131400000Y-94760000D01*
X136187537Y-94760000D01*
X136219673Y-94792192D01*
X136563201Y-94934838D01*
X136935167Y-94935162D01*
X137278943Y-94793117D01*
X137312118Y-94760000D01*
X137468656Y-94760000D01*
X139496057Y-96787401D01*
X139742619Y-96952148D01*
X140033458Y-97010000D01*
X154500000Y-97010000D01*
X154790839Y-96952148D01*
X155037401Y-96787401D01*
X155202148Y-96540839D01*
X155260000Y-96250000D01*
X155260000Y-95510000D01*
X157437537Y-95510000D01*
X157469673Y-95542192D01*
X157813201Y-95684838D01*
X158185167Y-95685162D01*
X158528943Y-95543117D01*
X158562118Y-95510000D01*
X165937537Y-95510000D01*
X165969673Y-95542192D01*
X166313201Y-95684838D01*
X166685167Y-95685162D01*
X167028943Y-95543117D01*
X167062118Y-95510000D01*
X174687537Y-95510000D01*
X174719673Y-95542192D01*
X175063201Y-95684838D01*
X175183410Y-95684943D01*
X175209160Y-95702148D01*
X175500000Y-95760000D01*
X221033093Y-95760000D01*
X221065229Y-95792192D01*
X221408757Y-95934838D01*
X221780723Y-95935162D01*
X222124499Y-95793117D01*
X222157674Y-95760000D01*
X225687537Y-95760000D01*
X225719673Y-95792192D01*
X226063201Y-95934838D01*
X226110077Y-95934879D01*
X226962599Y-96787401D01*
X227209161Y-96952148D01*
X227500000Y-97010000D01*
X237250000Y-97010000D01*
X237540839Y-96952148D01*
X237787401Y-96787401D01*
X238389680Y-96185122D01*
X238435167Y-96185162D01*
X238778943Y-96043117D01*
X239042192Y-95780327D01*
X239184838Y-95436799D01*
X239185162Y-95064833D01*
X239043117Y-94721057D01*
X238780327Y-94457808D01*
X238436799Y-94315162D01*
X238064833Y-94314838D01*
X237721057Y-94456883D01*
X237457808Y-94719673D01*
X237315162Y-95063201D01*
X237315121Y-95110077D01*
X236935198Y-95490000D01*
X227814802Y-95490000D01*
X227185122Y-94860320D01*
X227185162Y-94814833D01*
X227043117Y-94471057D01*
X226780327Y-94207808D01*
X226436799Y-94065162D01*
X226064833Y-94064838D01*
X225721057Y-94206883D01*
X225687882Y-94240000D01*
X222158019Y-94240000D01*
X222125883Y-94207808D01*
X221782355Y-94065162D01*
X221410389Y-94064838D01*
X221066613Y-94206883D01*
X221033438Y-94240000D01*
X182713085Y-94240000D01*
X182713085Y-93953085D01*
X182655233Y-93662246D01*
X182490486Y-93415684D01*
X182287401Y-93212599D01*
X182040839Y-93047852D01*
X181941902Y-93028172D01*
X229582538Y-93028172D01*
X229987709Y-94008761D01*
X230737293Y-94759655D01*
X231717173Y-95166536D01*
X232778172Y-95167462D01*
X233758761Y-94762291D01*
X234509655Y-94012707D01*
X234916536Y-93032827D01*
X234917462Y-91971828D01*
X234512291Y-90991239D01*
X233762707Y-90240345D01*
X232782827Y-89833464D01*
X231721828Y-89832538D01*
X230741239Y-90237709D01*
X229990345Y-90987293D01*
X229583464Y-91967173D01*
X229582538Y-93028172D01*
X181941902Y-93028172D01*
X181750000Y-92990000D01*
X180406608Y-92990000D01*
X180360673Y-92920073D01*
X180149640Y-92777623D01*
X179900000Y-92727560D01*
X179100000Y-92727560D01*
X178857877Y-92774537D01*
X178761121Y-92838096D01*
X178759698Y-92836673D01*
X178526309Y-92740000D01*
X178285750Y-92740000D01*
X178127000Y-92898750D01*
X178127000Y-93623000D01*
X178147000Y-93623000D01*
X178147000Y-93877000D01*
X178127000Y-93877000D01*
X178127000Y-93897000D01*
X177873000Y-93897000D01*
X177873000Y-93877000D01*
X177123750Y-93877000D01*
X176965000Y-94035750D01*
X176965000Y-94240000D01*
X176050944Y-94240000D01*
X176043117Y-94221057D01*
X175780327Y-93957808D01*
X175436799Y-93815162D01*
X175064833Y-93814838D01*
X174721057Y-93956883D01*
X174687882Y-93990000D01*
X167062463Y-93990000D01*
X167030327Y-93957808D01*
X166686799Y-93815162D01*
X166314833Y-93814838D01*
X165971057Y-93956883D01*
X165937882Y-93990000D01*
X158562463Y-93990000D01*
X158530327Y-93957808D01*
X158186799Y-93815162D01*
X157814833Y-93814838D01*
X157471057Y-93956883D01*
X157437882Y-93990000D01*
X155404242Y-93990000D01*
X155293117Y-93721057D01*
X155030327Y-93457808D01*
X154686799Y-93315162D01*
X154314833Y-93314838D01*
X153971057Y-93456883D01*
X153707808Y-93719673D01*
X153565162Y-94063201D01*
X153564838Y-94435167D01*
X153706883Y-94778943D01*
X153740000Y-94812118D01*
X153740000Y-95490000D01*
X140348260Y-95490000D01*
X138320859Y-93462599D01*
X138074297Y-93297852D01*
X137783458Y-93240000D01*
X137312463Y-93240000D01*
X137280327Y-93207808D01*
X136936799Y-93065162D01*
X136564833Y-93064838D01*
X136221057Y-93206883D01*
X136187882Y-93240000D01*
X131714802Y-93240000D01*
X127371927Y-88897125D01*
X127125365Y-88732378D01*
X126834526Y-88674526D01*
X117767522Y-88674526D01*
X117772440Y-88650000D01*
X117772440Y-87850000D01*
X117725463Y-87607877D01*
X117661904Y-87511121D01*
X117663327Y-87509698D01*
X117760000Y-87276309D01*
X117760000Y-87035750D01*
X117601250Y-86877000D01*
X116877000Y-86877000D01*
X116877000Y-86897000D01*
X116623000Y-86897000D01*
X116623000Y-86877000D01*
X115898750Y-86877000D01*
X115740000Y-87035750D01*
X115740000Y-87276309D01*
X115836673Y-87509698D01*
X115837955Y-87510980D01*
X115777623Y-87600360D01*
X115727560Y-87850000D01*
X115727560Y-88650000D01*
X115732319Y-88674526D01*
X111960409Y-88674526D01*
X111837742Y-88377648D01*
X111574952Y-88114399D01*
X111231424Y-87971753D01*
X110859458Y-87971429D01*
X110814513Y-87990000D01*
X109062463Y-87990000D01*
X109030327Y-87957808D01*
X108686799Y-87815162D01*
X108314833Y-87814838D01*
X108190863Y-87866061D01*
X106548493Y-86223691D01*
X115740000Y-86223691D01*
X115740000Y-86464250D01*
X115898750Y-86623000D01*
X116623000Y-86623000D01*
X116623000Y-85873750D01*
X116877000Y-85873750D01*
X116877000Y-86623000D01*
X117601250Y-86623000D01*
X117760000Y-86464250D01*
X117760000Y-86223691D01*
X117663327Y-85990302D01*
X117484699Y-85811673D01*
X117251310Y-85715000D01*
X117035750Y-85715000D01*
X116877000Y-85873750D01*
X116623000Y-85873750D01*
X116623000Y-85873750D01*
X116464250Y-85715000D01*
X116248690Y-85715000D01*
X116015301Y-85811673D01*
X115836673Y-85990302D01*
X115740000Y-86223691D01*
X106548493Y-86223691D01*
X106537401Y-86212599D01*
X106290839Y-86047852D01*
X106000000Y-85990000D01*
X95814802Y-85990000D01*
X95685122Y-85860320D01*
X95685162Y-85814833D01*
X95543117Y-85471057D01*
X95280327Y-85207808D01*
X94936799Y-85065162D01*
X94564833Y-85064838D01*
X94221057Y-85206883D01*
X93957808Y-85469673D01*
X93815162Y-85813201D01*
X93814838Y-86185167D01*
X87197460Y-86185167D01*
X87197460Y-81685167D01*
X90314838Y-81685167D01*
X90456883Y-82028943D01*
X90719673Y-82292192D01*
X91063201Y-82434838D01*
X91435167Y-82435162D01*
X91778943Y-82293117D01*
X91812118Y-82260000D01*
X98685198Y-82260000D01*
X101712599Y-85287401D01*
X101959161Y-85452148D01*
X102250000Y-85510000D01*
X105687537Y-85510000D01*
X105719673Y-85542192D01*
X106063201Y-85684838D01*
X106435167Y-85685162D01*
X106778943Y-85543117D01*
X106812118Y-85510000D01*
X124935198Y-85510000D01*
X131962599Y-92537401D01*
X132209160Y-92702148D01*
X132500000Y-92760000D01*
X135937537Y-92760000D01*
X135969673Y-92792192D01*
X136313201Y-92934838D01*
X136685167Y-92935162D01*
X137028943Y-92793117D01*
X137062118Y-92760000D01*
X137250000Y-92760000D01*
X137540839Y-92702148D01*
X137787401Y-92537401D01*
X137796630Y-92528172D01*
X145332538Y-92528172D01*
X145737709Y-93508761D01*
X146487293Y-94259655D01*
X147467173Y-94666536D01*
X148528172Y-94667462D01*
X149508761Y-94262291D01*
X150259655Y-93512707D01*
X150369284Y-93248690D01*
X176965000Y-93248690D01*
X176965000Y-93464250D01*
X177123750Y-93623000D01*
X177873000Y-93623000D01*
X177873000Y-92898750D01*
X177714250Y-92740000D01*
X177473691Y-92740000D01*
X177240302Y-92836673D01*
X177061673Y-93015301D01*
X176965000Y-93248690D01*
X150369284Y-93248690D01*
X150666536Y-92532827D01*
X150667462Y-91471828D01*
X150262291Y-90491239D01*
X149512707Y-89740345D01*
X148532827Y-89333464D01*
X147471828Y-89332538D01*
X146491239Y-89737709D01*
X145740345Y-90487293D01*
X145333464Y-91467173D01*
X145332538Y-92528172D01*
X137796630Y-92528172D01*
X142314802Y-88010000D01*
X149185198Y-88010000D01*
X150712599Y-89537401D01*
X150959161Y-89702148D01*
X151250000Y-89760000D01*
X152437537Y-89760000D01*
X152469673Y-89792192D01*
X152813201Y-89934838D01*
X153185167Y-89935162D01*
X153528943Y-89793117D01*
X153562118Y-89760000D01*
X162685198Y-89760000D01*
X165212599Y-92287401D01*
X165459160Y-92452148D01*
X165672061Y-92494497D01*
X165719673Y-92542192D01*
X166063201Y-92684838D01*
X166435167Y-92685162D01*
X166778943Y-92543117D01*
X166812118Y-92510000D01*
X217000000Y-92510000D01*
X217290839Y-92452148D01*
X217537401Y-92287401D01*
X218690793Y-91134009D01*
X218813201Y-91184838D01*
X219185167Y-91185162D01*
X219528943Y-91043117D01*
X219577576Y-90994569D01*
X219790839Y-90952148D01*
X220037401Y-90787401D01*
X222564802Y-88260000D01*
X234435198Y-88260000D01*
X236564878Y-90389680D01*
X236564838Y-90435167D01*
X236706883Y-90778943D01*
X236969673Y-91042192D01*
X237313201Y-91184838D01*
X237685167Y-91185162D01*
X238028943Y-91043117D01*
X238292192Y-90780327D01*
X238367070Y-90600000D01*
X244977560Y-90600000D01*
X244977560Y-91400000D01*
X245024537Y-91642123D01*
X245164327Y-91854927D01*
X245240000Y-91906007D01*
X245240000Y-92187537D01*
X245207808Y-92219673D01*
X245065162Y-92563201D01*
X245064838Y-92935167D01*
X245206883Y-93278943D01*
X245469673Y-93542192D01*
X245813201Y-93684838D01*
X246185167Y-93685162D01*
X246528943Y-93543117D01*
X246792192Y-93280327D01*
X246934838Y-92936799D01*
X246935162Y-92564833D01*
X246793117Y-92221057D01*
X246760000Y-92187882D01*
X246760000Y-91906608D01*
X246829927Y-91860673D01*
X246972377Y-91649640D01*
X247022440Y-91400000D01*
X247022440Y-90600000D01*
X246975463Y-90357877D01*
X246911904Y-90261121D01*
X246913327Y-90259698D01*
X247010000Y-90026309D01*
X247010000Y-89785750D01*
X246851250Y-89627000D01*
X246127000Y-89627000D01*
X246127000Y-89647000D01*
X245873000Y-89647000D01*
X245873000Y-89627000D01*
X245148750Y-89627000D01*
X244990000Y-89785750D01*
X244990000Y-90026309D01*
X245086673Y-90259698D01*
X245087955Y-90260980D01*
X245027623Y-90350360D01*
X244977560Y-90600000D01*
X238367070Y-90600000D01*
X238434838Y-90436799D01*
X238435162Y-90064833D01*
X238293117Y-89721057D01*
X238030327Y-89457808D01*
X237686799Y-89315162D01*
X237639923Y-89315121D01*
X237471606Y-89146804D01*
X237563201Y-89184838D01*
X237935167Y-89185162D01*
X238278943Y-89043117D01*
X238348490Y-88973691D01*
X244990000Y-88973691D01*
X244990000Y-89214250D01*
X245148750Y-89373000D01*
X245873000Y-89373000D01*
X245873000Y-88623750D01*
X246127000Y-88623750D01*
X246127000Y-89373000D01*
X246851250Y-89373000D01*
X247010000Y-89214250D01*
X247010000Y-88973691D01*
X246913327Y-88740302D01*
X246734699Y-88561673D01*
X246501310Y-88465000D01*
X246285750Y-88465000D01*
X246127000Y-88623750D01*
X245873000Y-88623750D01*
X245873000Y-88623750D01*
X245714250Y-88465000D01*
X245498690Y-88465000D01*
X245265301Y-88561673D01*
X245086673Y-88740302D01*
X244990000Y-88973691D01*
X238348490Y-88973691D01*
X238542192Y-88780327D01*
X238684838Y-88436799D01*
X238685162Y-88064833D01*
X238543117Y-87721057D01*
X238494569Y-87672424D01*
X238452148Y-87459161D01*
X238287401Y-87212599D01*
X236037401Y-84962599D01*
X235790839Y-84797852D01*
X235600546Y-84760000D01*
X237685198Y-84760000D01*
X238314878Y-85389680D01*
X238314838Y-85435167D01*
X238456883Y-85778943D01*
X238719673Y-86042192D01*
X239063201Y-86184838D01*
X239435167Y-86185162D01*
X239778943Y-86043117D01*
X240042192Y-85780327D01*
X240184838Y-85436799D01*
X240185162Y-85064833D01*
X240043117Y-84721057D01*
X239780327Y-84457808D01*
X239436799Y-84315162D01*
X239389923Y-84315121D01*
X238537401Y-83462599D01*
X238290839Y-83297852D01*
X238000000Y-83240000D01*
X221750000Y-83240000D01*
X221459160Y-83297852D01*
X221212599Y-83462599D01*
X218860320Y-85814878D01*
X218814833Y-85814838D01*
X218471057Y-85956883D01*
X218437882Y-85990000D01*
X166064802Y-85990000D01*
X165787401Y-85712599D01*
X165540839Y-85547852D01*
X165250000Y-85490000D01*
X153312463Y-85490000D01*
X153280327Y-85457808D01*
X152936799Y-85315162D01*
X152639705Y-85314903D01*
X151787401Y-84462599D01*
X151540839Y-84297852D01*
X151250000Y-84240000D01*
X140000000Y-84240000D01*
X139709161Y-84297852D01*
X139462599Y-84462599D01*
X136860320Y-87064878D01*
X136814833Y-87064838D01*
X136471057Y-87206883D01*
X136437882Y-87240000D01*
X132314802Y-87240000D01*
X125037401Y-79962599D01*
X124790839Y-79797852D01*
X124500000Y-79740000D01*
X106812463Y-79740000D01*
X106780327Y-79707808D01*
X106436799Y-79565162D01*
X106064833Y-79564838D01*
X105721057Y-79706883D01*
X105687882Y-79740000D01*
X105564802Y-79740000D01*
X104287401Y-78462599D01*
X104040839Y-78297852D01*
X103750000Y-78240000D01*
X92062463Y-78240000D01*
X92030327Y-78207808D01*
X91686799Y-78065162D01*
X91314833Y-78064838D01*
X90971057Y-78206883D01*
X90707808Y-78469673D01*
X90565162Y-78813201D01*
X90564838Y-79185167D01*
X90706883Y-79528943D01*
X90802710Y-79624937D01*
X90707808Y-79719673D01*
X90565162Y-80063201D01*
X90564838Y-80435167D01*
X90689942Y-80737943D01*
X90457808Y-80969673D01*
X90315162Y-81313201D01*
X90314838Y-81685167D01*
X87197460Y-81685167D01*
X87197460Y-79562463D01*
X87229652Y-79530327D01*
X87372298Y-79186799D01*
X87372622Y-78814833D01*
X87230577Y-78471057D01*
X86967787Y-78207808D01*
X86624259Y-78065162D01*
X86252293Y-78064838D01*
X85908517Y-78206883D01*
X85645268Y-78469673D01*
X85510000Y-78795433D01*
X85510000Y-77216543D01*
X85696541Y-77030327D01*
X85839187Y-76686799D01*
X85839511Y-76314833D01*
X85697466Y-75971057D01*
X85434676Y-75707808D01*
X85269175Y-75639086D01*
X85500000Y-75685000D01*
X119000000Y-75685000D01*
X119262138Y-75632857D01*
X119484368Y-75484368D01*
X119632857Y-75262138D01*
X119685000Y-75000000D01*
X119685000Y-62000000D01*
X119632857Y-61737862D01*
X119484368Y-61515632D01*
X119262138Y-61367143D01*
X119000000Y-61315000D01*
X85500000Y-61315000D01*
X85237862Y-61367143D01*
X85015632Y-61515632D01*
X84867143Y-61737862D01*
X84815000Y-62000000D01*
X84815000Y-75000000D01*
X84867143Y-75262138D01*
X85015632Y-75484368D01*
X85211082Y-75614963D01*
X85091148Y-75565162D01*
X84719182Y-75564838D01*
X84375406Y-75706883D01*
X84112157Y-75969673D01*
X84010000Y-76215693D01*
X84010000Y-64889342D01*
X84042192Y-64857206D01*
X84184838Y-64513678D01*
X84185162Y-64141712D01*
X84043117Y-63797936D01*
X84010000Y-63764761D01*
X84010000Y-62314802D01*
X86314802Y-60010000D01*
X92196330Y-60010000D01*
X92723731Y-60537401D01*
X92970292Y-60702148D01*
X93261132Y-60760000D01*
X122435198Y-60760000D01*
X127962599Y-66287401D01*
X128209161Y-66452148D01*
X128500000Y-66510000D01*
X128586552Y-66510000D01*
X128586552Y-67591153D01*
X128457808Y-67719673D01*
X128315162Y-68063201D01*
X128314838Y-68435167D01*
X128456883Y-68778943D01*
X128719673Y-69042192D01*
X129063201Y-69184838D01*
X129435167Y-69185162D01*
X129778943Y-69043117D01*
X130042192Y-68780327D01*
X130184838Y-68436799D01*
X130185162Y-68064833D01*
X130106552Y-67874582D01*
X130106552Y-66510000D01*
X140189598Y-66510000D01*
X140994598Y-67315000D01*
X132500000Y-67315000D01*
X132237862Y-67367143D01*
X132015632Y-67515632D01*
X131867143Y-67737862D01*
X131815000Y-68000000D01*
X131815000Y-83000000D01*
X131867143Y-83262138D01*
X132015632Y-83484368D01*
X132237862Y-83632857D01*
X132500000Y-83685000D01*
X179500000Y-83685000D01*
X179762138Y-83632857D01*
X179984368Y-83484368D01*
X180132857Y-83262138D01*
X180185000Y-83000000D01*
X180185000Y-68000000D01*
X180132857Y-67737862D01*
X179984368Y-67515632D01*
X179762138Y-67367143D01*
X179500000Y-67315000D01*
X162009802Y-67315000D01*
X165064802Y-64260000D01*
X165937537Y-64260000D01*
X165969673Y-64292192D01*
X166313201Y-64434838D01*
X166685167Y-64435162D01*
X167028943Y-64293117D01*
X167062118Y-64260000D01*
X173954575Y-64260000D01*
X173986711Y-64292192D01*
X174330239Y-64434838D01*
X174702205Y-64435162D01*
X175045981Y-64293117D01*
X175079156Y-64260000D01*
X180736876Y-64260000D01*
X180736876Y-68996876D01*
X180794728Y-69287715D01*
X180814940Y-69317965D01*
X180814838Y-69435167D01*
X180956883Y-69778943D01*
X181219673Y-70042192D01*
X181563201Y-70184838D01*
X181935167Y-70185162D01*
X182278943Y-70043117D01*
X182542192Y-69780327D01*
X182684838Y-69436799D01*
X182685162Y-69064833D01*
X182543117Y-68721057D01*
X182280327Y-68457808D01*
X182256876Y-68448070D01*
X182256876Y-64260000D01*
X210472899Y-64260000D01*
X210472899Y-67954608D01*
X210457808Y-67969673D01*
X210315162Y-68313201D01*
X210314838Y-68685167D01*
X210456883Y-69028943D01*
X210719673Y-69292192D01*
X211063201Y-69434838D01*
X211435167Y-69435162D01*
X211778943Y-69293117D01*
X212042192Y-69030327D01*
X212184838Y-68686799D01*
X212185162Y-68314833D01*
X212043117Y-67971057D01*
X211992899Y-67920751D01*
X211992899Y-67000000D01*
X214815000Y-67000000D01*
X214815000Y-81000000D01*
X214867143Y-81262138D01*
X215015632Y-81484368D01*
X215237862Y-81632857D01*
X215500000Y-81685000D01*
X249500000Y-81685000D01*
X249762138Y-81632857D01*
X249984368Y-81484368D01*
X250132857Y-81262138D01*
X250185000Y-81000000D01*
X250185000Y-67000000D01*
X250132857Y-66737862D01*
X249984368Y-66515632D01*
X249762138Y-66367143D01*
X249500000Y-66315000D01*
X215500000Y-66315000D01*
X215237862Y-66367143D01*
X215015632Y-66515632D01*
X214867143Y-66737862D01*
X214815000Y-67000000D01*
X211992899Y-67000000D01*
X211992899Y-64260000D01*
X220942150Y-64260000D01*
X220974286Y-64292192D01*
X221317814Y-64434838D01*
X221689780Y-64435162D01*
X222033556Y-64293117D01*
X222066731Y-64260000D01*
X224710144Y-64260000D01*
X224742280Y-64292192D01*
X225085808Y-64434838D01*
X225132684Y-64434879D01*
X225735206Y-65037401D01*
X225981768Y-65202148D01*
X226272607Y-65260000D01*
X239675739Y-65260000D01*
X239966578Y-65202148D01*
X240213140Y-65037401D01*
X240815419Y-64435122D01*
X240860906Y-64435162D01*
X241204682Y-64293117D01*
X241237857Y-64260000D01*
X242687537Y-64260000D01*
X242719673Y-64292192D01*
X243063201Y-64434838D01*
X243435167Y-64435162D01*
X243778943Y-64293117D01*
X243812118Y-64260000D01*
X245213678Y-64260000D01*
X245504517Y-64202148D01*
X245751079Y-64037401D01*
X246037401Y-63751079D01*
X246202148Y-63504518D01*
X246224521Y-63392041D01*
X246260000Y-63213678D01*
X246260000Y-63156608D01*
X246329927Y-63110673D01*
X246472377Y-62899640D01*
X246522440Y-62650000D01*
X246522440Y-61850000D01*
X246475463Y-61607877D01*
X246411904Y-61511121D01*
X246413327Y-61509698D01*
X246510000Y-61276309D01*
X246510000Y-61035750D01*
X246351250Y-60877000D01*
X245627000Y-60877000D01*
X245627000Y-60897000D01*
X245373000Y-60897000D01*
X245373000Y-60877000D01*
X244648750Y-60877000D01*
X244490000Y-61035750D01*
X244490000Y-61276309D01*
X244586673Y-61509698D01*
X244587955Y-61510980D01*
X244527623Y-61600360D01*
X244477560Y-61850000D01*
X244477560Y-62650000D01*
X244495022Y-62740000D01*
X243812463Y-62740000D01*
X243780327Y-62707808D01*
X243436799Y-62565162D01*
X243064833Y-62564838D01*
X242721057Y-62706883D01*
X242687882Y-62740000D01*
X241238202Y-62740000D01*
X241206066Y-62707808D01*
X240862538Y-62565162D01*
X240490572Y-62564838D01*
X240146796Y-62706883D01*
X239883547Y-62969673D01*
X239740901Y-63313201D01*
X239740860Y-63360077D01*
X239360937Y-63740000D01*
X226587409Y-63740000D01*
X226207729Y-63360320D01*
X226207769Y-63314833D01*
X226065724Y-62971057D01*
X225802934Y-62707808D01*
X225459406Y-62565162D01*
X225087440Y-62564838D01*
X224743664Y-62706883D01*
X224710489Y-62740000D01*
X222067076Y-62740000D01*
X222034940Y-62707808D01*
X221691412Y-62565162D01*
X221319446Y-62564838D01*
X220975670Y-62706883D01*
X220942495Y-62740000D01*
X175079501Y-62740000D01*
X175047365Y-62707808D01*
X174703837Y-62565162D01*
X174331871Y-62564838D01*
X173988095Y-62706883D01*
X173954920Y-62740000D01*
X167062463Y-62740000D01*
X167030327Y-62707808D01*
X166686799Y-62565162D01*
X166314833Y-62564838D01*
X165971057Y-62706883D01*
X165937882Y-62740000D01*
X164750000Y-62740000D01*
X164459161Y-62797852D01*
X164212599Y-62962599D01*
X162286622Y-64888576D01*
X160934969Y-63536923D01*
X160935162Y-63314833D01*
X160793117Y-62971057D01*
X160530327Y-62707808D01*
X160186799Y-62565162D01*
X159814833Y-62564838D01*
X159471057Y-62706883D01*
X159207808Y-62969673D01*
X159065162Y-63313201D01*
X159064838Y-63685167D01*
X159206883Y-64028943D01*
X159469673Y-64292192D01*
X159591023Y-64342581D01*
X161211820Y-65963378D01*
X160935198Y-66240000D01*
X153260000Y-66240000D01*
X153260000Y-66062463D01*
X153292192Y-66030327D01*
X153434838Y-65686799D01*
X153435162Y-65314833D01*
X153293117Y-64971057D01*
X153030327Y-64707808D01*
X152686799Y-64565162D01*
X152314833Y-64564838D01*
X151971057Y-64706883D01*
X151707808Y-64969673D01*
X151565162Y-65313201D01*
X151564838Y-65685167D01*
X151706883Y-66028943D01*
X151740000Y-66062118D01*
X151740000Y-66240000D01*
X142069202Y-66240000D01*
X141311949Y-65482747D01*
X141434838Y-65186799D01*
X141435162Y-64814833D01*
X141293117Y-64471057D01*
X141030327Y-64207808D01*
X140686799Y-64065162D01*
X140314833Y-64064838D01*
X139971057Y-64206883D01*
X139707808Y-64469673D01*
X139565162Y-64813201D01*
X139565008Y-64990000D01*
X128814802Y-64990000D01*
X126352974Y-62528172D01*
X145332538Y-62528172D01*
X145737709Y-63508761D01*
X146487293Y-64259655D01*
X147467173Y-64666536D01*
X148528172Y-64667462D01*
X149508761Y-64262291D01*
X150259655Y-63512707D01*
X150666536Y-62532827D01*
X150667462Y-61471828D01*
X150262291Y-60491239D01*
X149512707Y-59740345D01*
X148532827Y-59333464D01*
X147471828Y-59332538D01*
X146491239Y-59737709D01*
X145740345Y-60487293D01*
X145333464Y-61467173D01*
X145332538Y-62528172D01*
X126352974Y-62528172D01*
X123287401Y-59462599D01*
X123040839Y-59297852D01*
X122750000Y-59240000D01*
X119504391Y-59240000D01*
X119522440Y-59150000D01*
X119522440Y-58350000D01*
X119475463Y-58107877D01*
X119411904Y-58011121D01*
X119413327Y-58009698D01*
X119510000Y-57776309D01*
X119510000Y-57535750D01*
X119351250Y-57377000D01*
X118627000Y-57377000D01*
X118627000Y-57397000D01*
X118373000Y-57397000D01*
X118373000Y-57377000D01*
X117648750Y-57377000D01*
X117490000Y-57535750D01*
X117490000Y-57776309D01*
X117586673Y-58009698D01*
X117587955Y-58010980D01*
X117527623Y-58100360D01*
X117477560Y-58350000D01*
X117477560Y-59150000D01*
X117495022Y-59240000D01*
X109912747Y-59240000D01*
X109934838Y-59186799D01*
X109935162Y-58814833D01*
X109793117Y-58471057D01*
X109530327Y-58207808D01*
X109186799Y-58065162D01*
X108814833Y-58064838D01*
X108471057Y-58206883D01*
X108207808Y-58469673D01*
X108065162Y-58813201D01*
X108065121Y-58860077D01*
X107795739Y-59129459D01*
X107721878Y-59240000D01*
X94185009Y-59240000D01*
X94185162Y-59064833D01*
X94043117Y-58721057D01*
X93780327Y-58457808D01*
X93436799Y-58315162D01*
X93064833Y-58314838D01*
X92721057Y-58456883D01*
X92658514Y-58519316D01*
X92511132Y-58490000D01*
X86000000Y-58490000D01*
X85709160Y-58547852D01*
X85462599Y-58712599D01*
X82712599Y-61462599D01*
X82547852Y-61709161D01*
X82490000Y-62000000D01*
X82490000Y-63764416D01*
X82457808Y-63796552D01*
X82315162Y-64140080D01*
X82314838Y-64512046D01*
X82456883Y-64855822D01*
X82490000Y-64888997D01*
X82490000Y-66960560D01*
X82313923Y-66784176D01*
X81786691Y-66565250D01*
X81360000Y-66564878D01*
X81360000Y-61964802D01*
X86802968Y-56521834D01*
X99614543Y-56521834D01*
X100014853Y-57490658D01*
X100755443Y-58232542D01*
X101723567Y-58634542D01*
X102771834Y-58635457D01*
X103740658Y-58235147D01*
X104482542Y-57494557D01*
X104802633Y-56723691D01*
X117490000Y-56723691D01*
X117490000Y-56964250D01*
X117648750Y-57123000D01*
X118373000Y-57123000D01*
X118373000Y-56373750D01*
X118627000Y-56373750D01*
X118627000Y-57123000D01*
X119351250Y-57123000D01*
X119510000Y-56964250D01*
X119510000Y-56723691D01*
X119413327Y-56490302D01*
X119234699Y-56311673D01*
X119001310Y-56215000D01*
X118785750Y-56215000D01*
X118627000Y-56373750D01*
X118373000Y-56373750D01*
X118373000Y-56373750D01*
X118214250Y-56215000D01*
X117998690Y-56215000D01*
X117765301Y-56311673D01*
X117586673Y-56490302D01*
X117490000Y-56723691D01*
X104802633Y-56723691D01*
X104884542Y-56526433D01*
X104885457Y-55478166D01*
X104485147Y-54509342D01*
X103744557Y-53767458D01*
X102776433Y-53365458D01*
X101728166Y-53364543D01*
X100759342Y-53764853D01*
X100017458Y-54505443D01*
X99615458Y-55473567D01*
X99614543Y-56521834D01*
X86802968Y-56521834D01*
X90287401Y-53037401D01*
X90292874Y-53029211D01*
X90312118Y-53010000D01*
X103935198Y-53010000D01*
X106462599Y-55537401D01*
X106709160Y-55702148D01*
X107000000Y-55760000D01*
X107437537Y-55760000D01*
X107469673Y-55792192D01*
X107813201Y-55934838D01*
X108185167Y-55935162D01*
X108528943Y-55793117D01*
X108562118Y-55760000D01*
X130435198Y-55760000D01*
X134462599Y-59787401D01*
X134709161Y-59952148D01*
X135000000Y-60010000D01*
X135687537Y-60010000D01*
X135719673Y-60042192D01*
X136063201Y-60184838D01*
X136435167Y-60185162D01*
X136778943Y-60043117D01*
X137042192Y-59780327D01*
X137184838Y-59436799D01*
X137184879Y-59389923D01*
X137814802Y-58760000D01*
X149435198Y-58760000D01*
X151240000Y-60564802D01*
X151240000Y-61000000D01*
X151297852Y-61290839D01*
X151462599Y-61537401D01*
X151564878Y-61639680D01*
X151564838Y-61685167D01*
X151706883Y-62028943D01*
X151969673Y-62292192D01*
X152313201Y-62434838D01*
X152433410Y-62434943D01*
X152459160Y-62452148D01*
X152750000Y-62510000D01*
X165500000Y-62510000D01*
X165790839Y-62452148D01*
X166037401Y-62287401D01*
X167139680Y-61185122D01*
X167185167Y-61185162D01*
X167528943Y-61043117D01*
X167562118Y-61010000D01*
X218750000Y-61010000D01*
X219040839Y-60952148D01*
X219287401Y-60787401D01*
X219389680Y-60685122D01*
X219435167Y-60685162D01*
X219778943Y-60543117D01*
X220042192Y-60280327D01*
X220043086Y-60278172D01*
X229582538Y-60278172D01*
X229987709Y-61258761D01*
X230737293Y-62009655D01*
X231717173Y-62416536D01*
X232778172Y-62417462D01*
X233758761Y-62012291D01*
X234509655Y-61262707D01*
X234916536Y-60282827D01*
X234916587Y-60223691D01*
X244490000Y-60223691D01*
X244490000Y-60464250D01*
X244648750Y-60623000D01*
X245373000Y-60623000D01*
X245373000Y-59873750D01*
X245627000Y-59873750D01*
X245627000Y-60623000D01*
X246351250Y-60623000D01*
X246510000Y-60464250D01*
X246510000Y-60223691D01*
X246413327Y-59990302D01*
X246234699Y-59811673D01*
X246001310Y-59715000D01*
X245785750Y-59715000D01*
X245627000Y-59873750D01*
X245373000Y-59873750D01*
X245373000Y-59873750D01*
X245214250Y-59715000D01*
X244998690Y-59715000D01*
X244765301Y-59811673D01*
X244586673Y-59990302D01*
X244490000Y-60223691D01*
X234916587Y-60223691D01*
X234917462Y-59221828D01*
X234512291Y-58241239D01*
X233762707Y-57490345D01*
X232782827Y-57083464D01*
X231721828Y-57082538D01*
X230741239Y-57487709D01*
X229990345Y-58237293D01*
X229583464Y-59217173D01*
X229582538Y-60278172D01*
X220043086Y-60278172D01*
X220184838Y-59936799D01*
X220184879Y-59889923D01*
X224314802Y-55760000D01*
X234185198Y-55760000D01*
X236314878Y-57889680D01*
X236314838Y-57935167D01*
X236456883Y-58278943D01*
X236719673Y-58542192D01*
X237063201Y-58684838D01*
X237435167Y-58685162D01*
X237778943Y-58543117D01*
X238042192Y-58280327D01*
X238184838Y-57936799D01*
X238185162Y-57564833D01*
X238043117Y-57221057D01*
X237780327Y-56957808D01*
X237436799Y-56815162D01*
X237389923Y-56815121D01*
X235037401Y-54462599D01*
X234790839Y-54297852D01*
X234600546Y-54260000D01*
X235185198Y-54260000D01*
X237064878Y-56139680D01*
X237064838Y-56185167D01*
X237206883Y-56528943D01*
X237469673Y-56792192D01*
X237813201Y-56934838D01*
X238185167Y-56935162D01*
X238528943Y-56793117D01*
X238792192Y-56530327D01*
X238934838Y-56186799D01*
X238935162Y-55814833D01*
X238793117Y-55471057D01*
X238530327Y-55207808D01*
X238186799Y-55065162D01*
X238139923Y-55065121D01*
X236037401Y-52962599D01*
X235790839Y-52797852D01*
X235600546Y-52760000D01*
X238937537Y-52760000D01*
X238969673Y-52792192D01*
X239313201Y-52934838D01*
X239685167Y-52935162D01*
X240028943Y-52793117D01*
X240292192Y-52530327D01*
X240434838Y-52186799D01*
X240435162Y-51814833D01*
X240293117Y-51471057D01*
X240030327Y-51207808D01*
X239686799Y-51065162D01*
X239314833Y-51064838D01*
X238971057Y-51206883D01*
X238937882Y-51240000D01*
X221750000Y-51240000D01*
X221459161Y-51297852D01*
X221212599Y-51462599D01*
X219110320Y-53564878D01*
X219064833Y-53564838D01*
X218721057Y-53706883D01*
X218457808Y-53969673D01*
X218315162Y-54313201D01*
X218315121Y-54360077D01*
X216435198Y-56240000D01*
X167312463Y-56240000D01*
X167280327Y-56207808D01*
X166936799Y-56065162D01*
X166564833Y-56064838D01*
X166221057Y-56206883D01*
X165957808Y-56469673D01*
X165815162Y-56813201D01*
X165815121Y-56860077D01*
X164435198Y-58240000D01*
X157064802Y-58240000D01*
X155435122Y-56610320D01*
X155435162Y-56564833D01*
X155293117Y-56221057D01*
X155030327Y-55957808D01*
X154686799Y-55815162D01*
X154639923Y-55815121D01*
X154037401Y-55212599D01*
X153790839Y-55047852D01*
X153500000Y-54990000D01*
X136750000Y-54990000D01*
X136459161Y-55047852D01*
X136257440Y-55182638D01*
X132787401Y-51712599D01*
X132540839Y-51547852D01*
X132250000Y-51490000D01*
X109062463Y-51490000D01*
X109030327Y-51457808D01*
X108686799Y-51315162D01*
X108639923Y-51315121D01*
X106537401Y-49212599D01*
X106290839Y-49047852D01*
X106000000Y-48990000D01*
X89812463Y-48990000D01*
X89780327Y-48957808D01*
X89436799Y-48815162D01*
X89064833Y-48814838D01*
X88721057Y-48956883D01*
X88457808Y-49219673D01*
X88315162Y-49563201D01*
X88314838Y-49935167D01*
X88440792Y-50240000D01*
X85600000Y-50240000D01*
X85361701Y-50287401D01*
X85309160Y-50297852D01*
X85257017Y-50332693D01*
X85147074Y-50332597D01*
X84803298Y-50474642D01*
X84540049Y-50737432D01*
X84397403Y-51080960D01*
X84397079Y-51452926D01*
X84539124Y-51796702D01*
X84801914Y-52059951D01*
X85145442Y-52202597D01*
X85517408Y-52202921D01*
X85861184Y-52060876D01*
X86124433Y-51798086D01*
X86140248Y-51760000D01*
X88941063Y-51760000D01*
X88815162Y-52063201D01*
X88814903Y-52360295D01*
X80697440Y-60477758D01*
X80697440Y-59950000D01*
X80650463Y-59707877D01*
X80538051Y-59536751D01*
X82537401Y-57537401D01*
X82702148Y-57290840D01*
X82760000Y-57000000D01*
X82760000Y-53653158D01*
X82897377Y-53449640D01*
X82947440Y-53200000D01*
X82947440Y-52200000D01*
X82900463Y-51957877D01*
X82760673Y-51745073D01*
X82549640Y-51602623D01*
X82300000Y-51552560D01*
X81600000Y-51552560D01*
X81357877Y-51599537D01*
X81145073Y-51739327D01*
X81002623Y-51950360D01*
X81000784Y-51959531D01*
X81000463Y-51957877D01*
X80860673Y-51745073D01*
X80649640Y-51602623D01*
X80400000Y-51552560D01*
X79700000Y-51552560D01*
X79457877Y-51599537D01*
X79245073Y-51739327D01*
X79102623Y-51950360D01*
X79052560Y-52200000D01*
X79052560Y-53200000D01*
X79099537Y-53442123D01*
X79239327Y-53654927D01*
X79290000Y-53689132D01*
X79290000Y-54800000D01*
X79347852Y-55090839D01*
X79512599Y-55337401D01*
X80064878Y-55889680D01*
X80064838Y-55935167D01*
X80206883Y-56278943D01*
X80469673Y-56542192D01*
X80813201Y-56684838D01*
X81185167Y-56685162D01*
X81240000Y-56662506D01*
X81240000Y-56685198D01*
X79747440Y-58177758D01*
X79747440Y-57550000D01*
X79700463Y-57307877D01*
X79560673Y-57095073D01*
X79349640Y-56952623D01*
X79259310Y-56934508D01*
X78787401Y-56462599D01*
X78540839Y-56297852D01*
X78250000Y-56240000D01*
X74750000Y-56240000D01*
X74459161Y-56297852D01*
X74212599Y-56462599D01*
X73712599Y-56962599D01*
X73547852Y-57209161D01*
X73490000Y-57500000D01*
X73490000Y-57579691D01*
X73396293Y-57641247D01*
X73253843Y-57852280D01*
X73203780Y-58101920D01*
X73203780Y-58899480D01*
X73250757Y-59141603D01*
X73321951Y-59249982D01*
X73253843Y-59350880D01*
X73203780Y-59600520D01*
X73203780Y-60398080D01*
X73250757Y-60640203D01*
X73390547Y-60853007D01*
X73490000Y-60920139D01*
X73490000Y-62494125D01*
X73345073Y-62589327D01*
X73202623Y-62800360D01*
X73152560Y-63050000D01*
X73152560Y-63950000D01*
X73199537Y-64192123D01*
X73339327Y-64404927D01*
X73550360Y-64547377D01*
X73800000Y-64597440D01*
X75000000Y-64597440D01*
X75242123Y-64550463D01*
X75454927Y-64410673D01*
X75498337Y-64346363D01*
X75640302Y-64488327D01*
X75873691Y-64585000D01*
X76314250Y-64585000D01*
X76473000Y-64426250D01*
X76473000Y-63627000D01*
X76727000Y-63627000D01*
X76727000Y-64426250D01*
X76885750Y-64585000D01*
X77326309Y-64585000D01*
X77559698Y-64488327D01*
X77738327Y-64309699D01*
X77835000Y-64076310D01*
X77835000Y-63785750D01*
X77676250Y-63627000D01*
X76727000Y-63627000D01*
X76473000Y-63627000D01*
X76473000Y-63627000D01*
X76453000Y-63627000D01*
X76453000Y-63373000D01*
X76473000Y-63373000D01*
X76473000Y-62573750D01*
X76314250Y-62415000D01*
X75873691Y-62415000D01*
X75640302Y-62511673D01*
X75498824Y-62653150D01*
X75460673Y-62595073D01*
X75249640Y-62452623D01*
X75010000Y-62404565D01*
X75010000Y-60920309D01*
X75103707Y-60858753D01*
X75246157Y-60647720D01*
X75296220Y-60398080D01*
X75296220Y-59600520D01*
X75249243Y-59358397D01*
X75178049Y-59250018D01*
X75246157Y-59149120D01*
X75296220Y-58899480D01*
X75296220Y-58101920D01*
X75249243Y-57859797D01*
X75183687Y-57760000D01*
X77752560Y-57760000D01*
X77752560Y-58550000D01*
X77799537Y-58792123D01*
X77939327Y-59004927D01*
X78150360Y-59147377D01*
X78400000Y-59197440D01*
X78960401Y-59197440D01*
X78940000Y-59300000D01*
X78940000Y-59459815D01*
X78895073Y-59489327D01*
X78752623Y-59700360D01*
X78750784Y-59709531D01*
X78750463Y-59707877D01*
X78610673Y-59495073D01*
X78399640Y-59352623D01*
X78150000Y-59302560D01*
X77450000Y-59302560D01*
X77207877Y-59349537D01*
X76995073Y-59489327D01*
X76852623Y-59700360D01*
X76802560Y-59950000D01*
X76802560Y-60950000D01*
X76831019Y-61096677D01*
X76707808Y-61219673D01*
X76565162Y-61563201D01*
X76564838Y-61935167D01*
X76706883Y-62278943D01*
X76864208Y-62436542D01*
X76727000Y-62573750D01*
X76727000Y-63373000D01*
X77676250Y-63373000D01*
X77835000Y-63214250D01*
X77835000Y-62923690D01*
X77738327Y-62690301D01*
X77719147Y-62671122D01*
X78028943Y-62543117D01*
X78292192Y-62280327D01*
X78434838Y-61936799D01*
X78434921Y-61841452D01*
X78502148Y-61740839D01*
X78560000Y-61450000D01*
X78560000Y-61440185D01*
X78604927Y-61410673D01*
X78747377Y-61199640D01*
X78749216Y-61190469D01*
X78749537Y-61192123D01*
X78889327Y-61404927D01*
X79100360Y-61547377D01*
X79350000Y-61597440D01*
X79850455Y-61597440D01*
X79840000Y-61650000D01*
X79840000Y-67100000D01*
X79897852Y-67390839D01*
X80062599Y-67637401D01*
X80086744Y-67661546D01*
X80065250Y-67713309D01*
X80064752Y-68284187D01*
X80282757Y-68811800D01*
X80470603Y-68999974D01*
X80284176Y-69186077D01*
X80065250Y-69713309D01*
X80064752Y-70284187D01*
X80282757Y-70811800D01*
X80470603Y-70999974D01*
X80284176Y-71186077D01*
X80065250Y-71713309D01*
X80064752Y-72284187D01*
X80282757Y-72811800D01*
X80470603Y-72999974D01*
X80284176Y-73186077D01*
X80261785Y-73240000D01*
X78010000Y-73240000D01*
X78010000Y-72750000D01*
X77952148Y-72459161D01*
X77952148Y-72459160D01*
X77787401Y-72212599D01*
X76259811Y-70685009D01*
X76435167Y-70685162D01*
X76778943Y-70543117D01*
X77042192Y-70280327D01*
X77184838Y-69936799D01*
X77185162Y-69564833D01*
X77043117Y-69221057D01*
X76780327Y-68957808D01*
X76436799Y-68815162D01*
X76389923Y-68815121D01*
X73010000Y-65435198D01*
X73010000Y-58000000D01*
X72952148Y-57709161D01*
X72787401Y-57462599D01*
X72287401Y-56962599D01*
X72040839Y-56797852D01*
X71750000Y-56740000D01*
X71162747Y-56740000D01*
X71184838Y-56686799D01*
X71185162Y-56314833D01*
X71043117Y-55971057D01*
X71010000Y-55937882D01*
X71010000Y-53500000D01*
X70952148Y-53209161D01*
X70952148Y-53209160D01*
X70787401Y-52962599D01*
X70697440Y-52872638D01*
X70697440Y-52450000D01*
X70650463Y-52207877D01*
X70510673Y-51995073D01*
X70299640Y-51852623D01*
X70050000Y-51802560D01*
X69350000Y-51802560D01*
X69107877Y-51849537D01*
X68895073Y-51989327D01*
X68752623Y-52200360D01*
X68750784Y-52209531D01*
X68750463Y-52207877D01*
X68610673Y-51995073D01*
X68399640Y-51852623D01*
X68150000Y-51802560D01*
X67450000Y-51802560D01*
X67207877Y-51849537D01*
X66995073Y-51989327D01*
X66852623Y-52200360D01*
X66802560Y-52450000D01*
X66802560Y-53450000D01*
X66849537Y-53692123D01*
X66989327Y-53904927D01*
X67040000Y-53939132D01*
X67040000Y-56300000D01*
X67097852Y-56590839D01*
X67262599Y-56837401D01*
X68165898Y-57740700D01*
X65636657Y-57740700D01*
X64858556Y-56962599D01*
X64611994Y-56797852D01*
X64321155Y-56740000D01*
X63250000Y-56740000D01*
X62959161Y-56797852D01*
X62712599Y-56962599D01*
X62547852Y-57209161D01*
X62490000Y-57500000D01*
X62490000Y-57579691D01*
X62396293Y-57641247D01*
X62253843Y-57852280D01*
X62203780Y-58101920D01*
X62203780Y-58899480D01*
X62250757Y-59141603D01*
X62321951Y-59249982D01*
X62253843Y-59350880D01*
X62203780Y-59600520D01*
X62203780Y-60398080D01*
X62250757Y-60640203D01*
X62390547Y-60853007D01*
X62490000Y-60920139D01*
X62490000Y-62664201D01*
X62307877Y-62699537D01*
X62095073Y-62839327D01*
X61952623Y-63050360D01*
X61902560Y-63300000D01*
X61185000Y-63300000D01*
X61185000Y-48685000D01*
X63253904Y-48685000D01*
X63212599Y-48712599D01*
M02*
